%TF.GenerationSoftware,KiCad,Pcbnew,9.0.2*%
%TF.CreationDate,2025-12-22T19:44:11+00:00*%
%TF.ProjectId,panel,70616e65-6c2e-46b6-9963-61645f706362,rev?*%
%TF.SameCoordinates,Original*%
%TF.FileFunction,Paste,Top*%
%TF.FilePolarity,Positive*%
%FSLAX46Y46*%
G04 Gerber Fmt 4.6, Leading zero omitted, Abs format (unit mm)*
G04 Created by KiCad (PCBNEW 9.0.2) date 2025-12-22 19:44:11*
%MOMM*%
%LPD*%
G01*
G04 APERTURE LIST*
G04 Aperture macros list*
%AMRoundRect*
0 Rectangle with rounded corners*
0 $1 Rounding radius*
0 $2 $3 $4 $5 $6 $7 $8 $9 X,Y pos of 4 corners*
0 Add a 4 corners polygon primitive as box body*
4,1,4,$2,$3,$4,$5,$6,$7,$8,$9,$2,$3,0*
0 Add four circle primitives for the rounded corners*
1,1,$1+$1,$2,$3*
1,1,$1+$1,$4,$5*
1,1,$1+$1,$6,$7*
1,1,$1+$1,$8,$9*
0 Add four rect primitives between the rounded corners*
20,1,$1+$1,$2,$3,$4,$5,0*
20,1,$1+$1,$4,$5,$6,$7,0*
20,1,$1+$1,$6,$7,$8,$9,0*
20,1,$1+$1,$8,$9,$2,$3,0*%
G04 Aperture macros list end*
%ADD10C,0.010000*%
%ADD11RoundRect,0.225000X0.225000X0.250000X-0.225000X0.250000X-0.225000X-0.250000X0.225000X-0.250000X0*%
%ADD12R,1.000000X2.000000*%
%ADD13RoundRect,0.225000X0.250000X-0.225000X0.250000X0.225000X-0.250000X0.225000X-0.250000X-0.225000X0*%
%ADD14RoundRect,0.050000X-0.250000X-0.075000X0.250000X-0.075000X0.250000X0.075000X-0.250000X0.075000X0*%
%ADD15RoundRect,0.050000X-0.400000X-0.075000X0.400000X-0.075000X0.400000X0.075000X-0.400000X0.075000X0*%
%ADD16RoundRect,0.200000X0.275000X-0.200000X0.275000X0.200000X-0.275000X0.200000X-0.275000X-0.200000X0*%
%ADD17RoundRect,0.200000X-0.200000X-0.275000X0.200000X-0.275000X0.200000X0.275000X-0.200000X0.275000X0*%
%ADD18RoundRect,0.200000X-0.275000X0.200000X-0.275000X-0.200000X0.275000X-0.200000X0.275000X0.200000X0*%
%ADD19RoundRect,0.200000X0.200000X0.275000X-0.200000X0.275000X-0.200000X-0.275000X0.200000X-0.275000X0*%
%ADD20RoundRect,0.225000X-0.250000X0.225000X-0.250000X-0.225000X0.250000X-0.225000X0.250000X0.225000X0*%
%ADD21R,1.700000X0.800000*%
%ADD22RoundRect,0.125000X-0.625000X-0.125000X0.625000X-0.125000X0.625000X0.125000X-0.625000X0.125000X0*%
%ADD23RoundRect,0.125000X-0.125000X-0.625000X0.125000X-0.625000X0.125000X0.625000X-0.125000X0.625000X0*%
G04 APERTURE END LIST*
D10*
%TO.C,U101*%
X157245500Y-38051500D02*
X157247500Y-38051500D01*
X157250500Y-38052500D01*
X157252500Y-38052500D01*
X157255500Y-38053500D01*
X157257500Y-38054500D01*
X157260500Y-38055500D01*
X157262500Y-38057500D01*
X157264500Y-38058500D01*
X157266500Y-38060500D01*
X157268500Y-38061500D01*
X157270500Y-38063500D01*
X157272500Y-38065500D01*
X157274500Y-38067500D01*
X157276500Y-38069500D01*
X157277500Y-38071500D01*
X157279500Y-38073500D01*
X157280500Y-38075500D01*
X157282500Y-38077500D01*
X157283500Y-38080500D01*
X157284500Y-38082500D01*
X157285500Y-38085500D01*
X157285500Y-38087500D01*
X157286500Y-38090500D01*
X157286500Y-38092500D01*
X157287500Y-38095500D01*
X157287500Y-38097500D01*
X157287500Y-38100500D01*
X157287500Y-38250500D01*
X157287500Y-38253500D01*
X157287500Y-38255500D01*
X157286500Y-38258500D01*
X157286500Y-38260500D01*
X157285500Y-38263500D01*
X157285500Y-38265500D01*
X157284500Y-38268500D01*
X157283500Y-38270500D01*
X157282500Y-38273500D01*
X157280500Y-38275500D01*
X157279500Y-38277500D01*
X157277500Y-38279500D01*
X157276500Y-38281500D01*
X157274500Y-38283500D01*
X157272500Y-38285500D01*
X157270500Y-38287500D01*
X157268500Y-38289500D01*
X157266500Y-38290500D01*
X157264500Y-38292500D01*
X157262500Y-38293500D01*
X157260500Y-38295500D01*
X157257500Y-38296500D01*
X157255500Y-38297500D01*
X157252500Y-38298500D01*
X157250500Y-38298500D01*
X157247500Y-38299500D01*
X157245500Y-38299500D01*
X157242500Y-38300500D01*
X157240500Y-38300500D01*
X157237500Y-38300500D01*
X156787500Y-38300500D01*
X156784500Y-38300500D01*
X156782500Y-38300500D01*
X156779500Y-38299500D01*
X156777500Y-38299500D01*
X156774500Y-38298500D01*
X156772500Y-38298500D01*
X156769500Y-38297500D01*
X156767500Y-38296500D01*
X156764500Y-38295500D01*
X156762500Y-38293500D01*
X156760500Y-38292500D01*
X156758500Y-38290500D01*
X156756500Y-38289500D01*
X156754500Y-38287500D01*
X156752500Y-38285500D01*
X156750500Y-38283500D01*
X156748500Y-38281500D01*
X156747500Y-38279500D01*
X156745500Y-38277500D01*
X156744500Y-38275500D01*
X156742500Y-38273500D01*
X156741500Y-38270500D01*
X156740500Y-38268500D01*
X156739500Y-38265500D01*
X156739500Y-38263500D01*
X156738500Y-38260500D01*
X156738500Y-38258500D01*
X156737500Y-38255500D01*
X156737500Y-38253500D01*
X156737500Y-38250500D01*
X156737500Y-38100500D01*
X156737500Y-38097500D01*
X156737500Y-38095500D01*
X156738500Y-38092500D01*
X156738500Y-38090500D01*
X156739500Y-38087500D01*
X156739500Y-38085500D01*
X156740500Y-38082500D01*
X156741500Y-38080500D01*
X156742500Y-38077500D01*
X156744500Y-38075500D01*
X156745500Y-38073500D01*
X156747500Y-38071500D01*
X156748500Y-38069500D01*
X156750500Y-38067500D01*
X156752500Y-38065500D01*
X156754500Y-38063500D01*
X156756500Y-38061500D01*
X156758500Y-38060500D01*
X156760500Y-38058500D01*
X156762500Y-38057500D01*
X156764500Y-38055500D01*
X156767500Y-38054500D01*
X156769500Y-38053500D01*
X156772500Y-38052500D01*
X156774500Y-38052500D01*
X156777500Y-38051500D01*
X156779500Y-38051500D01*
X156782500Y-38050500D01*
X156784500Y-38050500D01*
X156787500Y-38050500D01*
X157237500Y-38050500D01*
X157240500Y-38050500D01*
X157242500Y-38050500D01*
X157245500Y-38051500D01*
G36*
X157245500Y-38051500D02*
G01*
X157247500Y-38051500D01*
X157250500Y-38052500D01*
X157252500Y-38052500D01*
X157255500Y-38053500D01*
X157257500Y-38054500D01*
X157260500Y-38055500D01*
X157262500Y-38057500D01*
X157264500Y-38058500D01*
X157266500Y-38060500D01*
X157268500Y-38061500D01*
X157270500Y-38063500D01*
X157272500Y-38065500D01*
X157274500Y-38067500D01*
X157276500Y-38069500D01*
X157277500Y-38071500D01*
X157279500Y-38073500D01*
X157280500Y-38075500D01*
X157282500Y-38077500D01*
X157283500Y-38080500D01*
X157284500Y-38082500D01*
X157285500Y-38085500D01*
X157285500Y-38087500D01*
X157286500Y-38090500D01*
X157286500Y-38092500D01*
X157287500Y-38095500D01*
X157287500Y-38097500D01*
X157287500Y-38100500D01*
X157287500Y-38250500D01*
X157287500Y-38253500D01*
X157287500Y-38255500D01*
X157286500Y-38258500D01*
X157286500Y-38260500D01*
X157285500Y-38263500D01*
X157285500Y-38265500D01*
X157284500Y-38268500D01*
X157283500Y-38270500D01*
X157282500Y-38273500D01*
X157280500Y-38275500D01*
X157279500Y-38277500D01*
X157277500Y-38279500D01*
X157276500Y-38281500D01*
X157274500Y-38283500D01*
X157272500Y-38285500D01*
X157270500Y-38287500D01*
X157268500Y-38289500D01*
X157266500Y-38290500D01*
X157264500Y-38292500D01*
X157262500Y-38293500D01*
X157260500Y-38295500D01*
X157257500Y-38296500D01*
X157255500Y-38297500D01*
X157252500Y-38298500D01*
X157250500Y-38298500D01*
X157247500Y-38299500D01*
X157245500Y-38299500D01*
X157242500Y-38300500D01*
X157240500Y-38300500D01*
X157237500Y-38300500D01*
X156787500Y-38300500D01*
X156784500Y-38300500D01*
X156782500Y-38300500D01*
X156779500Y-38299500D01*
X156777500Y-38299500D01*
X156774500Y-38298500D01*
X156772500Y-38298500D01*
X156769500Y-38297500D01*
X156767500Y-38296500D01*
X156764500Y-38295500D01*
X156762500Y-38293500D01*
X156760500Y-38292500D01*
X156758500Y-38290500D01*
X156756500Y-38289500D01*
X156754500Y-38287500D01*
X156752500Y-38285500D01*
X156750500Y-38283500D01*
X156748500Y-38281500D01*
X156747500Y-38279500D01*
X156745500Y-38277500D01*
X156744500Y-38275500D01*
X156742500Y-38273500D01*
X156741500Y-38270500D01*
X156740500Y-38268500D01*
X156739500Y-38265500D01*
X156739500Y-38263500D01*
X156738500Y-38260500D01*
X156738500Y-38258500D01*
X156737500Y-38255500D01*
X156737500Y-38253500D01*
X156737500Y-38250500D01*
X156737500Y-38100500D01*
X156737500Y-38097500D01*
X156737500Y-38095500D01*
X156738500Y-38092500D01*
X156738500Y-38090500D01*
X156739500Y-38087500D01*
X156739500Y-38085500D01*
X156740500Y-38082500D01*
X156741500Y-38080500D01*
X156742500Y-38077500D01*
X156744500Y-38075500D01*
X156745500Y-38073500D01*
X156747500Y-38071500D01*
X156748500Y-38069500D01*
X156750500Y-38067500D01*
X156752500Y-38065500D01*
X156754500Y-38063500D01*
X156756500Y-38061500D01*
X156758500Y-38060500D01*
X156760500Y-38058500D01*
X156762500Y-38057500D01*
X156764500Y-38055500D01*
X156767500Y-38054500D01*
X156769500Y-38053500D01*
X156772500Y-38052500D01*
X156774500Y-38052500D01*
X156777500Y-38051500D01*
X156779500Y-38051500D01*
X156782500Y-38050500D01*
X156784500Y-38050500D01*
X156787500Y-38050500D01*
X157237500Y-38050500D01*
X157240500Y-38050500D01*
X157242500Y-38050500D01*
X157245500Y-38051500D01*
G37*
X157995500Y-38051500D02*
X157997500Y-38051500D01*
X158000500Y-38052500D01*
X158002500Y-38052500D01*
X158005500Y-38053500D01*
X158007500Y-38054500D01*
X158010500Y-38055500D01*
X158012500Y-38057500D01*
X158014500Y-38058500D01*
X158016500Y-38060500D01*
X158018500Y-38061500D01*
X158020500Y-38063500D01*
X158022500Y-38065500D01*
X158024500Y-38067500D01*
X158026500Y-38069500D01*
X158027500Y-38071500D01*
X158029500Y-38073500D01*
X158030500Y-38075500D01*
X158032500Y-38077500D01*
X158033500Y-38080500D01*
X158034500Y-38082500D01*
X158035500Y-38085500D01*
X158035500Y-38087500D01*
X158036500Y-38090500D01*
X158036500Y-38092500D01*
X158037500Y-38095500D01*
X158037500Y-38097500D01*
X158037500Y-38100500D01*
X158037500Y-38250500D01*
X158037500Y-38253500D01*
X158037500Y-38255500D01*
X158036500Y-38258500D01*
X158036500Y-38260500D01*
X158035500Y-38263500D01*
X158035500Y-38265500D01*
X158034500Y-38268500D01*
X158033500Y-38270500D01*
X158032500Y-38273500D01*
X158030500Y-38275500D01*
X158029500Y-38277500D01*
X158027500Y-38279500D01*
X158026500Y-38281500D01*
X158024500Y-38283500D01*
X158022500Y-38285500D01*
X158020500Y-38287500D01*
X158018500Y-38289500D01*
X158016500Y-38290500D01*
X158014500Y-38292500D01*
X158012500Y-38293500D01*
X158010500Y-38295500D01*
X158007500Y-38296500D01*
X158005500Y-38297500D01*
X158002500Y-38298500D01*
X158000500Y-38298500D01*
X157997500Y-38299500D01*
X157995500Y-38299500D01*
X157992500Y-38300500D01*
X157990500Y-38300500D01*
X157987500Y-38300500D01*
X157537500Y-38300500D01*
X157534500Y-38300500D01*
X157532500Y-38300500D01*
X157529500Y-38299500D01*
X157527500Y-38299500D01*
X157524500Y-38298500D01*
X157522500Y-38298500D01*
X157519500Y-38297500D01*
X157517500Y-38296500D01*
X157514500Y-38295500D01*
X157512500Y-38293500D01*
X157510500Y-38292500D01*
X157508500Y-38290500D01*
X157506500Y-38289500D01*
X157504500Y-38287500D01*
X157502500Y-38285500D01*
X157500500Y-38283500D01*
X157498500Y-38281500D01*
X157497500Y-38279500D01*
X157495500Y-38277500D01*
X157494500Y-38275500D01*
X157492500Y-38273500D01*
X157491500Y-38270500D01*
X157490500Y-38268500D01*
X157489500Y-38265500D01*
X157489500Y-38263500D01*
X157488500Y-38260500D01*
X157488500Y-38258500D01*
X157487500Y-38255500D01*
X157487500Y-38253500D01*
X157487500Y-38250500D01*
X157487500Y-38100500D01*
X157487500Y-38097500D01*
X157487500Y-38095500D01*
X157488500Y-38092500D01*
X157488500Y-38090500D01*
X157489500Y-38087500D01*
X157489500Y-38085500D01*
X157490500Y-38082500D01*
X157491500Y-38080500D01*
X157492500Y-38077500D01*
X157494500Y-38075500D01*
X157495500Y-38073500D01*
X157497500Y-38071500D01*
X157498500Y-38069500D01*
X157500500Y-38067500D01*
X157502500Y-38065500D01*
X157504500Y-38063500D01*
X157506500Y-38061500D01*
X157508500Y-38060500D01*
X157510500Y-38058500D01*
X157512500Y-38057500D01*
X157514500Y-38055500D01*
X157517500Y-38054500D01*
X157519500Y-38053500D01*
X157522500Y-38052500D01*
X157524500Y-38052500D01*
X157527500Y-38051500D01*
X157529500Y-38051500D01*
X157532500Y-38050500D01*
X157534500Y-38050500D01*
X157537500Y-38050500D01*
X157987500Y-38050500D01*
X157990500Y-38050500D01*
X157992500Y-38050500D01*
X157995500Y-38051500D01*
G36*
X157995500Y-38051500D02*
G01*
X157997500Y-38051500D01*
X158000500Y-38052500D01*
X158002500Y-38052500D01*
X158005500Y-38053500D01*
X158007500Y-38054500D01*
X158010500Y-38055500D01*
X158012500Y-38057500D01*
X158014500Y-38058500D01*
X158016500Y-38060500D01*
X158018500Y-38061500D01*
X158020500Y-38063500D01*
X158022500Y-38065500D01*
X158024500Y-38067500D01*
X158026500Y-38069500D01*
X158027500Y-38071500D01*
X158029500Y-38073500D01*
X158030500Y-38075500D01*
X158032500Y-38077500D01*
X158033500Y-38080500D01*
X158034500Y-38082500D01*
X158035500Y-38085500D01*
X158035500Y-38087500D01*
X158036500Y-38090500D01*
X158036500Y-38092500D01*
X158037500Y-38095500D01*
X158037500Y-38097500D01*
X158037500Y-38100500D01*
X158037500Y-38250500D01*
X158037500Y-38253500D01*
X158037500Y-38255500D01*
X158036500Y-38258500D01*
X158036500Y-38260500D01*
X158035500Y-38263500D01*
X158035500Y-38265500D01*
X158034500Y-38268500D01*
X158033500Y-38270500D01*
X158032500Y-38273500D01*
X158030500Y-38275500D01*
X158029500Y-38277500D01*
X158027500Y-38279500D01*
X158026500Y-38281500D01*
X158024500Y-38283500D01*
X158022500Y-38285500D01*
X158020500Y-38287500D01*
X158018500Y-38289500D01*
X158016500Y-38290500D01*
X158014500Y-38292500D01*
X158012500Y-38293500D01*
X158010500Y-38295500D01*
X158007500Y-38296500D01*
X158005500Y-38297500D01*
X158002500Y-38298500D01*
X158000500Y-38298500D01*
X157997500Y-38299500D01*
X157995500Y-38299500D01*
X157992500Y-38300500D01*
X157990500Y-38300500D01*
X157987500Y-38300500D01*
X157537500Y-38300500D01*
X157534500Y-38300500D01*
X157532500Y-38300500D01*
X157529500Y-38299500D01*
X157527500Y-38299500D01*
X157524500Y-38298500D01*
X157522500Y-38298500D01*
X157519500Y-38297500D01*
X157517500Y-38296500D01*
X157514500Y-38295500D01*
X157512500Y-38293500D01*
X157510500Y-38292500D01*
X157508500Y-38290500D01*
X157506500Y-38289500D01*
X157504500Y-38287500D01*
X157502500Y-38285500D01*
X157500500Y-38283500D01*
X157498500Y-38281500D01*
X157497500Y-38279500D01*
X157495500Y-38277500D01*
X157494500Y-38275500D01*
X157492500Y-38273500D01*
X157491500Y-38270500D01*
X157490500Y-38268500D01*
X157489500Y-38265500D01*
X157489500Y-38263500D01*
X157488500Y-38260500D01*
X157488500Y-38258500D01*
X157487500Y-38255500D01*
X157487500Y-38253500D01*
X157487500Y-38250500D01*
X157487500Y-38100500D01*
X157487500Y-38097500D01*
X157487500Y-38095500D01*
X157488500Y-38092500D01*
X157488500Y-38090500D01*
X157489500Y-38087500D01*
X157489500Y-38085500D01*
X157490500Y-38082500D01*
X157491500Y-38080500D01*
X157492500Y-38077500D01*
X157494500Y-38075500D01*
X157495500Y-38073500D01*
X157497500Y-38071500D01*
X157498500Y-38069500D01*
X157500500Y-38067500D01*
X157502500Y-38065500D01*
X157504500Y-38063500D01*
X157506500Y-38061500D01*
X157508500Y-38060500D01*
X157510500Y-38058500D01*
X157512500Y-38057500D01*
X157514500Y-38055500D01*
X157517500Y-38054500D01*
X157519500Y-38053500D01*
X157522500Y-38052500D01*
X157524500Y-38052500D01*
X157527500Y-38051500D01*
X157529500Y-38051500D01*
X157532500Y-38050500D01*
X157534500Y-38050500D01*
X157537500Y-38050500D01*
X157987500Y-38050500D01*
X157990500Y-38050500D01*
X157992500Y-38050500D01*
X157995500Y-38051500D01*
G37*
X157245500Y-136051500D02*
X157247500Y-136051500D01*
X157250500Y-136052500D01*
X157252500Y-136052500D01*
X157255500Y-136053500D01*
X157257500Y-136054500D01*
X157260500Y-136055500D01*
X157262500Y-136057500D01*
X157264500Y-136058500D01*
X157266500Y-136060500D01*
X157268500Y-136061500D01*
X157270500Y-136063500D01*
X157272500Y-136065500D01*
X157274500Y-136067500D01*
X157276500Y-136069500D01*
X157277500Y-136071500D01*
X157279500Y-136073500D01*
X157280500Y-136075500D01*
X157282500Y-136077500D01*
X157283500Y-136080500D01*
X157284500Y-136082500D01*
X157285500Y-136085500D01*
X157285500Y-136087500D01*
X157286500Y-136090500D01*
X157286500Y-136092500D01*
X157287500Y-136095500D01*
X157287500Y-136097500D01*
X157287500Y-136100500D01*
X157287500Y-136250500D01*
X157287500Y-136253500D01*
X157287500Y-136255500D01*
X157286500Y-136258500D01*
X157286500Y-136260500D01*
X157285500Y-136263500D01*
X157285500Y-136265500D01*
X157284500Y-136268500D01*
X157283500Y-136270500D01*
X157282500Y-136273500D01*
X157280500Y-136275500D01*
X157279500Y-136277500D01*
X157277500Y-136279500D01*
X157276500Y-136281500D01*
X157274500Y-136283500D01*
X157272500Y-136285500D01*
X157270500Y-136287500D01*
X157268500Y-136289500D01*
X157266500Y-136290500D01*
X157264500Y-136292500D01*
X157262500Y-136293500D01*
X157260500Y-136295500D01*
X157257500Y-136296500D01*
X157255500Y-136297500D01*
X157252500Y-136298500D01*
X157250500Y-136298500D01*
X157247500Y-136299500D01*
X157245500Y-136299500D01*
X157242500Y-136300500D01*
X157240500Y-136300500D01*
X157237500Y-136300500D01*
X156787500Y-136300500D01*
X156784500Y-136300500D01*
X156782500Y-136300500D01*
X156779500Y-136299500D01*
X156777500Y-136299500D01*
X156774500Y-136298500D01*
X156772500Y-136298500D01*
X156769500Y-136297500D01*
X156767500Y-136296500D01*
X156764500Y-136295500D01*
X156762500Y-136293500D01*
X156760500Y-136292500D01*
X156758500Y-136290500D01*
X156756500Y-136289500D01*
X156754500Y-136287500D01*
X156752500Y-136285500D01*
X156750500Y-136283500D01*
X156748500Y-136281500D01*
X156747500Y-136279500D01*
X156745500Y-136277500D01*
X156744500Y-136275500D01*
X156742500Y-136273500D01*
X156741500Y-136270500D01*
X156740500Y-136268500D01*
X156739500Y-136265500D01*
X156739500Y-136263500D01*
X156738500Y-136260500D01*
X156738500Y-136258500D01*
X156737500Y-136255500D01*
X156737500Y-136253500D01*
X156737500Y-136250500D01*
X156737500Y-136100500D01*
X156737500Y-136097500D01*
X156737500Y-136095500D01*
X156738500Y-136092500D01*
X156738500Y-136090500D01*
X156739500Y-136087500D01*
X156739500Y-136085500D01*
X156740500Y-136082500D01*
X156741500Y-136080500D01*
X156742500Y-136077500D01*
X156744500Y-136075500D01*
X156745500Y-136073500D01*
X156747500Y-136071500D01*
X156748500Y-136069500D01*
X156750500Y-136067500D01*
X156752500Y-136065500D01*
X156754500Y-136063500D01*
X156756500Y-136061500D01*
X156758500Y-136060500D01*
X156760500Y-136058500D01*
X156762500Y-136057500D01*
X156764500Y-136055500D01*
X156767500Y-136054500D01*
X156769500Y-136053500D01*
X156772500Y-136052500D01*
X156774500Y-136052500D01*
X156777500Y-136051500D01*
X156779500Y-136051500D01*
X156782500Y-136050500D01*
X156784500Y-136050500D01*
X156787500Y-136050500D01*
X157237500Y-136050500D01*
X157240500Y-136050500D01*
X157242500Y-136050500D01*
X157245500Y-136051500D01*
G36*
X157245500Y-136051500D02*
G01*
X157247500Y-136051500D01*
X157250500Y-136052500D01*
X157252500Y-136052500D01*
X157255500Y-136053500D01*
X157257500Y-136054500D01*
X157260500Y-136055500D01*
X157262500Y-136057500D01*
X157264500Y-136058500D01*
X157266500Y-136060500D01*
X157268500Y-136061500D01*
X157270500Y-136063500D01*
X157272500Y-136065500D01*
X157274500Y-136067500D01*
X157276500Y-136069500D01*
X157277500Y-136071500D01*
X157279500Y-136073500D01*
X157280500Y-136075500D01*
X157282500Y-136077500D01*
X157283500Y-136080500D01*
X157284500Y-136082500D01*
X157285500Y-136085500D01*
X157285500Y-136087500D01*
X157286500Y-136090500D01*
X157286500Y-136092500D01*
X157287500Y-136095500D01*
X157287500Y-136097500D01*
X157287500Y-136100500D01*
X157287500Y-136250500D01*
X157287500Y-136253500D01*
X157287500Y-136255500D01*
X157286500Y-136258500D01*
X157286500Y-136260500D01*
X157285500Y-136263500D01*
X157285500Y-136265500D01*
X157284500Y-136268500D01*
X157283500Y-136270500D01*
X157282500Y-136273500D01*
X157280500Y-136275500D01*
X157279500Y-136277500D01*
X157277500Y-136279500D01*
X157276500Y-136281500D01*
X157274500Y-136283500D01*
X157272500Y-136285500D01*
X157270500Y-136287500D01*
X157268500Y-136289500D01*
X157266500Y-136290500D01*
X157264500Y-136292500D01*
X157262500Y-136293500D01*
X157260500Y-136295500D01*
X157257500Y-136296500D01*
X157255500Y-136297500D01*
X157252500Y-136298500D01*
X157250500Y-136298500D01*
X157247500Y-136299500D01*
X157245500Y-136299500D01*
X157242500Y-136300500D01*
X157240500Y-136300500D01*
X157237500Y-136300500D01*
X156787500Y-136300500D01*
X156784500Y-136300500D01*
X156782500Y-136300500D01*
X156779500Y-136299500D01*
X156777500Y-136299500D01*
X156774500Y-136298500D01*
X156772500Y-136298500D01*
X156769500Y-136297500D01*
X156767500Y-136296500D01*
X156764500Y-136295500D01*
X156762500Y-136293500D01*
X156760500Y-136292500D01*
X156758500Y-136290500D01*
X156756500Y-136289500D01*
X156754500Y-136287500D01*
X156752500Y-136285500D01*
X156750500Y-136283500D01*
X156748500Y-136281500D01*
X156747500Y-136279500D01*
X156745500Y-136277500D01*
X156744500Y-136275500D01*
X156742500Y-136273500D01*
X156741500Y-136270500D01*
X156740500Y-136268500D01*
X156739500Y-136265500D01*
X156739500Y-136263500D01*
X156738500Y-136260500D01*
X156738500Y-136258500D01*
X156737500Y-136255500D01*
X156737500Y-136253500D01*
X156737500Y-136250500D01*
X156737500Y-136100500D01*
X156737500Y-136097500D01*
X156737500Y-136095500D01*
X156738500Y-136092500D01*
X156738500Y-136090500D01*
X156739500Y-136087500D01*
X156739500Y-136085500D01*
X156740500Y-136082500D01*
X156741500Y-136080500D01*
X156742500Y-136077500D01*
X156744500Y-136075500D01*
X156745500Y-136073500D01*
X156747500Y-136071500D01*
X156748500Y-136069500D01*
X156750500Y-136067500D01*
X156752500Y-136065500D01*
X156754500Y-136063500D01*
X156756500Y-136061500D01*
X156758500Y-136060500D01*
X156760500Y-136058500D01*
X156762500Y-136057500D01*
X156764500Y-136055500D01*
X156767500Y-136054500D01*
X156769500Y-136053500D01*
X156772500Y-136052500D01*
X156774500Y-136052500D01*
X156777500Y-136051500D01*
X156779500Y-136051500D01*
X156782500Y-136050500D01*
X156784500Y-136050500D01*
X156787500Y-136050500D01*
X157237500Y-136050500D01*
X157240500Y-136050500D01*
X157242500Y-136050500D01*
X157245500Y-136051500D01*
G37*
X157995500Y-136051500D02*
X157997500Y-136051500D01*
X158000500Y-136052500D01*
X158002500Y-136052500D01*
X158005500Y-136053500D01*
X158007500Y-136054500D01*
X158010500Y-136055500D01*
X158012500Y-136057500D01*
X158014500Y-136058500D01*
X158016500Y-136060500D01*
X158018500Y-136061500D01*
X158020500Y-136063500D01*
X158022500Y-136065500D01*
X158024500Y-136067500D01*
X158026500Y-136069500D01*
X158027500Y-136071500D01*
X158029500Y-136073500D01*
X158030500Y-136075500D01*
X158032500Y-136077500D01*
X158033500Y-136080500D01*
X158034500Y-136082500D01*
X158035500Y-136085500D01*
X158035500Y-136087500D01*
X158036500Y-136090500D01*
X158036500Y-136092500D01*
X158037500Y-136095500D01*
X158037500Y-136097500D01*
X158037500Y-136100500D01*
X158037500Y-136250500D01*
X158037500Y-136253500D01*
X158037500Y-136255500D01*
X158036500Y-136258500D01*
X158036500Y-136260500D01*
X158035500Y-136263500D01*
X158035500Y-136265500D01*
X158034500Y-136268500D01*
X158033500Y-136270500D01*
X158032500Y-136273500D01*
X158030500Y-136275500D01*
X158029500Y-136277500D01*
X158027500Y-136279500D01*
X158026500Y-136281500D01*
X158024500Y-136283500D01*
X158022500Y-136285500D01*
X158020500Y-136287500D01*
X158018500Y-136289500D01*
X158016500Y-136290500D01*
X158014500Y-136292500D01*
X158012500Y-136293500D01*
X158010500Y-136295500D01*
X158007500Y-136296500D01*
X158005500Y-136297500D01*
X158002500Y-136298500D01*
X158000500Y-136298500D01*
X157997500Y-136299500D01*
X157995500Y-136299500D01*
X157992500Y-136300500D01*
X157990500Y-136300500D01*
X157987500Y-136300500D01*
X157537500Y-136300500D01*
X157534500Y-136300500D01*
X157532500Y-136300500D01*
X157529500Y-136299500D01*
X157527500Y-136299500D01*
X157524500Y-136298500D01*
X157522500Y-136298500D01*
X157519500Y-136297500D01*
X157517500Y-136296500D01*
X157514500Y-136295500D01*
X157512500Y-136293500D01*
X157510500Y-136292500D01*
X157508500Y-136290500D01*
X157506500Y-136289500D01*
X157504500Y-136287500D01*
X157502500Y-136285500D01*
X157500500Y-136283500D01*
X157498500Y-136281500D01*
X157497500Y-136279500D01*
X157495500Y-136277500D01*
X157494500Y-136275500D01*
X157492500Y-136273500D01*
X157491500Y-136270500D01*
X157490500Y-136268500D01*
X157489500Y-136265500D01*
X157489500Y-136263500D01*
X157488500Y-136260500D01*
X157488500Y-136258500D01*
X157487500Y-136255500D01*
X157487500Y-136253500D01*
X157487500Y-136250500D01*
X157487500Y-136100500D01*
X157487500Y-136097500D01*
X157487500Y-136095500D01*
X157488500Y-136092500D01*
X157488500Y-136090500D01*
X157489500Y-136087500D01*
X157489500Y-136085500D01*
X157490500Y-136082500D01*
X157491500Y-136080500D01*
X157492500Y-136077500D01*
X157494500Y-136075500D01*
X157495500Y-136073500D01*
X157497500Y-136071500D01*
X157498500Y-136069500D01*
X157500500Y-136067500D01*
X157502500Y-136065500D01*
X157504500Y-136063500D01*
X157506500Y-136061500D01*
X157508500Y-136060500D01*
X157510500Y-136058500D01*
X157512500Y-136057500D01*
X157514500Y-136055500D01*
X157517500Y-136054500D01*
X157519500Y-136053500D01*
X157522500Y-136052500D01*
X157524500Y-136052500D01*
X157527500Y-136051500D01*
X157529500Y-136051500D01*
X157532500Y-136050500D01*
X157534500Y-136050500D01*
X157537500Y-136050500D01*
X157987500Y-136050500D01*
X157990500Y-136050500D01*
X157992500Y-136050500D01*
X157995500Y-136051500D01*
G36*
X157995500Y-136051500D02*
G01*
X157997500Y-136051500D01*
X158000500Y-136052500D01*
X158002500Y-136052500D01*
X158005500Y-136053500D01*
X158007500Y-136054500D01*
X158010500Y-136055500D01*
X158012500Y-136057500D01*
X158014500Y-136058500D01*
X158016500Y-136060500D01*
X158018500Y-136061500D01*
X158020500Y-136063500D01*
X158022500Y-136065500D01*
X158024500Y-136067500D01*
X158026500Y-136069500D01*
X158027500Y-136071500D01*
X158029500Y-136073500D01*
X158030500Y-136075500D01*
X158032500Y-136077500D01*
X158033500Y-136080500D01*
X158034500Y-136082500D01*
X158035500Y-136085500D01*
X158035500Y-136087500D01*
X158036500Y-136090500D01*
X158036500Y-136092500D01*
X158037500Y-136095500D01*
X158037500Y-136097500D01*
X158037500Y-136100500D01*
X158037500Y-136250500D01*
X158037500Y-136253500D01*
X158037500Y-136255500D01*
X158036500Y-136258500D01*
X158036500Y-136260500D01*
X158035500Y-136263500D01*
X158035500Y-136265500D01*
X158034500Y-136268500D01*
X158033500Y-136270500D01*
X158032500Y-136273500D01*
X158030500Y-136275500D01*
X158029500Y-136277500D01*
X158027500Y-136279500D01*
X158026500Y-136281500D01*
X158024500Y-136283500D01*
X158022500Y-136285500D01*
X158020500Y-136287500D01*
X158018500Y-136289500D01*
X158016500Y-136290500D01*
X158014500Y-136292500D01*
X158012500Y-136293500D01*
X158010500Y-136295500D01*
X158007500Y-136296500D01*
X158005500Y-136297500D01*
X158002500Y-136298500D01*
X158000500Y-136298500D01*
X157997500Y-136299500D01*
X157995500Y-136299500D01*
X157992500Y-136300500D01*
X157990500Y-136300500D01*
X157987500Y-136300500D01*
X157537500Y-136300500D01*
X157534500Y-136300500D01*
X157532500Y-136300500D01*
X157529500Y-136299500D01*
X157527500Y-136299500D01*
X157524500Y-136298500D01*
X157522500Y-136298500D01*
X157519500Y-136297500D01*
X157517500Y-136296500D01*
X157514500Y-136295500D01*
X157512500Y-136293500D01*
X157510500Y-136292500D01*
X157508500Y-136290500D01*
X157506500Y-136289500D01*
X157504500Y-136287500D01*
X157502500Y-136285500D01*
X157500500Y-136283500D01*
X157498500Y-136281500D01*
X157497500Y-136279500D01*
X157495500Y-136277500D01*
X157494500Y-136275500D01*
X157492500Y-136273500D01*
X157491500Y-136270500D01*
X157490500Y-136268500D01*
X157489500Y-136265500D01*
X157489500Y-136263500D01*
X157488500Y-136260500D01*
X157488500Y-136258500D01*
X157487500Y-136255500D01*
X157487500Y-136253500D01*
X157487500Y-136250500D01*
X157487500Y-136100500D01*
X157487500Y-136097500D01*
X157487500Y-136095500D01*
X157488500Y-136092500D01*
X157488500Y-136090500D01*
X157489500Y-136087500D01*
X157489500Y-136085500D01*
X157490500Y-136082500D01*
X157491500Y-136080500D01*
X157492500Y-136077500D01*
X157494500Y-136075500D01*
X157495500Y-136073500D01*
X157497500Y-136071500D01*
X157498500Y-136069500D01*
X157500500Y-136067500D01*
X157502500Y-136065500D01*
X157504500Y-136063500D01*
X157506500Y-136061500D01*
X157508500Y-136060500D01*
X157510500Y-136058500D01*
X157512500Y-136057500D01*
X157514500Y-136055500D01*
X157517500Y-136054500D01*
X157519500Y-136053500D01*
X157522500Y-136052500D01*
X157524500Y-136052500D01*
X157527500Y-136051500D01*
X157529500Y-136051500D01*
X157532500Y-136050500D01*
X157534500Y-136050500D01*
X157537500Y-136050500D01*
X157987500Y-136050500D01*
X157990500Y-136050500D01*
X157992500Y-136050500D01*
X157995500Y-136051500D01*
G37*
X112745500Y-136051500D02*
X112747500Y-136051500D01*
X112750500Y-136052500D01*
X112752500Y-136052500D01*
X112755500Y-136053500D01*
X112757500Y-136054500D01*
X112760500Y-136055500D01*
X112762500Y-136057500D01*
X112764500Y-136058500D01*
X112766500Y-136060500D01*
X112768500Y-136061500D01*
X112770500Y-136063500D01*
X112772500Y-136065500D01*
X112774500Y-136067500D01*
X112776500Y-136069500D01*
X112777500Y-136071500D01*
X112779500Y-136073500D01*
X112780500Y-136075500D01*
X112782500Y-136077500D01*
X112783500Y-136080500D01*
X112784500Y-136082500D01*
X112785500Y-136085500D01*
X112785500Y-136087500D01*
X112786500Y-136090500D01*
X112786500Y-136092500D01*
X112787500Y-136095500D01*
X112787500Y-136097500D01*
X112787500Y-136100500D01*
X112787500Y-136250500D01*
X112787500Y-136253500D01*
X112787500Y-136255500D01*
X112786500Y-136258500D01*
X112786500Y-136260500D01*
X112785500Y-136263500D01*
X112785500Y-136265500D01*
X112784500Y-136268500D01*
X112783500Y-136270500D01*
X112782500Y-136273500D01*
X112780500Y-136275500D01*
X112779500Y-136277500D01*
X112777500Y-136279500D01*
X112776500Y-136281500D01*
X112774500Y-136283500D01*
X112772500Y-136285500D01*
X112770500Y-136287500D01*
X112768500Y-136289500D01*
X112766500Y-136290500D01*
X112764500Y-136292500D01*
X112762500Y-136293500D01*
X112760500Y-136295500D01*
X112757500Y-136296500D01*
X112755500Y-136297500D01*
X112752500Y-136298500D01*
X112750500Y-136298500D01*
X112747500Y-136299500D01*
X112745500Y-136299500D01*
X112742500Y-136300500D01*
X112740500Y-136300500D01*
X112737500Y-136300500D01*
X112287500Y-136300500D01*
X112284500Y-136300500D01*
X112282500Y-136300500D01*
X112279500Y-136299500D01*
X112277500Y-136299500D01*
X112274500Y-136298500D01*
X112272500Y-136298500D01*
X112269500Y-136297500D01*
X112267500Y-136296500D01*
X112264500Y-136295500D01*
X112262500Y-136293500D01*
X112260500Y-136292500D01*
X112258500Y-136290500D01*
X112256500Y-136289500D01*
X112254500Y-136287500D01*
X112252500Y-136285500D01*
X112250500Y-136283500D01*
X112248500Y-136281500D01*
X112247500Y-136279500D01*
X112245500Y-136277500D01*
X112244500Y-136275500D01*
X112242500Y-136273500D01*
X112241500Y-136270500D01*
X112240500Y-136268500D01*
X112239500Y-136265500D01*
X112239500Y-136263500D01*
X112238500Y-136260500D01*
X112238500Y-136258500D01*
X112237500Y-136255500D01*
X112237500Y-136253500D01*
X112237500Y-136250500D01*
X112237500Y-136100500D01*
X112237500Y-136097500D01*
X112237500Y-136095500D01*
X112238500Y-136092500D01*
X112238500Y-136090500D01*
X112239500Y-136087500D01*
X112239500Y-136085500D01*
X112240500Y-136082500D01*
X112241500Y-136080500D01*
X112242500Y-136077500D01*
X112244500Y-136075500D01*
X112245500Y-136073500D01*
X112247500Y-136071500D01*
X112248500Y-136069500D01*
X112250500Y-136067500D01*
X112252500Y-136065500D01*
X112254500Y-136063500D01*
X112256500Y-136061500D01*
X112258500Y-136060500D01*
X112260500Y-136058500D01*
X112262500Y-136057500D01*
X112264500Y-136055500D01*
X112267500Y-136054500D01*
X112269500Y-136053500D01*
X112272500Y-136052500D01*
X112274500Y-136052500D01*
X112277500Y-136051500D01*
X112279500Y-136051500D01*
X112282500Y-136050500D01*
X112284500Y-136050500D01*
X112287500Y-136050500D01*
X112737500Y-136050500D01*
X112740500Y-136050500D01*
X112742500Y-136050500D01*
X112745500Y-136051500D01*
G36*
X112745500Y-136051500D02*
G01*
X112747500Y-136051500D01*
X112750500Y-136052500D01*
X112752500Y-136052500D01*
X112755500Y-136053500D01*
X112757500Y-136054500D01*
X112760500Y-136055500D01*
X112762500Y-136057500D01*
X112764500Y-136058500D01*
X112766500Y-136060500D01*
X112768500Y-136061500D01*
X112770500Y-136063500D01*
X112772500Y-136065500D01*
X112774500Y-136067500D01*
X112776500Y-136069500D01*
X112777500Y-136071500D01*
X112779500Y-136073500D01*
X112780500Y-136075500D01*
X112782500Y-136077500D01*
X112783500Y-136080500D01*
X112784500Y-136082500D01*
X112785500Y-136085500D01*
X112785500Y-136087500D01*
X112786500Y-136090500D01*
X112786500Y-136092500D01*
X112787500Y-136095500D01*
X112787500Y-136097500D01*
X112787500Y-136100500D01*
X112787500Y-136250500D01*
X112787500Y-136253500D01*
X112787500Y-136255500D01*
X112786500Y-136258500D01*
X112786500Y-136260500D01*
X112785500Y-136263500D01*
X112785500Y-136265500D01*
X112784500Y-136268500D01*
X112783500Y-136270500D01*
X112782500Y-136273500D01*
X112780500Y-136275500D01*
X112779500Y-136277500D01*
X112777500Y-136279500D01*
X112776500Y-136281500D01*
X112774500Y-136283500D01*
X112772500Y-136285500D01*
X112770500Y-136287500D01*
X112768500Y-136289500D01*
X112766500Y-136290500D01*
X112764500Y-136292500D01*
X112762500Y-136293500D01*
X112760500Y-136295500D01*
X112757500Y-136296500D01*
X112755500Y-136297500D01*
X112752500Y-136298500D01*
X112750500Y-136298500D01*
X112747500Y-136299500D01*
X112745500Y-136299500D01*
X112742500Y-136300500D01*
X112740500Y-136300500D01*
X112737500Y-136300500D01*
X112287500Y-136300500D01*
X112284500Y-136300500D01*
X112282500Y-136300500D01*
X112279500Y-136299500D01*
X112277500Y-136299500D01*
X112274500Y-136298500D01*
X112272500Y-136298500D01*
X112269500Y-136297500D01*
X112267500Y-136296500D01*
X112264500Y-136295500D01*
X112262500Y-136293500D01*
X112260500Y-136292500D01*
X112258500Y-136290500D01*
X112256500Y-136289500D01*
X112254500Y-136287500D01*
X112252500Y-136285500D01*
X112250500Y-136283500D01*
X112248500Y-136281500D01*
X112247500Y-136279500D01*
X112245500Y-136277500D01*
X112244500Y-136275500D01*
X112242500Y-136273500D01*
X112241500Y-136270500D01*
X112240500Y-136268500D01*
X112239500Y-136265500D01*
X112239500Y-136263500D01*
X112238500Y-136260500D01*
X112238500Y-136258500D01*
X112237500Y-136255500D01*
X112237500Y-136253500D01*
X112237500Y-136250500D01*
X112237500Y-136100500D01*
X112237500Y-136097500D01*
X112237500Y-136095500D01*
X112238500Y-136092500D01*
X112238500Y-136090500D01*
X112239500Y-136087500D01*
X112239500Y-136085500D01*
X112240500Y-136082500D01*
X112241500Y-136080500D01*
X112242500Y-136077500D01*
X112244500Y-136075500D01*
X112245500Y-136073500D01*
X112247500Y-136071500D01*
X112248500Y-136069500D01*
X112250500Y-136067500D01*
X112252500Y-136065500D01*
X112254500Y-136063500D01*
X112256500Y-136061500D01*
X112258500Y-136060500D01*
X112260500Y-136058500D01*
X112262500Y-136057500D01*
X112264500Y-136055500D01*
X112267500Y-136054500D01*
X112269500Y-136053500D01*
X112272500Y-136052500D01*
X112274500Y-136052500D01*
X112277500Y-136051500D01*
X112279500Y-136051500D01*
X112282500Y-136050500D01*
X112284500Y-136050500D01*
X112287500Y-136050500D01*
X112737500Y-136050500D01*
X112740500Y-136050500D01*
X112742500Y-136050500D01*
X112745500Y-136051500D01*
G37*
X113495500Y-136051500D02*
X113497500Y-136051500D01*
X113500500Y-136052500D01*
X113502500Y-136052500D01*
X113505500Y-136053500D01*
X113507500Y-136054500D01*
X113510500Y-136055500D01*
X113512500Y-136057500D01*
X113514500Y-136058500D01*
X113516500Y-136060500D01*
X113518500Y-136061500D01*
X113520500Y-136063500D01*
X113522500Y-136065500D01*
X113524500Y-136067500D01*
X113526500Y-136069500D01*
X113527500Y-136071500D01*
X113529500Y-136073500D01*
X113530500Y-136075500D01*
X113532500Y-136077500D01*
X113533500Y-136080500D01*
X113534500Y-136082500D01*
X113535500Y-136085500D01*
X113535500Y-136087500D01*
X113536500Y-136090500D01*
X113536500Y-136092500D01*
X113537500Y-136095500D01*
X113537500Y-136097500D01*
X113537500Y-136100500D01*
X113537500Y-136250500D01*
X113537500Y-136253500D01*
X113537500Y-136255500D01*
X113536500Y-136258500D01*
X113536500Y-136260500D01*
X113535500Y-136263500D01*
X113535500Y-136265500D01*
X113534500Y-136268500D01*
X113533500Y-136270500D01*
X113532500Y-136273500D01*
X113530500Y-136275500D01*
X113529500Y-136277500D01*
X113527500Y-136279500D01*
X113526500Y-136281500D01*
X113524500Y-136283500D01*
X113522500Y-136285500D01*
X113520500Y-136287500D01*
X113518500Y-136289500D01*
X113516500Y-136290500D01*
X113514500Y-136292500D01*
X113512500Y-136293500D01*
X113510500Y-136295500D01*
X113507500Y-136296500D01*
X113505500Y-136297500D01*
X113502500Y-136298500D01*
X113500500Y-136298500D01*
X113497500Y-136299500D01*
X113495500Y-136299500D01*
X113492500Y-136300500D01*
X113490500Y-136300500D01*
X113487500Y-136300500D01*
X113037500Y-136300500D01*
X113034500Y-136300500D01*
X113032500Y-136300500D01*
X113029500Y-136299500D01*
X113027500Y-136299500D01*
X113024500Y-136298500D01*
X113022500Y-136298500D01*
X113019500Y-136297500D01*
X113017500Y-136296500D01*
X113014500Y-136295500D01*
X113012500Y-136293500D01*
X113010500Y-136292500D01*
X113008500Y-136290500D01*
X113006500Y-136289500D01*
X113004500Y-136287500D01*
X113002500Y-136285500D01*
X113000500Y-136283500D01*
X112998500Y-136281500D01*
X112997500Y-136279500D01*
X112995500Y-136277500D01*
X112994500Y-136275500D01*
X112992500Y-136273500D01*
X112991500Y-136270500D01*
X112990500Y-136268500D01*
X112989500Y-136265500D01*
X112989500Y-136263500D01*
X112988500Y-136260500D01*
X112988500Y-136258500D01*
X112987500Y-136255500D01*
X112987500Y-136253500D01*
X112987500Y-136250500D01*
X112987500Y-136100500D01*
X112987500Y-136097500D01*
X112987500Y-136095500D01*
X112988500Y-136092500D01*
X112988500Y-136090500D01*
X112989500Y-136087500D01*
X112989500Y-136085500D01*
X112990500Y-136082500D01*
X112991500Y-136080500D01*
X112992500Y-136077500D01*
X112994500Y-136075500D01*
X112995500Y-136073500D01*
X112997500Y-136071500D01*
X112998500Y-136069500D01*
X113000500Y-136067500D01*
X113002500Y-136065500D01*
X113004500Y-136063500D01*
X113006500Y-136061500D01*
X113008500Y-136060500D01*
X113010500Y-136058500D01*
X113012500Y-136057500D01*
X113014500Y-136055500D01*
X113017500Y-136054500D01*
X113019500Y-136053500D01*
X113022500Y-136052500D01*
X113024500Y-136052500D01*
X113027500Y-136051500D01*
X113029500Y-136051500D01*
X113032500Y-136050500D01*
X113034500Y-136050500D01*
X113037500Y-136050500D01*
X113487500Y-136050500D01*
X113490500Y-136050500D01*
X113492500Y-136050500D01*
X113495500Y-136051500D01*
G36*
X113495500Y-136051500D02*
G01*
X113497500Y-136051500D01*
X113500500Y-136052500D01*
X113502500Y-136052500D01*
X113505500Y-136053500D01*
X113507500Y-136054500D01*
X113510500Y-136055500D01*
X113512500Y-136057500D01*
X113514500Y-136058500D01*
X113516500Y-136060500D01*
X113518500Y-136061500D01*
X113520500Y-136063500D01*
X113522500Y-136065500D01*
X113524500Y-136067500D01*
X113526500Y-136069500D01*
X113527500Y-136071500D01*
X113529500Y-136073500D01*
X113530500Y-136075500D01*
X113532500Y-136077500D01*
X113533500Y-136080500D01*
X113534500Y-136082500D01*
X113535500Y-136085500D01*
X113535500Y-136087500D01*
X113536500Y-136090500D01*
X113536500Y-136092500D01*
X113537500Y-136095500D01*
X113537500Y-136097500D01*
X113537500Y-136100500D01*
X113537500Y-136250500D01*
X113537500Y-136253500D01*
X113537500Y-136255500D01*
X113536500Y-136258500D01*
X113536500Y-136260500D01*
X113535500Y-136263500D01*
X113535500Y-136265500D01*
X113534500Y-136268500D01*
X113533500Y-136270500D01*
X113532500Y-136273500D01*
X113530500Y-136275500D01*
X113529500Y-136277500D01*
X113527500Y-136279500D01*
X113526500Y-136281500D01*
X113524500Y-136283500D01*
X113522500Y-136285500D01*
X113520500Y-136287500D01*
X113518500Y-136289500D01*
X113516500Y-136290500D01*
X113514500Y-136292500D01*
X113512500Y-136293500D01*
X113510500Y-136295500D01*
X113507500Y-136296500D01*
X113505500Y-136297500D01*
X113502500Y-136298500D01*
X113500500Y-136298500D01*
X113497500Y-136299500D01*
X113495500Y-136299500D01*
X113492500Y-136300500D01*
X113490500Y-136300500D01*
X113487500Y-136300500D01*
X113037500Y-136300500D01*
X113034500Y-136300500D01*
X113032500Y-136300500D01*
X113029500Y-136299500D01*
X113027500Y-136299500D01*
X113024500Y-136298500D01*
X113022500Y-136298500D01*
X113019500Y-136297500D01*
X113017500Y-136296500D01*
X113014500Y-136295500D01*
X113012500Y-136293500D01*
X113010500Y-136292500D01*
X113008500Y-136290500D01*
X113006500Y-136289500D01*
X113004500Y-136287500D01*
X113002500Y-136285500D01*
X113000500Y-136283500D01*
X112998500Y-136281500D01*
X112997500Y-136279500D01*
X112995500Y-136277500D01*
X112994500Y-136275500D01*
X112992500Y-136273500D01*
X112991500Y-136270500D01*
X112990500Y-136268500D01*
X112989500Y-136265500D01*
X112989500Y-136263500D01*
X112988500Y-136260500D01*
X112988500Y-136258500D01*
X112987500Y-136255500D01*
X112987500Y-136253500D01*
X112987500Y-136250500D01*
X112987500Y-136100500D01*
X112987500Y-136097500D01*
X112987500Y-136095500D01*
X112988500Y-136092500D01*
X112988500Y-136090500D01*
X112989500Y-136087500D01*
X112989500Y-136085500D01*
X112990500Y-136082500D01*
X112991500Y-136080500D01*
X112992500Y-136077500D01*
X112994500Y-136075500D01*
X112995500Y-136073500D01*
X112997500Y-136071500D01*
X112998500Y-136069500D01*
X113000500Y-136067500D01*
X113002500Y-136065500D01*
X113004500Y-136063500D01*
X113006500Y-136061500D01*
X113008500Y-136060500D01*
X113010500Y-136058500D01*
X113012500Y-136057500D01*
X113014500Y-136055500D01*
X113017500Y-136054500D01*
X113019500Y-136053500D01*
X113022500Y-136052500D01*
X113024500Y-136052500D01*
X113027500Y-136051500D01*
X113029500Y-136051500D01*
X113032500Y-136050500D01*
X113034500Y-136050500D01*
X113037500Y-136050500D01*
X113487500Y-136050500D01*
X113490500Y-136050500D01*
X113492500Y-136050500D01*
X113495500Y-136051500D01*
G37*
X68245500Y-87051500D02*
X68247500Y-87051500D01*
X68250500Y-87052500D01*
X68252500Y-87052500D01*
X68255500Y-87053500D01*
X68257500Y-87054500D01*
X68260500Y-87055500D01*
X68262500Y-87057500D01*
X68264500Y-87058500D01*
X68266500Y-87060500D01*
X68268500Y-87061500D01*
X68270500Y-87063500D01*
X68272500Y-87065500D01*
X68274500Y-87067500D01*
X68276500Y-87069500D01*
X68277500Y-87071500D01*
X68279500Y-87073500D01*
X68280500Y-87075500D01*
X68282500Y-87077500D01*
X68283500Y-87080500D01*
X68284500Y-87082500D01*
X68285500Y-87085500D01*
X68285500Y-87087500D01*
X68286500Y-87090500D01*
X68286500Y-87092500D01*
X68287500Y-87095500D01*
X68287500Y-87097500D01*
X68287500Y-87100500D01*
X68287500Y-87250500D01*
X68287500Y-87253500D01*
X68287500Y-87255500D01*
X68286500Y-87258500D01*
X68286500Y-87260500D01*
X68285500Y-87263500D01*
X68285500Y-87265500D01*
X68284500Y-87268500D01*
X68283500Y-87270500D01*
X68282500Y-87273500D01*
X68280500Y-87275500D01*
X68279500Y-87277500D01*
X68277500Y-87279500D01*
X68276500Y-87281500D01*
X68274500Y-87283500D01*
X68272500Y-87285500D01*
X68270500Y-87287500D01*
X68268500Y-87289500D01*
X68266500Y-87290500D01*
X68264500Y-87292500D01*
X68262500Y-87293500D01*
X68260500Y-87295500D01*
X68257500Y-87296500D01*
X68255500Y-87297500D01*
X68252500Y-87298500D01*
X68250500Y-87298500D01*
X68247500Y-87299500D01*
X68245500Y-87299500D01*
X68242500Y-87300500D01*
X68240500Y-87300500D01*
X68237500Y-87300500D01*
X67787500Y-87300500D01*
X67784500Y-87300500D01*
X67782500Y-87300500D01*
X67779500Y-87299500D01*
X67777500Y-87299500D01*
X67774500Y-87298500D01*
X67772500Y-87298500D01*
X67769500Y-87297500D01*
X67767500Y-87296500D01*
X67764500Y-87295500D01*
X67762500Y-87293500D01*
X67760500Y-87292500D01*
X67758500Y-87290500D01*
X67756500Y-87289500D01*
X67754500Y-87287500D01*
X67752500Y-87285500D01*
X67750500Y-87283500D01*
X67748500Y-87281500D01*
X67747500Y-87279500D01*
X67745500Y-87277500D01*
X67744500Y-87275500D01*
X67742500Y-87273500D01*
X67741500Y-87270500D01*
X67740500Y-87268500D01*
X67739500Y-87265500D01*
X67739500Y-87263500D01*
X67738500Y-87260500D01*
X67738500Y-87258500D01*
X67737500Y-87255500D01*
X67737500Y-87253500D01*
X67737500Y-87250500D01*
X67737500Y-87100500D01*
X67737500Y-87097500D01*
X67737500Y-87095500D01*
X67738500Y-87092500D01*
X67738500Y-87090500D01*
X67739500Y-87087500D01*
X67739500Y-87085500D01*
X67740500Y-87082500D01*
X67741500Y-87080500D01*
X67742500Y-87077500D01*
X67744500Y-87075500D01*
X67745500Y-87073500D01*
X67747500Y-87071500D01*
X67748500Y-87069500D01*
X67750500Y-87067500D01*
X67752500Y-87065500D01*
X67754500Y-87063500D01*
X67756500Y-87061500D01*
X67758500Y-87060500D01*
X67760500Y-87058500D01*
X67762500Y-87057500D01*
X67764500Y-87055500D01*
X67767500Y-87054500D01*
X67769500Y-87053500D01*
X67772500Y-87052500D01*
X67774500Y-87052500D01*
X67777500Y-87051500D01*
X67779500Y-87051500D01*
X67782500Y-87050500D01*
X67784500Y-87050500D01*
X67787500Y-87050500D01*
X68237500Y-87050500D01*
X68240500Y-87050500D01*
X68242500Y-87050500D01*
X68245500Y-87051500D01*
G36*
X68245500Y-87051500D02*
G01*
X68247500Y-87051500D01*
X68250500Y-87052500D01*
X68252500Y-87052500D01*
X68255500Y-87053500D01*
X68257500Y-87054500D01*
X68260500Y-87055500D01*
X68262500Y-87057500D01*
X68264500Y-87058500D01*
X68266500Y-87060500D01*
X68268500Y-87061500D01*
X68270500Y-87063500D01*
X68272500Y-87065500D01*
X68274500Y-87067500D01*
X68276500Y-87069500D01*
X68277500Y-87071500D01*
X68279500Y-87073500D01*
X68280500Y-87075500D01*
X68282500Y-87077500D01*
X68283500Y-87080500D01*
X68284500Y-87082500D01*
X68285500Y-87085500D01*
X68285500Y-87087500D01*
X68286500Y-87090500D01*
X68286500Y-87092500D01*
X68287500Y-87095500D01*
X68287500Y-87097500D01*
X68287500Y-87100500D01*
X68287500Y-87250500D01*
X68287500Y-87253500D01*
X68287500Y-87255500D01*
X68286500Y-87258500D01*
X68286500Y-87260500D01*
X68285500Y-87263500D01*
X68285500Y-87265500D01*
X68284500Y-87268500D01*
X68283500Y-87270500D01*
X68282500Y-87273500D01*
X68280500Y-87275500D01*
X68279500Y-87277500D01*
X68277500Y-87279500D01*
X68276500Y-87281500D01*
X68274500Y-87283500D01*
X68272500Y-87285500D01*
X68270500Y-87287500D01*
X68268500Y-87289500D01*
X68266500Y-87290500D01*
X68264500Y-87292500D01*
X68262500Y-87293500D01*
X68260500Y-87295500D01*
X68257500Y-87296500D01*
X68255500Y-87297500D01*
X68252500Y-87298500D01*
X68250500Y-87298500D01*
X68247500Y-87299500D01*
X68245500Y-87299500D01*
X68242500Y-87300500D01*
X68240500Y-87300500D01*
X68237500Y-87300500D01*
X67787500Y-87300500D01*
X67784500Y-87300500D01*
X67782500Y-87300500D01*
X67779500Y-87299500D01*
X67777500Y-87299500D01*
X67774500Y-87298500D01*
X67772500Y-87298500D01*
X67769500Y-87297500D01*
X67767500Y-87296500D01*
X67764500Y-87295500D01*
X67762500Y-87293500D01*
X67760500Y-87292500D01*
X67758500Y-87290500D01*
X67756500Y-87289500D01*
X67754500Y-87287500D01*
X67752500Y-87285500D01*
X67750500Y-87283500D01*
X67748500Y-87281500D01*
X67747500Y-87279500D01*
X67745500Y-87277500D01*
X67744500Y-87275500D01*
X67742500Y-87273500D01*
X67741500Y-87270500D01*
X67740500Y-87268500D01*
X67739500Y-87265500D01*
X67739500Y-87263500D01*
X67738500Y-87260500D01*
X67738500Y-87258500D01*
X67737500Y-87255500D01*
X67737500Y-87253500D01*
X67737500Y-87250500D01*
X67737500Y-87100500D01*
X67737500Y-87097500D01*
X67737500Y-87095500D01*
X67738500Y-87092500D01*
X67738500Y-87090500D01*
X67739500Y-87087500D01*
X67739500Y-87085500D01*
X67740500Y-87082500D01*
X67741500Y-87080500D01*
X67742500Y-87077500D01*
X67744500Y-87075500D01*
X67745500Y-87073500D01*
X67747500Y-87071500D01*
X67748500Y-87069500D01*
X67750500Y-87067500D01*
X67752500Y-87065500D01*
X67754500Y-87063500D01*
X67756500Y-87061500D01*
X67758500Y-87060500D01*
X67760500Y-87058500D01*
X67762500Y-87057500D01*
X67764500Y-87055500D01*
X67767500Y-87054500D01*
X67769500Y-87053500D01*
X67772500Y-87052500D01*
X67774500Y-87052500D01*
X67777500Y-87051500D01*
X67779500Y-87051500D01*
X67782500Y-87050500D01*
X67784500Y-87050500D01*
X67787500Y-87050500D01*
X68237500Y-87050500D01*
X68240500Y-87050500D01*
X68242500Y-87050500D01*
X68245500Y-87051500D01*
G37*
X68995500Y-87051500D02*
X68997500Y-87051500D01*
X69000500Y-87052500D01*
X69002500Y-87052500D01*
X69005500Y-87053500D01*
X69007500Y-87054500D01*
X69010500Y-87055500D01*
X69012500Y-87057500D01*
X69014500Y-87058500D01*
X69016500Y-87060500D01*
X69018500Y-87061500D01*
X69020500Y-87063500D01*
X69022500Y-87065500D01*
X69024500Y-87067500D01*
X69026500Y-87069500D01*
X69027500Y-87071500D01*
X69029500Y-87073500D01*
X69030500Y-87075500D01*
X69032500Y-87077500D01*
X69033500Y-87080500D01*
X69034500Y-87082500D01*
X69035500Y-87085500D01*
X69035500Y-87087500D01*
X69036500Y-87090500D01*
X69036500Y-87092500D01*
X69037500Y-87095500D01*
X69037500Y-87097500D01*
X69037500Y-87100500D01*
X69037500Y-87250500D01*
X69037500Y-87253500D01*
X69037500Y-87255500D01*
X69036500Y-87258500D01*
X69036500Y-87260500D01*
X69035500Y-87263500D01*
X69035500Y-87265500D01*
X69034500Y-87268500D01*
X69033500Y-87270500D01*
X69032500Y-87273500D01*
X69030500Y-87275500D01*
X69029500Y-87277500D01*
X69027500Y-87279500D01*
X69026500Y-87281500D01*
X69024500Y-87283500D01*
X69022500Y-87285500D01*
X69020500Y-87287500D01*
X69018500Y-87289500D01*
X69016500Y-87290500D01*
X69014500Y-87292500D01*
X69012500Y-87293500D01*
X69010500Y-87295500D01*
X69007500Y-87296500D01*
X69005500Y-87297500D01*
X69002500Y-87298500D01*
X69000500Y-87298500D01*
X68997500Y-87299500D01*
X68995500Y-87299500D01*
X68992500Y-87300500D01*
X68990500Y-87300500D01*
X68987500Y-87300500D01*
X68537500Y-87300500D01*
X68534500Y-87300500D01*
X68532500Y-87300500D01*
X68529500Y-87299500D01*
X68527500Y-87299500D01*
X68524500Y-87298500D01*
X68522500Y-87298500D01*
X68519500Y-87297500D01*
X68517500Y-87296500D01*
X68514500Y-87295500D01*
X68512500Y-87293500D01*
X68510500Y-87292500D01*
X68508500Y-87290500D01*
X68506500Y-87289500D01*
X68504500Y-87287500D01*
X68502500Y-87285500D01*
X68500500Y-87283500D01*
X68498500Y-87281500D01*
X68497500Y-87279500D01*
X68495500Y-87277500D01*
X68494500Y-87275500D01*
X68492500Y-87273500D01*
X68491500Y-87270500D01*
X68490500Y-87268500D01*
X68489500Y-87265500D01*
X68489500Y-87263500D01*
X68488500Y-87260500D01*
X68488500Y-87258500D01*
X68487500Y-87255500D01*
X68487500Y-87253500D01*
X68487500Y-87250500D01*
X68487500Y-87100500D01*
X68487500Y-87097500D01*
X68487500Y-87095500D01*
X68488500Y-87092500D01*
X68488500Y-87090500D01*
X68489500Y-87087500D01*
X68489500Y-87085500D01*
X68490500Y-87082500D01*
X68491500Y-87080500D01*
X68492500Y-87077500D01*
X68494500Y-87075500D01*
X68495500Y-87073500D01*
X68497500Y-87071500D01*
X68498500Y-87069500D01*
X68500500Y-87067500D01*
X68502500Y-87065500D01*
X68504500Y-87063500D01*
X68506500Y-87061500D01*
X68508500Y-87060500D01*
X68510500Y-87058500D01*
X68512500Y-87057500D01*
X68514500Y-87055500D01*
X68517500Y-87054500D01*
X68519500Y-87053500D01*
X68522500Y-87052500D01*
X68524500Y-87052500D01*
X68527500Y-87051500D01*
X68529500Y-87051500D01*
X68532500Y-87050500D01*
X68534500Y-87050500D01*
X68537500Y-87050500D01*
X68987500Y-87050500D01*
X68990500Y-87050500D01*
X68992500Y-87050500D01*
X68995500Y-87051500D01*
G36*
X68995500Y-87051500D02*
G01*
X68997500Y-87051500D01*
X69000500Y-87052500D01*
X69002500Y-87052500D01*
X69005500Y-87053500D01*
X69007500Y-87054500D01*
X69010500Y-87055500D01*
X69012500Y-87057500D01*
X69014500Y-87058500D01*
X69016500Y-87060500D01*
X69018500Y-87061500D01*
X69020500Y-87063500D01*
X69022500Y-87065500D01*
X69024500Y-87067500D01*
X69026500Y-87069500D01*
X69027500Y-87071500D01*
X69029500Y-87073500D01*
X69030500Y-87075500D01*
X69032500Y-87077500D01*
X69033500Y-87080500D01*
X69034500Y-87082500D01*
X69035500Y-87085500D01*
X69035500Y-87087500D01*
X69036500Y-87090500D01*
X69036500Y-87092500D01*
X69037500Y-87095500D01*
X69037500Y-87097500D01*
X69037500Y-87100500D01*
X69037500Y-87250500D01*
X69037500Y-87253500D01*
X69037500Y-87255500D01*
X69036500Y-87258500D01*
X69036500Y-87260500D01*
X69035500Y-87263500D01*
X69035500Y-87265500D01*
X69034500Y-87268500D01*
X69033500Y-87270500D01*
X69032500Y-87273500D01*
X69030500Y-87275500D01*
X69029500Y-87277500D01*
X69027500Y-87279500D01*
X69026500Y-87281500D01*
X69024500Y-87283500D01*
X69022500Y-87285500D01*
X69020500Y-87287500D01*
X69018500Y-87289500D01*
X69016500Y-87290500D01*
X69014500Y-87292500D01*
X69012500Y-87293500D01*
X69010500Y-87295500D01*
X69007500Y-87296500D01*
X69005500Y-87297500D01*
X69002500Y-87298500D01*
X69000500Y-87298500D01*
X68997500Y-87299500D01*
X68995500Y-87299500D01*
X68992500Y-87300500D01*
X68990500Y-87300500D01*
X68987500Y-87300500D01*
X68537500Y-87300500D01*
X68534500Y-87300500D01*
X68532500Y-87300500D01*
X68529500Y-87299500D01*
X68527500Y-87299500D01*
X68524500Y-87298500D01*
X68522500Y-87298500D01*
X68519500Y-87297500D01*
X68517500Y-87296500D01*
X68514500Y-87295500D01*
X68512500Y-87293500D01*
X68510500Y-87292500D01*
X68508500Y-87290500D01*
X68506500Y-87289500D01*
X68504500Y-87287500D01*
X68502500Y-87285500D01*
X68500500Y-87283500D01*
X68498500Y-87281500D01*
X68497500Y-87279500D01*
X68495500Y-87277500D01*
X68494500Y-87275500D01*
X68492500Y-87273500D01*
X68491500Y-87270500D01*
X68490500Y-87268500D01*
X68489500Y-87265500D01*
X68489500Y-87263500D01*
X68488500Y-87260500D01*
X68488500Y-87258500D01*
X68487500Y-87255500D01*
X68487500Y-87253500D01*
X68487500Y-87250500D01*
X68487500Y-87100500D01*
X68487500Y-87097500D01*
X68487500Y-87095500D01*
X68488500Y-87092500D01*
X68488500Y-87090500D01*
X68489500Y-87087500D01*
X68489500Y-87085500D01*
X68490500Y-87082500D01*
X68491500Y-87080500D01*
X68492500Y-87077500D01*
X68494500Y-87075500D01*
X68495500Y-87073500D01*
X68497500Y-87071500D01*
X68498500Y-87069500D01*
X68500500Y-87067500D01*
X68502500Y-87065500D01*
X68504500Y-87063500D01*
X68506500Y-87061500D01*
X68508500Y-87060500D01*
X68510500Y-87058500D01*
X68512500Y-87057500D01*
X68514500Y-87055500D01*
X68517500Y-87054500D01*
X68519500Y-87053500D01*
X68522500Y-87052500D01*
X68524500Y-87052500D01*
X68527500Y-87051500D01*
X68529500Y-87051500D01*
X68532500Y-87050500D01*
X68534500Y-87050500D01*
X68537500Y-87050500D01*
X68987500Y-87050500D01*
X68990500Y-87050500D01*
X68992500Y-87050500D01*
X68995500Y-87051500D01*
G37*
X112745500Y-87051500D02*
X112747500Y-87051500D01*
X112750500Y-87052500D01*
X112752500Y-87052500D01*
X112755500Y-87053500D01*
X112757500Y-87054500D01*
X112760500Y-87055500D01*
X112762500Y-87057500D01*
X112764500Y-87058500D01*
X112766500Y-87060500D01*
X112768500Y-87061500D01*
X112770500Y-87063500D01*
X112772500Y-87065500D01*
X112774500Y-87067500D01*
X112776500Y-87069500D01*
X112777500Y-87071500D01*
X112779500Y-87073500D01*
X112780500Y-87075500D01*
X112782500Y-87077500D01*
X112783500Y-87080500D01*
X112784500Y-87082500D01*
X112785500Y-87085500D01*
X112785500Y-87087500D01*
X112786500Y-87090500D01*
X112786500Y-87092500D01*
X112787500Y-87095500D01*
X112787500Y-87097500D01*
X112787500Y-87100500D01*
X112787500Y-87250500D01*
X112787500Y-87253500D01*
X112787500Y-87255500D01*
X112786500Y-87258500D01*
X112786500Y-87260500D01*
X112785500Y-87263500D01*
X112785500Y-87265500D01*
X112784500Y-87268500D01*
X112783500Y-87270500D01*
X112782500Y-87273500D01*
X112780500Y-87275500D01*
X112779500Y-87277500D01*
X112777500Y-87279500D01*
X112776500Y-87281500D01*
X112774500Y-87283500D01*
X112772500Y-87285500D01*
X112770500Y-87287500D01*
X112768500Y-87289500D01*
X112766500Y-87290500D01*
X112764500Y-87292500D01*
X112762500Y-87293500D01*
X112760500Y-87295500D01*
X112757500Y-87296500D01*
X112755500Y-87297500D01*
X112752500Y-87298500D01*
X112750500Y-87298500D01*
X112747500Y-87299500D01*
X112745500Y-87299500D01*
X112742500Y-87300500D01*
X112740500Y-87300500D01*
X112737500Y-87300500D01*
X112287500Y-87300500D01*
X112284500Y-87300500D01*
X112282500Y-87300500D01*
X112279500Y-87299500D01*
X112277500Y-87299500D01*
X112274500Y-87298500D01*
X112272500Y-87298500D01*
X112269500Y-87297500D01*
X112267500Y-87296500D01*
X112264500Y-87295500D01*
X112262500Y-87293500D01*
X112260500Y-87292500D01*
X112258500Y-87290500D01*
X112256500Y-87289500D01*
X112254500Y-87287500D01*
X112252500Y-87285500D01*
X112250500Y-87283500D01*
X112248500Y-87281500D01*
X112247500Y-87279500D01*
X112245500Y-87277500D01*
X112244500Y-87275500D01*
X112242500Y-87273500D01*
X112241500Y-87270500D01*
X112240500Y-87268500D01*
X112239500Y-87265500D01*
X112239500Y-87263500D01*
X112238500Y-87260500D01*
X112238500Y-87258500D01*
X112237500Y-87255500D01*
X112237500Y-87253500D01*
X112237500Y-87250500D01*
X112237500Y-87100500D01*
X112237500Y-87097500D01*
X112237500Y-87095500D01*
X112238500Y-87092500D01*
X112238500Y-87090500D01*
X112239500Y-87087500D01*
X112239500Y-87085500D01*
X112240500Y-87082500D01*
X112241500Y-87080500D01*
X112242500Y-87077500D01*
X112244500Y-87075500D01*
X112245500Y-87073500D01*
X112247500Y-87071500D01*
X112248500Y-87069500D01*
X112250500Y-87067500D01*
X112252500Y-87065500D01*
X112254500Y-87063500D01*
X112256500Y-87061500D01*
X112258500Y-87060500D01*
X112260500Y-87058500D01*
X112262500Y-87057500D01*
X112264500Y-87055500D01*
X112267500Y-87054500D01*
X112269500Y-87053500D01*
X112272500Y-87052500D01*
X112274500Y-87052500D01*
X112277500Y-87051500D01*
X112279500Y-87051500D01*
X112282500Y-87050500D01*
X112284500Y-87050500D01*
X112287500Y-87050500D01*
X112737500Y-87050500D01*
X112740500Y-87050500D01*
X112742500Y-87050500D01*
X112745500Y-87051500D01*
G36*
X112745500Y-87051500D02*
G01*
X112747500Y-87051500D01*
X112750500Y-87052500D01*
X112752500Y-87052500D01*
X112755500Y-87053500D01*
X112757500Y-87054500D01*
X112760500Y-87055500D01*
X112762500Y-87057500D01*
X112764500Y-87058500D01*
X112766500Y-87060500D01*
X112768500Y-87061500D01*
X112770500Y-87063500D01*
X112772500Y-87065500D01*
X112774500Y-87067500D01*
X112776500Y-87069500D01*
X112777500Y-87071500D01*
X112779500Y-87073500D01*
X112780500Y-87075500D01*
X112782500Y-87077500D01*
X112783500Y-87080500D01*
X112784500Y-87082500D01*
X112785500Y-87085500D01*
X112785500Y-87087500D01*
X112786500Y-87090500D01*
X112786500Y-87092500D01*
X112787500Y-87095500D01*
X112787500Y-87097500D01*
X112787500Y-87100500D01*
X112787500Y-87250500D01*
X112787500Y-87253500D01*
X112787500Y-87255500D01*
X112786500Y-87258500D01*
X112786500Y-87260500D01*
X112785500Y-87263500D01*
X112785500Y-87265500D01*
X112784500Y-87268500D01*
X112783500Y-87270500D01*
X112782500Y-87273500D01*
X112780500Y-87275500D01*
X112779500Y-87277500D01*
X112777500Y-87279500D01*
X112776500Y-87281500D01*
X112774500Y-87283500D01*
X112772500Y-87285500D01*
X112770500Y-87287500D01*
X112768500Y-87289500D01*
X112766500Y-87290500D01*
X112764500Y-87292500D01*
X112762500Y-87293500D01*
X112760500Y-87295500D01*
X112757500Y-87296500D01*
X112755500Y-87297500D01*
X112752500Y-87298500D01*
X112750500Y-87298500D01*
X112747500Y-87299500D01*
X112745500Y-87299500D01*
X112742500Y-87300500D01*
X112740500Y-87300500D01*
X112737500Y-87300500D01*
X112287500Y-87300500D01*
X112284500Y-87300500D01*
X112282500Y-87300500D01*
X112279500Y-87299500D01*
X112277500Y-87299500D01*
X112274500Y-87298500D01*
X112272500Y-87298500D01*
X112269500Y-87297500D01*
X112267500Y-87296500D01*
X112264500Y-87295500D01*
X112262500Y-87293500D01*
X112260500Y-87292500D01*
X112258500Y-87290500D01*
X112256500Y-87289500D01*
X112254500Y-87287500D01*
X112252500Y-87285500D01*
X112250500Y-87283500D01*
X112248500Y-87281500D01*
X112247500Y-87279500D01*
X112245500Y-87277500D01*
X112244500Y-87275500D01*
X112242500Y-87273500D01*
X112241500Y-87270500D01*
X112240500Y-87268500D01*
X112239500Y-87265500D01*
X112239500Y-87263500D01*
X112238500Y-87260500D01*
X112238500Y-87258500D01*
X112237500Y-87255500D01*
X112237500Y-87253500D01*
X112237500Y-87250500D01*
X112237500Y-87100500D01*
X112237500Y-87097500D01*
X112237500Y-87095500D01*
X112238500Y-87092500D01*
X112238500Y-87090500D01*
X112239500Y-87087500D01*
X112239500Y-87085500D01*
X112240500Y-87082500D01*
X112241500Y-87080500D01*
X112242500Y-87077500D01*
X112244500Y-87075500D01*
X112245500Y-87073500D01*
X112247500Y-87071500D01*
X112248500Y-87069500D01*
X112250500Y-87067500D01*
X112252500Y-87065500D01*
X112254500Y-87063500D01*
X112256500Y-87061500D01*
X112258500Y-87060500D01*
X112260500Y-87058500D01*
X112262500Y-87057500D01*
X112264500Y-87055500D01*
X112267500Y-87054500D01*
X112269500Y-87053500D01*
X112272500Y-87052500D01*
X112274500Y-87052500D01*
X112277500Y-87051500D01*
X112279500Y-87051500D01*
X112282500Y-87050500D01*
X112284500Y-87050500D01*
X112287500Y-87050500D01*
X112737500Y-87050500D01*
X112740500Y-87050500D01*
X112742500Y-87050500D01*
X112745500Y-87051500D01*
G37*
X113495500Y-87051500D02*
X113497500Y-87051500D01*
X113500500Y-87052500D01*
X113502500Y-87052500D01*
X113505500Y-87053500D01*
X113507500Y-87054500D01*
X113510500Y-87055500D01*
X113512500Y-87057500D01*
X113514500Y-87058500D01*
X113516500Y-87060500D01*
X113518500Y-87061500D01*
X113520500Y-87063500D01*
X113522500Y-87065500D01*
X113524500Y-87067500D01*
X113526500Y-87069500D01*
X113527500Y-87071500D01*
X113529500Y-87073500D01*
X113530500Y-87075500D01*
X113532500Y-87077500D01*
X113533500Y-87080500D01*
X113534500Y-87082500D01*
X113535500Y-87085500D01*
X113535500Y-87087500D01*
X113536500Y-87090500D01*
X113536500Y-87092500D01*
X113537500Y-87095500D01*
X113537500Y-87097500D01*
X113537500Y-87100500D01*
X113537500Y-87250500D01*
X113537500Y-87253500D01*
X113537500Y-87255500D01*
X113536500Y-87258500D01*
X113536500Y-87260500D01*
X113535500Y-87263500D01*
X113535500Y-87265500D01*
X113534500Y-87268500D01*
X113533500Y-87270500D01*
X113532500Y-87273500D01*
X113530500Y-87275500D01*
X113529500Y-87277500D01*
X113527500Y-87279500D01*
X113526500Y-87281500D01*
X113524500Y-87283500D01*
X113522500Y-87285500D01*
X113520500Y-87287500D01*
X113518500Y-87289500D01*
X113516500Y-87290500D01*
X113514500Y-87292500D01*
X113512500Y-87293500D01*
X113510500Y-87295500D01*
X113507500Y-87296500D01*
X113505500Y-87297500D01*
X113502500Y-87298500D01*
X113500500Y-87298500D01*
X113497500Y-87299500D01*
X113495500Y-87299500D01*
X113492500Y-87300500D01*
X113490500Y-87300500D01*
X113487500Y-87300500D01*
X113037500Y-87300500D01*
X113034500Y-87300500D01*
X113032500Y-87300500D01*
X113029500Y-87299500D01*
X113027500Y-87299500D01*
X113024500Y-87298500D01*
X113022500Y-87298500D01*
X113019500Y-87297500D01*
X113017500Y-87296500D01*
X113014500Y-87295500D01*
X113012500Y-87293500D01*
X113010500Y-87292500D01*
X113008500Y-87290500D01*
X113006500Y-87289500D01*
X113004500Y-87287500D01*
X113002500Y-87285500D01*
X113000500Y-87283500D01*
X112998500Y-87281500D01*
X112997500Y-87279500D01*
X112995500Y-87277500D01*
X112994500Y-87275500D01*
X112992500Y-87273500D01*
X112991500Y-87270500D01*
X112990500Y-87268500D01*
X112989500Y-87265500D01*
X112989500Y-87263500D01*
X112988500Y-87260500D01*
X112988500Y-87258500D01*
X112987500Y-87255500D01*
X112987500Y-87253500D01*
X112987500Y-87250500D01*
X112987500Y-87100500D01*
X112987500Y-87097500D01*
X112987500Y-87095500D01*
X112988500Y-87092500D01*
X112988500Y-87090500D01*
X112989500Y-87087500D01*
X112989500Y-87085500D01*
X112990500Y-87082500D01*
X112991500Y-87080500D01*
X112992500Y-87077500D01*
X112994500Y-87075500D01*
X112995500Y-87073500D01*
X112997500Y-87071500D01*
X112998500Y-87069500D01*
X113000500Y-87067500D01*
X113002500Y-87065500D01*
X113004500Y-87063500D01*
X113006500Y-87061500D01*
X113008500Y-87060500D01*
X113010500Y-87058500D01*
X113012500Y-87057500D01*
X113014500Y-87055500D01*
X113017500Y-87054500D01*
X113019500Y-87053500D01*
X113022500Y-87052500D01*
X113024500Y-87052500D01*
X113027500Y-87051500D01*
X113029500Y-87051500D01*
X113032500Y-87050500D01*
X113034500Y-87050500D01*
X113037500Y-87050500D01*
X113487500Y-87050500D01*
X113490500Y-87050500D01*
X113492500Y-87050500D01*
X113495500Y-87051500D01*
G36*
X113495500Y-87051500D02*
G01*
X113497500Y-87051500D01*
X113500500Y-87052500D01*
X113502500Y-87052500D01*
X113505500Y-87053500D01*
X113507500Y-87054500D01*
X113510500Y-87055500D01*
X113512500Y-87057500D01*
X113514500Y-87058500D01*
X113516500Y-87060500D01*
X113518500Y-87061500D01*
X113520500Y-87063500D01*
X113522500Y-87065500D01*
X113524500Y-87067500D01*
X113526500Y-87069500D01*
X113527500Y-87071500D01*
X113529500Y-87073500D01*
X113530500Y-87075500D01*
X113532500Y-87077500D01*
X113533500Y-87080500D01*
X113534500Y-87082500D01*
X113535500Y-87085500D01*
X113535500Y-87087500D01*
X113536500Y-87090500D01*
X113536500Y-87092500D01*
X113537500Y-87095500D01*
X113537500Y-87097500D01*
X113537500Y-87100500D01*
X113537500Y-87250500D01*
X113537500Y-87253500D01*
X113537500Y-87255500D01*
X113536500Y-87258500D01*
X113536500Y-87260500D01*
X113535500Y-87263500D01*
X113535500Y-87265500D01*
X113534500Y-87268500D01*
X113533500Y-87270500D01*
X113532500Y-87273500D01*
X113530500Y-87275500D01*
X113529500Y-87277500D01*
X113527500Y-87279500D01*
X113526500Y-87281500D01*
X113524500Y-87283500D01*
X113522500Y-87285500D01*
X113520500Y-87287500D01*
X113518500Y-87289500D01*
X113516500Y-87290500D01*
X113514500Y-87292500D01*
X113512500Y-87293500D01*
X113510500Y-87295500D01*
X113507500Y-87296500D01*
X113505500Y-87297500D01*
X113502500Y-87298500D01*
X113500500Y-87298500D01*
X113497500Y-87299500D01*
X113495500Y-87299500D01*
X113492500Y-87300500D01*
X113490500Y-87300500D01*
X113487500Y-87300500D01*
X113037500Y-87300500D01*
X113034500Y-87300500D01*
X113032500Y-87300500D01*
X113029500Y-87299500D01*
X113027500Y-87299500D01*
X113024500Y-87298500D01*
X113022500Y-87298500D01*
X113019500Y-87297500D01*
X113017500Y-87296500D01*
X113014500Y-87295500D01*
X113012500Y-87293500D01*
X113010500Y-87292500D01*
X113008500Y-87290500D01*
X113006500Y-87289500D01*
X113004500Y-87287500D01*
X113002500Y-87285500D01*
X113000500Y-87283500D01*
X112998500Y-87281500D01*
X112997500Y-87279500D01*
X112995500Y-87277500D01*
X112994500Y-87275500D01*
X112992500Y-87273500D01*
X112991500Y-87270500D01*
X112990500Y-87268500D01*
X112989500Y-87265500D01*
X112989500Y-87263500D01*
X112988500Y-87260500D01*
X112988500Y-87258500D01*
X112987500Y-87255500D01*
X112987500Y-87253500D01*
X112987500Y-87250500D01*
X112987500Y-87100500D01*
X112987500Y-87097500D01*
X112987500Y-87095500D01*
X112988500Y-87092500D01*
X112988500Y-87090500D01*
X112989500Y-87087500D01*
X112989500Y-87085500D01*
X112990500Y-87082500D01*
X112991500Y-87080500D01*
X112992500Y-87077500D01*
X112994500Y-87075500D01*
X112995500Y-87073500D01*
X112997500Y-87071500D01*
X112998500Y-87069500D01*
X113000500Y-87067500D01*
X113002500Y-87065500D01*
X113004500Y-87063500D01*
X113006500Y-87061500D01*
X113008500Y-87060500D01*
X113010500Y-87058500D01*
X113012500Y-87057500D01*
X113014500Y-87055500D01*
X113017500Y-87054500D01*
X113019500Y-87053500D01*
X113022500Y-87052500D01*
X113024500Y-87052500D01*
X113027500Y-87051500D01*
X113029500Y-87051500D01*
X113032500Y-87050500D01*
X113034500Y-87050500D01*
X113037500Y-87050500D01*
X113487500Y-87050500D01*
X113490500Y-87050500D01*
X113492500Y-87050500D01*
X113495500Y-87051500D01*
G37*
X157245500Y-87051500D02*
X157247500Y-87051500D01*
X157250500Y-87052500D01*
X157252500Y-87052500D01*
X157255500Y-87053500D01*
X157257500Y-87054500D01*
X157260500Y-87055500D01*
X157262500Y-87057500D01*
X157264500Y-87058500D01*
X157266500Y-87060500D01*
X157268500Y-87061500D01*
X157270500Y-87063500D01*
X157272500Y-87065500D01*
X157274500Y-87067500D01*
X157276500Y-87069500D01*
X157277500Y-87071500D01*
X157279500Y-87073500D01*
X157280500Y-87075500D01*
X157282500Y-87077500D01*
X157283500Y-87080500D01*
X157284500Y-87082500D01*
X157285500Y-87085500D01*
X157285500Y-87087500D01*
X157286500Y-87090500D01*
X157286500Y-87092500D01*
X157287500Y-87095500D01*
X157287500Y-87097500D01*
X157287500Y-87100500D01*
X157287500Y-87250500D01*
X157287500Y-87253500D01*
X157287500Y-87255500D01*
X157286500Y-87258500D01*
X157286500Y-87260500D01*
X157285500Y-87263500D01*
X157285500Y-87265500D01*
X157284500Y-87268500D01*
X157283500Y-87270500D01*
X157282500Y-87273500D01*
X157280500Y-87275500D01*
X157279500Y-87277500D01*
X157277500Y-87279500D01*
X157276500Y-87281500D01*
X157274500Y-87283500D01*
X157272500Y-87285500D01*
X157270500Y-87287500D01*
X157268500Y-87289500D01*
X157266500Y-87290500D01*
X157264500Y-87292500D01*
X157262500Y-87293500D01*
X157260500Y-87295500D01*
X157257500Y-87296500D01*
X157255500Y-87297500D01*
X157252500Y-87298500D01*
X157250500Y-87298500D01*
X157247500Y-87299500D01*
X157245500Y-87299500D01*
X157242500Y-87300500D01*
X157240500Y-87300500D01*
X157237500Y-87300500D01*
X156787500Y-87300500D01*
X156784500Y-87300500D01*
X156782500Y-87300500D01*
X156779500Y-87299500D01*
X156777500Y-87299500D01*
X156774500Y-87298500D01*
X156772500Y-87298500D01*
X156769500Y-87297500D01*
X156767500Y-87296500D01*
X156764500Y-87295500D01*
X156762500Y-87293500D01*
X156760500Y-87292500D01*
X156758500Y-87290500D01*
X156756500Y-87289500D01*
X156754500Y-87287500D01*
X156752500Y-87285500D01*
X156750500Y-87283500D01*
X156748500Y-87281500D01*
X156747500Y-87279500D01*
X156745500Y-87277500D01*
X156744500Y-87275500D01*
X156742500Y-87273500D01*
X156741500Y-87270500D01*
X156740500Y-87268500D01*
X156739500Y-87265500D01*
X156739500Y-87263500D01*
X156738500Y-87260500D01*
X156738500Y-87258500D01*
X156737500Y-87255500D01*
X156737500Y-87253500D01*
X156737500Y-87250500D01*
X156737500Y-87100500D01*
X156737500Y-87097500D01*
X156737500Y-87095500D01*
X156738500Y-87092500D01*
X156738500Y-87090500D01*
X156739500Y-87087500D01*
X156739500Y-87085500D01*
X156740500Y-87082500D01*
X156741500Y-87080500D01*
X156742500Y-87077500D01*
X156744500Y-87075500D01*
X156745500Y-87073500D01*
X156747500Y-87071500D01*
X156748500Y-87069500D01*
X156750500Y-87067500D01*
X156752500Y-87065500D01*
X156754500Y-87063500D01*
X156756500Y-87061500D01*
X156758500Y-87060500D01*
X156760500Y-87058500D01*
X156762500Y-87057500D01*
X156764500Y-87055500D01*
X156767500Y-87054500D01*
X156769500Y-87053500D01*
X156772500Y-87052500D01*
X156774500Y-87052500D01*
X156777500Y-87051500D01*
X156779500Y-87051500D01*
X156782500Y-87050500D01*
X156784500Y-87050500D01*
X156787500Y-87050500D01*
X157237500Y-87050500D01*
X157240500Y-87050500D01*
X157242500Y-87050500D01*
X157245500Y-87051500D01*
G36*
X157245500Y-87051500D02*
G01*
X157247500Y-87051500D01*
X157250500Y-87052500D01*
X157252500Y-87052500D01*
X157255500Y-87053500D01*
X157257500Y-87054500D01*
X157260500Y-87055500D01*
X157262500Y-87057500D01*
X157264500Y-87058500D01*
X157266500Y-87060500D01*
X157268500Y-87061500D01*
X157270500Y-87063500D01*
X157272500Y-87065500D01*
X157274500Y-87067500D01*
X157276500Y-87069500D01*
X157277500Y-87071500D01*
X157279500Y-87073500D01*
X157280500Y-87075500D01*
X157282500Y-87077500D01*
X157283500Y-87080500D01*
X157284500Y-87082500D01*
X157285500Y-87085500D01*
X157285500Y-87087500D01*
X157286500Y-87090500D01*
X157286500Y-87092500D01*
X157287500Y-87095500D01*
X157287500Y-87097500D01*
X157287500Y-87100500D01*
X157287500Y-87250500D01*
X157287500Y-87253500D01*
X157287500Y-87255500D01*
X157286500Y-87258500D01*
X157286500Y-87260500D01*
X157285500Y-87263500D01*
X157285500Y-87265500D01*
X157284500Y-87268500D01*
X157283500Y-87270500D01*
X157282500Y-87273500D01*
X157280500Y-87275500D01*
X157279500Y-87277500D01*
X157277500Y-87279500D01*
X157276500Y-87281500D01*
X157274500Y-87283500D01*
X157272500Y-87285500D01*
X157270500Y-87287500D01*
X157268500Y-87289500D01*
X157266500Y-87290500D01*
X157264500Y-87292500D01*
X157262500Y-87293500D01*
X157260500Y-87295500D01*
X157257500Y-87296500D01*
X157255500Y-87297500D01*
X157252500Y-87298500D01*
X157250500Y-87298500D01*
X157247500Y-87299500D01*
X157245500Y-87299500D01*
X157242500Y-87300500D01*
X157240500Y-87300500D01*
X157237500Y-87300500D01*
X156787500Y-87300500D01*
X156784500Y-87300500D01*
X156782500Y-87300500D01*
X156779500Y-87299500D01*
X156777500Y-87299500D01*
X156774500Y-87298500D01*
X156772500Y-87298500D01*
X156769500Y-87297500D01*
X156767500Y-87296500D01*
X156764500Y-87295500D01*
X156762500Y-87293500D01*
X156760500Y-87292500D01*
X156758500Y-87290500D01*
X156756500Y-87289500D01*
X156754500Y-87287500D01*
X156752500Y-87285500D01*
X156750500Y-87283500D01*
X156748500Y-87281500D01*
X156747500Y-87279500D01*
X156745500Y-87277500D01*
X156744500Y-87275500D01*
X156742500Y-87273500D01*
X156741500Y-87270500D01*
X156740500Y-87268500D01*
X156739500Y-87265500D01*
X156739500Y-87263500D01*
X156738500Y-87260500D01*
X156738500Y-87258500D01*
X156737500Y-87255500D01*
X156737500Y-87253500D01*
X156737500Y-87250500D01*
X156737500Y-87100500D01*
X156737500Y-87097500D01*
X156737500Y-87095500D01*
X156738500Y-87092500D01*
X156738500Y-87090500D01*
X156739500Y-87087500D01*
X156739500Y-87085500D01*
X156740500Y-87082500D01*
X156741500Y-87080500D01*
X156742500Y-87077500D01*
X156744500Y-87075500D01*
X156745500Y-87073500D01*
X156747500Y-87071500D01*
X156748500Y-87069500D01*
X156750500Y-87067500D01*
X156752500Y-87065500D01*
X156754500Y-87063500D01*
X156756500Y-87061500D01*
X156758500Y-87060500D01*
X156760500Y-87058500D01*
X156762500Y-87057500D01*
X156764500Y-87055500D01*
X156767500Y-87054500D01*
X156769500Y-87053500D01*
X156772500Y-87052500D01*
X156774500Y-87052500D01*
X156777500Y-87051500D01*
X156779500Y-87051500D01*
X156782500Y-87050500D01*
X156784500Y-87050500D01*
X156787500Y-87050500D01*
X157237500Y-87050500D01*
X157240500Y-87050500D01*
X157242500Y-87050500D01*
X157245500Y-87051500D01*
G37*
X157995500Y-87051500D02*
X157997500Y-87051500D01*
X158000500Y-87052500D01*
X158002500Y-87052500D01*
X158005500Y-87053500D01*
X158007500Y-87054500D01*
X158010500Y-87055500D01*
X158012500Y-87057500D01*
X158014500Y-87058500D01*
X158016500Y-87060500D01*
X158018500Y-87061500D01*
X158020500Y-87063500D01*
X158022500Y-87065500D01*
X158024500Y-87067500D01*
X158026500Y-87069500D01*
X158027500Y-87071500D01*
X158029500Y-87073500D01*
X158030500Y-87075500D01*
X158032500Y-87077500D01*
X158033500Y-87080500D01*
X158034500Y-87082500D01*
X158035500Y-87085500D01*
X158035500Y-87087500D01*
X158036500Y-87090500D01*
X158036500Y-87092500D01*
X158037500Y-87095500D01*
X158037500Y-87097500D01*
X158037500Y-87100500D01*
X158037500Y-87250500D01*
X158037500Y-87253500D01*
X158037500Y-87255500D01*
X158036500Y-87258500D01*
X158036500Y-87260500D01*
X158035500Y-87263500D01*
X158035500Y-87265500D01*
X158034500Y-87268500D01*
X158033500Y-87270500D01*
X158032500Y-87273500D01*
X158030500Y-87275500D01*
X158029500Y-87277500D01*
X158027500Y-87279500D01*
X158026500Y-87281500D01*
X158024500Y-87283500D01*
X158022500Y-87285500D01*
X158020500Y-87287500D01*
X158018500Y-87289500D01*
X158016500Y-87290500D01*
X158014500Y-87292500D01*
X158012500Y-87293500D01*
X158010500Y-87295500D01*
X158007500Y-87296500D01*
X158005500Y-87297500D01*
X158002500Y-87298500D01*
X158000500Y-87298500D01*
X157997500Y-87299500D01*
X157995500Y-87299500D01*
X157992500Y-87300500D01*
X157990500Y-87300500D01*
X157987500Y-87300500D01*
X157537500Y-87300500D01*
X157534500Y-87300500D01*
X157532500Y-87300500D01*
X157529500Y-87299500D01*
X157527500Y-87299500D01*
X157524500Y-87298500D01*
X157522500Y-87298500D01*
X157519500Y-87297500D01*
X157517500Y-87296500D01*
X157514500Y-87295500D01*
X157512500Y-87293500D01*
X157510500Y-87292500D01*
X157508500Y-87290500D01*
X157506500Y-87289500D01*
X157504500Y-87287500D01*
X157502500Y-87285500D01*
X157500500Y-87283500D01*
X157498500Y-87281500D01*
X157497500Y-87279500D01*
X157495500Y-87277500D01*
X157494500Y-87275500D01*
X157492500Y-87273500D01*
X157491500Y-87270500D01*
X157490500Y-87268500D01*
X157489500Y-87265500D01*
X157489500Y-87263500D01*
X157488500Y-87260500D01*
X157488500Y-87258500D01*
X157487500Y-87255500D01*
X157487500Y-87253500D01*
X157487500Y-87250500D01*
X157487500Y-87100500D01*
X157487500Y-87097500D01*
X157487500Y-87095500D01*
X157488500Y-87092500D01*
X157488500Y-87090500D01*
X157489500Y-87087500D01*
X157489500Y-87085500D01*
X157490500Y-87082500D01*
X157491500Y-87080500D01*
X157492500Y-87077500D01*
X157494500Y-87075500D01*
X157495500Y-87073500D01*
X157497500Y-87071500D01*
X157498500Y-87069500D01*
X157500500Y-87067500D01*
X157502500Y-87065500D01*
X157504500Y-87063500D01*
X157506500Y-87061500D01*
X157508500Y-87060500D01*
X157510500Y-87058500D01*
X157512500Y-87057500D01*
X157514500Y-87055500D01*
X157517500Y-87054500D01*
X157519500Y-87053500D01*
X157522500Y-87052500D01*
X157524500Y-87052500D01*
X157527500Y-87051500D01*
X157529500Y-87051500D01*
X157532500Y-87050500D01*
X157534500Y-87050500D01*
X157537500Y-87050500D01*
X157987500Y-87050500D01*
X157990500Y-87050500D01*
X157992500Y-87050500D01*
X157995500Y-87051500D01*
G36*
X157995500Y-87051500D02*
G01*
X157997500Y-87051500D01*
X158000500Y-87052500D01*
X158002500Y-87052500D01*
X158005500Y-87053500D01*
X158007500Y-87054500D01*
X158010500Y-87055500D01*
X158012500Y-87057500D01*
X158014500Y-87058500D01*
X158016500Y-87060500D01*
X158018500Y-87061500D01*
X158020500Y-87063500D01*
X158022500Y-87065500D01*
X158024500Y-87067500D01*
X158026500Y-87069500D01*
X158027500Y-87071500D01*
X158029500Y-87073500D01*
X158030500Y-87075500D01*
X158032500Y-87077500D01*
X158033500Y-87080500D01*
X158034500Y-87082500D01*
X158035500Y-87085500D01*
X158035500Y-87087500D01*
X158036500Y-87090500D01*
X158036500Y-87092500D01*
X158037500Y-87095500D01*
X158037500Y-87097500D01*
X158037500Y-87100500D01*
X158037500Y-87250500D01*
X158037500Y-87253500D01*
X158037500Y-87255500D01*
X158036500Y-87258500D01*
X158036500Y-87260500D01*
X158035500Y-87263500D01*
X158035500Y-87265500D01*
X158034500Y-87268500D01*
X158033500Y-87270500D01*
X158032500Y-87273500D01*
X158030500Y-87275500D01*
X158029500Y-87277500D01*
X158027500Y-87279500D01*
X158026500Y-87281500D01*
X158024500Y-87283500D01*
X158022500Y-87285500D01*
X158020500Y-87287500D01*
X158018500Y-87289500D01*
X158016500Y-87290500D01*
X158014500Y-87292500D01*
X158012500Y-87293500D01*
X158010500Y-87295500D01*
X158007500Y-87296500D01*
X158005500Y-87297500D01*
X158002500Y-87298500D01*
X158000500Y-87298500D01*
X157997500Y-87299500D01*
X157995500Y-87299500D01*
X157992500Y-87300500D01*
X157990500Y-87300500D01*
X157987500Y-87300500D01*
X157537500Y-87300500D01*
X157534500Y-87300500D01*
X157532500Y-87300500D01*
X157529500Y-87299500D01*
X157527500Y-87299500D01*
X157524500Y-87298500D01*
X157522500Y-87298500D01*
X157519500Y-87297500D01*
X157517500Y-87296500D01*
X157514500Y-87295500D01*
X157512500Y-87293500D01*
X157510500Y-87292500D01*
X157508500Y-87290500D01*
X157506500Y-87289500D01*
X157504500Y-87287500D01*
X157502500Y-87285500D01*
X157500500Y-87283500D01*
X157498500Y-87281500D01*
X157497500Y-87279500D01*
X157495500Y-87277500D01*
X157494500Y-87275500D01*
X157492500Y-87273500D01*
X157491500Y-87270500D01*
X157490500Y-87268500D01*
X157489500Y-87265500D01*
X157489500Y-87263500D01*
X157488500Y-87260500D01*
X157488500Y-87258500D01*
X157487500Y-87255500D01*
X157487500Y-87253500D01*
X157487500Y-87250500D01*
X157487500Y-87100500D01*
X157487500Y-87097500D01*
X157487500Y-87095500D01*
X157488500Y-87092500D01*
X157488500Y-87090500D01*
X157489500Y-87087500D01*
X157489500Y-87085500D01*
X157490500Y-87082500D01*
X157491500Y-87080500D01*
X157492500Y-87077500D01*
X157494500Y-87075500D01*
X157495500Y-87073500D01*
X157497500Y-87071500D01*
X157498500Y-87069500D01*
X157500500Y-87067500D01*
X157502500Y-87065500D01*
X157504500Y-87063500D01*
X157506500Y-87061500D01*
X157508500Y-87060500D01*
X157510500Y-87058500D01*
X157512500Y-87057500D01*
X157514500Y-87055500D01*
X157517500Y-87054500D01*
X157519500Y-87053500D01*
X157522500Y-87052500D01*
X157524500Y-87052500D01*
X157527500Y-87051500D01*
X157529500Y-87051500D01*
X157532500Y-87050500D01*
X157534500Y-87050500D01*
X157537500Y-87050500D01*
X157987500Y-87050500D01*
X157990500Y-87050500D01*
X157992500Y-87050500D01*
X157995500Y-87051500D01*
G37*
X201745500Y-136051500D02*
X201747500Y-136051500D01*
X201750500Y-136052500D01*
X201752500Y-136052500D01*
X201755500Y-136053500D01*
X201757500Y-136054500D01*
X201760500Y-136055500D01*
X201762500Y-136057500D01*
X201764500Y-136058500D01*
X201766500Y-136060500D01*
X201768500Y-136061500D01*
X201770500Y-136063500D01*
X201772500Y-136065500D01*
X201774500Y-136067500D01*
X201776500Y-136069500D01*
X201777500Y-136071500D01*
X201779500Y-136073500D01*
X201780500Y-136075500D01*
X201782500Y-136077500D01*
X201783500Y-136080500D01*
X201784500Y-136082500D01*
X201785500Y-136085500D01*
X201785500Y-136087500D01*
X201786500Y-136090500D01*
X201786500Y-136092500D01*
X201787500Y-136095500D01*
X201787500Y-136097500D01*
X201787500Y-136100500D01*
X201787500Y-136250500D01*
X201787500Y-136253500D01*
X201787500Y-136255500D01*
X201786500Y-136258500D01*
X201786500Y-136260500D01*
X201785500Y-136263500D01*
X201785500Y-136265500D01*
X201784500Y-136268500D01*
X201783500Y-136270500D01*
X201782500Y-136273500D01*
X201780500Y-136275500D01*
X201779500Y-136277500D01*
X201777500Y-136279500D01*
X201776500Y-136281500D01*
X201774500Y-136283500D01*
X201772500Y-136285500D01*
X201770500Y-136287500D01*
X201768500Y-136289500D01*
X201766500Y-136290500D01*
X201764500Y-136292500D01*
X201762500Y-136293500D01*
X201760500Y-136295500D01*
X201757500Y-136296500D01*
X201755500Y-136297500D01*
X201752500Y-136298500D01*
X201750500Y-136298500D01*
X201747500Y-136299500D01*
X201745500Y-136299500D01*
X201742500Y-136300500D01*
X201740500Y-136300500D01*
X201737500Y-136300500D01*
X201287500Y-136300500D01*
X201284500Y-136300500D01*
X201282500Y-136300500D01*
X201279500Y-136299500D01*
X201277500Y-136299500D01*
X201274500Y-136298500D01*
X201272500Y-136298500D01*
X201269500Y-136297500D01*
X201267500Y-136296500D01*
X201264500Y-136295500D01*
X201262500Y-136293500D01*
X201260500Y-136292500D01*
X201258500Y-136290500D01*
X201256500Y-136289500D01*
X201254500Y-136287500D01*
X201252500Y-136285500D01*
X201250500Y-136283500D01*
X201248500Y-136281500D01*
X201247500Y-136279500D01*
X201245500Y-136277500D01*
X201244500Y-136275500D01*
X201242500Y-136273500D01*
X201241500Y-136270500D01*
X201240500Y-136268500D01*
X201239500Y-136265500D01*
X201239500Y-136263500D01*
X201238500Y-136260500D01*
X201238500Y-136258500D01*
X201237500Y-136255500D01*
X201237500Y-136253500D01*
X201237500Y-136250500D01*
X201237500Y-136100500D01*
X201237500Y-136097500D01*
X201237500Y-136095500D01*
X201238500Y-136092500D01*
X201238500Y-136090500D01*
X201239500Y-136087500D01*
X201239500Y-136085500D01*
X201240500Y-136082500D01*
X201241500Y-136080500D01*
X201242500Y-136077500D01*
X201244500Y-136075500D01*
X201245500Y-136073500D01*
X201247500Y-136071500D01*
X201248500Y-136069500D01*
X201250500Y-136067500D01*
X201252500Y-136065500D01*
X201254500Y-136063500D01*
X201256500Y-136061500D01*
X201258500Y-136060500D01*
X201260500Y-136058500D01*
X201262500Y-136057500D01*
X201264500Y-136055500D01*
X201267500Y-136054500D01*
X201269500Y-136053500D01*
X201272500Y-136052500D01*
X201274500Y-136052500D01*
X201277500Y-136051500D01*
X201279500Y-136051500D01*
X201282500Y-136050500D01*
X201284500Y-136050500D01*
X201287500Y-136050500D01*
X201737500Y-136050500D01*
X201740500Y-136050500D01*
X201742500Y-136050500D01*
X201745500Y-136051500D01*
G36*
X201745500Y-136051500D02*
G01*
X201747500Y-136051500D01*
X201750500Y-136052500D01*
X201752500Y-136052500D01*
X201755500Y-136053500D01*
X201757500Y-136054500D01*
X201760500Y-136055500D01*
X201762500Y-136057500D01*
X201764500Y-136058500D01*
X201766500Y-136060500D01*
X201768500Y-136061500D01*
X201770500Y-136063500D01*
X201772500Y-136065500D01*
X201774500Y-136067500D01*
X201776500Y-136069500D01*
X201777500Y-136071500D01*
X201779500Y-136073500D01*
X201780500Y-136075500D01*
X201782500Y-136077500D01*
X201783500Y-136080500D01*
X201784500Y-136082500D01*
X201785500Y-136085500D01*
X201785500Y-136087500D01*
X201786500Y-136090500D01*
X201786500Y-136092500D01*
X201787500Y-136095500D01*
X201787500Y-136097500D01*
X201787500Y-136100500D01*
X201787500Y-136250500D01*
X201787500Y-136253500D01*
X201787500Y-136255500D01*
X201786500Y-136258500D01*
X201786500Y-136260500D01*
X201785500Y-136263500D01*
X201785500Y-136265500D01*
X201784500Y-136268500D01*
X201783500Y-136270500D01*
X201782500Y-136273500D01*
X201780500Y-136275500D01*
X201779500Y-136277500D01*
X201777500Y-136279500D01*
X201776500Y-136281500D01*
X201774500Y-136283500D01*
X201772500Y-136285500D01*
X201770500Y-136287500D01*
X201768500Y-136289500D01*
X201766500Y-136290500D01*
X201764500Y-136292500D01*
X201762500Y-136293500D01*
X201760500Y-136295500D01*
X201757500Y-136296500D01*
X201755500Y-136297500D01*
X201752500Y-136298500D01*
X201750500Y-136298500D01*
X201747500Y-136299500D01*
X201745500Y-136299500D01*
X201742500Y-136300500D01*
X201740500Y-136300500D01*
X201737500Y-136300500D01*
X201287500Y-136300500D01*
X201284500Y-136300500D01*
X201282500Y-136300500D01*
X201279500Y-136299500D01*
X201277500Y-136299500D01*
X201274500Y-136298500D01*
X201272500Y-136298500D01*
X201269500Y-136297500D01*
X201267500Y-136296500D01*
X201264500Y-136295500D01*
X201262500Y-136293500D01*
X201260500Y-136292500D01*
X201258500Y-136290500D01*
X201256500Y-136289500D01*
X201254500Y-136287500D01*
X201252500Y-136285500D01*
X201250500Y-136283500D01*
X201248500Y-136281500D01*
X201247500Y-136279500D01*
X201245500Y-136277500D01*
X201244500Y-136275500D01*
X201242500Y-136273500D01*
X201241500Y-136270500D01*
X201240500Y-136268500D01*
X201239500Y-136265500D01*
X201239500Y-136263500D01*
X201238500Y-136260500D01*
X201238500Y-136258500D01*
X201237500Y-136255500D01*
X201237500Y-136253500D01*
X201237500Y-136250500D01*
X201237500Y-136100500D01*
X201237500Y-136097500D01*
X201237500Y-136095500D01*
X201238500Y-136092500D01*
X201238500Y-136090500D01*
X201239500Y-136087500D01*
X201239500Y-136085500D01*
X201240500Y-136082500D01*
X201241500Y-136080500D01*
X201242500Y-136077500D01*
X201244500Y-136075500D01*
X201245500Y-136073500D01*
X201247500Y-136071500D01*
X201248500Y-136069500D01*
X201250500Y-136067500D01*
X201252500Y-136065500D01*
X201254500Y-136063500D01*
X201256500Y-136061500D01*
X201258500Y-136060500D01*
X201260500Y-136058500D01*
X201262500Y-136057500D01*
X201264500Y-136055500D01*
X201267500Y-136054500D01*
X201269500Y-136053500D01*
X201272500Y-136052500D01*
X201274500Y-136052500D01*
X201277500Y-136051500D01*
X201279500Y-136051500D01*
X201282500Y-136050500D01*
X201284500Y-136050500D01*
X201287500Y-136050500D01*
X201737500Y-136050500D01*
X201740500Y-136050500D01*
X201742500Y-136050500D01*
X201745500Y-136051500D01*
G37*
X202495500Y-136051500D02*
X202497500Y-136051500D01*
X202500500Y-136052500D01*
X202502500Y-136052500D01*
X202505500Y-136053500D01*
X202507500Y-136054500D01*
X202510500Y-136055500D01*
X202512500Y-136057500D01*
X202514500Y-136058500D01*
X202516500Y-136060500D01*
X202518500Y-136061500D01*
X202520500Y-136063500D01*
X202522500Y-136065500D01*
X202524500Y-136067500D01*
X202526500Y-136069500D01*
X202527500Y-136071500D01*
X202529500Y-136073500D01*
X202530500Y-136075500D01*
X202532500Y-136077500D01*
X202533500Y-136080500D01*
X202534500Y-136082500D01*
X202535500Y-136085500D01*
X202535500Y-136087500D01*
X202536500Y-136090500D01*
X202536500Y-136092500D01*
X202537500Y-136095500D01*
X202537500Y-136097500D01*
X202537500Y-136100500D01*
X202537500Y-136250500D01*
X202537500Y-136253500D01*
X202537500Y-136255500D01*
X202536500Y-136258500D01*
X202536500Y-136260500D01*
X202535500Y-136263500D01*
X202535500Y-136265500D01*
X202534500Y-136268500D01*
X202533500Y-136270500D01*
X202532500Y-136273500D01*
X202530500Y-136275500D01*
X202529500Y-136277500D01*
X202527500Y-136279500D01*
X202526500Y-136281500D01*
X202524500Y-136283500D01*
X202522500Y-136285500D01*
X202520500Y-136287500D01*
X202518500Y-136289500D01*
X202516500Y-136290500D01*
X202514500Y-136292500D01*
X202512500Y-136293500D01*
X202510500Y-136295500D01*
X202507500Y-136296500D01*
X202505500Y-136297500D01*
X202502500Y-136298500D01*
X202500500Y-136298500D01*
X202497500Y-136299500D01*
X202495500Y-136299500D01*
X202492500Y-136300500D01*
X202490500Y-136300500D01*
X202487500Y-136300500D01*
X202037500Y-136300500D01*
X202034500Y-136300500D01*
X202032500Y-136300500D01*
X202029500Y-136299500D01*
X202027500Y-136299500D01*
X202024500Y-136298500D01*
X202022500Y-136298500D01*
X202019500Y-136297500D01*
X202017500Y-136296500D01*
X202014500Y-136295500D01*
X202012500Y-136293500D01*
X202010500Y-136292500D01*
X202008500Y-136290500D01*
X202006500Y-136289500D01*
X202004500Y-136287500D01*
X202002500Y-136285500D01*
X202000500Y-136283500D01*
X201998500Y-136281500D01*
X201997500Y-136279500D01*
X201995500Y-136277500D01*
X201994500Y-136275500D01*
X201992500Y-136273500D01*
X201991500Y-136270500D01*
X201990500Y-136268500D01*
X201989500Y-136265500D01*
X201989500Y-136263500D01*
X201988500Y-136260500D01*
X201988500Y-136258500D01*
X201987500Y-136255500D01*
X201987500Y-136253500D01*
X201987500Y-136250500D01*
X201987500Y-136100500D01*
X201987500Y-136097500D01*
X201987500Y-136095500D01*
X201988500Y-136092500D01*
X201988500Y-136090500D01*
X201989500Y-136087500D01*
X201989500Y-136085500D01*
X201990500Y-136082500D01*
X201991500Y-136080500D01*
X201992500Y-136077500D01*
X201994500Y-136075500D01*
X201995500Y-136073500D01*
X201997500Y-136071500D01*
X201998500Y-136069500D01*
X202000500Y-136067500D01*
X202002500Y-136065500D01*
X202004500Y-136063500D01*
X202006500Y-136061500D01*
X202008500Y-136060500D01*
X202010500Y-136058500D01*
X202012500Y-136057500D01*
X202014500Y-136055500D01*
X202017500Y-136054500D01*
X202019500Y-136053500D01*
X202022500Y-136052500D01*
X202024500Y-136052500D01*
X202027500Y-136051500D01*
X202029500Y-136051500D01*
X202032500Y-136050500D01*
X202034500Y-136050500D01*
X202037500Y-136050500D01*
X202487500Y-136050500D01*
X202490500Y-136050500D01*
X202492500Y-136050500D01*
X202495500Y-136051500D01*
G36*
X202495500Y-136051500D02*
G01*
X202497500Y-136051500D01*
X202500500Y-136052500D01*
X202502500Y-136052500D01*
X202505500Y-136053500D01*
X202507500Y-136054500D01*
X202510500Y-136055500D01*
X202512500Y-136057500D01*
X202514500Y-136058500D01*
X202516500Y-136060500D01*
X202518500Y-136061500D01*
X202520500Y-136063500D01*
X202522500Y-136065500D01*
X202524500Y-136067500D01*
X202526500Y-136069500D01*
X202527500Y-136071500D01*
X202529500Y-136073500D01*
X202530500Y-136075500D01*
X202532500Y-136077500D01*
X202533500Y-136080500D01*
X202534500Y-136082500D01*
X202535500Y-136085500D01*
X202535500Y-136087500D01*
X202536500Y-136090500D01*
X202536500Y-136092500D01*
X202537500Y-136095500D01*
X202537500Y-136097500D01*
X202537500Y-136100500D01*
X202537500Y-136250500D01*
X202537500Y-136253500D01*
X202537500Y-136255500D01*
X202536500Y-136258500D01*
X202536500Y-136260500D01*
X202535500Y-136263500D01*
X202535500Y-136265500D01*
X202534500Y-136268500D01*
X202533500Y-136270500D01*
X202532500Y-136273500D01*
X202530500Y-136275500D01*
X202529500Y-136277500D01*
X202527500Y-136279500D01*
X202526500Y-136281500D01*
X202524500Y-136283500D01*
X202522500Y-136285500D01*
X202520500Y-136287500D01*
X202518500Y-136289500D01*
X202516500Y-136290500D01*
X202514500Y-136292500D01*
X202512500Y-136293500D01*
X202510500Y-136295500D01*
X202507500Y-136296500D01*
X202505500Y-136297500D01*
X202502500Y-136298500D01*
X202500500Y-136298500D01*
X202497500Y-136299500D01*
X202495500Y-136299500D01*
X202492500Y-136300500D01*
X202490500Y-136300500D01*
X202487500Y-136300500D01*
X202037500Y-136300500D01*
X202034500Y-136300500D01*
X202032500Y-136300500D01*
X202029500Y-136299500D01*
X202027500Y-136299500D01*
X202024500Y-136298500D01*
X202022500Y-136298500D01*
X202019500Y-136297500D01*
X202017500Y-136296500D01*
X202014500Y-136295500D01*
X202012500Y-136293500D01*
X202010500Y-136292500D01*
X202008500Y-136290500D01*
X202006500Y-136289500D01*
X202004500Y-136287500D01*
X202002500Y-136285500D01*
X202000500Y-136283500D01*
X201998500Y-136281500D01*
X201997500Y-136279500D01*
X201995500Y-136277500D01*
X201994500Y-136275500D01*
X201992500Y-136273500D01*
X201991500Y-136270500D01*
X201990500Y-136268500D01*
X201989500Y-136265500D01*
X201989500Y-136263500D01*
X201988500Y-136260500D01*
X201988500Y-136258500D01*
X201987500Y-136255500D01*
X201987500Y-136253500D01*
X201987500Y-136250500D01*
X201987500Y-136100500D01*
X201987500Y-136097500D01*
X201987500Y-136095500D01*
X201988500Y-136092500D01*
X201988500Y-136090500D01*
X201989500Y-136087500D01*
X201989500Y-136085500D01*
X201990500Y-136082500D01*
X201991500Y-136080500D01*
X201992500Y-136077500D01*
X201994500Y-136075500D01*
X201995500Y-136073500D01*
X201997500Y-136071500D01*
X201998500Y-136069500D01*
X202000500Y-136067500D01*
X202002500Y-136065500D01*
X202004500Y-136063500D01*
X202006500Y-136061500D01*
X202008500Y-136060500D01*
X202010500Y-136058500D01*
X202012500Y-136057500D01*
X202014500Y-136055500D01*
X202017500Y-136054500D01*
X202019500Y-136053500D01*
X202022500Y-136052500D01*
X202024500Y-136052500D01*
X202027500Y-136051500D01*
X202029500Y-136051500D01*
X202032500Y-136050500D01*
X202034500Y-136050500D01*
X202037500Y-136050500D01*
X202487500Y-136050500D01*
X202490500Y-136050500D01*
X202492500Y-136050500D01*
X202495500Y-136051500D01*
G37*
X68245500Y-38051500D02*
X68247500Y-38051500D01*
X68250500Y-38052500D01*
X68252500Y-38052500D01*
X68255500Y-38053500D01*
X68257500Y-38054500D01*
X68260500Y-38055500D01*
X68262500Y-38057500D01*
X68264500Y-38058500D01*
X68266500Y-38060500D01*
X68268500Y-38061500D01*
X68270500Y-38063500D01*
X68272500Y-38065500D01*
X68274500Y-38067500D01*
X68276500Y-38069500D01*
X68277500Y-38071500D01*
X68279500Y-38073500D01*
X68280500Y-38075500D01*
X68282500Y-38077500D01*
X68283500Y-38080500D01*
X68284500Y-38082500D01*
X68285500Y-38085500D01*
X68285500Y-38087500D01*
X68286500Y-38090500D01*
X68286500Y-38092500D01*
X68287500Y-38095500D01*
X68287500Y-38097500D01*
X68287500Y-38100500D01*
X68287500Y-38250500D01*
X68287500Y-38253500D01*
X68287500Y-38255500D01*
X68286500Y-38258500D01*
X68286500Y-38260500D01*
X68285500Y-38263500D01*
X68285500Y-38265500D01*
X68284500Y-38268500D01*
X68283500Y-38270500D01*
X68282500Y-38273500D01*
X68280500Y-38275500D01*
X68279500Y-38277500D01*
X68277500Y-38279500D01*
X68276500Y-38281500D01*
X68274500Y-38283500D01*
X68272500Y-38285500D01*
X68270500Y-38287500D01*
X68268500Y-38289500D01*
X68266500Y-38290500D01*
X68264500Y-38292500D01*
X68262500Y-38293500D01*
X68260500Y-38295500D01*
X68257500Y-38296500D01*
X68255500Y-38297500D01*
X68252500Y-38298500D01*
X68250500Y-38298500D01*
X68247500Y-38299500D01*
X68245500Y-38299500D01*
X68242500Y-38300500D01*
X68240500Y-38300500D01*
X68237500Y-38300500D01*
X67787500Y-38300500D01*
X67784500Y-38300500D01*
X67782500Y-38300500D01*
X67779500Y-38299500D01*
X67777500Y-38299500D01*
X67774500Y-38298500D01*
X67772500Y-38298500D01*
X67769500Y-38297500D01*
X67767500Y-38296500D01*
X67764500Y-38295500D01*
X67762500Y-38293500D01*
X67760500Y-38292500D01*
X67758500Y-38290500D01*
X67756500Y-38289500D01*
X67754500Y-38287500D01*
X67752500Y-38285500D01*
X67750500Y-38283500D01*
X67748500Y-38281500D01*
X67747500Y-38279500D01*
X67745500Y-38277500D01*
X67744500Y-38275500D01*
X67742500Y-38273500D01*
X67741500Y-38270500D01*
X67740500Y-38268500D01*
X67739500Y-38265500D01*
X67739500Y-38263500D01*
X67738500Y-38260500D01*
X67738500Y-38258500D01*
X67737500Y-38255500D01*
X67737500Y-38253500D01*
X67737500Y-38250500D01*
X67737500Y-38100500D01*
X67737500Y-38097500D01*
X67737500Y-38095500D01*
X67738500Y-38092500D01*
X67738500Y-38090500D01*
X67739500Y-38087500D01*
X67739500Y-38085500D01*
X67740500Y-38082500D01*
X67741500Y-38080500D01*
X67742500Y-38077500D01*
X67744500Y-38075500D01*
X67745500Y-38073500D01*
X67747500Y-38071500D01*
X67748500Y-38069500D01*
X67750500Y-38067500D01*
X67752500Y-38065500D01*
X67754500Y-38063500D01*
X67756500Y-38061500D01*
X67758500Y-38060500D01*
X67760500Y-38058500D01*
X67762500Y-38057500D01*
X67764500Y-38055500D01*
X67767500Y-38054500D01*
X67769500Y-38053500D01*
X67772500Y-38052500D01*
X67774500Y-38052500D01*
X67777500Y-38051500D01*
X67779500Y-38051500D01*
X67782500Y-38050500D01*
X67784500Y-38050500D01*
X67787500Y-38050500D01*
X68237500Y-38050500D01*
X68240500Y-38050500D01*
X68242500Y-38050500D01*
X68245500Y-38051500D01*
G36*
X68245500Y-38051500D02*
G01*
X68247500Y-38051500D01*
X68250500Y-38052500D01*
X68252500Y-38052500D01*
X68255500Y-38053500D01*
X68257500Y-38054500D01*
X68260500Y-38055500D01*
X68262500Y-38057500D01*
X68264500Y-38058500D01*
X68266500Y-38060500D01*
X68268500Y-38061500D01*
X68270500Y-38063500D01*
X68272500Y-38065500D01*
X68274500Y-38067500D01*
X68276500Y-38069500D01*
X68277500Y-38071500D01*
X68279500Y-38073500D01*
X68280500Y-38075500D01*
X68282500Y-38077500D01*
X68283500Y-38080500D01*
X68284500Y-38082500D01*
X68285500Y-38085500D01*
X68285500Y-38087500D01*
X68286500Y-38090500D01*
X68286500Y-38092500D01*
X68287500Y-38095500D01*
X68287500Y-38097500D01*
X68287500Y-38100500D01*
X68287500Y-38250500D01*
X68287500Y-38253500D01*
X68287500Y-38255500D01*
X68286500Y-38258500D01*
X68286500Y-38260500D01*
X68285500Y-38263500D01*
X68285500Y-38265500D01*
X68284500Y-38268500D01*
X68283500Y-38270500D01*
X68282500Y-38273500D01*
X68280500Y-38275500D01*
X68279500Y-38277500D01*
X68277500Y-38279500D01*
X68276500Y-38281500D01*
X68274500Y-38283500D01*
X68272500Y-38285500D01*
X68270500Y-38287500D01*
X68268500Y-38289500D01*
X68266500Y-38290500D01*
X68264500Y-38292500D01*
X68262500Y-38293500D01*
X68260500Y-38295500D01*
X68257500Y-38296500D01*
X68255500Y-38297500D01*
X68252500Y-38298500D01*
X68250500Y-38298500D01*
X68247500Y-38299500D01*
X68245500Y-38299500D01*
X68242500Y-38300500D01*
X68240500Y-38300500D01*
X68237500Y-38300500D01*
X67787500Y-38300500D01*
X67784500Y-38300500D01*
X67782500Y-38300500D01*
X67779500Y-38299500D01*
X67777500Y-38299500D01*
X67774500Y-38298500D01*
X67772500Y-38298500D01*
X67769500Y-38297500D01*
X67767500Y-38296500D01*
X67764500Y-38295500D01*
X67762500Y-38293500D01*
X67760500Y-38292500D01*
X67758500Y-38290500D01*
X67756500Y-38289500D01*
X67754500Y-38287500D01*
X67752500Y-38285500D01*
X67750500Y-38283500D01*
X67748500Y-38281500D01*
X67747500Y-38279500D01*
X67745500Y-38277500D01*
X67744500Y-38275500D01*
X67742500Y-38273500D01*
X67741500Y-38270500D01*
X67740500Y-38268500D01*
X67739500Y-38265500D01*
X67739500Y-38263500D01*
X67738500Y-38260500D01*
X67738500Y-38258500D01*
X67737500Y-38255500D01*
X67737500Y-38253500D01*
X67737500Y-38250500D01*
X67737500Y-38100500D01*
X67737500Y-38097500D01*
X67737500Y-38095500D01*
X67738500Y-38092500D01*
X67738500Y-38090500D01*
X67739500Y-38087500D01*
X67739500Y-38085500D01*
X67740500Y-38082500D01*
X67741500Y-38080500D01*
X67742500Y-38077500D01*
X67744500Y-38075500D01*
X67745500Y-38073500D01*
X67747500Y-38071500D01*
X67748500Y-38069500D01*
X67750500Y-38067500D01*
X67752500Y-38065500D01*
X67754500Y-38063500D01*
X67756500Y-38061500D01*
X67758500Y-38060500D01*
X67760500Y-38058500D01*
X67762500Y-38057500D01*
X67764500Y-38055500D01*
X67767500Y-38054500D01*
X67769500Y-38053500D01*
X67772500Y-38052500D01*
X67774500Y-38052500D01*
X67777500Y-38051500D01*
X67779500Y-38051500D01*
X67782500Y-38050500D01*
X67784500Y-38050500D01*
X67787500Y-38050500D01*
X68237500Y-38050500D01*
X68240500Y-38050500D01*
X68242500Y-38050500D01*
X68245500Y-38051500D01*
G37*
X68995500Y-38051500D02*
X68997500Y-38051500D01*
X69000500Y-38052500D01*
X69002500Y-38052500D01*
X69005500Y-38053500D01*
X69007500Y-38054500D01*
X69010500Y-38055500D01*
X69012500Y-38057500D01*
X69014500Y-38058500D01*
X69016500Y-38060500D01*
X69018500Y-38061500D01*
X69020500Y-38063500D01*
X69022500Y-38065500D01*
X69024500Y-38067500D01*
X69026500Y-38069500D01*
X69027500Y-38071500D01*
X69029500Y-38073500D01*
X69030500Y-38075500D01*
X69032500Y-38077500D01*
X69033500Y-38080500D01*
X69034500Y-38082500D01*
X69035500Y-38085500D01*
X69035500Y-38087500D01*
X69036500Y-38090500D01*
X69036500Y-38092500D01*
X69037500Y-38095500D01*
X69037500Y-38097500D01*
X69037500Y-38100500D01*
X69037500Y-38250500D01*
X69037500Y-38253500D01*
X69037500Y-38255500D01*
X69036500Y-38258500D01*
X69036500Y-38260500D01*
X69035500Y-38263500D01*
X69035500Y-38265500D01*
X69034500Y-38268500D01*
X69033500Y-38270500D01*
X69032500Y-38273500D01*
X69030500Y-38275500D01*
X69029500Y-38277500D01*
X69027500Y-38279500D01*
X69026500Y-38281500D01*
X69024500Y-38283500D01*
X69022500Y-38285500D01*
X69020500Y-38287500D01*
X69018500Y-38289500D01*
X69016500Y-38290500D01*
X69014500Y-38292500D01*
X69012500Y-38293500D01*
X69010500Y-38295500D01*
X69007500Y-38296500D01*
X69005500Y-38297500D01*
X69002500Y-38298500D01*
X69000500Y-38298500D01*
X68997500Y-38299500D01*
X68995500Y-38299500D01*
X68992500Y-38300500D01*
X68990500Y-38300500D01*
X68987500Y-38300500D01*
X68537500Y-38300500D01*
X68534500Y-38300500D01*
X68532500Y-38300500D01*
X68529500Y-38299500D01*
X68527500Y-38299500D01*
X68524500Y-38298500D01*
X68522500Y-38298500D01*
X68519500Y-38297500D01*
X68517500Y-38296500D01*
X68514500Y-38295500D01*
X68512500Y-38293500D01*
X68510500Y-38292500D01*
X68508500Y-38290500D01*
X68506500Y-38289500D01*
X68504500Y-38287500D01*
X68502500Y-38285500D01*
X68500500Y-38283500D01*
X68498500Y-38281500D01*
X68497500Y-38279500D01*
X68495500Y-38277500D01*
X68494500Y-38275500D01*
X68492500Y-38273500D01*
X68491500Y-38270500D01*
X68490500Y-38268500D01*
X68489500Y-38265500D01*
X68489500Y-38263500D01*
X68488500Y-38260500D01*
X68488500Y-38258500D01*
X68487500Y-38255500D01*
X68487500Y-38253500D01*
X68487500Y-38250500D01*
X68487500Y-38100500D01*
X68487500Y-38097500D01*
X68487500Y-38095500D01*
X68488500Y-38092500D01*
X68488500Y-38090500D01*
X68489500Y-38087500D01*
X68489500Y-38085500D01*
X68490500Y-38082500D01*
X68491500Y-38080500D01*
X68492500Y-38077500D01*
X68494500Y-38075500D01*
X68495500Y-38073500D01*
X68497500Y-38071500D01*
X68498500Y-38069500D01*
X68500500Y-38067500D01*
X68502500Y-38065500D01*
X68504500Y-38063500D01*
X68506500Y-38061500D01*
X68508500Y-38060500D01*
X68510500Y-38058500D01*
X68512500Y-38057500D01*
X68514500Y-38055500D01*
X68517500Y-38054500D01*
X68519500Y-38053500D01*
X68522500Y-38052500D01*
X68524500Y-38052500D01*
X68527500Y-38051500D01*
X68529500Y-38051500D01*
X68532500Y-38050500D01*
X68534500Y-38050500D01*
X68537500Y-38050500D01*
X68987500Y-38050500D01*
X68990500Y-38050500D01*
X68992500Y-38050500D01*
X68995500Y-38051500D01*
G36*
X68995500Y-38051500D02*
G01*
X68997500Y-38051500D01*
X69000500Y-38052500D01*
X69002500Y-38052500D01*
X69005500Y-38053500D01*
X69007500Y-38054500D01*
X69010500Y-38055500D01*
X69012500Y-38057500D01*
X69014500Y-38058500D01*
X69016500Y-38060500D01*
X69018500Y-38061500D01*
X69020500Y-38063500D01*
X69022500Y-38065500D01*
X69024500Y-38067500D01*
X69026500Y-38069500D01*
X69027500Y-38071500D01*
X69029500Y-38073500D01*
X69030500Y-38075500D01*
X69032500Y-38077500D01*
X69033500Y-38080500D01*
X69034500Y-38082500D01*
X69035500Y-38085500D01*
X69035500Y-38087500D01*
X69036500Y-38090500D01*
X69036500Y-38092500D01*
X69037500Y-38095500D01*
X69037500Y-38097500D01*
X69037500Y-38100500D01*
X69037500Y-38250500D01*
X69037500Y-38253500D01*
X69037500Y-38255500D01*
X69036500Y-38258500D01*
X69036500Y-38260500D01*
X69035500Y-38263500D01*
X69035500Y-38265500D01*
X69034500Y-38268500D01*
X69033500Y-38270500D01*
X69032500Y-38273500D01*
X69030500Y-38275500D01*
X69029500Y-38277500D01*
X69027500Y-38279500D01*
X69026500Y-38281500D01*
X69024500Y-38283500D01*
X69022500Y-38285500D01*
X69020500Y-38287500D01*
X69018500Y-38289500D01*
X69016500Y-38290500D01*
X69014500Y-38292500D01*
X69012500Y-38293500D01*
X69010500Y-38295500D01*
X69007500Y-38296500D01*
X69005500Y-38297500D01*
X69002500Y-38298500D01*
X69000500Y-38298500D01*
X68997500Y-38299500D01*
X68995500Y-38299500D01*
X68992500Y-38300500D01*
X68990500Y-38300500D01*
X68987500Y-38300500D01*
X68537500Y-38300500D01*
X68534500Y-38300500D01*
X68532500Y-38300500D01*
X68529500Y-38299500D01*
X68527500Y-38299500D01*
X68524500Y-38298500D01*
X68522500Y-38298500D01*
X68519500Y-38297500D01*
X68517500Y-38296500D01*
X68514500Y-38295500D01*
X68512500Y-38293500D01*
X68510500Y-38292500D01*
X68508500Y-38290500D01*
X68506500Y-38289500D01*
X68504500Y-38287500D01*
X68502500Y-38285500D01*
X68500500Y-38283500D01*
X68498500Y-38281500D01*
X68497500Y-38279500D01*
X68495500Y-38277500D01*
X68494500Y-38275500D01*
X68492500Y-38273500D01*
X68491500Y-38270500D01*
X68490500Y-38268500D01*
X68489500Y-38265500D01*
X68489500Y-38263500D01*
X68488500Y-38260500D01*
X68488500Y-38258500D01*
X68487500Y-38255500D01*
X68487500Y-38253500D01*
X68487500Y-38250500D01*
X68487500Y-38100500D01*
X68487500Y-38097500D01*
X68487500Y-38095500D01*
X68488500Y-38092500D01*
X68488500Y-38090500D01*
X68489500Y-38087500D01*
X68489500Y-38085500D01*
X68490500Y-38082500D01*
X68491500Y-38080500D01*
X68492500Y-38077500D01*
X68494500Y-38075500D01*
X68495500Y-38073500D01*
X68497500Y-38071500D01*
X68498500Y-38069500D01*
X68500500Y-38067500D01*
X68502500Y-38065500D01*
X68504500Y-38063500D01*
X68506500Y-38061500D01*
X68508500Y-38060500D01*
X68510500Y-38058500D01*
X68512500Y-38057500D01*
X68514500Y-38055500D01*
X68517500Y-38054500D01*
X68519500Y-38053500D01*
X68522500Y-38052500D01*
X68524500Y-38052500D01*
X68527500Y-38051500D01*
X68529500Y-38051500D01*
X68532500Y-38050500D01*
X68534500Y-38050500D01*
X68537500Y-38050500D01*
X68987500Y-38050500D01*
X68990500Y-38050500D01*
X68992500Y-38050500D01*
X68995500Y-38051500D01*
G37*
X201745500Y-38051500D02*
X201747500Y-38051500D01*
X201750500Y-38052500D01*
X201752500Y-38052500D01*
X201755500Y-38053500D01*
X201757500Y-38054500D01*
X201760500Y-38055500D01*
X201762500Y-38057500D01*
X201764500Y-38058500D01*
X201766500Y-38060500D01*
X201768500Y-38061500D01*
X201770500Y-38063500D01*
X201772500Y-38065500D01*
X201774500Y-38067500D01*
X201776500Y-38069500D01*
X201777500Y-38071500D01*
X201779500Y-38073500D01*
X201780500Y-38075500D01*
X201782500Y-38077500D01*
X201783500Y-38080500D01*
X201784500Y-38082500D01*
X201785500Y-38085500D01*
X201785500Y-38087500D01*
X201786500Y-38090500D01*
X201786500Y-38092500D01*
X201787500Y-38095500D01*
X201787500Y-38097500D01*
X201787500Y-38100500D01*
X201787500Y-38250500D01*
X201787500Y-38253500D01*
X201787500Y-38255500D01*
X201786500Y-38258500D01*
X201786500Y-38260500D01*
X201785500Y-38263500D01*
X201785500Y-38265500D01*
X201784500Y-38268500D01*
X201783500Y-38270500D01*
X201782500Y-38273500D01*
X201780500Y-38275500D01*
X201779500Y-38277500D01*
X201777500Y-38279500D01*
X201776500Y-38281500D01*
X201774500Y-38283500D01*
X201772500Y-38285500D01*
X201770500Y-38287500D01*
X201768500Y-38289500D01*
X201766500Y-38290500D01*
X201764500Y-38292500D01*
X201762500Y-38293500D01*
X201760500Y-38295500D01*
X201757500Y-38296500D01*
X201755500Y-38297500D01*
X201752500Y-38298500D01*
X201750500Y-38298500D01*
X201747500Y-38299500D01*
X201745500Y-38299500D01*
X201742500Y-38300500D01*
X201740500Y-38300500D01*
X201737500Y-38300500D01*
X201287500Y-38300500D01*
X201284500Y-38300500D01*
X201282500Y-38300500D01*
X201279500Y-38299500D01*
X201277500Y-38299500D01*
X201274500Y-38298500D01*
X201272500Y-38298500D01*
X201269500Y-38297500D01*
X201267500Y-38296500D01*
X201264500Y-38295500D01*
X201262500Y-38293500D01*
X201260500Y-38292500D01*
X201258500Y-38290500D01*
X201256500Y-38289500D01*
X201254500Y-38287500D01*
X201252500Y-38285500D01*
X201250500Y-38283500D01*
X201248500Y-38281500D01*
X201247500Y-38279500D01*
X201245500Y-38277500D01*
X201244500Y-38275500D01*
X201242500Y-38273500D01*
X201241500Y-38270500D01*
X201240500Y-38268500D01*
X201239500Y-38265500D01*
X201239500Y-38263500D01*
X201238500Y-38260500D01*
X201238500Y-38258500D01*
X201237500Y-38255500D01*
X201237500Y-38253500D01*
X201237500Y-38250500D01*
X201237500Y-38100500D01*
X201237500Y-38097500D01*
X201237500Y-38095500D01*
X201238500Y-38092500D01*
X201238500Y-38090500D01*
X201239500Y-38087500D01*
X201239500Y-38085500D01*
X201240500Y-38082500D01*
X201241500Y-38080500D01*
X201242500Y-38077500D01*
X201244500Y-38075500D01*
X201245500Y-38073500D01*
X201247500Y-38071500D01*
X201248500Y-38069500D01*
X201250500Y-38067500D01*
X201252500Y-38065500D01*
X201254500Y-38063500D01*
X201256500Y-38061500D01*
X201258500Y-38060500D01*
X201260500Y-38058500D01*
X201262500Y-38057500D01*
X201264500Y-38055500D01*
X201267500Y-38054500D01*
X201269500Y-38053500D01*
X201272500Y-38052500D01*
X201274500Y-38052500D01*
X201277500Y-38051500D01*
X201279500Y-38051500D01*
X201282500Y-38050500D01*
X201284500Y-38050500D01*
X201287500Y-38050500D01*
X201737500Y-38050500D01*
X201740500Y-38050500D01*
X201742500Y-38050500D01*
X201745500Y-38051500D01*
G36*
X201745500Y-38051500D02*
G01*
X201747500Y-38051500D01*
X201750500Y-38052500D01*
X201752500Y-38052500D01*
X201755500Y-38053500D01*
X201757500Y-38054500D01*
X201760500Y-38055500D01*
X201762500Y-38057500D01*
X201764500Y-38058500D01*
X201766500Y-38060500D01*
X201768500Y-38061500D01*
X201770500Y-38063500D01*
X201772500Y-38065500D01*
X201774500Y-38067500D01*
X201776500Y-38069500D01*
X201777500Y-38071500D01*
X201779500Y-38073500D01*
X201780500Y-38075500D01*
X201782500Y-38077500D01*
X201783500Y-38080500D01*
X201784500Y-38082500D01*
X201785500Y-38085500D01*
X201785500Y-38087500D01*
X201786500Y-38090500D01*
X201786500Y-38092500D01*
X201787500Y-38095500D01*
X201787500Y-38097500D01*
X201787500Y-38100500D01*
X201787500Y-38250500D01*
X201787500Y-38253500D01*
X201787500Y-38255500D01*
X201786500Y-38258500D01*
X201786500Y-38260500D01*
X201785500Y-38263500D01*
X201785500Y-38265500D01*
X201784500Y-38268500D01*
X201783500Y-38270500D01*
X201782500Y-38273500D01*
X201780500Y-38275500D01*
X201779500Y-38277500D01*
X201777500Y-38279500D01*
X201776500Y-38281500D01*
X201774500Y-38283500D01*
X201772500Y-38285500D01*
X201770500Y-38287500D01*
X201768500Y-38289500D01*
X201766500Y-38290500D01*
X201764500Y-38292500D01*
X201762500Y-38293500D01*
X201760500Y-38295500D01*
X201757500Y-38296500D01*
X201755500Y-38297500D01*
X201752500Y-38298500D01*
X201750500Y-38298500D01*
X201747500Y-38299500D01*
X201745500Y-38299500D01*
X201742500Y-38300500D01*
X201740500Y-38300500D01*
X201737500Y-38300500D01*
X201287500Y-38300500D01*
X201284500Y-38300500D01*
X201282500Y-38300500D01*
X201279500Y-38299500D01*
X201277500Y-38299500D01*
X201274500Y-38298500D01*
X201272500Y-38298500D01*
X201269500Y-38297500D01*
X201267500Y-38296500D01*
X201264500Y-38295500D01*
X201262500Y-38293500D01*
X201260500Y-38292500D01*
X201258500Y-38290500D01*
X201256500Y-38289500D01*
X201254500Y-38287500D01*
X201252500Y-38285500D01*
X201250500Y-38283500D01*
X201248500Y-38281500D01*
X201247500Y-38279500D01*
X201245500Y-38277500D01*
X201244500Y-38275500D01*
X201242500Y-38273500D01*
X201241500Y-38270500D01*
X201240500Y-38268500D01*
X201239500Y-38265500D01*
X201239500Y-38263500D01*
X201238500Y-38260500D01*
X201238500Y-38258500D01*
X201237500Y-38255500D01*
X201237500Y-38253500D01*
X201237500Y-38250500D01*
X201237500Y-38100500D01*
X201237500Y-38097500D01*
X201237500Y-38095500D01*
X201238500Y-38092500D01*
X201238500Y-38090500D01*
X201239500Y-38087500D01*
X201239500Y-38085500D01*
X201240500Y-38082500D01*
X201241500Y-38080500D01*
X201242500Y-38077500D01*
X201244500Y-38075500D01*
X201245500Y-38073500D01*
X201247500Y-38071500D01*
X201248500Y-38069500D01*
X201250500Y-38067500D01*
X201252500Y-38065500D01*
X201254500Y-38063500D01*
X201256500Y-38061500D01*
X201258500Y-38060500D01*
X201260500Y-38058500D01*
X201262500Y-38057500D01*
X201264500Y-38055500D01*
X201267500Y-38054500D01*
X201269500Y-38053500D01*
X201272500Y-38052500D01*
X201274500Y-38052500D01*
X201277500Y-38051500D01*
X201279500Y-38051500D01*
X201282500Y-38050500D01*
X201284500Y-38050500D01*
X201287500Y-38050500D01*
X201737500Y-38050500D01*
X201740500Y-38050500D01*
X201742500Y-38050500D01*
X201745500Y-38051500D01*
G37*
X202495500Y-38051500D02*
X202497500Y-38051500D01*
X202500500Y-38052500D01*
X202502500Y-38052500D01*
X202505500Y-38053500D01*
X202507500Y-38054500D01*
X202510500Y-38055500D01*
X202512500Y-38057500D01*
X202514500Y-38058500D01*
X202516500Y-38060500D01*
X202518500Y-38061500D01*
X202520500Y-38063500D01*
X202522500Y-38065500D01*
X202524500Y-38067500D01*
X202526500Y-38069500D01*
X202527500Y-38071500D01*
X202529500Y-38073500D01*
X202530500Y-38075500D01*
X202532500Y-38077500D01*
X202533500Y-38080500D01*
X202534500Y-38082500D01*
X202535500Y-38085500D01*
X202535500Y-38087500D01*
X202536500Y-38090500D01*
X202536500Y-38092500D01*
X202537500Y-38095500D01*
X202537500Y-38097500D01*
X202537500Y-38100500D01*
X202537500Y-38250500D01*
X202537500Y-38253500D01*
X202537500Y-38255500D01*
X202536500Y-38258500D01*
X202536500Y-38260500D01*
X202535500Y-38263500D01*
X202535500Y-38265500D01*
X202534500Y-38268500D01*
X202533500Y-38270500D01*
X202532500Y-38273500D01*
X202530500Y-38275500D01*
X202529500Y-38277500D01*
X202527500Y-38279500D01*
X202526500Y-38281500D01*
X202524500Y-38283500D01*
X202522500Y-38285500D01*
X202520500Y-38287500D01*
X202518500Y-38289500D01*
X202516500Y-38290500D01*
X202514500Y-38292500D01*
X202512500Y-38293500D01*
X202510500Y-38295500D01*
X202507500Y-38296500D01*
X202505500Y-38297500D01*
X202502500Y-38298500D01*
X202500500Y-38298500D01*
X202497500Y-38299500D01*
X202495500Y-38299500D01*
X202492500Y-38300500D01*
X202490500Y-38300500D01*
X202487500Y-38300500D01*
X202037500Y-38300500D01*
X202034500Y-38300500D01*
X202032500Y-38300500D01*
X202029500Y-38299500D01*
X202027500Y-38299500D01*
X202024500Y-38298500D01*
X202022500Y-38298500D01*
X202019500Y-38297500D01*
X202017500Y-38296500D01*
X202014500Y-38295500D01*
X202012500Y-38293500D01*
X202010500Y-38292500D01*
X202008500Y-38290500D01*
X202006500Y-38289500D01*
X202004500Y-38287500D01*
X202002500Y-38285500D01*
X202000500Y-38283500D01*
X201998500Y-38281500D01*
X201997500Y-38279500D01*
X201995500Y-38277500D01*
X201994500Y-38275500D01*
X201992500Y-38273500D01*
X201991500Y-38270500D01*
X201990500Y-38268500D01*
X201989500Y-38265500D01*
X201989500Y-38263500D01*
X201988500Y-38260500D01*
X201988500Y-38258500D01*
X201987500Y-38255500D01*
X201987500Y-38253500D01*
X201987500Y-38250500D01*
X201987500Y-38100500D01*
X201987500Y-38097500D01*
X201987500Y-38095500D01*
X201988500Y-38092500D01*
X201988500Y-38090500D01*
X201989500Y-38087500D01*
X201989500Y-38085500D01*
X201990500Y-38082500D01*
X201991500Y-38080500D01*
X201992500Y-38077500D01*
X201994500Y-38075500D01*
X201995500Y-38073500D01*
X201997500Y-38071500D01*
X201998500Y-38069500D01*
X202000500Y-38067500D01*
X202002500Y-38065500D01*
X202004500Y-38063500D01*
X202006500Y-38061500D01*
X202008500Y-38060500D01*
X202010500Y-38058500D01*
X202012500Y-38057500D01*
X202014500Y-38055500D01*
X202017500Y-38054500D01*
X202019500Y-38053500D01*
X202022500Y-38052500D01*
X202024500Y-38052500D01*
X202027500Y-38051500D01*
X202029500Y-38051500D01*
X202032500Y-38050500D01*
X202034500Y-38050500D01*
X202037500Y-38050500D01*
X202487500Y-38050500D01*
X202490500Y-38050500D01*
X202492500Y-38050500D01*
X202495500Y-38051500D01*
G36*
X202495500Y-38051500D02*
G01*
X202497500Y-38051500D01*
X202500500Y-38052500D01*
X202502500Y-38052500D01*
X202505500Y-38053500D01*
X202507500Y-38054500D01*
X202510500Y-38055500D01*
X202512500Y-38057500D01*
X202514500Y-38058500D01*
X202516500Y-38060500D01*
X202518500Y-38061500D01*
X202520500Y-38063500D01*
X202522500Y-38065500D01*
X202524500Y-38067500D01*
X202526500Y-38069500D01*
X202527500Y-38071500D01*
X202529500Y-38073500D01*
X202530500Y-38075500D01*
X202532500Y-38077500D01*
X202533500Y-38080500D01*
X202534500Y-38082500D01*
X202535500Y-38085500D01*
X202535500Y-38087500D01*
X202536500Y-38090500D01*
X202536500Y-38092500D01*
X202537500Y-38095500D01*
X202537500Y-38097500D01*
X202537500Y-38100500D01*
X202537500Y-38250500D01*
X202537500Y-38253500D01*
X202537500Y-38255500D01*
X202536500Y-38258500D01*
X202536500Y-38260500D01*
X202535500Y-38263500D01*
X202535500Y-38265500D01*
X202534500Y-38268500D01*
X202533500Y-38270500D01*
X202532500Y-38273500D01*
X202530500Y-38275500D01*
X202529500Y-38277500D01*
X202527500Y-38279500D01*
X202526500Y-38281500D01*
X202524500Y-38283500D01*
X202522500Y-38285500D01*
X202520500Y-38287500D01*
X202518500Y-38289500D01*
X202516500Y-38290500D01*
X202514500Y-38292500D01*
X202512500Y-38293500D01*
X202510500Y-38295500D01*
X202507500Y-38296500D01*
X202505500Y-38297500D01*
X202502500Y-38298500D01*
X202500500Y-38298500D01*
X202497500Y-38299500D01*
X202495500Y-38299500D01*
X202492500Y-38300500D01*
X202490500Y-38300500D01*
X202487500Y-38300500D01*
X202037500Y-38300500D01*
X202034500Y-38300500D01*
X202032500Y-38300500D01*
X202029500Y-38299500D01*
X202027500Y-38299500D01*
X202024500Y-38298500D01*
X202022500Y-38298500D01*
X202019500Y-38297500D01*
X202017500Y-38296500D01*
X202014500Y-38295500D01*
X202012500Y-38293500D01*
X202010500Y-38292500D01*
X202008500Y-38290500D01*
X202006500Y-38289500D01*
X202004500Y-38287500D01*
X202002500Y-38285500D01*
X202000500Y-38283500D01*
X201998500Y-38281500D01*
X201997500Y-38279500D01*
X201995500Y-38277500D01*
X201994500Y-38275500D01*
X201992500Y-38273500D01*
X201991500Y-38270500D01*
X201990500Y-38268500D01*
X201989500Y-38265500D01*
X201989500Y-38263500D01*
X201988500Y-38260500D01*
X201988500Y-38258500D01*
X201987500Y-38255500D01*
X201987500Y-38253500D01*
X201987500Y-38250500D01*
X201987500Y-38100500D01*
X201987500Y-38097500D01*
X201987500Y-38095500D01*
X201988500Y-38092500D01*
X201988500Y-38090500D01*
X201989500Y-38087500D01*
X201989500Y-38085500D01*
X201990500Y-38082500D01*
X201991500Y-38080500D01*
X201992500Y-38077500D01*
X201994500Y-38075500D01*
X201995500Y-38073500D01*
X201997500Y-38071500D01*
X201998500Y-38069500D01*
X202000500Y-38067500D01*
X202002500Y-38065500D01*
X202004500Y-38063500D01*
X202006500Y-38061500D01*
X202008500Y-38060500D01*
X202010500Y-38058500D01*
X202012500Y-38057500D01*
X202014500Y-38055500D01*
X202017500Y-38054500D01*
X202019500Y-38053500D01*
X202022500Y-38052500D01*
X202024500Y-38052500D01*
X202027500Y-38051500D01*
X202029500Y-38051500D01*
X202032500Y-38050500D01*
X202034500Y-38050500D01*
X202037500Y-38050500D01*
X202487500Y-38050500D01*
X202490500Y-38050500D01*
X202492500Y-38050500D01*
X202495500Y-38051500D01*
G37*
X201745500Y-87051500D02*
X201747500Y-87051500D01*
X201750500Y-87052500D01*
X201752500Y-87052500D01*
X201755500Y-87053500D01*
X201757500Y-87054500D01*
X201760500Y-87055500D01*
X201762500Y-87057500D01*
X201764500Y-87058500D01*
X201766500Y-87060500D01*
X201768500Y-87061500D01*
X201770500Y-87063500D01*
X201772500Y-87065500D01*
X201774500Y-87067500D01*
X201776500Y-87069500D01*
X201777500Y-87071500D01*
X201779500Y-87073500D01*
X201780500Y-87075500D01*
X201782500Y-87077500D01*
X201783500Y-87080500D01*
X201784500Y-87082500D01*
X201785500Y-87085500D01*
X201785500Y-87087500D01*
X201786500Y-87090500D01*
X201786500Y-87092500D01*
X201787500Y-87095500D01*
X201787500Y-87097500D01*
X201787500Y-87100500D01*
X201787500Y-87250500D01*
X201787500Y-87253500D01*
X201787500Y-87255500D01*
X201786500Y-87258500D01*
X201786500Y-87260500D01*
X201785500Y-87263500D01*
X201785500Y-87265500D01*
X201784500Y-87268500D01*
X201783500Y-87270500D01*
X201782500Y-87273500D01*
X201780500Y-87275500D01*
X201779500Y-87277500D01*
X201777500Y-87279500D01*
X201776500Y-87281500D01*
X201774500Y-87283500D01*
X201772500Y-87285500D01*
X201770500Y-87287500D01*
X201768500Y-87289500D01*
X201766500Y-87290500D01*
X201764500Y-87292500D01*
X201762500Y-87293500D01*
X201760500Y-87295500D01*
X201757500Y-87296500D01*
X201755500Y-87297500D01*
X201752500Y-87298500D01*
X201750500Y-87298500D01*
X201747500Y-87299500D01*
X201745500Y-87299500D01*
X201742500Y-87300500D01*
X201740500Y-87300500D01*
X201737500Y-87300500D01*
X201287500Y-87300500D01*
X201284500Y-87300500D01*
X201282500Y-87300500D01*
X201279500Y-87299500D01*
X201277500Y-87299500D01*
X201274500Y-87298500D01*
X201272500Y-87298500D01*
X201269500Y-87297500D01*
X201267500Y-87296500D01*
X201264500Y-87295500D01*
X201262500Y-87293500D01*
X201260500Y-87292500D01*
X201258500Y-87290500D01*
X201256500Y-87289500D01*
X201254500Y-87287500D01*
X201252500Y-87285500D01*
X201250500Y-87283500D01*
X201248500Y-87281500D01*
X201247500Y-87279500D01*
X201245500Y-87277500D01*
X201244500Y-87275500D01*
X201242500Y-87273500D01*
X201241500Y-87270500D01*
X201240500Y-87268500D01*
X201239500Y-87265500D01*
X201239500Y-87263500D01*
X201238500Y-87260500D01*
X201238500Y-87258500D01*
X201237500Y-87255500D01*
X201237500Y-87253500D01*
X201237500Y-87250500D01*
X201237500Y-87100500D01*
X201237500Y-87097500D01*
X201237500Y-87095500D01*
X201238500Y-87092500D01*
X201238500Y-87090500D01*
X201239500Y-87087500D01*
X201239500Y-87085500D01*
X201240500Y-87082500D01*
X201241500Y-87080500D01*
X201242500Y-87077500D01*
X201244500Y-87075500D01*
X201245500Y-87073500D01*
X201247500Y-87071500D01*
X201248500Y-87069500D01*
X201250500Y-87067500D01*
X201252500Y-87065500D01*
X201254500Y-87063500D01*
X201256500Y-87061500D01*
X201258500Y-87060500D01*
X201260500Y-87058500D01*
X201262500Y-87057500D01*
X201264500Y-87055500D01*
X201267500Y-87054500D01*
X201269500Y-87053500D01*
X201272500Y-87052500D01*
X201274500Y-87052500D01*
X201277500Y-87051500D01*
X201279500Y-87051500D01*
X201282500Y-87050500D01*
X201284500Y-87050500D01*
X201287500Y-87050500D01*
X201737500Y-87050500D01*
X201740500Y-87050500D01*
X201742500Y-87050500D01*
X201745500Y-87051500D01*
G36*
X201745500Y-87051500D02*
G01*
X201747500Y-87051500D01*
X201750500Y-87052500D01*
X201752500Y-87052500D01*
X201755500Y-87053500D01*
X201757500Y-87054500D01*
X201760500Y-87055500D01*
X201762500Y-87057500D01*
X201764500Y-87058500D01*
X201766500Y-87060500D01*
X201768500Y-87061500D01*
X201770500Y-87063500D01*
X201772500Y-87065500D01*
X201774500Y-87067500D01*
X201776500Y-87069500D01*
X201777500Y-87071500D01*
X201779500Y-87073500D01*
X201780500Y-87075500D01*
X201782500Y-87077500D01*
X201783500Y-87080500D01*
X201784500Y-87082500D01*
X201785500Y-87085500D01*
X201785500Y-87087500D01*
X201786500Y-87090500D01*
X201786500Y-87092500D01*
X201787500Y-87095500D01*
X201787500Y-87097500D01*
X201787500Y-87100500D01*
X201787500Y-87250500D01*
X201787500Y-87253500D01*
X201787500Y-87255500D01*
X201786500Y-87258500D01*
X201786500Y-87260500D01*
X201785500Y-87263500D01*
X201785500Y-87265500D01*
X201784500Y-87268500D01*
X201783500Y-87270500D01*
X201782500Y-87273500D01*
X201780500Y-87275500D01*
X201779500Y-87277500D01*
X201777500Y-87279500D01*
X201776500Y-87281500D01*
X201774500Y-87283500D01*
X201772500Y-87285500D01*
X201770500Y-87287500D01*
X201768500Y-87289500D01*
X201766500Y-87290500D01*
X201764500Y-87292500D01*
X201762500Y-87293500D01*
X201760500Y-87295500D01*
X201757500Y-87296500D01*
X201755500Y-87297500D01*
X201752500Y-87298500D01*
X201750500Y-87298500D01*
X201747500Y-87299500D01*
X201745500Y-87299500D01*
X201742500Y-87300500D01*
X201740500Y-87300500D01*
X201737500Y-87300500D01*
X201287500Y-87300500D01*
X201284500Y-87300500D01*
X201282500Y-87300500D01*
X201279500Y-87299500D01*
X201277500Y-87299500D01*
X201274500Y-87298500D01*
X201272500Y-87298500D01*
X201269500Y-87297500D01*
X201267500Y-87296500D01*
X201264500Y-87295500D01*
X201262500Y-87293500D01*
X201260500Y-87292500D01*
X201258500Y-87290500D01*
X201256500Y-87289500D01*
X201254500Y-87287500D01*
X201252500Y-87285500D01*
X201250500Y-87283500D01*
X201248500Y-87281500D01*
X201247500Y-87279500D01*
X201245500Y-87277500D01*
X201244500Y-87275500D01*
X201242500Y-87273500D01*
X201241500Y-87270500D01*
X201240500Y-87268500D01*
X201239500Y-87265500D01*
X201239500Y-87263500D01*
X201238500Y-87260500D01*
X201238500Y-87258500D01*
X201237500Y-87255500D01*
X201237500Y-87253500D01*
X201237500Y-87250500D01*
X201237500Y-87100500D01*
X201237500Y-87097500D01*
X201237500Y-87095500D01*
X201238500Y-87092500D01*
X201238500Y-87090500D01*
X201239500Y-87087500D01*
X201239500Y-87085500D01*
X201240500Y-87082500D01*
X201241500Y-87080500D01*
X201242500Y-87077500D01*
X201244500Y-87075500D01*
X201245500Y-87073500D01*
X201247500Y-87071500D01*
X201248500Y-87069500D01*
X201250500Y-87067500D01*
X201252500Y-87065500D01*
X201254500Y-87063500D01*
X201256500Y-87061500D01*
X201258500Y-87060500D01*
X201260500Y-87058500D01*
X201262500Y-87057500D01*
X201264500Y-87055500D01*
X201267500Y-87054500D01*
X201269500Y-87053500D01*
X201272500Y-87052500D01*
X201274500Y-87052500D01*
X201277500Y-87051500D01*
X201279500Y-87051500D01*
X201282500Y-87050500D01*
X201284500Y-87050500D01*
X201287500Y-87050500D01*
X201737500Y-87050500D01*
X201740500Y-87050500D01*
X201742500Y-87050500D01*
X201745500Y-87051500D01*
G37*
X202495500Y-87051500D02*
X202497500Y-87051500D01*
X202500500Y-87052500D01*
X202502500Y-87052500D01*
X202505500Y-87053500D01*
X202507500Y-87054500D01*
X202510500Y-87055500D01*
X202512500Y-87057500D01*
X202514500Y-87058500D01*
X202516500Y-87060500D01*
X202518500Y-87061500D01*
X202520500Y-87063500D01*
X202522500Y-87065500D01*
X202524500Y-87067500D01*
X202526500Y-87069500D01*
X202527500Y-87071500D01*
X202529500Y-87073500D01*
X202530500Y-87075500D01*
X202532500Y-87077500D01*
X202533500Y-87080500D01*
X202534500Y-87082500D01*
X202535500Y-87085500D01*
X202535500Y-87087500D01*
X202536500Y-87090500D01*
X202536500Y-87092500D01*
X202537500Y-87095500D01*
X202537500Y-87097500D01*
X202537500Y-87100500D01*
X202537500Y-87250500D01*
X202537500Y-87253500D01*
X202537500Y-87255500D01*
X202536500Y-87258500D01*
X202536500Y-87260500D01*
X202535500Y-87263500D01*
X202535500Y-87265500D01*
X202534500Y-87268500D01*
X202533500Y-87270500D01*
X202532500Y-87273500D01*
X202530500Y-87275500D01*
X202529500Y-87277500D01*
X202527500Y-87279500D01*
X202526500Y-87281500D01*
X202524500Y-87283500D01*
X202522500Y-87285500D01*
X202520500Y-87287500D01*
X202518500Y-87289500D01*
X202516500Y-87290500D01*
X202514500Y-87292500D01*
X202512500Y-87293500D01*
X202510500Y-87295500D01*
X202507500Y-87296500D01*
X202505500Y-87297500D01*
X202502500Y-87298500D01*
X202500500Y-87298500D01*
X202497500Y-87299500D01*
X202495500Y-87299500D01*
X202492500Y-87300500D01*
X202490500Y-87300500D01*
X202487500Y-87300500D01*
X202037500Y-87300500D01*
X202034500Y-87300500D01*
X202032500Y-87300500D01*
X202029500Y-87299500D01*
X202027500Y-87299500D01*
X202024500Y-87298500D01*
X202022500Y-87298500D01*
X202019500Y-87297500D01*
X202017500Y-87296500D01*
X202014500Y-87295500D01*
X202012500Y-87293500D01*
X202010500Y-87292500D01*
X202008500Y-87290500D01*
X202006500Y-87289500D01*
X202004500Y-87287500D01*
X202002500Y-87285500D01*
X202000500Y-87283500D01*
X201998500Y-87281500D01*
X201997500Y-87279500D01*
X201995500Y-87277500D01*
X201994500Y-87275500D01*
X201992500Y-87273500D01*
X201991500Y-87270500D01*
X201990500Y-87268500D01*
X201989500Y-87265500D01*
X201989500Y-87263500D01*
X201988500Y-87260500D01*
X201988500Y-87258500D01*
X201987500Y-87255500D01*
X201987500Y-87253500D01*
X201987500Y-87250500D01*
X201987500Y-87100500D01*
X201987500Y-87097500D01*
X201987500Y-87095500D01*
X201988500Y-87092500D01*
X201988500Y-87090500D01*
X201989500Y-87087500D01*
X201989500Y-87085500D01*
X201990500Y-87082500D01*
X201991500Y-87080500D01*
X201992500Y-87077500D01*
X201994500Y-87075500D01*
X201995500Y-87073500D01*
X201997500Y-87071500D01*
X201998500Y-87069500D01*
X202000500Y-87067500D01*
X202002500Y-87065500D01*
X202004500Y-87063500D01*
X202006500Y-87061500D01*
X202008500Y-87060500D01*
X202010500Y-87058500D01*
X202012500Y-87057500D01*
X202014500Y-87055500D01*
X202017500Y-87054500D01*
X202019500Y-87053500D01*
X202022500Y-87052500D01*
X202024500Y-87052500D01*
X202027500Y-87051500D01*
X202029500Y-87051500D01*
X202032500Y-87050500D01*
X202034500Y-87050500D01*
X202037500Y-87050500D01*
X202487500Y-87050500D01*
X202490500Y-87050500D01*
X202492500Y-87050500D01*
X202495500Y-87051500D01*
G36*
X202495500Y-87051500D02*
G01*
X202497500Y-87051500D01*
X202500500Y-87052500D01*
X202502500Y-87052500D01*
X202505500Y-87053500D01*
X202507500Y-87054500D01*
X202510500Y-87055500D01*
X202512500Y-87057500D01*
X202514500Y-87058500D01*
X202516500Y-87060500D01*
X202518500Y-87061500D01*
X202520500Y-87063500D01*
X202522500Y-87065500D01*
X202524500Y-87067500D01*
X202526500Y-87069500D01*
X202527500Y-87071500D01*
X202529500Y-87073500D01*
X202530500Y-87075500D01*
X202532500Y-87077500D01*
X202533500Y-87080500D01*
X202534500Y-87082500D01*
X202535500Y-87085500D01*
X202535500Y-87087500D01*
X202536500Y-87090500D01*
X202536500Y-87092500D01*
X202537500Y-87095500D01*
X202537500Y-87097500D01*
X202537500Y-87100500D01*
X202537500Y-87250500D01*
X202537500Y-87253500D01*
X202537500Y-87255500D01*
X202536500Y-87258500D01*
X202536500Y-87260500D01*
X202535500Y-87263500D01*
X202535500Y-87265500D01*
X202534500Y-87268500D01*
X202533500Y-87270500D01*
X202532500Y-87273500D01*
X202530500Y-87275500D01*
X202529500Y-87277500D01*
X202527500Y-87279500D01*
X202526500Y-87281500D01*
X202524500Y-87283500D01*
X202522500Y-87285500D01*
X202520500Y-87287500D01*
X202518500Y-87289500D01*
X202516500Y-87290500D01*
X202514500Y-87292500D01*
X202512500Y-87293500D01*
X202510500Y-87295500D01*
X202507500Y-87296500D01*
X202505500Y-87297500D01*
X202502500Y-87298500D01*
X202500500Y-87298500D01*
X202497500Y-87299500D01*
X202495500Y-87299500D01*
X202492500Y-87300500D01*
X202490500Y-87300500D01*
X202487500Y-87300500D01*
X202037500Y-87300500D01*
X202034500Y-87300500D01*
X202032500Y-87300500D01*
X202029500Y-87299500D01*
X202027500Y-87299500D01*
X202024500Y-87298500D01*
X202022500Y-87298500D01*
X202019500Y-87297500D01*
X202017500Y-87296500D01*
X202014500Y-87295500D01*
X202012500Y-87293500D01*
X202010500Y-87292500D01*
X202008500Y-87290500D01*
X202006500Y-87289500D01*
X202004500Y-87287500D01*
X202002500Y-87285500D01*
X202000500Y-87283500D01*
X201998500Y-87281500D01*
X201997500Y-87279500D01*
X201995500Y-87277500D01*
X201994500Y-87275500D01*
X201992500Y-87273500D01*
X201991500Y-87270500D01*
X201990500Y-87268500D01*
X201989500Y-87265500D01*
X201989500Y-87263500D01*
X201988500Y-87260500D01*
X201988500Y-87258500D01*
X201987500Y-87255500D01*
X201987500Y-87253500D01*
X201987500Y-87250500D01*
X201987500Y-87100500D01*
X201987500Y-87097500D01*
X201987500Y-87095500D01*
X201988500Y-87092500D01*
X201988500Y-87090500D01*
X201989500Y-87087500D01*
X201989500Y-87085500D01*
X201990500Y-87082500D01*
X201991500Y-87080500D01*
X201992500Y-87077500D01*
X201994500Y-87075500D01*
X201995500Y-87073500D01*
X201997500Y-87071500D01*
X201998500Y-87069500D01*
X202000500Y-87067500D01*
X202002500Y-87065500D01*
X202004500Y-87063500D01*
X202006500Y-87061500D01*
X202008500Y-87060500D01*
X202010500Y-87058500D01*
X202012500Y-87057500D01*
X202014500Y-87055500D01*
X202017500Y-87054500D01*
X202019500Y-87053500D01*
X202022500Y-87052500D01*
X202024500Y-87052500D01*
X202027500Y-87051500D01*
X202029500Y-87051500D01*
X202032500Y-87050500D01*
X202034500Y-87050500D01*
X202037500Y-87050500D01*
X202487500Y-87050500D01*
X202490500Y-87050500D01*
X202492500Y-87050500D01*
X202495500Y-87051500D01*
G37*
X68245500Y-136051500D02*
X68247500Y-136051500D01*
X68250500Y-136052500D01*
X68252500Y-136052500D01*
X68255500Y-136053500D01*
X68257500Y-136054500D01*
X68260500Y-136055500D01*
X68262500Y-136057500D01*
X68264500Y-136058500D01*
X68266500Y-136060500D01*
X68268500Y-136061500D01*
X68270500Y-136063500D01*
X68272500Y-136065500D01*
X68274500Y-136067500D01*
X68276500Y-136069500D01*
X68277500Y-136071500D01*
X68279500Y-136073500D01*
X68280500Y-136075500D01*
X68282500Y-136077500D01*
X68283500Y-136080500D01*
X68284500Y-136082500D01*
X68285500Y-136085500D01*
X68285500Y-136087500D01*
X68286500Y-136090500D01*
X68286500Y-136092500D01*
X68287500Y-136095500D01*
X68287500Y-136097500D01*
X68287500Y-136100500D01*
X68287500Y-136250500D01*
X68287500Y-136253500D01*
X68287500Y-136255500D01*
X68286500Y-136258500D01*
X68286500Y-136260500D01*
X68285500Y-136263500D01*
X68285500Y-136265500D01*
X68284500Y-136268500D01*
X68283500Y-136270500D01*
X68282500Y-136273500D01*
X68280500Y-136275500D01*
X68279500Y-136277500D01*
X68277500Y-136279500D01*
X68276500Y-136281500D01*
X68274500Y-136283500D01*
X68272500Y-136285500D01*
X68270500Y-136287500D01*
X68268500Y-136289500D01*
X68266500Y-136290500D01*
X68264500Y-136292500D01*
X68262500Y-136293500D01*
X68260500Y-136295500D01*
X68257500Y-136296500D01*
X68255500Y-136297500D01*
X68252500Y-136298500D01*
X68250500Y-136298500D01*
X68247500Y-136299500D01*
X68245500Y-136299500D01*
X68242500Y-136300500D01*
X68240500Y-136300500D01*
X68237500Y-136300500D01*
X67787500Y-136300500D01*
X67784500Y-136300500D01*
X67782500Y-136300500D01*
X67779500Y-136299500D01*
X67777500Y-136299500D01*
X67774500Y-136298500D01*
X67772500Y-136298500D01*
X67769500Y-136297500D01*
X67767500Y-136296500D01*
X67764500Y-136295500D01*
X67762500Y-136293500D01*
X67760500Y-136292500D01*
X67758500Y-136290500D01*
X67756500Y-136289500D01*
X67754500Y-136287500D01*
X67752500Y-136285500D01*
X67750500Y-136283500D01*
X67748500Y-136281500D01*
X67747500Y-136279500D01*
X67745500Y-136277500D01*
X67744500Y-136275500D01*
X67742500Y-136273500D01*
X67741500Y-136270500D01*
X67740500Y-136268500D01*
X67739500Y-136265500D01*
X67739500Y-136263500D01*
X67738500Y-136260500D01*
X67738500Y-136258500D01*
X67737500Y-136255500D01*
X67737500Y-136253500D01*
X67737500Y-136250500D01*
X67737500Y-136100500D01*
X67737500Y-136097500D01*
X67737500Y-136095500D01*
X67738500Y-136092500D01*
X67738500Y-136090500D01*
X67739500Y-136087500D01*
X67739500Y-136085500D01*
X67740500Y-136082500D01*
X67741500Y-136080500D01*
X67742500Y-136077500D01*
X67744500Y-136075500D01*
X67745500Y-136073500D01*
X67747500Y-136071500D01*
X67748500Y-136069500D01*
X67750500Y-136067500D01*
X67752500Y-136065500D01*
X67754500Y-136063500D01*
X67756500Y-136061500D01*
X67758500Y-136060500D01*
X67760500Y-136058500D01*
X67762500Y-136057500D01*
X67764500Y-136055500D01*
X67767500Y-136054500D01*
X67769500Y-136053500D01*
X67772500Y-136052500D01*
X67774500Y-136052500D01*
X67777500Y-136051500D01*
X67779500Y-136051500D01*
X67782500Y-136050500D01*
X67784500Y-136050500D01*
X67787500Y-136050500D01*
X68237500Y-136050500D01*
X68240500Y-136050500D01*
X68242500Y-136050500D01*
X68245500Y-136051500D01*
G36*
X68245500Y-136051500D02*
G01*
X68247500Y-136051500D01*
X68250500Y-136052500D01*
X68252500Y-136052500D01*
X68255500Y-136053500D01*
X68257500Y-136054500D01*
X68260500Y-136055500D01*
X68262500Y-136057500D01*
X68264500Y-136058500D01*
X68266500Y-136060500D01*
X68268500Y-136061500D01*
X68270500Y-136063500D01*
X68272500Y-136065500D01*
X68274500Y-136067500D01*
X68276500Y-136069500D01*
X68277500Y-136071500D01*
X68279500Y-136073500D01*
X68280500Y-136075500D01*
X68282500Y-136077500D01*
X68283500Y-136080500D01*
X68284500Y-136082500D01*
X68285500Y-136085500D01*
X68285500Y-136087500D01*
X68286500Y-136090500D01*
X68286500Y-136092500D01*
X68287500Y-136095500D01*
X68287500Y-136097500D01*
X68287500Y-136100500D01*
X68287500Y-136250500D01*
X68287500Y-136253500D01*
X68287500Y-136255500D01*
X68286500Y-136258500D01*
X68286500Y-136260500D01*
X68285500Y-136263500D01*
X68285500Y-136265500D01*
X68284500Y-136268500D01*
X68283500Y-136270500D01*
X68282500Y-136273500D01*
X68280500Y-136275500D01*
X68279500Y-136277500D01*
X68277500Y-136279500D01*
X68276500Y-136281500D01*
X68274500Y-136283500D01*
X68272500Y-136285500D01*
X68270500Y-136287500D01*
X68268500Y-136289500D01*
X68266500Y-136290500D01*
X68264500Y-136292500D01*
X68262500Y-136293500D01*
X68260500Y-136295500D01*
X68257500Y-136296500D01*
X68255500Y-136297500D01*
X68252500Y-136298500D01*
X68250500Y-136298500D01*
X68247500Y-136299500D01*
X68245500Y-136299500D01*
X68242500Y-136300500D01*
X68240500Y-136300500D01*
X68237500Y-136300500D01*
X67787500Y-136300500D01*
X67784500Y-136300500D01*
X67782500Y-136300500D01*
X67779500Y-136299500D01*
X67777500Y-136299500D01*
X67774500Y-136298500D01*
X67772500Y-136298500D01*
X67769500Y-136297500D01*
X67767500Y-136296500D01*
X67764500Y-136295500D01*
X67762500Y-136293500D01*
X67760500Y-136292500D01*
X67758500Y-136290500D01*
X67756500Y-136289500D01*
X67754500Y-136287500D01*
X67752500Y-136285500D01*
X67750500Y-136283500D01*
X67748500Y-136281500D01*
X67747500Y-136279500D01*
X67745500Y-136277500D01*
X67744500Y-136275500D01*
X67742500Y-136273500D01*
X67741500Y-136270500D01*
X67740500Y-136268500D01*
X67739500Y-136265500D01*
X67739500Y-136263500D01*
X67738500Y-136260500D01*
X67738500Y-136258500D01*
X67737500Y-136255500D01*
X67737500Y-136253500D01*
X67737500Y-136250500D01*
X67737500Y-136100500D01*
X67737500Y-136097500D01*
X67737500Y-136095500D01*
X67738500Y-136092500D01*
X67738500Y-136090500D01*
X67739500Y-136087500D01*
X67739500Y-136085500D01*
X67740500Y-136082500D01*
X67741500Y-136080500D01*
X67742500Y-136077500D01*
X67744500Y-136075500D01*
X67745500Y-136073500D01*
X67747500Y-136071500D01*
X67748500Y-136069500D01*
X67750500Y-136067500D01*
X67752500Y-136065500D01*
X67754500Y-136063500D01*
X67756500Y-136061500D01*
X67758500Y-136060500D01*
X67760500Y-136058500D01*
X67762500Y-136057500D01*
X67764500Y-136055500D01*
X67767500Y-136054500D01*
X67769500Y-136053500D01*
X67772500Y-136052500D01*
X67774500Y-136052500D01*
X67777500Y-136051500D01*
X67779500Y-136051500D01*
X67782500Y-136050500D01*
X67784500Y-136050500D01*
X67787500Y-136050500D01*
X68237500Y-136050500D01*
X68240500Y-136050500D01*
X68242500Y-136050500D01*
X68245500Y-136051500D01*
G37*
X68995500Y-136051500D02*
X68997500Y-136051500D01*
X69000500Y-136052500D01*
X69002500Y-136052500D01*
X69005500Y-136053500D01*
X69007500Y-136054500D01*
X69010500Y-136055500D01*
X69012500Y-136057500D01*
X69014500Y-136058500D01*
X69016500Y-136060500D01*
X69018500Y-136061500D01*
X69020500Y-136063500D01*
X69022500Y-136065500D01*
X69024500Y-136067500D01*
X69026500Y-136069500D01*
X69027500Y-136071500D01*
X69029500Y-136073500D01*
X69030500Y-136075500D01*
X69032500Y-136077500D01*
X69033500Y-136080500D01*
X69034500Y-136082500D01*
X69035500Y-136085500D01*
X69035500Y-136087500D01*
X69036500Y-136090500D01*
X69036500Y-136092500D01*
X69037500Y-136095500D01*
X69037500Y-136097500D01*
X69037500Y-136100500D01*
X69037500Y-136250500D01*
X69037500Y-136253500D01*
X69037500Y-136255500D01*
X69036500Y-136258500D01*
X69036500Y-136260500D01*
X69035500Y-136263500D01*
X69035500Y-136265500D01*
X69034500Y-136268500D01*
X69033500Y-136270500D01*
X69032500Y-136273500D01*
X69030500Y-136275500D01*
X69029500Y-136277500D01*
X69027500Y-136279500D01*
X69026500Y-136281500D01*
X69024500Y-136283500D01*
X69022500Y-136285500D01*
X69020500Y-136287500D01*
X69018500Y-136289500D01*
X69016500Y-136290500D01*
X69014500Y-136292500D01*
X69012500Y-136293500D01*
X69010500Y-136295500D01*
X69007500Y-136296500D01*
X69005500Y-136297500D01*
X69002500Y-136298500D01*
X69000500Y-136298500D01*
X68997500Y-136299500D01*
X68995500Y-136299500D01*
X68992500Y-136300500D01*
X68990500Y-136300500D01*
X68987500Y-136300500D01*
X68537500Y-136300500D01*
X68534500Y-136300500D01*
X68532500Y-136300500D01*
X68529500Y-136299500D01*
X68527500Y-136299500D01*
X68524500Y-136298500D01*
X68522500Y-136298500D01*
X68519500Y-136297500D01*
X68517500Y-136296500D01*
X68514500Y-136295500D01*
X68512500Y-136293500D01*
X68510500Y-136292500D01*
X68508500Y-136290500D01*
X68506500Y-136289500D01*
X68504500Y-136287500D01*
X68502500Y-136285500D01*
X68500500Y-136283500D01*
X68498500Y-136281500D01*
X68497500Y-136279500D01*
X68495500Y-136277500D01*
X68494500Y-136275500D01*
X68492500Y-136273500D01*
X68491500Y-136270500D01*
X68490500Y-136268500D01*
X68489500Y-136265500D01*
X68489500Y-136263500D01*
X68488500Y-136260500D01*
X68488500Y-136258500D01*
X68487500Y-136255500D01*
X68487500Y-136253500D01*
X68487500Y-136250500D01*
X68487500Y-136100500D01*
X68487500Y-136097500D01*
X68487500Y-136095500D01*
X68488500Y-136092500D01*
X68488500Y-136090500D01*
X68489500Y-136087500D01*
X68489500Y-136085500D01*
X68490500Y-136082500D01*
X68491500Y-136080500D01*
X68492500Y-136077500D01*
X68494500Y-136075500D01*
X68495500Y-136073500D01*
X68497500Y-136071500D01*
X68498500Y-136069500D01*
X68500500Y-136067500D01*
X68502500Y-136065500D01*
X68504500Y-136063500D01*
X68506500Y-136061500D01*
X68508500Y-136060500D01*
X68510500Y-136058500D01*
X68512500Y-136057500D01*
X68514500Y-136055500D01*
X68517500Y-136054500D01*
X68519500Y-136053500D01*
X68522500Y-136052500D01*
X68524500Y-136052500D01*
X68527500Y-136051500D01*
X68529500Y-136051500D01*
X68532500Y-136050500D01*
X68534500Y-136050500D01*
X68537500Y-136050500D01*
X68987500Y-136050500D01*
X68990500Y-136050500D01*
X68992500Y-136050500D01*
X68995500Y-136051500D01*
G36*
X68995500Y-136051500D02*
G01*
X68997500Y-136051500D01*
X69000500Y-136052500D01*
X69002500Y-136052500D01*
X69005500Y-136053500D01*
X69007500Y-136054500D01*
X69010500Y-136055500D01*
X69012500Y-136057500D01*
X69014500Y-136058500D01*
X69016500Y-136060500D01*
X69018500Y-136061500D01*
X69020500Y-136063500D01*
X69022500Y-136065500D01*
X69024500Y-136067500D01*
X69026500Y-136069500D01*
X69027500Y-136071500D01*
X69029500Y-136073500D01*
X69030500Y-136075500D01*
X69032500Y-136077500D01*
X69033500Y-136080500D01*
X69034500Y-136082500D01*
X69035500Y-136085500D01*
X69035500Y-136087500D01*
X69036500Y-136090500D01*
X69036500Y-136092500D01*
X69037500Y-136095500D01*
X69037500Y-136097500D01*
X69037500Y-136100500D01*
X69037500Y-136250500D01*
X69037500Y-136253500D01*
X69037500Y-136255500D01*
X69036500Y-136258500D01*
X69036500Y-136260500D01*
X69035500Y-136263500D01*
X69035500Y-136265500D01*
X69034500Y-136268500D01*
X69033500Y-136270500D01*
X69032500Y-136273500D01*
X69030500Y-136275500D01*
X69029500Y-136277500D01*
X69027500Y-136279500D01*
X69026500Y-136281500D01*
X69024500Y-136283500D01*
X69022500Y-136285500D01*
X69020500Y-136287500D01*
X69018500Y-136289500D01*
X69016500Y-136290500D01*
X69014500Y-136292500D01*
X69012500Y-136293500D01*
X69010500Y-136295500D01*
X69007500Y-136296500D01*
X69005500Y-136297500D01*
X69002500Y-136298500D01*
X69000500Y-136298500D01*
X68997500Y-136299500D01*
X68995500Y-136299500D01*
X68992500Y-136300500D01*
X68990500Y-136300500D01*
X68987500Y-136300500D01*
X68537500Y-136300500D01*
X68534500Y-136300500D01*
X68532500Y-136300500D01*
X68529500Y-136299500D01*
X68527500Y-136299500D01*
X68524500Y-136298500D01*
X68522500Y-136298500D01*
X68519500Y-136297500D01*
X68517500Y-136296500D01*
X68514500Y-136295500D01*
X68512500Y-136293500D01*
X68510500Y-136292500D01*
X68508500Y-136290500D01*
X68506500Y-136289500D01*
X68504500Y-136287500D01*
X68502500Y-136285500D01*
X68500500Y-136283500D01*
X68498500Y-136281500D01*
X68497500Y-136279500D01*
X68495500Y-136277500D01*
X68494500Y-136275500D01*
X68492500Y-136273500D01*
X68491500Y-136270500D01*
X68490500Y-136268500D01*
X68489500Y-136265500D01*
X68489500Y-136263500D01*
X68488500Y-136260500D01*
X68488500Y-136258500D01*
X68487500Y-136255500D01*
X68487500Y-136253500D01*
X68487500Y-136250500D01*
X68487500Y-136100500D01*
X68487500Y-136097500D01*
X68487500Y-136095500D01*
X68488500Y-136092500D01*
X68488500Y-136090500D01*
X68489500Y-136087500D01*
X68489500Y-136085500D01*
X68490500Y-136082500D01*
X68491500Y-136080500D01*
X68492500Y-136077500D01*
X68494500Y-136075500D01*
X68495500Y-136073500D01*
X68497500Y-136071500D01*
X68498500Y-136069500D01*
X68500500Y-136067500D01*
X68502500Y-136065500D01*
X68504500Y-136063500D01*
X68506500Y-136061500D01*
X68508500Y-136060500D01*
X68510500Y-136058500D01*
X68512500Y-136057500D01*
X68514500Y-136055500D01*
X68517500Y-136054500D01*
X68519500Y-136053500D01*
X68522500Y-136052500D01*
X68524500Y-136052500D01*
X68527500Y-136051500D01*
X68529500Y-136051500D01*
X68532500Y-136050500D01*
X68534500Y-136050500D01*
X68537500Y-136050500D01*
X68987500Y-136050500D01*
X68990500Y-136050500D01*
X68992500Y-136050500D01*
X68995500Y-136051500D01*
G37*
X112745500Y-38051500D02*
X112747500Y-38051500D01*
X112750500Y-38052500D01*
X112752500Y-38052500D01*
X112755500Y-38053500D01*
X112757500Y-38054500D01*
X112760500Y-38055500D01*
X112762500Y-38057500D01*
X112764500Y-38058500D01*
X112766500Y-38060500D01*
X112768500Y-38061500D01*
X112770500Y-38063500D01*
X112772500Y-38065500D01*
X112774500Y-38067500D01*
X112776500Y-38069500D01*
X112777500Y-38071500D01*
X112779500Y-38073500D01*
X112780500Y-38075500D01*
X112782500Y-38077500D01*
X112783500Y-38080500D01*
X112784500Y-38082500D01*
X112785500Y-38085500D01*
X112785500Y-38087500D01*
X112786500Y-38090500D01*
X112786500Y-38092500D01*
X112787500Y-38095500D01*
X112787500Y-38097500D01*
X112787500Y-38100500D01*
X112787500Y-38250500D01*
X112787500Y-38253500D01*
X112787500Y-38255500D01*
X112786500Y-38258500D01*
X112786500Y-38260500D01*
X112785500Y-38263500D01*
X112785500Y-38265500D01*
X112784500Y-38268500D01*
X112783500Y-38270500D01*
X112782500Y-38273500D01*
X112780500Y-38275500D01*
X112779500Y-38277500D01*
X112777500Y-38279500D01*
X112776500Y-38281500D01*
X112774500Y-38283500D01*
X112772500Y-38285500D01*
X112770500Y-38287500D01*
X112768500Y-38289500D01*
X112766500Y-38290500D01*
X112764500Y-38292500D01*
X112762500Y-38293500D01*
X112760500Y-38295500D01*
X112757500Y-38296500D01*
X112755500Y-38297500D01*
X112752500Y-38298500D01*
X112750500Y-38298500D01*
X112747500Y-38299500D01*
X112745500Y-38299500D01*
X112742500Y-38300500D01*
X112740500Y-38300500D01*
X112737500Y-38300500D01*
X112287500Y-38300500D01*
X112284500Y-38300500D01*
X112282500Y-38300500D01*
X112279500Y-38299500D01*
X112277500Y-38299500D01*
X112274500Y-38298500D01*
X112272500Y-38298500D01*
X112269500Y-38297500D01*
X112267500Y-38296500D01*
X112264500Y-38295500D01*
X112262500Y-38293500D01*
X112260500Y-38292500D01*
X112258500Y-38290500D01*
X112256500Y-38289500D01*
X112254500Y-38287500D01*
X112252500Y-38285500D01*
X112250500Y-38283500D01*
X112248500Y-38281500D01*
X112247500Y-38279500D01*
X112245500Y-38277500D01*
X112244500Y-38275500D01*
X112242500Y-38273500D01*
X112241500Y-38270500D01*
X112240500Y-38268500D01*
X112239500Y-38265500D01*
X112239500Y-38263500D01*
X112238500Y-38260500D01*
X112238500Y-38258500D01*
X112237500Y-38255500D01*
X112237500Y-38253500D01*
X112237500Y-38250500D01*
X112237500Y-38100500D01*
X112237500Y-38097500D01*
X112237500Y-38095500D01*
X112238500Y-38092500D01*
X112238500Y-38090500D01*
X112239500Y-38087500D01*
X112239500Y-38085500D01*
X112240500Y-38082500D01*
X112241500Y-38080500D01*
X112242500Y-38077500D01*
X112244500Y-38075500D01*
X112245500Y-38073500D01*
X112247500Y-38071500D01*
X112248500Y-38069500D01*
X112250500Y-38067500D01*
X112252500Y-38065500D01*
X112254500Y-38063500D01*
X112256500Y-38061500D01*
X112258500Y-38060500D01*
X112260500Y-38058500D01*
X112262500Y-38057500D01*
X112264500Y-38055500D01*
X112267500Y-38054500D01*
X112269500Y-38053500D01*
X112272500Y-38052500D01*
X112274500Y-38052500D01*
X112277500Y-38051500D01*
X112279500Y-38051500D01*
X112282500Y-38050500D01*
X112284500Y-38050500D01*
X112287500Y-38050500D01*
X112737500Y-38050500D01*
X112740500Y-38050500D01*
X112742500Y-38050500D01*
X112745500Y-38051500D01*
G36*
X112745500Y-38051500D02*
G01*
X112747500Y-38051500D01*
X112750500Y-38052500D01*
X112752500Y-38052500D01*
X112755500Y-38053500D01*
X112757500Y-38054500D01*
X112760500Y-38055500D01*
X112762500Y-38057500D01*
X112764500Y-38058500D01*
X112766500Y-38060500D01*
X112768500Y-38061500D01*
X112770500Y-38063500D01*
X112772500Y-38065500D01*
X112774500Y-38067500D01*
X112776500Y-38069500D01*
X112777500Y-38071500D01*
X112779500Y-38073500D01*
X112780500Y-38075500D01*
X112782500Y-38077500D01*
X112783500Y-38080500D01*
X112784500Y-38082500D01*
X112785500Y-38085500D01*
X112785500Y-38087500D01*
X112786500Y-38090500D01*
X112786500Y-38092500D01*
X112787500Y-38095500D01*
X112787500Y-38097500D01*
X112787500Y-38100500D01*
X112787500Y-38250500D01*
X112787500Y-38253500D01*
X112787500Y-38255500D01*
X112786500Y-38258500D01*
X112786500Y-38260500D01*
X112785500Y-38263500D01*
X112785500Y-38265500D01*
X112784500Y-38268500D01*
X112783500Y-38270500D01*
X112782500Y-38273500D01*
X112780500Y-38275500D01*
X112779500Y-38277500D01*
X112777500Y-38279500D01*
X112776500Y-38281500D01*
X112774500Y-38283500D01*
X112772500Y-38285500D01*
X112770500Y-38287500D01*
X112768500Y-38289500D01*
X112766500Y-38290500D01*
X112764500Y-38292500D01*
X112762500Y-38293500D01*
X112760500Y-38295500D01*
X112757500Y-38296500D01*
X112755500Y-38297500D01*
X112752500Y-38298500D01*
X112750500Y-38298500D01*
X112747500Y-38299500D01*
X112745500Y-38299500D01*
X112742500Y-38300500D01*
X112740500Y-38300500D01*
X112737500Y-38300500D01*
X112287500Y-38300500D01*
X112284500Y-38300500D01*
X112282500Y-38300500D01*
X112279500Y-38299500D01*
X112277500Y-38299500D01*
X112274500Y-38298500D01*
X112272500Y-38298500D01*
X112269500Y-38297500D01*
X112267500Y-38296500D01*
X112264500Y-38295500D01*
X112262500Y-38293500D01*
X112260500Y-38292500D01*
X112258500Y-38290500D01*
X112256500Y-38289500D01*
X112254500Y-38287500D01*
X112252500Y-38285500D01*
X112250500Y-38283500D01*
X112248500Y-38281500D01*
X112247500Y-38279500D01*
X112245500Y-38277500D01*
X112244500Y-38275500D01*
X112242500Y-38273500D01*
X112241500Y-38270500D01*
X112240500Y-38268500D01*
X112239500Y-38265500D01*
X112239500Y-38263500D01*
X112238500Y-38260500D01*
X112238500Y-38258500D01*
X112237500Y-38255500D01*
X112237500Y-38253500D01*
X112237500Y-38250500D01*
X112237500Y-38100500D01*
X112237500Y-38097500D01*
X112237500Y-38095500D01*
X112238500Y-38092500D01*
X112238500Y-38090500D01*
X112239500Y-38087500D01*
X112239500Y-38085500D01*
X112240500Y-38082500D01*
X112241500Y-38080500D01*
X112242500Y-38077500D01*
X112244500Y-38075500D01*
X112245500Y-38073500D01*
X112247500Y-38071500D01*
X112248500Y-38069500D01*
X112250500Y-38067500D01*
X112252500Y-38065500D01*
X112254500Y-38063500D01*
X112256500Y-38061500D01*
X112258500Y-38060500D01*
X112260500Y-38058500D01*
X112262500Y-38057500D01*
X112264500Y-38055500D01*
X112267500Y-38054500D01*
X112269500Y-38053500D01*
X112272500Y-38052500D01*
X112274500Y-38052500D01*
X112277500Y-38051500D01*
X112279500Y-38051500D01*
X112282500Y-38050500D01*
X112284500Y-38050500D01*
X112287500Y-38050500D01*
X112737500Y-38050500D01*
X112740500Y-38050500D01*
X112742500Y-38050500D01*
X112745500Y-38051500D01*
G37*
X113495500Y-38051500D02*
X113497500Y-38051500D01*
X113500500Y-38052500D01*
X113502500Y-38052500D01*
X113505500Y-38053500D01*
X113507500Y-38054500D01*
X113510500Y-38055500D01*
X113512500Y-38057500D01*
X113514500Y-38058500D01*
X113516500Y-38060500D01*
X113518500Y-38061500D01*
X113520500Y-38063500D01*
X113522500Y-38065500D01*
X113524500Y-38067500D01*
X113526500Y-38069500D01*
X113527500Y-38071500D01*
X113529500Y-38073500D01*
X113530500Y-38075500D01*
X113532500Y-38077500D01*
X113533500Y-38080500D01*
X113534500Y-38082500D01*
X113535500Y-38085500D01*
X113535500Y-38087500D01*
X113536500Y-38090500D01*
X113536500Y-38092500D01*
X113537500Y-38095500D01*
X113537500Y-38097500D01*
X113537500Y-38100500D01*
X113537500Y-38250500D01*
X113537500Y-38253500D01*
X113537500Y-38255500D01*
X113536500Y-38258500D01*
X113536500Y-38260500D01*
X113535500Y-38263500D01*
X113535500Y-38265500D01*
X113534500Y-38268500D01*
X113533500Y-38270500D01*
X113532500Y-38273500D01*
X113530500Y-38275500D01*
X113529500Y-38277500D01*
X113527500Y-38279500D01*
X113526500Y-38281500D01*
X113524500Y-38283500D01*
X113522500Y-38285500D01*
X113520500Y-38287500D01*
X113518500Y-38289500D01*
X113516500Y-38290500D01*
X113514500Y-38292500D01*
X113512500Y-38293500D01*
X113510500Y-38295500D01*
X113507500Y-38296500D01*
X113505500Y-38297500D01*
X113502500Y-38298500D01*
X113500500Y-38298500D01*
X113497500Y-38299500D01*
X113495500Y-38299500D01*
X113492500Y-38300500D01*
X113490500Y-38300500D01*
X113487500Y-38300500D01*
X113037500Y-38300500D01*
X113034500Y-38300500D01*
X113032500Y-38300500D01*
X113029500Y-38299500D01*
X113027500Y-38299500D01*
X113024500Y-38298500D01*
X113022500Y-38298500D01*
X113019500Y-38297500D01*
X113017500Y-38296500D01*
X113014500Y-38295500D01*
X113012500Y-38293500D01*
X113010500Y-38292500D01*
X113008500Y-38290500D01*
X113006500Y-38289500D01*
X113004500Y-38287500D01*
X113002500Y-38285500D01*
X113000500Y-38283500D01*
X112998500Y-38281500D01*
X112997500Y-38279500D01*
X112995500Y-38277500D01*
X112994500Y-38275500D01*
X112992500Y-38273500D01*
X112991500Y-38270500D01*
X112990500Y-38268500D01*
X112989500Y-38265500D01*
X112989500Y-38263500D01*
X112988500Y-38260500D01*
X112988500Y-38258500D01*
X112987500Y-38255500D01*
X112987500Y-38253500D01*
X112987500Y-38250500D01*
X112987500Y-38100500D01*
X112987500Y-38097500D01*
X112987500Y-38095500D01*
X112988500Y-38092500D01*
X112988500Y-38090500D01*
X112989500Y-38087500D01*
X112989500Y-38085500D01*
X112990500Y-38082500D01*
X112991500Y-38080500D01*
X112992500Y-38077500D01*
X112994500Y-38075500D01*
X112995500Y-38073500D01*
X112997500Y-38071500D01*
X112998500Y-38069500D01*
X113000500Y-38067500D01*
X113002500Y-38065500D01*
X113004500Y-38063500D01*
X113006500Y-38061500D01*
X113008500Y-38060500D01*
X113010500Y-38058500D01*
X113012500Y-38057500D01*
X113014500Y-38055500D01*
X113017500Y-38054500D01*
X113019500Y-38053500D01*
X113022500Y-38052500D01*
X113024500Y-38052500D01*
X113027500Y-38051500D01*
X113029500Y-38051500D01*
X113032500Y-38050500D01*
X113034500Y-38050500D01*
X113037500Y-38050500D01*
X113487500Y-38050500D01*
X113490500Y-38050500D01*
X113492500Y-38050500D01*
X113495500Y-38051500D01*
G36*
X113495500Y-38051500D02*
G01*
X113497500Y-38051500D01*
X113500500Y-38052500D01*
X113502500Y-38052500D01*
X113505500Y-38053500D01*
X113507500Y-38054500D01*
X113510500Y-38055500D01*
X113512500Y-38057500D01*
X113514500Y-38058500D01*
X113516500Y-38060500D01*
X113518500Y-38061500D01*
X113520500Y-38063500D01*
X113522500Y-38065500D01*
X113524500Y-38067500D01*
X113526500Y-38069500D01*
X113527500Y-38071500D01*
X113529500Y-38073500D01*
X113530500Y-38075500D01*
X113532500Y-38077500D01*
X113533500Y-38080500D01*
X113534500Y-38082500D01*
X113535500Y-38085500D01*
X113535500Y-38087500D01*
X113536500Y-38090500D01*
X113536500Y-38092500D01*
X113537500Y-38095500D01*
X113537500Y-38097500D01*
X113537500Y-38100500D01*
X113537500Y-38250500D01*
X113537500Y-38253500D01*
X113537500Y-38255500D01*
X113536500Y-38258500D01*
X113536500Y-38260500D01*
X113535500Y-38263500D01*
X113535500Y-38265500D01*
X113534500Y-38268500D01*
X113533500Y-38270500D01*
X113532500Y-38273500D01*
X113530500Y-38275500D01*
X113529500Y-38277500D01*
X113527500Y-38279500D01*
X113526500Y-38281500D01*
X113524500Y-38283500D01*
X113522500Y-38285500D01*
X113520500Y-38287500D01*
X113518500Y-38289500D01*
X113516500Y-38290500D01*
X113514500Y-38292500D01*
X113512500Y-38293500D01*
X113510500Y-38295500D01*
X113507500Y-38296500D01*
X113505500Y-38297500D01*
X113502500Y-38298500D01*
X113500500Y-38298500D01*
X113497500Y-38299500D01*
X113495500Y-38299500D01*
X113492500Y-38300500D01*
X113490500Y-38300500D01*
X113487500Y-38300500D01*
X113037500Y-38300500D01*
X113034500Y-38300500D01*
X113032500Y-38300500D01*
X113029500Y-38299500D01*
X113027500Y-38299500D01*
X113024500Y-38298500D01*
X113022500Y-38298500D01*
X113019500Y-38297500D01*
X113017500Y-38296500D01*
X113014500Y-38295500D01*
X113012500Y-38293500D01*
X113010500Y-38292500D01*
X113008500Y-38290500D01*
X113006500Y-38289500D01*
X113004500Y-38287500D01*
X113002500Y-38285500D01*
X113000500Y-38283500D01*
X112998500Y-38281500D01*
X112997500Y-38279500D01*
X112995500Y-38277500D01*
X112994500Y-38275500D01*
X112992500Y-38273500D01*
X112991500Y-38270500D01*
X112990500Y-38268500D01*
X112989500Y-38265500D01*
X112989500Y-38263500D01*
X112988500Y-38260500D01*
X112988500Y-38258500D01*
X112987500Y-38255500D01*
X112987500Y-38253500D01*
X112987500Y-38250500D01*
X112987500Y-38100500D01*
X112987500Y-38097500D01*
X112987500Y-38095500D01*
X112988500Y-38092500D01*
X112988500Y-38090500D01*
X112989500Y-38087500D01*
X112989500Y-38085500D01*
X112990500Y-38082500D01*
X112991500Y-38080500D01*
X112992500Y-38077500D01*
X112994500Y-38075500D01*
X112995500Y-38073500D01*
X112997500Y-38071500D01*
X112998500Y-38069500D01*
X113000500Y-38067500D01*
X113002500Y-38065500D01*
X113004500Y-38063500D01*
X113006500Y-38061500D01*
X113008500Y-38060500D01*
X113010500Y-38058500D01*
X113012500Y-38057500D01*
X113014500Y-38055500D01*
X113017500Y-38054500D01*
X113019500Y-38053500D01*
X113022500Y-38052500D01*
X113024500Y-38052500D01*
X113027500Y-38051500D01*
X113029500Y-38051500D01*
X113032500Y-38050500D01*
X113034500Y-38050500D01*
X113037500Y-38050500D01*
X113487500Y-38050500D01*
X113490500Y-38050500D01*
X113492500Y-38050500D01*
X113495500Y-38051500D01*
G37*
%TD*%
D11*
%TO.C,C5*%
X95825000Y-38100500D03*
X94275000Y-38100500D03*
%TD*%
D12*
%TO.C,SW5*%
X198610000Y-33148000D03*
X201110000Y-33148000D03*
X203610000Y-33148000D03*
%TD*%
D13*
%TO.C,C12*%
X74860000Y-38955500D03*
X74860000Y-37405500D03*
%TD*%
D14*
%TO.C,U101*%
X155937500Y-37175500D03*
X155937500Y-37675500D03*
X155937500Y-38175500D03*
X155937500Y-38675500D03*
X155937500Y-39175500D03*
D15*
X157587500Y-39175500D03*
X157587500Y-38675500D03*
X157587500Y-37675500D03*
X157587500Y-37175500D03*
%TD*%
D16*
%TO.C,R11*%
X209950000Y-87975500D03*
X209950000Y-86325500D03*
%TD*%
D17*
%TO.C,R8*%
X183225000Y-39620500D03*
X184875000Y-39620500D03*
%TD*%
D11*
%TO.C,C1*%
X202125000Y-133450500D03*
X200575000Y-133450500D03*
%TD*%
D16*
%TO.C,R2*%
X88540000Y-51805500D03*
X88540000Y-50155500D03*
%TD*%
D18*
%TO.C,R4*%
X65425000Y-138800500D03*
X65425000Y-140450500D03*
%TD*%
D13*
%TO.C,C10*%
X132880000Y-38775500D03*
X132880000Y-37225500D03*
%TD*%
D17*
%TO.C,R12*%
X213425000Y-136610500D03*
X215075000Y-136610500D03*
%TD*%
D13*
%TO.C,C9*%
X225690000Y-38815500D03*
X225690000Y-37265500D03*
%TD*%
D18*
%TO.C,R4*%
X65425000Y-40800500D03*
X65425000Y-42450500D03*
%TD*%
D19*
%TO.C,R6*%
X113115000Y-40845500D03*
X111465000Y-40845500D03*
%TD*%
D13*
%TO.C,C9*%
X225690000Y-136815500D03*
X225690000Y-135265500D03*
%TD*%
D20*
%TO.C,C8*%
X178960000Y-135235500D03*
X178960000Y-136785500D03*
%TD*%
D19*
%TO.C,R13*%
X125265000Y-135030500D03*
X123615000Y-135030500D03*
%TD*%
%TO.C,R6*%
X68615000Y-138845500D03*
X66965000Y-138845500D03*
%TD*%
D14*
%TO.C,U101*%
X155937500Y-135175500D03*
X155937500Y-135675500D03*
X155937500Y-136175500D03*
X155937500Y-136675500D03*
X155937500Y-137175500D03*
D15*
X157587500Y-137175500D03*
X157587500Y-136675500D03*
X157587500Y-135675500D03*
X157587500Y-135175500D03*
%TD*%
D18*
%TO.C,R101*%
X172750000Y-135060500D03*
X172750000Y-136710500D03*
%TD*%
D13*
%TO.C,C13*%
X162310000Y-87955500D03*
X162310000Y-86405500D03*
%TD*%
D21*
%TO.C,L102*%
X71050000Y-37350500D03*
X71050000Y-38950500D03*
%TD*%
D13*
%TO.C,C11*%
X219750000Y-87645500D03*
X219750000Y-86095500D03*
%TD*%
D20*
%TO.C,C4*%
X117850000Y-96350500D03*
X117850000Y-97900500D03*
%TD*%
D17*
%TO.C,R1*%
X206744999Y-100800500D03*
X208394999Y-100800500D03*
%TD*%
D18*
%TO.C,R101*%
X128250000Y-86060500D03*
X128250000Y-87710500D03*
%TD*%
D13*
%TO.C,C9*%
X92190000Y-136815500D03*
X92190000Y-135265500D03*
%TD*%
D16*
%TO.C,R2*%
X177540000Y-100805500D03*
X177540000Y-99155500D03*
%TD*%
D20*
%TO.C,C3*%
X119400000Y-96370501D03*
X119400000Y-97920501D03*
%TD*%
D13*
%TO.C,C12*%
X163860000Y-87955500D03*
X163860000Y-86405500D03*
%TD*%
D18*
%TO.C,R4*%
X198925000Y-89800500D03*
X198925000Y-91450500D03*
%TD*%
D12*
%TO.C,SW5*%
X65110000Y-33148000D03*
X67610000Y-33148000D03*
X70110000Y-33148000D03*
%TD*%
%TO.C,SW5*%
X65110000Y-82148000D03*
X67610000Y-82148000D03*
X70110000Y-82148000D03*
%TD*%
D21*
%TO.C,L102*%
X115550000Y-37350500D03*
X115550000Y-38950500D03*
%TD*%
D13*
%TO.C,C13*%
X73310000Y-38955500D03*
X73310000Y-37405500D03*
%TD*%
D11*
%TO.C,C1*%
X202125000Y-35450500D03*
X200575000Y-35450500D03*
%TD*%
D20*
%TO.C,C3*%
X208400000Y-47370501D03*
X208400000Y-48920501D03*
%TD*%
D18*
%TO.C,R101*%
X128250000Y-135060500D03*
X128250000Y-136710500D03*
%TD*%
D21*
%TO.C,L102*%
X204550000Y-86350500D03*
X204550000Y-87950500D03*
%TD*%
D20*
%TO.C,C3*%
X119400000Y-47370501D03*
X119400000Y-48920501D03*
%TD*%
D17*
%TO.C,R12*%
X168925000Y-136610500D03*
X170575000Y-136610500D03*
%TD*%
D13*
%TO.C,C9*%
X136690000Y-38815500D03*
X136690000Y-37265500D03*
%TD*%
D11*
%TO.C,C5*%
X229325000Y-136100500D03*
X227775000Y-136100500D03*
%TD*%
D16*
%TO.C,R11*%
X76450000Y-38975500D03*
X76450000Y-37325500D03*
%TD*%
D20*
%TO.C,C3*%
X208400000Y-145370501D03*
X208400000Y-146920501D03*
%TD*%
%TO.C,C4*%
X206850000Y-96350500D03*
X206850000Y-97900500D03*
%TD*%
D13*
%TO.C,C10*%
X177380000Y-87775500D03*
X177380000Y-86225500D03*
%TD*%
D20*
%TO.C,C4*%
X73350000Y-96350500D03*
X73350000Y-97900500D03*
%TD*%
D17*
%TO.C,R12*%
X79925000Y-87610500D03*
X81575000Y-87610500D03*
%TD*%
D22*
%TO.C,U1*%
X77775000Y-142850500D03*
X77775000Y-143650500D03*
X77775000Y-144450500D03*
X77775000Y-145250500D03*
X77775000Y-146050500D03*
X77775000Y-146850500D03*
X77775000Y-147650500D03*
X77775000Y-148450500D03*
D23*
X79150000Y-149825500D03*
X79950000Y-149825500D03*
X80750000Y-149825500D03*
X81550000Y-149825500D03*
X82350000Y-149825500D03*
X83150000Y-149825500D03*
X83950000Y-149825500D03*
X84750000Y-149825500D03*
D22*
X86125000Y-148450500D03*
X86125000Y-147650500D03*
X86125000Y-146850500D03*
X86125000Y-146050500D03*
X86125000Y-145250500D03*
X86125000Y-144450500D03*
X86125000Y-143650500D03*
X86125000Y-142850500D03*
D23*
X84750000Y-141475500D03*
X83950000Y-141475500D03*
X83150000Y-141475500D03*
X82350000Y-141475500D03*
X81550000Y-141475500D03*
X80750000Y-141475500D03*
X79950000Y-141475500D03*
X79150000Y-141475500D03*
%TD*%
D11*
%TO.C,C2*%
X68600000Y-42425500D03*
X67050000Y-42425500D03*
%TD*%
D13*
%TO.C,C12*%
X74860000Y-136955500D03*
X74860000Y-135405500D03*
%TD*%
D11*
%TO.C,C5*%
X95825000Y-136100500D03*
X94275000Y-136100500D03*
%TD*%
D13*
%TO.C,C10*%
X132880000Y-87775500D03*
X132880000Y-86225500D03*
%TD*%
%TO.C,C12*%
X119360000Y-38955500D03*
X119360000Y-37405500D03*
%TD*%
D12*
%TO.C,SW5*%
X154110000Y-82148000D03*
X156610000Y-82148000D03*
X159110000Y-82148000D03*
%TD*%
%TO.C,SW5*%
X154110000Y-131148000D03*
X156610000Y-131148000D03*
X159110000Y-131148000D03*
%TD*%
D13*
%TO.C,C10*%
X221880000Y-87775500D03*
X221880000Y-86225500D03*
%TD*%
D20*
%TO.C,C8*%
X89960000Y-86235500D03*
X89960000Y-87785500D03*
%TD*%
D13*
%TO.C,C12*%
X119360000Y-87955500D03*
X119360000Y-86405500D03*
%TD*%
%TO.C,C13*%
X162310000Y-38955500D03*
X162310000Y-37405500D03*
%TD*%
D11*
%TO.C,C2*%
X113100000Y-42425500D03*
X111550000Y-42425500D03*
%TD*%
D21*
%TO.C,L102*%
X115550000Y-135350500D03*
X115550000Y-136950500D03*
%TD*%
D16*
%TO.C,R2*%
X133040000Y-149805500D03*
X133040000Y-148155500D03*
%TD*%
%TO.C,R11*%
X165450000Y-136975500D03*
X165450000Y-135325500D03*
%TD*%
D13*
%TO.C,C11*%
X175250000Y-38645500D03*
X175250000Y-37095500D03*
%TD*%
D17*
%TO.C,R1*%
X73244999Y-149800500D03*
X74894999Y-149800500D03*
%TD*%
D14*
%TO.C,U101*%
X111437500Y-135175500D03*
X111437500Y-135675500D03*
X111437500Y-136175500D03*
X111437500Y-136675500D03*
X111437500Y-137175500D03*
D15*
X113087500Y-137175500D03*
X113087500Y-136675500D03*
X113087500Y-135675500D03*
X113087500Y-135175500D03*
%TD*%
D20*
%TO.C,C3*%
X74900000Y-47370501D03*
X74900000Y-48920501D03*
%TD*%
D17*
%TO.C,R8*%
X183225000Y-137620500D03*
X184875000Y-137620500D03*
%TD*%
D16*
%TO.C,R2*%
X222040000Y-51805500D03*
X222040000Y-50155500D03*
%TD*%
D20*
%TO.C,C3*%
X163900000Y-47370501D03*
X163900000Y-48920501D03*
%TD*%
D11*
%TO.C,C5*%
X140325000Y-87100500D03*
X138775000Y-87100500D03*
%TD*%
D17*
%TO.C,R12*%
X79925000Y-136610500D03*
X81575000Y-136610500D03*
%TD*%
D20*
%TO.C,C8*%
X134460000Y-135235500D03*
X134460000Y-136785500D03*
%TD*%
D11*
%TO.C,C1*%
X157625000Y-133450500D03*
X156075000Y-133450500D03*
%TD*%
D12*
%TO.C,SW5*%
X109610000Y-33148000D03*
X112110000Y-33148000D03*
X114610000Y-33148000D03*
%TD*%
D19*
%TO.C,R6*%
X157615000Y-89845500D03*
X155965000Y-89845500D03*
%TD*%
D13*
%TO.C,C9*%
X136690000Y-87815500D03*
X136690000Y-86265500D03*
%TD*%
D11*
%TO.C,C1*%
X157625000Y-35450500D03*
X156075000Y-35450500D03*
%TD*%
D19*
%TO.C,R13*%
X214265000Y-37030500D03*
X212615000Y-37030500D03*
%TD*%
D11*
%TO.C,C1*%
X68625000Y-84450500D03*
X67075000Y-84450500D03*
%TD*%
D19*
%TO.C,R6*%
X202115000Y-40845500D03*
X200465000Y-40845500D03*
%TD*%
D11*
%TO.C,C2*%
X113100000Y-140425500D03*
X111550000Y-140425500D03*
%TD*%
D18*
%TO.C,R101*%
X83750000Y-86060500D03*
X83750000Y-87710500D03*
%TD*%
D13*
%TO.C,C11*%
X175250000Y-136645500D03*
X175250000Y-135095500D03*
%TD*%
D20*
%TO.C,C4*%
X73350000Y-47350500D03*
X73350000Y-48900500D03*
%TD*%
D17*
%TO.C,R12*%
X124425000Y-87610500D03*
X126075000Y-87610500D03*
%TD*%
D13*
%TO.C,C11*%
X130750000Y-87645500D03*
X130750000Y-86095500D03*
%TD*%
D14*
%TO.C,U101*%
X66937500Y-86175500D03*
X66937500Y-86675500D03*
X66937500Y-87175500D03*
X66937500Y-87675500D03*
X66937500Y-88175500D03*
D15*
X68587500Y-88175500D03*
X68587500Y-87675500D03*
X68587500Y-86675500D03*
X68587500Y-86175500D03*
%TD*%
D18*
%TO.C,R101*%
X83750000Y-135060500D03*
X83750000Y-136710500D03*
%TD*%
D13*
%TO.C,C11*%
X130750000Y-136645500D03*
X130750000Y-135095500D03*
%TD*%
D21*
%TO.C,L102*%
X160050000Y-86350500D03*
X160050000Y-87950500D03*
%TD*%
D11*
%TO.C,C1*%
X157625000Y-84450500D03*
X156075000Y-84450500D03*
%TD*%
D18*
%TO.C,R4*%
X198925000Y-40800500D03*
X198925000Y-42450500D03*
%TD*%
%TO.C,R4*%
X65425000Y-89800500D03*
X65425000Y-91450500D03*
%TD*%
D22*
%TO.C,U1*%
X211275000Y-142850500D03*
X211275000Y-143650500D03*
X211275000Y-144450500D03*
X211275000Y-145250500D03*
X211275000Y-146050500D03*
X211275000Y-146850500D03*
X211275000Y-147650500D03*
X211275000Y-148450500D03*
D23*
X212650000Y-149825500D03*
X213450000Y-149825500D03*
X214250000Y-149825500D03*
X215050000Y-149825500D03*
X215850000Y-149825500D03*
X216650000Y-149825500D03*
X217450000Y-149825500D03*
X218250000Y-149825500D03*
D22*
X219625000Y-148450500D03*
X219625000Y-147650500D03*
X219625000Y-146850500D03*
X219625000Y-146050500D03*
X219625000Y-145250500D03*
X219625000Y-144450500D03*
X219625000Y-143650500D03*
X219625000Y-142850500D03*
D23*
X218250000Y-141475500D03*
X217450000Y-141475500D03*
X216650000Y-141475500D03*
X215850000Y-141475500D03*
X215050000Y-141475500D03*
X214250000Y-141475500D03*
X213450000Y-141475500D03*
X212650000Y-141475500D03*
%TD*%
D13*
%TO.C,C12*%
X163860000Y-38955500D03*
X163860000Y-37405500D03*
%TD*%
%TO.C,C9*%
X136690000Y-136815500D03*
X136690000Y-135265500D03*
%TD*%
D18*
%TO.C,R4*%
X109925000Y-89800500D03*
X109925000Y-91450500D03*
%TD*%
%TO.C,R101*%
X217250000Y-37060500D03*
X217250000Y-38710500D03*
%TD*%
D19*
%TO.C,R13*%
X169765000Y-37030500D03*
X168115000Y-37030500D03*
%TD*%
D11*
%TO.C,C1*%
X68625000Y-35450500D03*
X67075000Y-35450500D03*
%TD*%
D21*
%TO.C,L102*%
X204550000Y-135350500D03*
X204550000Y-136950500D03*
%TD*%
D13*
%TO.C,C13*%
X117810000Y-136955500D03*
X117810000Y-135405500D03*
%TD*%
%TO.C,C9*%
X181190000Y-38815500D03*
X181190000Y-37265500D03*
%TD*%
D16*
%TO.C,R2*%
X133040000Y-100805500D03*
X133040000Y-99155500D03*
%TD*%
D20*
%TO.C,C8*%
X178960000Y-37235500D03*
X178960000Y-38785500D03*
%TD*%
D13*
%TO.C,C10*%
X177380000Y-136775500D03*
X177380000Y-135225500D03*
%TD*%
D16*
%TO.C,R2*%
X88540000Y-100805500D03*
X88540000Y-99155500D03*
%TD*%
D17*
%TO.C,R12*%
X213425000Y-87610500D03*
X215075000Y-87610500D03*
%TD*%
D11*
%TO.C,C5*%
X184825000Y-136100500D03*
X183275000Y-136100500D03*
%TD*%
%TO.C,C5*%
X229325000Y-87100500D03*
X227775000Y-87100500D03*
%TD*%
D16*
%TO.C,R2*%
X177540000Y-51805500D03*
X177540000Y-50155500D03*
%TD*%
D22*
%TO.C,U1*%
X122275000Y-142850500D03*
X122275000Y-143650500D03*
X122275000Y-144450500D03*
X122275000Y-145250500D03*
X122275000Y-146050500D03*
X122275000Y-146850500D03*
X122275000Y-147650500D03*
X122275000Y-148450500D03*
D23*
X123650000Y-149825500D03*
X124450000Y-149825500D03*
X125250000Y-149825500D03*
X126050000Y-149825500D03*
X126850000Y-149825500D03*
X127650000Y-149825500D03*
X128450000Y-149825500D03*
X129250000Y-149825500D03*
D22*
X130625000Y-148450500D03*
X130625000Y-147650500D03*
X130625000Y-146850500D03*
X130625000Y-146050500D03*
X130625000Y-145250500D03*
X130625000Y-144450500D03*
X130625000Y-143650500D03*
X130625000Y-142850500D03*
D23*
X129250000Y-141475500D03*
X128450000Y-141475500D03*
X127650000Y-141475500D03*
X126850000Y-141475500D03*
X126050000Y-141475500D03*
X125250000Y-141475500D03*
X124450000Y-141475500D03*
X123650000Y-141475500D03*
%TD*%
D17*
%TO.C,R1*%
X117744999Y-100800500D03*
X119394999Y-100800500D03*
%TD*%
D20*
%TO.C,C4*%
X73350000Y-145350500D03*
X73350000Y-146900500D03*
%TD*%
D13*
%TO.C,C10*%
X221880000Y-136775500D03*
X221880000Y-135225500D03*
%TD*%
D18*
%TO.C,R4*%
X154425000Y-89800500D03*
X154425000Y-91450500D03*
%TD*%
D17*
%TO.C,R8*%
X227725000Y-88620500D03*
X229375000Y-88620500D03*
%TD*%
D19*
%TO.C,R6*%
X157615000Y-138845500D03*
X155965000Y-138845500D03*
%TD*%
D14*
%TO.C,U101*%
X111437500Y-86175500D03*
X111437500Y-86675500D03*
X111437500Y-87175500D03*
X111437500Y-87675500D03*
X111437500Y-88175500D03*
D15*
X113087500Y-88175500D03*
X113087500Y-87675500D03*
X113087500Y-86675500D03*
X113087500Y-86175500D03*
%TD*%
D13*
%TO.C,C11*%
X219750000Y-136645500D03*
X219750000Y-135095500D03*
%TD*%
D17*
%TO.C,R1*%
X117744999Y-149800500D03*
X119394999Y-149800500D03*
%TD*%
D19*
%TO.C,R13*%
X169765000Y-135030500D03*
X168115000Y-135030500D03*
%TD*%
D21*
%TO.C,L102*%
X160050000Y-135350500D03*
X160050000Y-136950500D03*
%TD*%
D13*
%TO.C,C12*%
X163860000Y-136955500D03*
X163860000Y-135405500D03*
%TD*%
D11*
%TO.C,C1*%
X113125000Y-35450500D03*
X111575000Y-35450500D03*
%TD*%
D13*
%TO.C,C10*%
X88380000Y-87775500D03*
X88380000Y-86225500D03*
%TD*%
D11*
%TO.C,C5*%
X184825000Y-87100500D03*
X183275000Y-87100500D03*
%TD*%
%TO.C,C2*%
X157600000Y-140425500D03*
X156050000Y-140425500D03*
%TD*%
D13*
%TO.C,C13*%
X162310000Y-136955500D03*
X162310000Y-135405500D03*
%TD*%
%TO.C,C10*%
X132880000Y-136775500D03*
X132880000Y-135225500D03*
%TD*%
D21*
%TO.C,L102*%
X204550000Y-37350500D03*
X204550000Y-38950500D03*
%TD*%
D18*
%TO.C,R101*%
X83750000Y-37060500D03*
X83750000Y-38710500D03*
%TD*%
%TO.C,R101*%
X172750000Y-37060500D03*
X172750000Y-38710500D03*
%TD*%
D13*
%TO.C,C12*%
X119360000Y-136955500D03*
X119360000Y-135405500D03*
%TD*%
D22*
%TO.C,U1*%
X77775000Y-44850500D03*
X77775000Y-45650500D03*
X77775000Y-46450500D03*
X77775000Y-47250500D03*
X77775000Y-48050500D03*
X77775000Y-48850500D03*
X77775000Y-49650500D03*
X77775000Y-50450500D03*
D23*
X79150000Y-51825500D03*
X79950000Y-51825500D03*
X80750000Y-51825500D03*
X81550000Y-51825500D03*
X82350000Y-51825500D03*
X83150000Y-51825500D03*
X83950000Y-51825500D03*
X84750000Y-51825500D03*
D22*
X86125000Y-50450500D03*
X86125000Y-49650500D03*
X86125000Y-48850500D03*
X86125000Y-48050500D03*
X86125000Y-47250500D03*
X86125000Y-46450500D03*
X86125000Y-45650500D03*
X86125000Y-44850500D03*
D23*
X84750000Y-43475500D03*
X83950000Y-43475500D03*
X83150000Y-43475500D03*
X82350000Y-43475500D03*
X81550000Y-43475500D03*
X80750000Y-43475500D03*
X79950000Y-43475500D03*
X79150000Y-43475500D03*
%TD*%
D13*
%TO.C,C10*%
X221880000Y-38775500D03*
X221880000Y-37225500D03*
%TD*%
D20*
%TO.C,C4*%
X162350000Y-96350500D03*
X162350000Y-97900500D03*
%TD*%
D17*
%TO.C,R1*%
X73244999Y-100800500D03*
X74894999Y-100800500D03*
%TD*%
D20*
%TO.C,C8*%
X223460000Y-86235500D03*
X223460000Y-87785500D03*
%TD*%
D17*
%TO.C,R8*%
X183225000Y-88620500D03*
X184875000Y-88620500D03*
%TD*%
D13*
%TO.C,C13*%
X73310000Y-136955500D03*
X73310000Y-135405500D03*
%TD*%
D17*
%TO.C,R1*%
X73244999Y-51800500D03*
X74894999Y-51800500D03*
%TD*%
D18*
%TO.C,R4*%
X109925000Y-40800500D03*
X109925000Y-42450500D03*
%TD*%
D14*
%TO.C,U101*%
X155937500Y-86175500D03*
X155937500Y-86675500D03*
X155937500Y-87175500D03*
X155937500Y-87675500D03*
X155937500Y-88175500D03*
D15*
X157587500Y-88175500D03*
X157587500Y-87675500D03*
X157587500Y-86675500D03*
X157587500Y-86175500D03*
%TD*%
D13*
%TO.C,C9*%
X181190000Y-136815500D03*
X181190000Y-135265500D03*
%TD*%
D22*
%TO.C,U1*%
X166775000Y-44850500D03*
X166775000Y-45650500D03*
X166775000Y-46450500D03*
X166775000Y-47250500D03*
X166775000Y-48050500D03*
X166775000Y-48850500D03*
X166775000Y-49650500D03*
X166775000Y-50450500D03*
D23*
X168150000Y-51825500D03*
X168950000Y-51825500D03*
X169750000Y-51825500D03*
X170550000Y-51825500D03*
X171350000Y-51825500D03*
X172150000Y-51825500D03*
X172950000Y-51825500D03*
X173750000Y-51825500D03*
D22*
X175125000Y-50450500D03*
X175125000Y-49650500D03*
X175125000Y-48850500D03*
X175125000Y-48050500D03*
X175125000Y-47250500D03*
X175125000Y-46450500D03*
X175125000Y-45650500D03*
X175125000Y-44850500D03*
D23*
X173750000Y-43475500D03*
X172950000Y-43475500D03*
X172150000Y-43475500D03*
X171350000Y-43475500D03*
X170550000Y-43475500D03*
X169750000Y-43475500D03*
X168950000Y-43475500D03*
X168150000Y-43475500D03*
%TD*%
D20*
%TO.C,C3*%
X74900000Y-145370501D03*
X74900000Y-146920501D03*
%TD*%
D13*
%TO.C,C12*%
X74860000Y-87955500D03*
X74860000Y-86405500D03*
%TD*%
D20*
%TO.C,C3*%
X208400000Y-96370501D03*
X208400000Y-97920501D03*
%TD*%
D11*
%TO.C,C5*%
X140325000Y-38100500D03*
X138775000Y-38100500D03*
%TD*%
D13*
%TO.C,C11*%
X219750000Y-38645500D03*
X219750000Y-37095500D03*
%TD*%
D17*
%TO.C,R8*%
X138725000Y-137620500D03*
X140375000Y-137620500D03*
%TD*%
D20*
%TO.C,C8*%
X223460000Y-135235500D03*
X223460000Y-136785500D03*
%TD*%
%TO.C,C8*%
X178960000Y-86235500D03*
X178960000Y-87785500D03*
%TD*%
D11*
%TO.C,C5*%
X184825000Y-38100500D03*
X183275000Y-38100500D03*
%TD*%
D13*
%TO.C,C11*%
X86250000Y-136645500D03*
X86250000Y-135095500D03*
%TD*%
D11*
%TO.C,C2*%
X68600000Y-91425500D03*
X67050000Y-91425500D03*
%TD*%
D18*
%TO.C,R101*%
X128250000Y-37060500D03*
X128250000Y-38710500D03*
%TD*%
D17*
%TO.C,R12*%
X79925000Y-38610500D03*
X81575000Y-38610500D03*
%TD*%
D11*
%TO.C,C1*%
X113125000Y-133450500D03*
X111575000Y-133450500D03*
%TD*%
D13*
%TO.C,C11*%
X86250000Y-87645500D03*
X86250000Y-86095500D03*
%TD*%
D11*
%TO.C,C5*%
X140325000Y-136100500D03*
X138775000Y-136100500D03*
%TD*%
D17*
%TO.C,R1*%
X162244999Y-100800500D03*
X163894999Y-100800500D03*
%TD*%
D18*
%TO.C,R101*%
X217250000Y-86060500D03*
X217250000Y-87710500D03*
%TD*%
D20*
%TO.C,C4*%
X117850000Y-145350500D03*
X117850000Y-146900500D03*
%TD*%
%TO.C,C3*%
X163900000Y-96370501D03*
X163900000Y-97920501D03*
%TD*%
D12*
%TO.C,SW5*%
X198610000Y-131148000D03*
X201110000Y-131148000D03*
X203610000Y-131148000D03*
%TD*%
D17*
%TO.C,R8*%
X227725000Y-137620500D03*
X229375000Y-137620500D03*
%TD*%
D22*
%TO.C,U1*%
X211275000Y-44850500D03*
X211275000Y-45650500D03*
X211275000Y-46450500D03*
X211275000Y-47250500D03*
X211275000Y-48050500D03*
X211275000Y-48850500D03*
X211275000Y-49650500D03*
X211275000Y-50450500D03*
D23*
X212650000Y-51825500D03*
X213450000Y-51825500D03*
X214250000Y-51825500D03*
X215050000Y-51825500D03*
X215850000Y-51825500D03*
X216650000Y-51825500D03*
X217450000Y-51825500D03*
X218250000Y-51825500D03*
D22*
X219625000Y-50450500D03*
X219625000Y-49650500D03*
X219625000Y-48850500D03*
X219625000Y-48050500D03*
X219625000Y-47250500D03*
X219625000Y-46450500D03*
X219625000Y-45650500D03*
X219625000Y-44850500D03*
D23*
X218250000Y-43475500D03*
X217450000Y-43475500D03*
X216650000Y-43475500D03*
X215850000Y-43475500D03*
X215050000Y-43475500D03*
X214250000Y-43475500D03*
X213450000Y-43475500D03*
X212650000Y-43475500D03*
%TD*%
D19*
%TO.C,R6*%
X113115000Y-138845500D03*
X111465000Y-138845500D03*
%TD*%
D16*
%TO.C,R2*%
X222040000Y-149805500D03*
X222040000Y-148155500D03*
%TD*%
D12*
%TO.C,SW5*%
X198610000Y-82148000D03*
X201110000Y-82148000D03*
X203610000Y-82148000D03*
%TD*%
D19*
%TO.C,R13*%
X80765000Y-135030500D03*
X79115000Y-135030500D03*
%TD*%
D17*
%TO.C,R8*%
X94225000Y-39620500D03*
X95875000Y-39620500D03*
%TD*%
D20*
%TO.C,C3*%
X74900000Y-96370501D03*
X74900000Y-97920501D03*
%TD*%
D14*
%TO.C,U101*%
X200437500Y-135175500D03*
X200437500Y-135675500D03*
X200437500Y-136175500D03*
X200437500Y-136675500D03*
X200437500Y-137175500D03*
D15*
X202087500Y-137175500D03*
X202087500Y-136675500D03*
X202087500Y-135675500D03*
X202087500Y-135175500D03*
%TD*%
D17*
%TO.C,R12*%
X213425000Y-38610500D03*
X215075000Y-38610500D03*
%TD*%
D12*
%TO.C,SW5*%
X65110000Y-131148000D03*
X67610000Y-131148000D03*
X70110000Y-131148000D03*
%TD*%
D22*
%TO.C,U1*%
X166775000Y-93850500D03*
X166775000Y-94650500D03*
X166775000Y-95450500D03*
X166775000Y-96250500D03*
X166775000Y-97050500D03*
X166775000Y-97850500D03*
X166775000Y-98650500D03*
X166775000Y-99450500D03*
D23*
X168150000Y-100825500D03*
X168950000Y-100825500D03*
X169750000Y-100825500D03*
X170550000Y-100825500D03*
X171350000Y-100825500D03*
X172150000Y-100825500D03*
X172950000Y-100825500D03*
X173750000Y-100825500D03*
D22*
X175125000Y-99450500D03*
X175125000Y-98650500D03*
X175125000Y-97850500D03*
X175125000Y-97050500D03*
X175125000Y-96250500D03*
X175125000Y-95450500D03*
X175125000Y-94650500D03*
X175125000Y-93850500D03*
D23*
X173750000Y-92475500D03*
X172950000Y-92475500D03*
X172150000Y-92475500D03*
X171350000Y-92475500D03*
X170550000Y-92475500D03*
X169750000Y-92475500D03*
X168950000Y-92475500D03*
X168150000Y-92475500D03*
%TD*%
D16*
%TO.C,R2*%
X222040000Y-100805500D03*
X222040000Y-99155500D03*
%TD*%
%TO.C,R11*%
X76450000Y-87975500D03*
X76450000Y-86325500D03*
%TD*%
D17*
%TO.C,R1*%
X206744999Y-51800500D03*
X208394999Y-51800500D03*
%TD*%
%TO.C,R8*%
X138725000Y-88620500D03*
X140375000Y-88620500D03*
%TD*%
D13*
%TO.C,C10*%
X177380000Y-38775500D03*
X177380000Y-37225500D03*
%TD*%
D17*
%TO.C,R8*%
X138725000Y-39620500D03*
X140375000Y-39620500D03*
%TD*%
D20*
%TO.C,C4*%
X162350000Y-145350500D03*
X162350000Y-146900500D03*
%TD*%
D14*
%TO.C,U101*%
X66937500Y-37175500D03*
X66937500Y-37675500D03*
X66937500Y-38175500D03*
X66937500Y-38675500D03*
X66937500Y-39175500D03*
D15*
X68587500Y-39175500D03*
X68587500Y-38675500D03*
X68587500Y-37675500D03*
X68587500Y-37175500D03*
%TD*%
D11*
%TO.C,C1*%
X113125000Y-84450500D03*
X111575000Y-84450500D03*
%TD*%
D13*
%TO.C,C10*%
X88380000Y-136775500D03*
X88380000Y-135225500D03*
%TD*%
D19*
%TO.C,R13*%
X214265000Y-86030500D03*
X212615000Y-86030500D03*
%TD*%
D13*
%TO.C,C13*%
X206810000Y-136955500D03*
X206810000Y-135405500D03*
%TD*%
D17*
%TO.C,R8*%
X227725000Y-39620500D03*
X229375000Y-39620500D03*
%TD*%
D14*
%TO.C,U101*%
X200437500Y-37175500D03*
X200437500Y-37675500D03*
X200437500Y-38175500D03*
X200437500Y-38675500D03*
X200437500Y-39175500D03*
D15*
X202087500Y-39175500D03*
X202087500Y-38675500D03*
X202087500Y-37675500D03*
X202087500Y-37175500D03*
%TD*%
D16*
%TO.C,R2*%
X88540000Y-149805500D03*
X88540000Y-148155500D03*
%TD*%
D19*
%TO.C,R13*%
X169765000Y-86030500D03*
X168115000Y-86030500D03*
%TD*%
D17*
%TO.C,R12*%
X168925000Y-87610500D03*
X170575000Y-87610500D03*
%TD*%
D19*
%TO.C,R6*%
X113115000Y-89845500D03*
X111465000Y-89845500D03*
%TD*%
D21*
%TO.C,L102*%
X115550000Y-86350500D03*
X115550000Y-87950500D03*
%TD*%
D18*
%TO.C,R4*%
X154425000Y-138800500D03*
X154425000Y-140450500D03*
%TD*%
D12*
%TO.C,SW5*%
X109610000Y-131148000D03*
X112110000Y-131148000D03*
X114610000Y-131148000D03*
%TD*%
D18*
%TO.C,R101*%
X217250000Y-135060500D03*
X217250000Y-136710500D03*
%TD*%
D14*
%TO.C,U101*%
X200437500Y-86175500D03*
X200437500Y-86675500D03*
X200437500Y-87175500D03*
X200437500Y-87675500D03*
X200437500Y-88175500D03*
D15*
X202087500Y-88175500D03*
X202087500Y-87675500D03*
X202087500Y-86675500D03*
X202087500Y-86175500D03*
%TD*%
D16*
%TO.C,R11*%
X120950000Y-87975500D03*
X120950000Y-86325500D03*
%TD*%
D20*
%TO.C,C4*%
X162350000Y-47350500D03*
X162350000Y-48900500D03*
%TD*%
D11*
%TO.C,C5*%
X95825000Y-87100500D03*
X94275000Y-87100500D03*
%TD*%
%TO.C,C1*%
X202125000Y-84450500D03*
X200575000Y-84450500D03*
%TD*%
D19*
%TO.C,R13*%
X125265000Y-37030500D03*
X123615000Y-37030500D03*
%TD*%
D22*
%TO.C,U1*%
X77775000Y-93850500D03*
X77775000Y-94650500D03*
X77775000Y-95450500D03*
X77775000Y-96250500D03*
X77775000Y-97050500D03*
X77775000Y-97850500D03*
X77775000Y-98650500D03*
X77775000Y-99450500D03*
D23*
X79150000Y-100825500D03*
X79950000Y-100825500D03*
X80750000Y-100825500D03*
X81550000Y-100825500D03*
X82350000Y-100825500D03*
X83150000Y-100825500D03*
X83950000Y-100825500D03*
X84750000Y-100825500D03*
D22*
X86125000Y-99450500D03*
X86125000Y-98650500D03*
X86125000Y-97850500D03*
X86125000Y-97050500D03*
X86125000Y-96250500D03*
X86125000Y-95450500D03*
X86125000Y-94650500D03*
X86125000Y-93850500D03*
D23*
X84750000Y-92475500D03*
X83950000Y-92475500D03*
X83150000Y-92475500D03*
X82350000Y-92475500D03*
X81550000Y-92475500D03*
X80750000Y-92475500D03*
X79950000Y-92475500D03*
X79150000Y-92475500D03*
%TD*%
D17*
%TO.C,R12*%
X124425000Y-38610500D03*
X126075000Y-38610500D03*
%TD*%
%TO.C,R1*%
X206744999Y-149800500D03*
X208394999Y-149800500D03*
%TD*%
D20*
%TO.C,C8*%
X89960000Y-135235500D03*
X89960000Y-136785500D03*
%TD*%
D11*
%TO.C,C2*%
X157600000Y-42425500D03*
X156050000Y-42425500D03*
%TD*%
D19*
%TO.C,R6*%
X202115000Y-138845500D03*
X200465000Y-138845500D03*
%TD*%
D16*
%TO.C,R11*%
X165450000Y-38975500D03*
X165450000Y-37325500D03*
%TD*%
D21*
%TO.C,L102*%
X71050000Y-86350500D03*
X71050000Y-87950500D03*
%TD*%
D13*
%TO.C,C10*%
X88380000Y-38775500D03*
X88380000Y-37225500D03*
%TD*%
%TO.C,C13*%
X206810000Y-38955500D03*
X206810000Y-37405500D03*
%TD*%
D19*
%TO.C,R13*%
X80765000Y-37030500D03*
X79115000Y-37030500D03*
%TD*%
D11*
%TO.C,C2*%
X68600000Y-140425500D03*
X67050000Y-140425500D03*
%TD*%
D22*
%TO.C,U1*%
X211275000Y-93850500D03*
X211275000Y-94650500D03*
X211275000Y-95450500D03*
X211275000Y-96250500D03*
X211275000Y-97050500D03*
X211275000Y-97850500D03*
X211275000Y-98650500D03*
X211275000Y-99450500D03*
D23*
X212650000Y-100825500D03*
X213450000Y-100825500D03*
X214250000Y-100825500D03*
X215050000Y-100825500D03*
X215850000Y-100825500D03*
X216650000Y-100825500D03*
X217450000Y-100825500D03*
X218250000Y-100825500D03*
D22*
X219625000Y-99450500D03*
X219625000Y-98650500D03*
X219625000Y-97850500D03*
X219625000Y-97050500D03*
X219625000Y-96250500D03*
X219625000Y-95450500D03*
X219625000Y-94650500D03*
X219625000Y-93850500D03*
D23*
X218250000Y-92475500D03*
X217450000Y-92475500D03*
X216650000Y-92475500D03*
X215850000Y-92475500D03*
X215050000Y-92475500D03*
X214250000Y-92475500D03*
X213450000Y-92475500D03*
X212650000Y-92475500D03*
%TD*%
D13*
%TO.C,C9*%
X225690000Y-87815500D03*
X225690000Y-86265500D03*
%TD*%
%TO.C,C11*%
X86250000Y-38645500D03*
X86250000Y-37095500D03*
%TD*%
%TO.C,C11*%
X130750000Y-38645500D03*
X130750000Y-37095500D03*
%TD*%
D20*
%TO.C,C8*%
X134460000Y-86235500D03*
X134460000Y-87785500D03*
%TD*%
D21*
%TO.C,L102*%
X71050000Y-135350500D03*
X71050000Y-136950500D03*
%TD*%
D19*
%TO.C,R13*%
X214265000Y-135030500D03*
X212615000Y-135030500D03*
%TD*%
D18*
%TO.C,R4*%
X109925000Y-138800500D03*
X109925000Y-140450500D03*
%TD*%
D14*
%TO.C,U101*%
X66937500Y-135175500D03*
X66937500Y-135675500D03*
X66937500Y-136175500D03*
X66937500Y-136675500D03*
X66937500Y-137175500D03*
D15*
X68587500Y-137175500D03*
X68587500Y-136675500D03*
X68587500Y-135675500D03*
X68587500Y-135175500D03*
%TD*%
D11*
%TO.C,C2*%
X202100000Y-140425500D03*
X200550000Y-140425500D03*
%TD*%
D18*
%TO.C,R4*%
X154425000Y-40800500D03*
X154425000Y-42450500D03*
%TD*%
D16*
%TO.C,R11*%
X120950000Y-136975500D03*
X120950000Y-135325500D03*
%TD*%
D19*
%TO.C,R13*%
X80765000Y-86030500D03*
X79115000Y-86030500D03*
%TD*%
D16*
%TO.C,R11*%
X120950000Y-38975500D03*
X120950000Y-37325500D03*
%TD*%
D11*
%TO.C,C2*%
X157600000Y-91425500D03*
X156050000Y-91425500D03*
%TD*%
%TO.C,C5*%
X229325000Y-38100500D03*
X227775000Y-38100500D03*
%TD*%
D13*
%TO.C,C13*%
X206810000Y-87955500D03*
X206810000Y-86405500D03*
%TD*%
D20*
%TO.C,C3*%
X119400000Y-145370501D03*
X119400000Y-146920501D03*
%TD*%
D17*
%TO.C,R1*%
X162244999Y-149800500D03*
X163894999Y-149800500D03*
%TD*%
D20*
%TO.C,C8*%
X89960000Y-37235500D03*
X89960000Y-38785500D03*
%TD*%
D13*
%TO.C,C9*%
X92190000Y-87815500D03*
X92190000Y-86265500D03*
%TD*%
D14*
%TO.C,U101*%
X111437500Y-37175500D03*
X111437500Y-37675500D03*
X111437500Y-38175500D03*
X111437500Y-38675500D03*
X111437500Y-39175500D03*
D15*
X113087500Y-39175500D03*
X113087500Y-38675500D03*
X113087500Y-37675500D03*
X113087500Y-37175500D03*
%TD*%
D19*
%TO.C,R13*%
X125265000Y-86030500D03*
X123615000Y-86030500D03*
%TD*%
D21*
%TO.C,L102*%
X160050000Y-37350500D03*
X160050000Y-38950500D03*
%TD*%
D12*
%TO.C,SW5*%
X109610000Y-82148000D03*
X112110000Y-82148000D03*
X114610000Y-82148000D03*
%TD*%
D11*
%TO.C,C2*%
X202100000Y-42425500D03*
X200550000Y-42425500D03*
%TD*%
D16*
%TO.C,R2*%
X133040000Y-51805500D03*
X133040000Y-50155500D03*
%TD*%
D19*
%TO.C,R6*%
X157615000Y-40845500D03*
X155965000Y-40845500D03*
%TD*%
D16*
%TO.C,R11*%
X76450000Y-136975500D03*
X76450000Y-135325500D03*
%TD*%
D13*
%TO.C,C13*%
X117810000Y-87955500D03*
X117810000Y-86405500D03*
%TD*%
D17*
%TO.C,R8*%
X94225000Y-137620500D03*
X95875000Y-137620500D03*
%TD*%
D20*
%TO.C,C8*%
X134460000Y-37235500D03*
X134460000Y-38785500D03*
%TD*%
D17*
%TO.C,R8*%
X94225000Y-88620500D03*
X95875000Y-88620500D03*
%TD*%
D22*
%TO.C,U1*%
X166775000Y-142850500D03*
X166775000Y-143650500D03*
X166775000Y-144450500D03*
X166775000Y-145250500D03*
X166775000Y-146050500D03*
X166775000Y-146850500D03*
X166775000Y-147650500D03*
X166775000Y-148450500D03*
D23*
X168150000Y-149825500D03*
X168950000Y-149825500D03*
X169750000Y-149825500D03*
X170550000Y-149825500D03*
X171350000Y-149825500D03*
X172150000Y-149825500D03*
X172950000Y-149825500D03*
X173750000Y-149825500D03*
D22*
X175125000Y-148450500D03*
X175125000Y-147650500D03*
X175125000Y-146850500D03*
X175125000Y-146050500D03*
X175125000Y-145250500D03*
X175125000Y-144450500D03*
X175125000Y-143650500D03*
X175125000Y-142850500D03*
D23*
X173750000Y-141475500D03*
X172950000Y-141475500D03*
X172150000Y-141475500D03*
X171350000Y-141475500D03*
X170550000Y-141475500D03*
X169750000Y-141475500D03*
X168950000Y-141475500D03*
X168150000Y-141475500D03*
%TD*%
D13*
%TO.C,C9*%
X181190000Y-87815500D03*
X181190000Y-86265500D03*
%TD*%
D17*
%TO.C,R1*%
X117744999Y-51800500D03*
X119394999Y-51800500D03*
%TD*%
D16*
%TO.C,R11*%
X209950000Y-136975500D03*
X209950000Y-135325500D03*
%TD*%
D17*
%TO.C,R1*%
X162244999Y-51800500D03*
X163894999Y-51800500D03*
%TD*%
D19*
%TO.C,R6*%
X202115000Y-89845500D03*
X200465000Y-89845500D03*
%TD*%
D18*
%TO.C,R4*%
X198925000Y-138800500D03*
X198925000Y-140450500D03*
%TD*%
D20*
%TO.C,C4*%
X117850000Y-47350500D03*
X117850000Y-48900500D03*
%TD*%
D13*
%TO.C,C12*%
X208360000Y-38955500D03*
X208360000Y-37405500D03*
%TD*%
%TO.C,C9*%
X92190000Y-38815500D03*
X92190000Y-37265500D03*
%TD*%
D12*
%TO.C,SW5*%
X154110000Y-33148000D03*
X156610000Y-33148000D03*
X159110000Y-33148000D03*
%TD*%
D13*
%TO.C,C13*%
X117810000Y-38955500D03*
X117810000Y-37405500D03*
%TD*%
%TO.C,C11*%
X175250000Y-87645500D03*
X175250000Y-86095500D03*
%TD*%
D17*
%TO.C,R12*%
X168925000Y-38610500D03*
X170575000Y-38610500D03*
%TD*%
D22*
%TO.C,U1*%
X122275000Y-93850500D03*
X122275000Y-94650500D03*
X122275000Y-95450500D03*
X122275000Y-96250500D03*
X122275000Y-97050500D03*
X122275000Y-97850500D03*
X122275000Y-98650500D03*
X122275000Y-99450500D03*
D23*
X123650000Y-100825500D03*
X124450000Y-100825500D03*
X125250000Y-100825500D03*
X126050000Y-100825500D03*
X126850000Y-100825500D03*
X127650000Y-100825500D03*
X128450000Y-100825500D03*
X129250000Y-100825500D03*
D22*
X130625000Y-99450500D03*
X130625000Y-98650500D03*
X130625000Y-97850500D03*
X130625000Y-97050500D03*
X130625000Y-96250500D03*
X130625000Y-95450500D03*
X130625000Y-94650500D03*
X130625000Y-93850500D03*
D23*
X129250000Y-92475500D03*
X128450000Y-92475500D03*
X127650000Y-92475500D03*
X126850000Y-92475500D03*
X126050000Y-92475500D03*
X125250000Y-92475500D03*
X124450000Y-92475500D03*
X123650000Y-92475500D03*
%TD*%
D17*
%TO.C,R12*%
X124425000Y-136610500D03*
X126075000Y-136610500D03*
%TD*%
D20*
%TO.C,C4*%
X206850000Y-47350500D03*
X206850000Y-48900500D03*
%TD*%
D19*
%TO.C,R6*%
X68615000Y-89845500D03*
X66965000Y-89845500D03*
%TD*%
D11*
%TO.C,C2*%
X202100000Y-91425500D03*
X200550000Y-91425500D03*
%TD*%
D22*
%TO.C,U1*%
X122275000Y-44850500D03*
X122275000Y-45650500D03*
X122275000Y-46450500D03*
X122275000Y-47250500D03*
X122275000Y-48050500D03*
X122275000Y-48850500D03*
X122275000Y-49650500D03*
X122275000Y-50450500D03*
D23*
X123650000Y-51825500D03*
X124450000Y-51825500D03*
X125250000Y-51825500D03*
X126050000Y-51825500D03*
X126850000Y-51825500D03*
X127650000Y-51825500D03*
X128450000Y-51825500D03*
X129250000Y-51825500D03*
D22*
X130625000Y-50450500D03*
X130625000Y-49650500D03*
X130625000Y-48850500D03*
X130625000Y-48050500D03*
X130625000Y-47250500D03*
X130625000Y-46450500D03*
X130625000Y-45650500D03*
X130625000Y-44850500D03*
D23*
X129250000Y-43475500D03*
X128450000Y-43475500D03*
X127650000Y-43475500D03*
X126850000Y-43475500D03*
X126050000Y-43475500D03*
X125250000Y-43475500D03*
X124450000Y-43475500D03*
X123650000Y-43475500D03*
%TD*%
D11*
%TO.C,C2*%
X113100000Y-91425500D03*
X111550000Y-91425500D03*
%TD*%
D13*
%TO.C,C12*%
X208360000Y-87955500D03*
X208360000Y-86405500D03*
%TD*%
D20*
%TO.C,C8*%
X223460000Y-37235500D03*
X223460000Y-38785500D03*
%TD*%
D11*
%TO.C,C1*%
X68625000Y-133450500D03*
X67075000Y-133450500D03*
%TD*%
D16*
%TO.C,R11*%
X165450000Y-87975500D03*
X165450000Y-86325500D03*
%TD*%
D20*
%TO.C,C3*%
X163900000Y-145370501D03*
X163900000Y-146920501D03*
%TD*%
D13*
%TO.C,C12*%
X208360000Y-136955500D03*
X208360000Y-135405500D03*
%TD*%
D16*
%TO.C,R2*%
X177540000Y-149805500D03*
X177540000Y-148155500D03*
%TD*%
D19*
%TO.C,R6*%
X68615000Y-40845500D03*
X66965000Y-40845500D03*
%TD*%
D16*
%TO.C,R11*%
X209950000Y-38975500D03*
X209950000Y-37325500D03*
%TD*%
D13*
%TO.C,C13*%
X73310000Y-87955500D03*
X73310000Y-86405500D03*
%TD*%
D18*
%TO.C,R101*%
X172750000Y-86060500D03*
X172750000Y-87710500D03*
%TD*%
D20*
%TO.C,C4*%
X206850000Y-145350500D03*
X206850000Y-146900500D03*
%TD*%
M02*
