M48
; DRILL file {KiCad 9.0.2} date 2025-12-22T19:44:20+0000
; FORMAT={-:-/ absolute / metric / decimal}
; #@! TF.CreationDate,2025-12-22T19:44:20+00:00
; #@! TF.GenerationSoftware,Kicad,Pcbnew,9.0.2
; #@! TF.FileFunction,NonPlated,1,2,NPTH
FMAT,2
METRIC
; #@! TA.AperFunction,NonPlated,NPTH,ComponentDrill
T1C0.991
; #@! TA.AperFunction,NonPlated,NPTH,ComponentDrill
T2C1.900
; #@! TA.AperFunction,NonPlated,NPTH,ComponentDrill
T3C2.000
; #@! TA.AperFunction,NonPlated,NPTH,ComponentDrill
T4C3.450
%
G90
G05
T1
X93.035Y-59.169
X93.035Y-61.201
X93.035Y-108.169
X93.035Y-110.201
X93.035Y-157.169
X93.035Y-159.201
X98.115Y-60.185
X98.115Y-109.185
X98.115Y-158.185
X137.535Y-59.169
X137.535Y-61.201
X137.535Y-108.169
X137.535Y-110.201
X137.535Y-157.169
X137.535Y-159.201
X142.615Y-60.185
X142.615Y-109.185
X142.615Y-158.185
X182.035Y-59.169
X182.035Y-61.201
X182.035Y-108.169
X182.035Y-110.201
X182.035Y-157.169
X182.035Y-159.201
X187.115Y-60.185
X187.115Y-109.185
X187.115Y-158.185
X226.535Y-59.169
X226.535Y-61.201
X226.535Y-108.169
X226.535Y-110.201
X226.535Y-157.169
X226.535Y-159.201
X231.615Y-60.185
X231.615Y-109.185
X231.615Y-158.185
T2
X66.725Y-65.001
X66.725Y-114.0
X66.725Y-163.0
X77.725Y-65.001
X77.725Y-114.0
X77.725Y-163.0
X86.0Y-65.001
X86.0Y-114.0
X86.0Y-163.0
X97.0Y-65.001
X97.0Y-114.0
X97.0Y-163.0
X111.225Y-65.001
X111.225Y-114.0
X111.225Y-163.0
X122.225Y-65.001
X122.225Y-114.0
X122.225Y-163.0
X130.5Y-65.001
X130.5Y-114.0
X130.5Y-163.0
X141.5Y-65.001
X141.5Y-114.0
X141.5Y-163.0
X155.725Y-65.001
X155.725Y-114.0
X155.725Y-163.0
X166.725Y-65.001
X166.725Y-114.0
X166.725Y-163.0
X175.0Y-65.001
X175.0Y-114.0
X175.0Y-163.0
X186.0Y-65.001
X186.0Y-114.0
X186.0Y-163.0
X200.225Y-65.001
X200.225Y-114.0
X200.225Y-163.0
X211.225Y-65.001
X211.225Y-114.0
X211.225Y-163.0
X219.5Y-65.001
X219.5Y-114.0
X219.5Y-163.0
X230.5Y-65.001
X230.5Y-114.0
X230.5Y-163.0
T3
X60.5Y-20.0
X60.5Y-181.001
X236.5Y-20.0
T4
X72.225Y-65.001
X72.225Y-114.0
X72.225Y-163.0
X91.5Y-65.001
X91.5Y-114.0
X91.5Y-163.0
X116.725Y-65.001
X116.725Y-114.0
X116.725Y-163.0
X136.0Y-65.001
X136.0Y-114.0
X136.0Y-163.0
X161.225Y-65.001
X161.225Y-114.0
X161.225Y-163.0
X180.5Y-65.001
X180.5Y-114.0
X180.5Y-163.0
X205.725Y-65.001
X205.725Y-114.0
X205.725Y-163.0
X225.0Y-65.001
X225.0Y-114.0
X225.0Y-163.0
M30
