M48
; DRILL file {KiCad 9.0.2} date 2025-12-22T19:44:20+0000
; FORMAT={-:-/ absolute / metric / decimal}
; #@! TF.CreationDate,2025-12-22T19:44:20+00:00
; #@! TF.GenerationSoftware,Kicad,Pcbnew,9.0.2
; #@! TF.FileFunction,Plated,1,2,PTH
FMAT,2
METRIC
; #@! TA.AperFunction,Plated,PTH,ViaDrill
T1C0.300
; #@! TA.AperFunction,Plated,PTH,ComponentDrill
T2C1.200
%
G90
G05
T1
X61.75Y-37.191
X61.75Y-86.191
X61.75Y-135.19
X61.85Y-43.18
X61.85Y-92.18
X61.85Y-141.18
X62.38Y-32.62
X62.38Y-81.62
X62.38Y-130.62
X62.42Y-47.74
X62.42Y-96.74
X62.42Y-145.74
X62.88Y-55.261
X62.88Y-104.26
X62.88Y-153.26
X63.56Y-71.221
X63.56Y-120.221
X63.56Y-169.22
X63.61Y-50.941
X63.61Y-99.941
X63.61Y-148.94
X64.475Y-38.25
X64.475Y-87.251
X64.475Y-136.25
X65.85Y-35.45
X65.85Y-84.45
X65.85Y-133.451
X66.2Y-31.0
X66.2Y-80.001
X66.2Y-129.0
X66.35Y-44.2
X66.35Y-93.2
X66.35Y-142.201
X66.99Y-55.8
X66.99Y-104.8
X66.99Y-153.8
X67.2Y-60.4
X67.2Y-109.4
X67.2Y-158.4
X67.35Y-52.42
X67.35Y-101.42
X67.35Y-150.421
X67.675Y-38.85
X67.675Y-39.875
X67.675Y-87.85
X67.675Y-88.876
X67.675Y-136.85
X67.675Y-137.875
X67.8Y-41.575
X67.8Y-90.575
X67.8Y-139.576
X68.57Y-71.84
X68.57Y-120.84
X68.57Y-169.84
X68.997Y-44.92
X68.997Y-93.92
X68.997Y-142.92
X70.2Y-30.92
X70.2Y-79.92
X70.2Y-128.921
X70.925Y-53.401
X70.925Y-102.4
X70.925Y-151.4
X71.75Y-35.7
X71.75Y-84.7
X71.75Y-133.701
X71.95Y-52.7
X71.95Y-101.7
X71.95Y-150.701
X72.325Y-41.526
X72.325Y-90.525
X72.325Y-139.525
X73.225Y-40.401
X73.225Y-89.4
X73.225Y-138.4
X73.275Y-50.175
X73.275Y-99.175
X73.275Y-148.175
X73.3Y-36.42
X73.3Y-85.42
X73.3Y-134.421
X73.49Y-57.67
X73.49Y-106.67
X73.49Y-155.671
X74.73Y-71.98
X74.73Y-120.98
X74.73Y-169.981
X74.75Y-40.35
X74.75Y-89.35
X74.75Y-138.35
X74.79Y-67.56
X74.79Y-116.56
X74.79Y-165.56
X74.84Y-36.37
X74.84Y-85.37
X74.84Y-134.37
X74.925Y-50.125
X74.925Y-99.126
X74.925Y-148.125
X75.125Y-45.35
X75.125Y-94.35
X75.125Y-143.35
X75.97Y-58.82
X75.97Y-107.82
X75.97Y-156.82
X76.17Y-36.401
X76.17Y-85.4
X76.17Y-134.4
X76.2Y-48.55
X76.2Y-97.55
X76.2Y-146.55
X76.284Y-40.319
X76.284Y-89.319
X76.284Y-138.319
X77.06Y-71.081
X77.06Y-120.081
X77.06Y-169.081
X77.357Y-52.195
X77.357Y-101.195
X77.357Y-150.195
X77.375Y-42.776
X77.375Y-91.775
X77.375Y-140.775
X77.54Y-36.42
X77.54Y-85.42
X77.54Y-134.421
X77.69Y-37.62
X77.69Y-86.62
X77.69Y-135.62
X77.99Y-38.84
X77.99Y-87.84
X77.99Y-136.84
X78.6Y-61.2
X78.6Y-110.2
X78.6Y-159.201
X79.0Y-48.825
X79.0Y-97.825
X79.0Y-146.826
X79.2Y-44.875
X79.2Y-93.876
X79.2Y-142.875
X79.475Y-47.0
X79.475Y-96.001
X79.475Y-145.0
X80.04Y-39.36
X80.04Y-88.361
X80.04Y-137.361
X80.42Y-58.34
X80.42Y-107.34
X80.42Y-156.34
X80.73Y-39.67
X80.73Y-88.67
X80.73Y-137.671
X80.77Y-35.78
X80.77Y-84.78
X80.77Y-133.78
X81.575Y-46.7
X81.575Y-95.7
X81.575Y-144.701
X81.625Y-50.026
X81.625Y-99.025
X81.625Y-148.025
X81.72Y-65.331
X81.72Y-114.331
X81.72Y-163.331
X81.85Y-71.38
X81.85Y-120.38
X81.85Y-169.38
X81.94Y-37.441
X81.94Y-86.441
X81.94Y-135.44
X82.15Y-44.95
X82.15Y-93.95
X82.15Y-142.951
X82.27Y-36.111
X82.27Y-85.111
X82.27Y-134.111
X83.75Y-39.825
X83.75Y-88.825
X83.75Y-137.826
X83.95Y-42.401
X83.95Y-91.4
X83.95Y-140.4
X84.3Y-46.725
X84.3Y-95.725
X84.3Y-144.725
X84.39Y-50.065
X84.39Y-99.065
X84.39Y-148.065
X84.875Y-35.925
X84.875Y-84.925
X84.875Y-133.925
X85.35Y-56.3
X85.35Y-105.3
X85.35Y-154.3
X85.825Y-51.85
X85.825Y-100.85
X85.825Y-149.85
X85.95Y-40.325
X85.95Y-89.325
X85.95Y-138.326
X86.35Y-35.675
X86.35Y-84.675
X86.35Y-133.675
X86.6Y-62.0
X86.6Y-111.0
X86.6Y-160.0
X86.72Y-39.81
X86.72Y-88.81
X86.72Y-137.81
X87.425Y-53.825
X87.425Y-102.825
X87.425Y-151.826
X87.82Y-72.111
X87.82Y-121.11
X87.82Y-170.111
X88.05Y-36.12
X88.05Y-85.12
X88.05Y-134.12
X88.24Y-44.11
X88.24Y-93.111
X88.24Y-142.111
X88.44Y-59.64
X88.44Y-108.64
X88.44Y-157.641
X88.87Y-36.07
X88.87Y-85.07
X88.87Y-134.07
X89.15Y-38.05
X89.15Y-87.05
X89.15Y-136.05
X89.18Y-39.78
X89.18Y-88.78
X89.18Y-137.78
X89.49Y-45.081
X89.49Y-94.081
X89.49Y-143.081
X89.76Y-36.191
X89.76Y-85.191
X89.76Y-134.19
X90.55Y-36.111
X90.55Y-85.111
X90.55Y-134.111
X91.02Y-39.61
X91.02Y-88.611
X91.02Y-137.611
X91.2Y-44.35
X91.2Y-93.35
X91.2Y-142.35
X91.25Y-36.05
X91.25Y-68.48
X91.25Y-85.05
X91.25Y-117.48
X91.25Y-134.05
X91.25Y-166.481
X91.675Y-47.776
X91.675Y-96.775
X91.675Y-145.775
X91.92Y-36.3
X91.92Y-85.3
X91.92Y-134.3
X91.96Y-60.15
X91.96Y-109.15
X91.96Y-158.15
X92.3Y-30.601
X92.3Y-79.6
X92.3Y-128.6
X92.52Y-57.14
X92.52Y-106.14
X92.52Y-155.141
X93.2Y-38.075
X93.2Y-87.075
X93.2Y-136.076
X93.6Y-45.84
X93.6Y-94.84
X93.6Y-143.84
X93.61Y-33.761
X93.61Y-82.76
X93.61Y-131.761
X93.99Y-72.18
X93.99Y-121.18
X93.99Y-170.18
X94.175Y-36.85
X94.175Y-85.85
X94.175Y-134.85
X94.37Y-58.16
X94.37Y-107.16
X94.37Y-156.16
X95.85Y-40.55
X95.85Y-89.55
X95.85Y-138.55
X96.24Y-30.48
X96.24Y-79.48
X96.24Y-128.481
X96.58Y-35.651
X96.58Y-84.65
X96.58Y-133.65
X96.73Y-68.62
X96.73Y-117.62
X96.73Y-166.62
X98.1Y-43.12
X98.1Y-92.12
X98.1Y-141.12
X98.125Y-38.825
X98.125Y-87.825
X98.125Y-136.826
X98.45Y-46.21
X98.45Y-95.21
X98.45Y-144.21
X99.04Y-41.84
X99.04Y-90.84
X99.04Y-139.84
X99.27Y-72.18
X99.27Y-121.18
X99.27Y-170.18
X99.41Y-68.82
X99.41Y-117.82
X99.41Y-166.82
X100.08Y-33.03
X100.08Y-82.03
X100.08Y-131.03
X100.625Y-61.6
X100.625Y-110.6
X100.625Y-159.6
X101.49Y-35.96
X101.49Y-84.96
X101.49Y-133.96
X106.25Y-37.191
X106.25Y-86.191
X106.25Y-135.19
X106.35Y-43.18
X106.35Y-92.18
X106.35Y-141.18
X106.88Y-32.62
X106.88Y-81.62
X106.88Y-130.62
X106.92Y-47.74
X106.92Y-96.74
X106.92Y-145.74
X107.38Y-55.261
X107.38Y-104.26
X107.38Y-153.26
X108.06Y-71.221
X108.06Y-120.221
X108.06Y-169.22
X108.11Y-50.941
X108.11Y-99.941
X108.11Y-148.94
X108.975Y-38.25
X108.975Y-87.251
X108.975Y-136.25
X110.35Y-35.45
X110.35Y-84.45
X110.35Y-133.451
X110.7Y-31.0
X110.7Y-80.001
X110.7Y-129.0
X110.85Y-44.2
X110.85Y-93.2
X110.85Y-142.201
X111.49Y-55.8
X111.49Y-104.8
X111.49Y-153.8
X111.7Y-60.4
X111.7Y-109.4
X111.7Y-158.4
X111.85Y-52.42
X111.85Y-101.42
X111.85Y-150.421
X112.175Y-38.85
X112.175Y-39.875
X112.175Y-87.85
X112.175Y-88.876
X112.175Y-136.85
X112.175Y-137.875
X112.3Y-41.575
X112.3Y-90.575
X112.3Y-139.576
X113.07Y-71.84
X113.07Y-120.84
X113.07Y-169.84
X113.497Y-44.92
X113.497Y-93.92
X113.497Y-142.92
X114.7Y-30.92
X114.7Y-79.92
X114.7Y-128.921
X115.425Y-53.401
X115.425Y-102.4
X115.425Y-151.4
X116.25Y-35.7
X116.25Y-84.7
X116.25Y-133.701
X116.45Y-52.7
X116.45Y-101.7
X116.45Y-150.701
X116.825Y-41.526
X116.825Y-90.525
X116.825Y-139.525
X117.725Y-40.401
X117.725Y-89.4
X117.725Y-138.4
X117.775Y-50.175
X117.775Y-99.175
X117.775Y-148.175
X117.8Y-36.42
X117.8Y-85.42
X117.8Y-134.421
X117.99Y-57.67
X117.99Y-106.67
X117.99Y-155.671
X119.23Y-71.98
X119.23Y-120.98
X119.23Y-169.981
X119.25Y-40.35
X119.25Y-89.35
X119.25Y-138.35
X119.29Y-67.56
X119.29Y-116.56
X119.29Y-165.56
X119.34Y-36.37
X119.34Y-85.37
X119.34Y-134.37
X119.425Y-50.125
X119.425Y-99.126
X119.425Y-148.125
X119.625Y-45.35
X119.625Y-94.35
X119.625Y-143.35
X120.47Y-58.82
X120.47Y-107.82
X120.47Y-156.82
X120.67Y-36.401
X120.67Y-85.4
X120.67Y-134.4
X120.7Y-48.55
X120.7Y-97.55
X120.7Y-146.55
X120.784Y-40.319
X120.784Y-89.319
X120.784Y-138.319
X121.56Y-71.081
X121.56Y-120.081
X121.56Y-169.081
X121.857Y-52.195
X121.857Y-101.195
X121.857Y-150.195
X121.875Y-42.776
X121.875Y-91.775
X121.875Y-140.775
X122.04Y-36.42
X122.04Y-85.42
X122.04Y-134.421
X122.19Y-37.62
X122.19Y-86.62
X122.19Y-135.62
X122.49Y-38.84
X122.49Y-87.84
X122.49Y-136.84
X123.1Y-61.2
X123.1Y-110.2
X123.1Y-159.201
X123.5Y-48.825
X123.5Y-97.825
X123.5Y-146.826
X123.7Y-44.875
X123.7Y-93.876
X123.7Y-142.875
X123.975Y-47.0
X123.975Y-96.001
X123.975Y-145.0
X124.54Y-39.36
X124.54Y-88.361
X124.54Y-137.361
X124.92Y-58.34
X124.92Y-107.34
X124.92Y-156.34
X125.23Y-39.67
X125.23Y-88.67
X125.23Y-137.671
X125.27Y-35.78
X125.27Y-84.78
X125.27Y-133.78
X126.075Y-46.7
X126.075Y-95.7
X126.075Y-144.701
X126.125Y-50.026
X126.125Y-99.025
X126.125Y-148.025
X126.22Y-65.331
X126.22Y-114.331
X126.22Y-163.331
X126.35Y-71.38
X126.35Y-120.38
X126.35Y-169.38
X126.44Y-37.441
X126.44Y-86.441
X126.44Y-135.44
X126.65Y-44.95
X126.65Y-93.95
X126.65Y-142.951
X126.77Y-36.111
X126.77Y-85.111
X126.77Y-134.111
X128.25Y-39.825
X128.25Y-88.825
X128.25Y-137.826
X128.45Y-42.401
X128.45Y-91.4
X128.45Y-140.4
X128.8Y-46.725
X128.8Y-95.725
X128.8Y-144.725
X128.89Y-50.065
X128.89Y-99.065
X128.89Y-148.065
X129.375Y-35.925
X129.375Y-84.925
X129.375Y-133.925
X129.85Y-56.3
X129.85Y-105.3
X129.85Y-154.3
X130.325Y-51.85
X130.325Y-100.85
X130.325Y-149.85
X130.45Y-40.325
X130.45Y-89.325
X130.45Y-138.326
X130.85Y-35.675
X130.85Y-84.675
X130.85Y-133.675
X131.1Y-62.0
X131.1Y-111.0
X131.1Y-160.0
X131.22Y-39.81
X131.22Y-88.81
X131.22Y-137.81
X131.925Y-53.825
X131.925Y-102.825
X131.925Y-151.826
X132.32Y-72.111
X132.32Y-121.11
X132.32Y-170.111
X132.55Y-36.12
X132.55Y-85.12
X132.55Y-134.12
X132.74Y-44.11
X132.74Y-93.111
X132.74Y-142.111
X132.94Y-59.64
X132.94Y-108.64
X132.94Y-157.641
X133.37Y-36.07
X133.37Y-85.07
X133.37Y-134.07
X133.65Y-38.05
X133.65Y-87.05
X133.65Y-136.05
X133.68Y-39.78
X133.68Y-88.78
X133.68Y-137.78
X133.99Y-45.081
X133.99Y-94.081
X133.99Y-143.081
X134.26Y-36.191
X134.26Y-85.191
X134.26Y-134.19
X135.05Y-36.111
X135.05Y-85.111
X135.05Y-134.111
X135.52Y-39.61
X135.52Y-88.611
X135.52Y-137.611
X135.7Y-44.35
X135.7Y-93.35
X135.7Y-142.35
X135.75Y-36.05
X135.75Y-68.48
X135.75Y-85.05
X135.75Y-117.48
X135.75Y-134.05
X135.75Y-166.481
X136.175Y-47.776
X136.175Y-96.775
X136.175Y-145.775
X136.42Y-36.3
X136.42Y-85.3
X136.42Y-134.3
X136.46Y-60.15
X136.46Y-109.15
X136.46Y-158.15
X136.8Y-30.601
X136.8Y-79.6
X136.8Y-128.6
X137.02Y-57.14
X137.02Y-106.14
X137.02Y-155.141
X137.7Y-38.075
X137.7Y-87.075
X137.7Y-136.076
X138.1Y-45.84
X138.1Y-94.84
X138.1Y-143.84
X138.11Y-33.761
X138.11Y-82.76
X138.11Y-131.761
X138.49Y-72.18
X138.49Y-121.18
X138.49Y-170.18
X138.675Y-36.85
X138.675Y-85.85
X138.675Y-134.85
X138.87Y-58.16
X138.87Y-107.16
X138.87Y-156.16
X140.35Y-40.55
X140.35Y-89.55
X140.35Y-138.55
X140.74Y-30.48
X140.74Y-79.48
X140.74Y-128.481
X141.08Y-35.651
X141.08Y-84.65
X141.08Y-133.65
X141.23Y-68.62
X141.23Y-117.62
X141.23Y-166.62
X142.6Y-43.12
X142.6Y-92.12
X142.6Y-141.12
X142.625Y-38.825
X142.625Y-87.825
X142.625Y-136.826
X142.95Y-46.21
X142.95Y-95.21
X142.95Y-144.21
X143.54Y-41.84
X143.54Y-90.84
X143.54Y-139.84
X143.77Y-72.18
X143.77Y-121.18
X143.77Y-170.18
X143.91Y-68.82
X143.91Y-117.82
X143.91Y-166.82
X144.58Y-33.03
X144.58Y-82.03
X144.58Y-131.03
X145.125Y-61.6
X145.125Y-110.6
X145.125Y-159.6
X145.99Y-35.96
X145.99Y-84.96
X145.99Y-133.96
X150.75Y-37.191
X150.75Y-86.191
X150.75Y-135.19
X150.85Y-43.18
X150.85Y-92.18
X150.85Y-141.18
X151.38Y-32.62
X151.38Y-81.62
X151.38Y-130.62
X151.42Y-47.74
X151.42Y-96.74
X151.42Y-145.74
X151.88Y-55.261
X151.88Y-104.26
X151.88Y-153.26
X152.56Y-71.221
X152.56Y-120.221
X152.56Y-169.22
X152.61Y-50.941
X152.61Y-99.941
X152.61Y-148.94
X153.475Y-38.25
X153.475Y-87.251
X153.475Y-136.25
X154.85Y-35.45
X154.85Y-84.45
X154.85Y-133.451
X155.2Y-31.0
X155.2Y-80.001
X155.2Y-129.0
X155.35Y-44.2
X155.35Y-93.2
X155.35Y-142.201
X155.99Y-55.8
X155.99Y-104.8
X155.99Y-153.8
X156.2Y-60.4
X156.2Y-109.4
X156.2Y-158.4
X156.35Y-52.42
X156.35Y-101.42
X156.35Y-150.421
X156.675Y-38.85
X156.675Y-39.875
X156.675Y-87.85
X156.675Y-88.876
X156.675Y-136.85
X156.675Y-137.875
X156.8Y-41.575
X156.8Y-90.575
X156.8Y-139.576
X157.57Y-71.84
X157.57Y-120.84
X157.57Y-169.84
X157.997Y-44.92
X157.997Y-93.92
X157.997Y-142.92
X159.2Y-30.92
X159.2Y-79.92
X159.2Y-128.921
X159.925Y-53.401
X159.925Y-102.4
X159.925Y-151.4
X160.75Y-35.7
X160.75Y-84.7
X160.75Y-133.701
X160.95Y-52.7
X160.95Y-101.7
X160.95Y-150.701
X161.325Y-41.526
X161.325Y-90.525
X161.325Y-139.525
X162.225Y-40.401
X162.225Y-89.4
X162.225Y-138.4
X162.275Y-50.175
X162.275Y-99.175
X162.275Y-148.175
X162.3Y-36.42
X162.3Y-85.42
X162.3Y-134.421
X162.49Y-57.67
X162.49Y-106.67
X162.49Y-155.671
X163.73Y-71.98
X163.73Y-120.98
X163.73Y-169.981
X163.75Y-40.35
X163.75Y-89.35
X163.75Y-138.35
X163.79Y-67.56
X163.79Y-116.56
X163.79Y-165.56
X163.84Y-36.37
X163.84Y-85.37
X163.84Y-134.37
X163.925Y-50.125
X163.925Y-99.126
X163.925Y-148.125
X164.125Y-45.35
X164.125Y-94.35
X164.125Y-143.35
X164.97Y-58.82
X164.97Y-107.82
X164.97Y-156.82
X165.17Y-36.401
X165.17Y-85.4
X165.17Y-134.4
X165.2Y-48.55
X165.2Y-97.55
X165.2Y-146.55
X165.284Y-40.319
X165.284Y-89.319
X165.284Y-138.319
X166.06Y-71.081
X166.06Y-120.081
X166.06Y-169.081
X166.357Y-52.195
X166.357Y-101.195
X166.357Y-150.195
X166.375Y-42.776
X166.375Y-91.775
X166.375Y-140.775
X166.54Y-36.42
X166.54Y-85.42
X166.54Y-134.421
X166.69Y-37.62
X166.69Y-86.62
X166.69Y-135.62
X166.99Y-38.84
X166.99Y-87.84
X166.99Y-136.84
X167.6Y-61.2
X167.6Y-110.2
X167.6Y-159.201
X168.0Y-48.825
X168.0Y-97.825
X168.0Y-146.826
X168.2Y-44.875
X168.2Y-93.876
X168.2Y-142.875
X168.475Y-47.0
X168.475Y-96.001
X168.475Y-145.0
X169.04Y-39.36
X169.04Y-88.361
X169.04Y-137.361
X169.42Y-58.34
X169.42Y-107.34
X169.42Y-156.34
X169.73Y-39.67
X169.73Y-88.67
X169.73Y-137.671
X169.77Y-35.78
X169.77Y-84.78
X169.77Y-133.78
X170.575Y-46.7
X170.575Y-95.7
X170.575Y-144.701
X170.625Y-50.026
X170.625Y-99.025
X170.625Y-148.025
X170.72Y-65.331
X170.72Y-114.331
X170.72Y-163.331
X170.85Y-71.38
X170.85Y-120.38
X170.85Y-169.38
X170.94Y-37.441
X170.94Y-86.441
X170.94Y-135.44
X171.15Y-44.95
X171.15Y-93.95
X171.15Y-142.951
X171.27Y-36.111
X171.27Y-85.111
X171.27Y-134.111
X172.75Y-39.825
X172.75Y-88.825
X172.75Y-137.826
X172.95Y-42.401
X172.95Y-91.4
X172.95Y-140.4
X173.3Y-46.725
X173.3Y-95.725
X173.3Y-144.725
X173.39Y-50.065
X173.39Y-99.065
X173.39Y-148.065
X173.875Y-35.925
X173.875Y-84.925
X173.875Y-133.925
X174.35Y-56.3
X174.35Y-105.3
X174.35Y-154.3
X174.825Y-51.85
X174.825Y-100.85
X174.825Y-149.85
X174.95Y-40.325
X174.95Y-89.325
X174.95Y-138.326
X175.35Y-35.675
X175.35Y-84.675
X175.35Y-133.675
X175.6Y-62.0
X175.6Y-111.0
X175.6Y-160.0
X175.72Y-39.81
X175.72Y-88.81
X175.72Y-137.81
X176.425Y-53.825
X176.425Y-102.825
X176.425Y-151.826
X176.82Y-72.111
X176.82Y-121.11
X176.82Y-170.111
X177.05Y-36.12
X177.05Y-85.12
X177.05Y-134.12
X177.24Y-44.11
X177.24Y-93.111
X177.24Y-142.111
X177.44Y-59.64
X177.44Y-108.64
X177.44Y-157.641
X177.87Y-36.07
X177.87Y-85.07
X177.87Y-134.07
X178.15Y-38.05
X178.15Y-87.05
X178.15Y-136.05
X178.18Y-39.78
X178.18Y-88.78
X178.18Y-137.78
X178.49Y-45.081
X178.49Y-94.081
X178.49Y-143.081
X178.76Y-36.191
X178.76Y-85.191
X178.76Y-134.19
X179.55Y-36.111
X179.55Y-85.111
X179.55Y-134.111
X180.02Y-39.61
X180.02Y-88.611
X180.02Y-137.611
X180.2Y-44.35
X180.2Y-93.35
X180.2Y-142.35
X180.25Y-36.05
X180.25Y-68.48
X180.25Y-85.05
X180.25Y-117.48
X180.25Y-134.05
X180.25Y-166.481
X180.675Y-47.776
X180.675Y-96.775
X180.675Y-145.775
X180.92Y-36.3
X180.92Y-85.3
X180.92Y-134.3
X180.96Y-60.15
X180.96Y-109.15
X180.96Y-158.15
X181.3Y-30.601
X181.3Y-79.6
X181.3Y-128.6
X181.52Y-57.14
X181.52Y-106.14
X181.52Y-155.141
X182.2Y-38.075
X182.2Y-87.075
X182.2Y-136.076
X182.6Y-45.84
X182.6Y-94.84
X182.6Y-143.84
X182.61Y-33.761
X182.61Y-82.76
X182.61Y-131.761
X182.99Y-72.18
X182.99Y-121.18
X182.99Y-170.18
X183.175Y-36.85
X183.175Y-85.85
X183.175Y-134.85
X183.37Y-58.16
X183.37Y-107.16
X183.37Y-156.16
X184.85Y-40.55
X184.85Y-89.55
X184.85Y-138.55
X185.24Y-30.48
X185.24Y-79.48
X185.24Y-128.481
X185.58Y-35.651
X185.58Y-84.65
X185.58Y-133.65
X185.73Y-68.62
X185.73Y-117.62
X185.73Y-166.62
X187.1Y-43.12
X187.1Y-92.12
X187.1Y-141.12
X187.125Y-38.825
X187.125Y-87.825
X187.125Y-136.826
X187.45Y-46.21
X187.45Y-95.21
X187.45Y-144.21
X188.04Y-41.84
X188.04Y-90.84
X188.04Y-139.84
X188.27Y-72.18
X188.27Y-121.18
X188.27Y-170.18
X188.41Y-68.82
X188.41Y-117.82
X188.41Y-166.82
X189.08Y-33.03
X189.08Y-82.03
X189.08Y-131.03
X189.625Y-61.6
X189.625Y-110.6
X189.625Y-159.6
X190.49Y-35.96
X190.49Y-84.96
X190.49Y-133.96
X195.25Y-37.191
X195.25Y-86.191
X195.25Y-135.19
X195.35Y-43.18
X195.35Y-92.18
X195.35Y-141.18
X195.88Y-32.62
X195.88Y-81.62
X195.88Y-130.62
X195.92Y-47.74
X195.92Y-96.74
X195.92Y-145.74
X196.38Y-55.261
X196.38Y-104.26
X196.38Y-153.26
X197.06Y-71.221
X197.06Y-120.221
X197.06Y-169.22
X197.11Y-50.941
X197.11Y-99.941
X197.11Y-148.94
X197.975Y-38.25
X197.975Y-87.251
X197.975Y-136.25
X199.35Y-35.45
X199.35Y-84.45
X199.35Y-133.451
X199.7Y-31.0
X199.7Y-80.001
X199.7Y-129.0
X199.85Y-44.2
X199.85Y-93.2
X199.85Y-142.201
X200.49Y-55.8
X200.49Y-104.8
X200.49Y-153.8
X200.7Y-60.4
X200.7Y-109.4
X200.7Y-158.4
X200.85Y-52.42
X200.85Y-101.42
X200.85Y-150.421
X201.175Y-38.85
X201.175Y-39.875
X201.175Y-87.85
X201.175Y-88.876
X201.175Y-136.85
X201.175Y-137.875
X201.3Y-41.575
X201.3Y-90.575
X201.3Y-139.576
X202.07Y-71.84
X202.07Y-120.84
X202.07Y-169.84
X202.497Y-44.92
X202.497Y-93.92
X202.497Y-142.92
X203.7Y-30.92
X203.7Y-79.92
X203.7Y-128.921
X204.425Y-53.401
X204.425Y-102.4
X204.425Y-151.4
X205.25Y-35.7
X205.25Y-84.7
X205.25Y-133.701
X205.45Y-52.7
X205.45Y-101.7
X205.45Y-150.701
X205.825Y-41.526
X205.825Y-90.525
X205.825Y-139.525
X206.725Y-40.401
X206.725Y-89.4
X206.725Y-138.4
X206.775Y-50.175
X206.775Y-99.175
X206.775Y-148.175
X206.8Y-36.42
X206.8Y-85.42
X206.8Y-134.421
X206.99Y-57.67
X206.99Y-106.67
X206.99Y-155.671
X208.23Y-71.98
X208.23Y-120.98
X208.23Y-169.981
X208.25Y-40.35
X208.25Y-89.35
X208.25Y-138.35
X208.29Y-67.56
X208.29Y-116.56
X208.29Y-165.56
X208.34Y-36.37
X208.34Y-85.37
X208.34Y-134.37
X208.425Y-50.125
X208.425Y-99.126
X208.425Y-148.125
X208.625Y-45.35
X208.625Y-94.35
X208.625Y-143.35
X209.47Y-58.82
X209.47Y-107.82
X209.47Y-156.82
X209.67Y-36.401
X209.67Y-85.4
X209.67Y-134.4
X209.7Y-48.55
X209.7Y-97.55
X209.7Y-146.55
X209.784Y-40.319
X209.784Y-89.319
X209.784Y-138.319
X210.56Y-71.081
X210.56Y-120.081
X210.56Y-169.081
X210.857Y-52.195
X210.857Y-101.195
X210.857Y-150.195
X210.875Y-42.776
X210.875Y-91.775
X210.875Y-140.775
X211.04Y-36.42
X211.04Y-85.42
X211.04Y-134.421
X211.19Y-37.62
X211.19Y-86.62
X211.19Y-135.62
X211.49Y-38.84
X211.49Y-87.84
X211.49Y-136.84
X212.1Y-61.2
X212.1Y-110.2
X212.1Y-159.201
X212.5Y-48.825
X212.5Y-97.825
X212.5Y-146.826
X212.7Y-44.875
X212.7Y-93.876
X212.7Y-142.875
X212.975Y-47.0
X212.975Y-96.001
X212.975Y-145.0
X213.54Y-39.36
X213.54Y-88.361
X213.54Y-137.361
X213.92Y-58.34
X213.92Y-107.34
X213.92Y-156.34
X214.23Y-39.67
X214.23Y-88.67
X214.23Y-137.671
X214.27Y-35.78
X214.27Y-84.78
X214.27Y-133.78
X215.075Y-46.7
X215.075Y-95.7
X215.075Y-144.701
X215.125Y-50.026
X215.125Y-99.025
X215.125Y-148.025
X215.22Y-65.331
X215.22Y-114.331
X215.22Y-163.331
X215.35Y-71.38
X215.35Y-120.38
X215.35Y-169.38
X215.44Y-37.441
X215.44Y-86.441
X215.44Y-135.44
X215.65Y-44.95
X215.65Y-93.95
X215.65Y-142.951
X215.77Y-36.111
X215.77Y-85.111
X215.77Y-134.111
X217.25Y-39.825
X217.25Y-88.825
X217.25Y-137.826
X217.45Y-42.401
X217.45Y-91.4
X217.45Y-140.4
X217.8Y-46.725
X217.8Y-95.725
X217.8Y-144.725
X217.89Y-50.065
X217.89Y-99.065
X217.89Y-148.065
X218.375Y-35.925
X218.375Y-84.925
X218.375Y-133.925
X218.85Y-56.3
X218.85Y-105.3
X218.85Y-154.3
X219.325Y-51.85
X219.325Y-100.85
X219.325Y-149.85
X219.45Y-40.325
X219.45Y-89.325
X219.45Y-138.326
X219.85Y-35.675
X219.85Y-84.675
X219.85Y-133.675
X220.1Y-62.0
X220.1Y-111.0
X220.1Y-160.0
X220.22Y-39.81
X220.22Y-88.81
X220.22Y-137.81
X220.925Y-53.825
X220.925Y-102.825
X220.925Y-151.826
X221.32Y-72.111
X221.32Y-121.11
X221.32Y-170.111
X221.55Y-36.12
X221.55Y-85.12
X221.55Y-134.12
X221.74Y-44.11
X221.74Y-93.111
X221.74Y-142.111
X221.94Y-59.64
X221.94Y-108.64
X221.94Y-157.641
X222.37Y-36.07
X222.37Y-85.07
X222.37Y-134.07
X222.65Y-38.05
X222.65Y-87.05
X222.65Y-136.05
X222.68Y-39.78
X222.68Y-88.78
X222.68Y-137.78
X222.99Y-45.081
X222.99Y-94.081
X222.99Y-143.081
X223.26Y-36.191
X223.26Y-85.191
X223.26Y-134.19
X224.05Y-36.111
X224.05Y-85.111
X224.05Y-134.111
X224.52Y-39.61
X224.52Y-88.611
X224.52Y-137.611
X224.7Y-44.35
X224.7Y-93.35
X224.7Y-142.35
X224.75Y-36.05
X224.75Y-68.48
X224.75Y-85.05
X224.75Y-117.48
X224.75Y-134.05
X224.75Y-166.481
X225.175Y-47.776
X225.175Y-96.775
X225.175Y-145.775
X225.42Y-36.3
X225.42Y-85.3
X225.42Y-134.3
X225.46Y-60.15
X225.46Y-109.15
X225.46Y-158.15
X225.8Y-30.601
X225.8Y-79.6
X225.8Y-128.6
X226.02Y-57.14
X226.02Y-106.14
X226.02Y-155.141
X226.7Y-38.075
X226.7Y-87.075
X226.7Y-136.076
X227.1Y-45.84
X227.1Y-94.84
X227.1Y-143.84
X227.11Y-33.761
X227.11Y-82.76
X227.11Y-131.761
X227.49Y-72.18
X227.49Y-121.18
X227.49Y-170.18
X227.675Y-36.85
X227.675Y-85.85
X227.675Y-134.85
X227.87Y-58.16
X227.87Y-107.16
X227.87Y-156.16
X229.35Y-40.55
X229.35Y-89.55
X229.35Y-138.55
X229.74Y-30.48
X229.74Y-79.48
X229.74Y-128.481
X230.08Y-35.651
X230.08Y-84.65
X230.08Y-133.65
X230.23Y-68.62
X230.23Y-117.62
X230.23Y-166.62
X231.6Y-43.12
X231.6Y-92.12
X231.6Y-141.12
X231.625Y-38.825
X231.625Y-87.825
X231.625Y-136.826
X231.95Y-46.21
X231.95Y-95.21
X231.95Y-144.21
X232.54Y-41.84
X232.54Y-90.84
X232.54Y-139.84
X232.77Y-72.18
X232.77Y-121.18
X232.77Y-170.18
X232.91Y-68.82
X232.91Y-117.82
X232.91Y-166.82
X233.58Y-33.03
X233.58Y-82.03
X233.58Y-131.03
X234.125Y-61.6
X234.125Y-110.6
X234.125Y-159.6
X234.99Y-35.96
X234.99Y-84.96
X234.99Y-133.96
T2
X67.225Y-68.8
X67.225Y-117.8
X67.225Y-166.8
X72.225Y-70.9
X72.225Y-119.9
X72.225Y-168.9
X86.5Y-68.8
X86.5Y-117.8
X86.5Y-166.8
X91.5Y-70.9
X91.5Y-119.9
X91.5Y-168.9
X111.725Y-68.8
X111.725Y-117.8
X111.725Y-166.8
X116.725Y-70.9
X116.725Y-119.9
X116.725Y-168.9
X131.0Y-68.8
X131.0Y-117.8
X131.0Y-166.8
X136.0Y-70.9
X136.0Y-119.9
X136.0Y-168.9
X156.225Y-68.8
X156.225Y-117.8
X156.225Y-166.8
X161.225Y-70.9
X161.225Y-119.9
X161.225Y-168.9
X175.5Y-68.8
X175.5Y-117.8
X175.5Y-166.8
X180.5Y-70.9
X180.5Y-119.9
X180.5Y-168.9
X200.725Y-68.8
X200.725Y-117.8
X200.725Y-166.8
X205.725Y-70.9
X205.725Y-119.9
X205.725Y-168.9
X220.0Y-68.8
X220.0Y-117.8
X220.0Y-166.8
X225.0Y-70.9
X225.0Y-119.9
X225.0Y-168.9
M30
