M48
; DRILL file {KiCad 9.0.2} date 2025-05-31T14:25:46+0100
; FORMAT={-:-/ absolute / metric / decimal}
; #@! TF.CreationDate,2025-05-31T14:25:46+01:00
; #@! TF.GenerationSoftware,Kicad,Pcbnew,9.0.2
; #@! TF.FileFunction,NonPlated,1,2,NPTH
FMAT,2
METRIC
; #@! TA.AperFunction,NonPlated,NPTH,ComponentDrill
T1C1.900
; #@! TA.AperFunction,NonPlated,NPTH,ComponentDrill
T2C3.450
%
G90
G05
T1
X66.725Y-65.001
X66.725Y-114.0
X77.725Y-65.001
X77.725Y-114.0
X86.0Y-65.001
X86.0Y-114.0
X97.0Y-65.001
X97.0Y-114.0
X111.225Y-65.001
X111.225Y-114.0
X122.225Y-65.001
X122.225Y-114.0
X130.5Y-65.001
X130.5Y-114.0
X141.5Y-65.001
X141.5Y-114.0
X155.725Y-65.001
X155.725Y-114.0
X166.725Y-65.001
X166.725Y-114.0
X175.0Y-65.001
X175.0Y-114.0
X186.0Y-65.001
X186.0Y-114.0
X200.225Y-65.001
X200.225Y-114.0
X211.225Y-65.001
X211.225Y-114.0
X219.5Y-65.001
X219.5Y-114.0
X230.5Y-65.001
X230.5Y-114.0
T2
X72.225Y-65.001
X72.225Y-114.0
X91.5Y-65.001
X91.5Y-114.0
X116.725Y-65.001
X116.725Y-114.0
X136.0Y-65.001
X136.0Y-114.0
X161.225Y-65.001
X161.225Y-114.0
X180.5Y-65.001
X180.5Y-114.0
X205.725Y-65.001
X205.725Y-114.0
X225.0Y-65.001
X225.0Y-114.0
M30
