%TF.GenerationSoftware,KiCad,Pcbnew,9.0.2*%
%TF.CreationDate,2025-05-28T15:12:05+01:00*%
%TF.ProjectId,Bongo-Cat-Fidget-Toy,426f6e67-6f2d-4436-9174-2d4669646765,rev?*%
%TF.SameCoordinates,Original*%
%TF.FileFunction,Other,Comment*%
%FSLAX46Y46*%
G04 Gerber Fmt 4.6, Leading zero omitted, Abs format (unit mm)*
G04 Created by KiCad (PCBNEW 9.0.2) date 2025-05-28 15:12:05*
%MOMM*%
%LPD*%
G01*
G04 APERTURE LIST*
%ADD10C,0.300000*%
G04 APERTURE END LIST*
D10*
X50500000Y-75000500D02*
X239500000Y-75000500D01*
X50500000Y-28000500D02*
X239500000Y-28000500D01*
X50500000Y-124000500D02*
X239500000Y-124000500D01*
X50500000Y-77000500D02*
X239500000Y-77000500D01*
X242887844Y-26910138D02*
X243554510Y-28910138D01*
X243554510Y-28910138D02*
X244221177Y-26910138D01*
X244887844Y-28148233D02*
X246411654Y-28148233D01*
X248506891Y-28719661D02*
X248411653Y-28814900D01*
X248411653Y-28814900D02*
X248125939Y-28910138D01*
X248125939Y-28910138D02*
X247935463Y-28910138D01*
X247935463Y-28910138D02*
X247649748Y-28814900D01*
X247649748Y-28814900D02*
X247459272Y-28624423D01*
X247459272Y-28624423D02*
X247364034Y-28433947D01*
X247364034Y-28433947D02*
X247268796Y-28052995D01*
X247268796Y-28052995D02*
X247268796Y-27767280D01*
X247268796Y-27767280D02*
X247364034Y-27386328D01*
X247364034Y-27386328D02*
X247459272Y-27195852D01*
X247459272Y-27195852D02*
X247649748Y-27005376D01*
X247649748Y-27005376D02*
X247935463Y-26910138D01*
X247935463Y-26910138D02*
X248125939Y-26910138D01*
X248125939Y-26910138D02*
X248411653Y-27005376D01*
X248411653Y-27005376D02*
X248506891Y-27100614D01*
X249364034Y-26910138D02*
X249364034Y-28529185D01*
X249364034Y-28529185D02*
X249459272Y-28719661D01*
X249459272Y-28719661D02*
X249554510Y-28814900D01*
X249554510Y-28814900D02*
X249744986Y-28910138D01*
X249744986Y-28910138D02*
X250125939Y-28910138D01*
X250125939Y-28910138D02*
X250316415Y-28814900D01*
X250316415Y-28814900D02*
X250411653Y-28719661D01*
X250411653Y-28719661D02*
X250506891Y-28529185D01*
X250506891Y-28529185D02*
X250506891Y-26910138D01*
X251173558Y-26910138D02*
X252316415Y-26910138D01*
X251744986Y-28910138D02*
X251744986Y-26910138D01*
X242887844Y-122910138D02*
X243554510Y-124910138D01*
X243554510Y-124910138D02*
X244221177Y-122910138D01*
X244887844Y-124148233D02*
X246411654Y-124148233D01*
X248506891Y-124719661D02*
X248411653Y-124814900D01*
X248411653Y-124814900D02*
X248125939Y-124910138D01*
X248125939Y-124910138D02*
X247935463Y-124910138D01*
X247935463Y-124910138D02*
X247649748Y-124814900D01*
X247649748Y-124814900D02*
X247459272Y-124624423D01*
X247459272Y-124624423D02*
X247364034Y-124433947D01*
X247364034Y-124433947D02*
X247268796Y-124052995D01*
X247268796Y-124052995D02*
X247268796Y-123767280D01*
X247268796Y-123767280D02*
X247364034Y-123386328D01*
X247364034Y-123386328D02*
X247459272Y-123195852D01*
X247459272Y-123195852D02*
X247649748Y-123005376D01*
X247649748Y-123005376D02*
X247935463Y-122910138D01*
X247935463Y-122910138D02*
X248125939Y-122910138D01*
X248125939Y-122910138D02*
X248411653Y-123005376D01*
X248411653Y-123005376D02*
X248506891Y-123100614D01*
X249364034Y-122910138D02*
X249364034Y-124529185D01*
X249364034Y-124529185D02*
X249459272Y-124719661D01*
X249459272Y-124719661D02*
X249554510Y-124814900D01*
X249554510Y-124814900D02*
X249744986Y-124910138D01*
X249744986Y-124910138D02*
X250125939Y-124910138D01*
X250125939Y-124910138D02*
X250316415Y-124814900D01*
X250316415Y-124814900D02*
X250411653Y-124719661D01*
X250411653Y-124719661D02*
X250506891Y-124529185D01*
X250506891Y-124529185D02*
X250506891Y-122910138D01*
X251173558Y-122910138D02*
X252316415Y-122910138D01*
X251744986Y-124910138D02*
X251744986Y-122910138D01*
X242887844Y-75910138D02*
X243554510Y-77910138D01*
X243554510Y-77910138D02*
X244221177Y-75910138D01*
X244887844Y-77148233D02*
X246411654Y-77148233D01*
X248506891Y-77719661D02*
X248411653Y-77814900D01*
X248411653Y-77814900D02*
X248125939Y-77910138D01*
X248125939Y-77910138D02*
X247935463Y-77910138D01*
X247935463Y-77910138D02*
X247649748Y-77814900D01*
X247649748Y-77814900D02*
X247459272Y-77624423D01*
X247459272Y-77624423D02*
X247364034Y-77433947D01*
X247364034Y-77433947D02*
X247268796Y-77052995D01*
X247268796Y-77052995D02*
X247268796Y-76767280D01*
X247268796Y-76767280D02*
X247364034Y-76386328D01*
X247364034Y-76386328D02*
X247459272Y-76195852D01*
X247459272Y-76195852D02*
X247649748Y-76005376D01*
X247649748Y-76005376D02*
X247935463Y-75910138D01*
X247935463Y-75910138D02*
X248125939Y-75910138D01*
X248125939Y-75910138D02*
X248411653Y-76005376D01*
X248411653Y-76005376D02*
X248506891Y-76100614D01*
X249364034Y-75910138D02*
X249364034Y-77529185D01*
X249364034Y-77529185D02*
X249459272Y-77719661D01*
X249459272Y-77719661D02*
X249554510Y-77814900D01*
X249554510Y-77814900D02*
X249744986Y-77910138D01*
X249744986Y-77910138D02*
X250125939Y-77910138D01*
X250125939Y-77910138D02*
X250316415Y-77814900D01*
X250316415Y-77814900D02*
X250411653Y-77719661D01*
X250411653Y-77719661D02*
X250506891Y-77529185D01*
X250506891Y-77529185D02*
X250506891Y-75910138D01*
X251173558Y-75910138D02*
X252316415Y-75910138D01*
X251744986Y-77910138D02*
X251744986Y-75910138D01*
X242887844Y-73910138D02*
X243554510Y-75910138D01*
X243554510Y-75910138D02*
X244221177Y-73910138D01*
X244887844Y-75148233D02*
X246411654Y-75148233D01*
X248506891Y-75719661D02*
X248411653Y-75814900D01*
X248411653Y-75814900D02*
X248125939Y-75910138D01*
X248125939Y-75910138D02*
X247935463Y-75910138D01*
X247935463Y-75910138D02*
X247649748Y-75814900D01*
X247649748Y-75814900D02*
X247459272Y-75624423D01*
X247459272Y-75624423D02*
X247364034Y-75433947D01*
X247364034Y-75433947D02*
X247268796Y-75052995D01*
X247268796Y-75052995D02*
X247268796Y-74767280D01*
X247268796Y-74767280D02*
X247364034Y-74386328D01*
X247364034Y-74386328D02*
X247459272Y-74195852D01*
X247459272Y-74195852D02*
X247649748Y-74005376D01*
X247649748Y-74005376D02*
X247935463Y-73910138D01*
X247935463Y-73910138D02*
X248125939Y-73910138D01*
X248125939Y-73910138D02*
X248411653Y-74005376D01*
X248411653Y-74005376D02*
X248506891Y-74100614D01*
X249364034Y-73910138D02*
X249364034Y-75529185D01*
X249364034Y-75529185D02*
X249459272Y-75719661D01*
X249459272Y-75719661D02*
X249554510Y-75814900D01*
X249554510Y-75814900D02*
X249744986Y-75910138D01*
X249744986Y-75910138D02*
X250125939Y-75910138D01*
X250125939Y-75910138D02*
X250316415Y-75814900D01*
X250316415Y-75814900D02*
X250411653Y-75719661D01*
X250411653Y-75719661D02*
X250506891Y-75529185D01*
X250506891Y-75529185D02*
X250506891Y-73910138D01*
X251173558Y-73910138D02*
X252316415Y-73910138D01*
X251744986Y-75910138D02*
X251744986Y-73910138D01*
M02*
