%TF.GenerationSoftware,KiCad,Pcbnew,9.0.2*%
%TF.CreationDate,2025-05-31T14:25:57+01:00*%
%TF.ProjectId,Bongo-Cat-Fidget-Toy,426f6e67-6f2d-4436-9174-2d4669646765,rev?*%
%TF.SameCoordinates,Original*%
%TF.FileFunction,Paste,Top*%
%TF.FilePolarity,Positive*%
%FSLAX46Y46*%
G04 Gerber Fmt 4.6, Leading zero omitted, Abs format (unit mm)*
G04 Created by KiCad (PCBNEW 9.0.2) date 2025-05-31 14:25:57*
%MOMM*%
%LPD*%
G01*
G04 APERTURE LIST*
G04 Aperture macros list*
%AMRoundRect*
0 Rectangle with rounded corners*
0 $1 Rounding radius*
0 $2 $3 $4 $5 $6 $7 $8 $9 X,Y pos of 4 corners*
0 Add a 4 corners polygon primitive as box body*
4,1,4,$2,$3,$4,$5,$6,$7,$8,$9,$2,$3,0*
0 Add four circle primitives for the rounded corners*
1,1,$1+$1,$2,$3*
1,1,$1+$1,$4,$5*
1,1,$1+$1,$6,$7*
1,1,$1+$1,$8,$9*
0 Add four rect primitives between the rounded corners*
20,1,$1+$1,$2,$3,$4,$5,0*
20,1,$1+$1,$4,$5,$6,$7,0*
20,1,$1+$1,$6,$7,$8,$9,0*
20,1,$1+$1,$8,$9,$2,$3,0*%
G04 Aperture macros list end*
%ADD10C,0.010000*%
%ADD11RoundRect,0.225000X0.250000X-0.225000X0.250000X0.225000X-0.250000X0.225000X-0.250000X-0.225000X0*%
%ADD12RoundRect,0.225000X0.225000X0.250000X-0.225000X0.250000X-0.225000X-0.250000X0.225000X-0.250000X0*%
%ADD13R,1.700000X0.800000*%
%ADD14RoundRect,0.200000X0.275000X-0.200000X0.275000X0.200000X-0.275000X0.200000X-0.275000X-0.200000X0*%
%ADD15RoundRect,0.200000X-0.275000X0.200000X-0.275000X-0.200000X0.275000X-0.200000X0.275000X0.200000X0*%
%ADD16RoundRect,0.200000X0.200000X0.275000X-0.200000X0.275000X-0.200000X-0.275000X0.200000X-0.275000X0*%
%ADD17RoundRect,0.050000X-0.250000X-0.075000X0.250000X-0.075000X0.250000X0.075000X-0.250000X0.075000X0*%
%ADD18RoundRect,0.050000X-0.400000X-0.075000X0.400000X-0.075000X0.400000X0.075000X-0.400000X0.075000X0*%
%ADD19RoundRect,0.200000X-0.200000X-0.275000X0.200000X-0.275000X0.200000X0.275000X-0.200000X0.275000X0*%
%ADD20R,1.000000X2.000000*%
%ADD21RoundRect,0.225000X-0.225000X-0.250000X0.225000X-0.250000X0.225000X0.250000X-0.225000X0.250000X0*%
%ADD22RoundRect,0.250000X-0.250000X0.325000X-0.250000X-0.325000X0.250000X-0.325000X0.250000X0.325000X0*%
%ADD23RoundRect,0.225000X-0.250000X0.225000X-0.250000X-0.225000X0.250000X-0.225000X0.250000X0.225000X0*%
%ADD24RoundRect,0.125000X-0.625000X-0.125000X0.625000X-0.125000X0.625000X0.125000X-0.625000X0.125000X0*%
%ADD25RoundRect,0.125000X-0.125000X-0.625000X0.125000X-0.625000X0.125000X0.625000X-0.125000X0.625000X0*%
G04 APERTURE END LIST*
D10*
%TO.C,U101*%
X201745500Y-38051500D02*
X201747500Y-38051500D01*
X201750500Y-38052500D01*
X201752500Y-38052500D01*
X201755500Y-38053500D01*
X201757500Y-38054500D01*
X201760500Y-38055500D01*
X201762500Y-38057500D01*
X201764500Y-38058500D01*
X201766500Y-38060500D01*
X201768500Y-38061500D01*
X201770500Y-38063500D01*
X201772500Y-38065500D01*
X201774500Y-38067500D01*
X201776500Y-38069500D01*
X201777500Y-38071500D01*
X201779500Y-38073500D01*
X201780500Y-38075500D01*
X201782500Y-38077500D01*
X201783500Y-38080500D01*
X201784500Y-38082500D01*
X201785500Y-38085500D01*
X201785500Y-38087500D01*
X201786500Y-38090500D01*
X201786500Y-38092500D01*
X201787500Y-38095500D01*
X201787500Y-38097500D01*
X201787500Y-38100500D01*
X201787500Y-38250500D01*
X201787500Y-38253500D01*
X201787500Y-38255500D01*
X201786500Y-38258500D01*
X201786500Y-38260500D01*
X201785500Y-38263500D01*
X201785500Y-38265500D01*
X201784500Y-38268500D01*
X201783500Y-38270500D01*
X201782500Y-38273500D01*
X201780500Y-38275500D01*
X201779500Y-38277500D01*
X201777500Y-38279500D01*
X201776500Y-38281500D01*
X201774500Y-38283500D01*
X201772500Y-38285500D01*
X201770500Y-38287500D01*
X201768500Y-38289500D01*
X201766500Y-38290500D01*
X201764500Y-38292500D01*
X201762500Y-38293500D01*
X201760500Y-38295500D01*
X201757500Y-38296500D01*
X201755500Y-38297500D01*
X201752500Y-38298500D01*
X201750500Y-38298500D01*
X201747500Y-38299500D01*
X201745500Y-38299500D01*
X201742500Y-38300500D01*
X201740500Y-38300500D01*
X201737500Y-38300500D01*
X201287500Y-38300500D01*
X201284500Y-38300500D01*
X201282500Y-38300500D01*
X201279500Y-38299500D01*
X201277500Y-38299500D01*
X201274500Y-38298500D01*
X201272500Y-38298500D01*
X201269500Y-38297500D01*
X201267500Y-38296500D01*
X201264500Y-38295500D01*
X201262500Y-38293500D01*
X201260500Y-38292500D01*
X201258500Y-38290500D01*
X201256500Y-38289500D01*
X201254500Y-38287500D01*
X201252500Y-38285500D01*
X201250500Y-38283500D01*
X201248500Y-38281500D01*
X201247500Y-38279500D01*
X201245500Y-38277500D01*
X201244500Y-38275500D01*
X201242500Y-38273500D01*
X201241500Y-38270500D01*
X201240500Y-38268500D01*
X201239500Y-38265500D01*
X201239500Y-38263500D01*
X201238500Y-38260500D01*
X201238500Y-38258500D01*
X201237500Y-38255500D01*
X201237500Y-38253500D01*
X201237500Y-38250500D01*
X201237500Y-38100500D01*
X201237500Y-38097500D01*
X201237500Y-38095500D01*
X201238500Y-38092500D01*
X201238500Y-38090500D01*
X201239500Y-38087500D01*
X201239500Y-38085500D01*
X201240500Y-38082500D01*
X201241500Y-38080500D01*
X201242500Y-38077500D01*
X201244500Y-38075500D01*
X201245500Y-38073500D01*
X201247500Y-38071500D01*
X201248500Y-38069500D01*
X201250500Y-38067500D01*
X201252500Y-38065500D01*
X201254500Y-38063500D01*
X201256500Y-38061500D01*
X201258500Y-38060500D01*
X201260500Y-38058500D01*
X201262500Y-38057500D01*
X201264500Y-38055500D01*
X201267500Y-38054500D01*
X201269500Y-38053500D01*
X201272500Y-38052500D01*
X201274500Y-38052500D01*
X201277500Y-38051500D01*
X201279500Y-38051500D01*
X201282500Y-38050500D01*
X201284500Y-38050500D01*
X201287500Y-38050500D01*
X201737500Y-38050500D01*
X201740500Y-38050500D01*
X201742500Y-38050500D01*
X201745500Y-38051500D01*
G36*
X201745500Y-38051500D02*
G01*
X201747500Y-38051500D01*
X201750500Y-38052500D01*
X201752500Y-38052500D01*
X201755500Y-38053500D01*
X201757500Y-38054500D01*
X201760500Y-38055500D01*
X201762500Y-38057500D01*
X201764500Y-38058500D01*
X201766500Y-38060500D01*
X201768500Y-38061500D01*
X201770500Y-38063500D01*
X201772500Y-38065500D01*
X201774500Y-38067500D01*
X201776500Y-38069500D01*
X201777500Y-38071500D01*
X201779500Y-38073500D01*
X201780500Y-38075500D01*
X201782500Y-38077500D01*
X201783500Y-38080500D01*
X201784500Y-38082500D01*
X201785500Y-38085500D01*
X201785500Y-38087500D01*
X201786500Y-38090500D01*
X201786500Y-38092500D01*
X201787500Y-38095500D01*
X201787500Y-38097500D01*
X201787500Y-38100500D01*
X201787500Y-38250500D01*
X201787500Y-38253500D01*
X201787500Y-38255500D01*
X201786500Y-38258500D01*
X201786500Y-38260500D01*
X201785500Y-38263500D01*
X201785500Y-38265500D01*
X201784500Y-38268500D01*
X201783500Y-38270500D01*
X201782500Y-38273500D01*
X201780500Y-38275500D01*
X201779500Y-38277500D01*
X201777500Y-38279500D01*
X201776500Y-38281500D01*
X201774500Y-38283500D01*
X201772500Y-38285500D01*
X201770500Y-38287500D01*
X201768500Y-38289500D01*
X201766500Y-38290500D01*
X201764500Y-38292500D01*
X201762500Y-38293500D01*
X201760500Y-38295500D01*
X201757500Y-38296500D01*
X201755500Y-38297500D01*
X201752500Y-38298500D01*
X201750500Y-38298500D01*
X201747500Y-38299500D01*
X201745500Y-38299500D01*
X201742500Y-38300500D01*
X201740500Y-38300500D01*
X201737500Y-38300500D01*
X201287500Y-38300500D01*
X201284500Y-38300500D01*
X201282500Y-38300500D01*
X201279500Y-38299500D01*
X201277500Y-38299500D01*
X201274500Y-38298500D01*
X201272500Y-38298500D01*
X201269500Y-38297500D01*
X201267500Y-38296500D01*
X201264500Y-38295500D01*
X201262500Y-38293500D01*
X201260500Y-38292500D01*
X201258500Y-38290500D01*
X201256500Y-38289500D01*
X201254500Y-38287500D01*
X201252500Y-38285500D01*
X201250500Y-38283500D01*
X201248500Y-38281500D01*
X201247500Y-38279500D01*
X201245500Y-38277500D01*
X201244500Y-38275500D01*
X201242500Y-38273500D01*
X201241500Y-38270500D01*
X201240500Y-38268500D01*
X201239500Y-38265500D01*
X201239500Y-38263500D01*
X201238500Y-38260500D01*
X201238500Y-38258500D01*
X201237500Y-38255500D01*
X201237500Y-38253500D01*
X201237500Y-38250500D01*
X201237500Y-38100500D01*
X201237500Y-38097500D01*
X201237500Y-38095500D01*
X201238500Y-38092500D01*
X201238500Y-38090500D01*
X201239500Y-38087500D01*
X201239500Y-38085500D01*
X201240500Y-38082500D01*
X201241500Y-38080500D01*
X201242500Y-38077500D01*
X201244500Y-38075500D01*
X201245500Y-38073500D01*
X201247500Y-38071500D01*
X201248500Y-38069500D01*
X201250500Y-38067500D01*
X201252500Y-38065500D01*
X201254500Y-38063500D01*
X201256500Y-38061500D01*
X201258500Y-38060500D01*
X201260500Y-38058500D01*
X201262500Y-38057500D01*
X201264500Y-38055500D01*
X201267500Y-38054500D01*
X201269500Y-38053500D01*
X201272500Y-38052500D01*
X201274500Y-38052500D01*
X201277500Y-38051500D01*
X201279500Y-38051500D01*
X201282500Y-38050500D01*
X201284500Y-38050500D01*
X201287500Y-38050500D01*
X201737500Y-38050500D01*
X201740500Y-38050500D01*
X201742500Y-38050500D01*
X201745500Y-38051500D01*
G37*
X202495500Y-38051500D02*
X202497500Y-38051500D01*
X202500500Y-38052500D01*
X202502500Y-38052500D01*
X202505500Y-38053500D01*
X202507500Y-38054500D01*
X202510500Y-38055500D01*
X202512500Y-38057500D01*
X202514500Y-38058500D01*
X202516500Y-38060500D01*
X202518500Y-38061500D01*
X202520500Y-38063500D01*
X202522500Y-38065500D01*
X202524500Y-38067500D01*
X202526500Y-38069500D01*
X202527500Y-38071500D01*
X202529500Y-38073500D01*
X202530500Y-38075500D01*
X202532500Y-38077500D01*
X202533500Y-38080500D01*
X202534500Y-38082500D01*
X202535500Y-38085500D01*
X202535500Y-38087500D01*
X202536500Y-38090500D01*
X202536500Y-38092500D01*
X202537500Y-38095500D01*
X202537500Y-38097500D01*
X202537500Y-38100500D01*
X202537500Y-38250500D01*
X202537500Y-38253500D01*
X202537500Y-38255500D01*
X202536500Y-38258500D01*
X202536500Y-38260500D01*
X202535500Y-38263500D01*
X202535500Y-38265500D01*
X202534500Y-38268500D01*
X202533500Y-38270500D01*
X202532500Y-38273500D01*
X202530500Y-38275500D01*
X202529500Y-38277500D01*
X202527500Y-38279500D01*
X202526500Y-38281500D01*
X202524500Y-38283500D01*
X202522500Y-38285500D01*
X202520500Y-38287500D01*
X202518500Y-38289500D01*
X202516500Y-38290500D01*
X202514500Y-38292500D01*
X202512500Y-38293500D01*
X202510500Y-38295500D01*
X202507500Y-38296500D01*
X202505500Y-38297500D01*
X202502500Y-38298500D01*
X202500500Y-38298500D01*
X202497500Y-38299500D01*
X202495500Y-38299500D01*
X202492500Y-38300500D01*
X202490500Y-38300500D01*
X202487500Y-38300500D01*
X202037500Y-38300500D01*
X202034500Y-38300500D01*
X202032500Y-38300500D01*
X202029500Y-38299500D01*
X202027500Y-38299500D01*
X202024500Y-38298500D01*
X202022500Y-38298500D01*
X202019500Y-38297500D01*
X202017500Y-38296500D01*
X202014500Y-38295500D01*
X202012500Y-38293500D01*
X202010500Y-38292500D01*
X202008500Y-38290500D01*
X202006500Y-38289500D01*
X202004500Y-38287500D01*
X202002500Y-38285500D01*
X202000500Y-38283500D01*
X201998500Y-38281500D01*
X201997500Y-38279500D01*
X201995500Y-38277500D01*
X201994500Y-38275500D01*
X201992500Y-38273500D01*
X201991500Y-38270500D01*
X201990500Y-38268500D01*
X201989500Y-38265500D01*
X201989500Y-38263500D01*
X201988500Y-38260500D01*
X201988500Y-38258500D01*
X201987500Y-38255500D01*
X201987500Y-38253500D01*
X201987500Y-38250500D01*
X201987500Y-38100500D01*
X201987500Y-38097500D01*
X201987500Y-38095500D01*
X201988500Y-38092500D01*
X201988500Y-38090500D01*
X201989500Y-38087500D01*
X201989500Y-38085500D01*
X201990500Y-38082500D01*
X201991500Y-38080500D01*
X201992500Y-38077500D01*
X201994500Y-38075500D01*
X201995500Y-38073500D01*
X201997500Y-38071500D01*
X201998500Y-38069500D01*
X202000500Y-38067500D01*
X202002500Y-38065500D01*
X202004500Y-38063500D01*
X202006500Y-38061500D01*
X202008500Y-38060500D01*
X202010500Y-38058500D01*
X202012500Y-38057500D01*
X202014500Y-38055500D01*
X202017500Y-38054500D01*
X202019500Y-38053500D01*
X202022500Y-38052500D01*
X202024500Y-38052500D01*
X202027500Y-38051500D01*
X202029500Y-38051500D01*
X202032500Y-38050500D01*
X202034500Y-38050500D01*
X202037500Y-38050500D01*
X202487500Y-38050500D01*
X202490500Y-38050500D01*
X202492500Y-38050500D01*
X202495500Y-38051500D01*
G36*
X202495500Y-38051500D02*
G01*
X202497500Y-38051500D01*
X202500500Y-38052500D01*
X202502500Y-38052500D01*
X202505500Y-38053500D01*
X202507500Y-38054500D01*
X202510500Y-38055500D01*
X202512500Y-38057500D01*
X202514500Y-38058500D01*
X202516500Y-38060500D01*
X202518500Y-38061500D01*
X202520500Y-38063500D01*
X202522500Y-38065500D01*
X202524500Y-38067500D01*
X202526500Y-38069500D01*
X202527500Y-38071500D01*
X202529500Y-38073500D01*
X202530500Y-38075500D01*
X202532500Y-38077500D01*
X202533500Y-38080500D01*
X202534500Y-38082500D01*
X202535500Y-38085500D01*
X202535500Y-38087500D01*
X202536500Y-38090500D01*
X202536500Y-38092500D01*
X202537500Y-38095500D01*
X202537500Y-38097500D01*
X202537500Y-38100500D01*
X202537500Y-38250500D01*
X202537500Y-38253500D01*
X202537500Y-38255500D01*
X202536500Y-38258500D01*
X202536500Y-38260500D01*
X202535500Y-38263500D01*
X202535500Y-38265500D01*
X202534500Y-38268500D01*
X202533500Y-38270500D01*
X202532500Y-38273500D01*
X202530500Y-38275500D01*
X202529500Y-38277500D01*
X202527500Y-38279500D01*
X202526500Y-38281500D01*
X202524500Y-38283500D01*
X202522500Y-38285500D01*
X202520500Y-38287500D01*
X202518500Y-38289500D01*
X202516500Y-38290500D01*
X202514500Y-38292500D01*
X202512500Y-38293500D01*
X202510500Y-38295500D01*
X202507500Y-38296500D01*
X202505500Y-38297500D01*
X202502500Y-38298500D01*
X202500500Y-38298500D01*
X202497500Y-38299500D01*
X202495500Y-38299500D01*
X202492500Y-38300500D01*
X202490500Y-38300500D01*
X202487500Y-38300500D01*
X202037500Y-38300500D01*
X202034500Y-38300500D01*
X202032500Y-38300500D01*
X202029500Y-38299500D01*
X202027500Y-38299500D01*
X202024500Y-38298500D01*
X202022500Y-38298500D01*
X202019500Y-38297500D01*
X202017500Y-38296500D01*
X202014500Y-38295500D01*
X202012500Y-38293500D01*
X202010500Y-38292500D01*
X202008500Y-38290500D01*
X202006500Y-38289500D01*
X202004500Y-38287500D01*
X202002500Y-38285500D01*
X202000500Y-38283500D01*
X201998500Y-38281500D01*
X201997500Y-38279500D01*
X201995500Y-38277500D01*
X201994500Y-38275500D01*
X201992500Y-38273500D01*
X201991500Y-38270500D01*
X201990500Y-38268500D01*
X201989500Y-38265500D01*
X201989500Y-38263500D01*
X201988500Y-38260500D01*
X201988500Y-38258500D01*
X201987500Y-38255500D01*
X201987500Y-38253500D01*
X201987500Y-38250500D01*
X201987500Y-38100500D01*
X201987500Y-38097500D01*
X201987500Y-38095500D01*
X201988500Y-38092500D01*
X201988500Y-38090500D01*
X201989500Y-38087500D01*
X201989500Y-38085500D01*
X201990500Y-38082500D01*
X201991500Y-38080500D01*
X201992500Y-38077500D01*
X201994500Y-38075500D01*
X201995500Y-38073500D01*
X201997500Y-38071500D01*
X201998500Y-38069500D01*
X202000500Y-38067500D01*
X202002500Y-38065500D01*
X202004500Y-38063500D01*
X202006500Y-38061500D01*
X202008500Y-38060500D01*
X202010500Y-38058500D01*
X202012500Y-38057500D01*
X202014500Y-38055500D01*
X202017500Y-38054500D01*
X202019500Y-38053500D01*
X202022500Y-38052500D01*
X202024500Y-38052500D01*
X202027500Y-38051500D01*
X202029500Y-38051500D01*
X202032500Y-38050500D01*
X202034500Y-38050500D01*
X202037500Y-38050500D01*
X202487500Y-38050500D01*
X202490500Y-38050500D01*
X202492500Y-38050500D01*
X202495500Y-38051500D01*
G37*
X68245500Y-87051500D02*
X68247500Y-87051500D01*
X68250500Y-87052500D01*
X68252500Y-87052500D01*
X68255500Y-87053500D01*
X68257500Y-87054500D01*
X68260500Y-87055500D01*
X68262500Y-87057500D01*
X68264500Y-87058500D01*
X68266500Y-87060500D01*
X68268500Y-87061500D01*
X68270500Y-87063500D01*
X68272500Y-87065500D01*
X68274500Y-87067500D01*
X68276500Y-87069500D01*
X68277500Y-87071500D01*
X68279500Y-87073500D01*
X68280500Y-87075500D01*
X68282500Y-87077500D01*
X68283500Y-87080500D01*
X68284500Y-87082500D01*
X68285500Y-87085500D01*
X68285500Y-87087500D01*
X68286500Y-87090500D01*
X68286500Y-87092500D01*
X68287500Y-87095500D01*
X68287500Y-87097500D01*
X68287500Y-87100500D01*
X68287500Y-87250500D01*
X68287500Y-87253500D01*
X68287500Y-87255500D01*
X68286500Y-87258500D01*
X68286500Y-87260500D01*
X68285500Y-87263500D01*
X68285500Y-87265500D01*
X68284500Y-87268500D01*
X68283500Y-87270500D01*
X68282500Y-87273500D01*
X68280500Y-87275500D01*
X68279500Y-87277500D01*
X68277500Y-87279500D01*
X68276500Y-87281500D01*
X68274500Y-87283500D01*
X68272500Y-87285500D01*
X68270500Y-87287500D01*
X68268500Y-87289500D01*
X68266500Y-87290500D01*
X68264500Y-87292500D01*
X68262500Y-87293500D01*
X68260500Y-87295500D01*
X68257500Y-87296500D01*
X68255500Y-87297500D01*
X68252500Y-87298500D01*
X68250500Y-87298500D01*
X68247500Y-87299500D01*
X68245500Y-87299500D01*
X68242500Y-87300500D01*
X68240500Y-87300500D01*
X68237500Y-87300500D01*
X67787500Y-87300500D01*
X67784500Y-87300500D01*
X67782500Y-87300500D01*
X67779500Y-87299500D01*
X67777500Y-87299500D01*
X67774500Y-87298500D01*
X67772500Y-87298500D01*
X67769500Y-87297500D01*
X67767500Y-87296500D01*
X67764500Y-87295500D01*
X67762500Y-87293500D01*
X67760500Y-87292500D01*
X67758500Y-87290500D01*
X67756500Y-87289500D01*
X67754500Y-87287500D01*
X67752500Y-87285500D01*
X67750500Y-87283500D01*
X67748500Y-87281500D01*
X67747500Y-87279500D01*
X67745500Y-87277500D01*
X67744500Y-87275500D01*
X67742500Y-87273500D01*
X67741500Y-87270500D01*
X67740500Y-87268500D01*
X67739500Y-87265500D01*
X67739500Y-87263500D01*
X67738500Y-87260500D01*
X67738500Y-87258500D01*
X67737500Y-87255500D01*
X67737500Y-87253500D01*
X67737500Y-87250500D01*
X67737500Y-87100500D01*
X67737500Y-87097500D01*
X67737500Y-87095500D01*
X67738500Y-87092500D01*
X67738500Y-87090500D01*
X67739500Y-87087500D01*
X67739500Y-87085500D01*
X67740500Y-87082500D01*
X67741500Y-87080500D01*
X67742500Y-87077500D01*
X67744500Y-87075500D01*
X67745500Y-87073500D01*
X67747500Y-87071500D01*
X67748500Y-87069500D01*
X67750500Y-87067500D01*
X67752500Y-87065500D01*
X67754500Y-87063500D01*
X67756500Y-87061500D01*
X67758500Y-87060500D01*
X67760500Y-87058500D01*
X67762500Y-87057500D01*
X67764500Y-87055500D01*
X67767500Y-87054500D01*
X67769500Y-87053500D01*
X67772500Y-87052500D01*
X67774500Y-87052500D01*
X67777500Y-87051500D01*
X67779500Y-87051500D01*
X67782500Y-87050500D01*
X67784500Y-87050500D01*
X67787500Y-87050500D01*
X68237500Y-87050500D01*
X68240500Y-87050500D01*
X68242500Y-87050500D01*
X68245500Y-87051500D01*
G36*
X68245500Y-87051500D02*
G01*
X68247500Y-87051500D01*
X68250500Y-87052500D01*
X68252500Y-87052500D01*
X68255500Y-87053500D01*
X68257500Y-87054500D01*
X68260500Y-87055500D01*
X68262500Y-87057500D01*
X68264500Y-87058500D01*
X68266500Y-87060500D01*
X68268500Y-87061500D01*
X68270500Y-87063500D01*
X68272500Y-87065500D01*
X68274500Y-87067500D01*
X68276500Y-87069500D01*
X68277500Y-87071500D01*
X68279500Y-87073500D01*
X68280500Y-87075500D01*
X68282500Y-87077500D01*
X68283500Y-87080500D01*
X68284500Y-87082500D01*
X68285500Y-87085500D01*
X68285500Y-87087500D01*
X68286500Y-87090500D01*
X68286500Y-87092500D01*
X68287500Y-87095500D01*
X68287500Y-87097500D01*
X68287500Y-87100500D01*
X68287500Y-87250500D01*
X68287500Y-87253500D01*
X68287500Y-87255500D01*
X68286500Y-87258500D01*
X68286500Y-87260500D01*
X68285500Y-87263500D01*
X68285500Y-87265500D01*
X68284500Y-87268500D01*
X68283500Y-87270500D01*
X68282500Y-87273500D01*
X68280500Y-87275500D01*
X68279500Y-87277500D01*
X68277500Y-87279500D01*
X68276500Y-87281500D01*
X68274500Y-87283500D01*
X68272500Y-87285500D01*
X68270500Y-87287500D01*
X68268500Y-87289500D01*
X68266500Y-87290500D01*
X68264500Y-87292500D01*
X68262500Y-87293500D01*
X68260500Y-87295500D01*
X68257500Y-87296500D01*
X68255500Y-87297500D01*
X68252500Y-87298500D01*
X68250500Y-87298500D01*
X68247500Y-87299500D01*
X68245500Y-87299500D01*
X68242500Y-87300500D01*
X68240500Y-87300500D01*
X68237500Y-87300500D01*
X67787500Y-87300500D01*
X67784500Y-87300500D01*
X67782500Y-87300500D01*
X67779500Y-87299500D01*
X67777500Y-87299500D01*
X67774500Y-87298500D01*
X67772500Y-87298500D01*
X67769500Y-87297500D01*
X67767500Y-87296500D01*
X67764500Y-87295500D01*
X67762500Y-87293500D01*
X67760500Y-87292500D01*
X67758500Y-87290500D01*
X67756500Y-87289500D01*
X67754500Y-87287500D01*
X67752500Y-87285500D01*
X67750500Y-87283500D01*
X67748500Y-87281500D01*
X67747500Y-87279500D01*
X67745500Y-87277500D01*
X67744500Y-87275500D01*
X67742500Y-87273500D01*
X67741500Y-87270500D01*
X67740500Y-87268500D01*
X67739500Y-87265500D01*
X67739500Y-87263500D01*
X67738500Y-87260500D01*
X67738500Y-87258500D01*
X67737500Y-87255500D01*
X67737500Y-87253500D01*
X67737500Y-87250500D01*
X67737500Y-87100500D01*
X67737500Y-87097500D01*
X67737500Y-87095500D01*
X67738500Y-87092500D01*
X67738500Y-87090500D01*
X67739500Y-87087500D01*
X67739500Y-87085500D01*
X67740500Y-87082500D01*
X67741500Y-87080500D01*
X67742500Y-87077500D01*
X67744500Y-87075500D01*
X67745500Y-87073500D01*
X67747500Y-87071500D01*
X67748500Y-87069500D01*
X67750500Y-87067500D01*
X67752500Y-87065500D01*
X67754500Y-87063500D01*
X67756500Y-87061500D01*
X67758500Y-87060500D01*
X67760500Y-87058500D01*
X67762500Y-87057500D01*
X67764500Y-87055500D01*
X67767500Y-87054500D01*
X67769500Y-87053500D01*
X67772500Y-87052500D01*
X67774500Y-87052500D01*
X67777500Y-87051500D01*
X67779500Y-87051500D01*
X67782500Y-87050500D01*
X67784500Y-87050500D01*
X67787500Y-87050500D01*
X68237500Y-87050500D01*
X68240500Y-87050500D01*
X68242500Y-87050500D01*
X68245500Y-87051500D01*
G37*
X68995500Y-87051500D02*
X68997500Y-87051500D01*
X69000500Y-87052500D01*
X69002500Y-87052500D01*
X69005500Y-87053500D01*
X69007500Y-87054500D01*
X69010500Y-87055500D01*
X69012500Y-87057500D01*
X69014500Y-87058500D01*
X69016500Y-87060500D01*
X69018500Y-87061500D01*
X69020500Y-87063500D01*
X69022500Y-87065500D01*
X69024500Y-87067500D01*
X69026500Y-87069500D01*
X69027500Y-87071500D01*
X69029500Y-87073500D01*
X69030500Y-87075500D01*
X69032500Y-87077500D01*
X69033500Y-87080500D01*
X69034500Y-87082500D01*
X69035500Y-87085500D01*
X69035500Y-87087500D01*
X69036500Y-87090500D01*
X69036500Y-87092500D01*
X69037500Y-87095500D01*
X69037500Y-87097500D01*
X69037500Y-87100500D01*
X69037500Y-87250500D01*
X69037500Y-87253500D01*
X69037500Y-87255500D01*
X69036500Y-87258500D01*
X69036500Y-87260500D01*
X69035500Y-87263500D01*
X69035500Y-87265500D01*
X69034500Y-87268500D01*
X69033500Y-87270500D01*
X69032500Y-87273500D01*
X69030500Y-87275500D01*
X69029500Y-87277500D01*
X69027500Y-87279500D01*
X69026500Y-87281500D01*
X69024500Y-87283500D01*
X69022500Y-87285500D01*
X69020500Y-87287500D01*
X69018500Y-87289500D01*
X69016500Y-87290500D01*
X69014500Y-87292500D01*
X69012500Y-87293500D01*
X69010500Y-87295500D01*
X69007500Y-87296500D01*
X69005500Y-87297500D01*
X69002500Y-87298500D01*
X69000500Y-87298500D01*
X68997500Y-87299500D01*
X68995500Y-87299500D01*
X68992500Y-87300500D01*
X68990500Y-87300500D01*
X68987500Y-87300500D01*
X68537500Y-87300500D01*
X68534500Y-87300500D01*
X68532500Y-87300500D01*
X68529500Y-87299500D01*
X68527500Y-87299500D01*
X68524500Y-87298500D01*
X68522500Y-87298500D01*
X68519500Y-87297500D01*
X68517500Y-87296500D01*
X68514500Y-87295500D01*
X68512500Y-87293500D01*
X68510500Y-87292500D01*
X68508500Y-87290500D01*
X68506500Y-87289500D01*
X68504500Y-87287500D01*
X68502500Y-87285500D01*
X68500500Y-87283500D01*
X68498500Y-87281500D01*
X68497500Y-87279500D01*
X68495500Y-87277500D01*
X68494500Y-87275500D01*
X68492500Y-87273500D01*
X68491500Y-87270500D01*
X68490500Y-87268500D01*
X68489500Y-87265500D01*
X68489500Y-87263500D01*
X68488500Y-87260500D01*
X68488500Y-87258500D01*
X68487500Y-87255500D01*
X68487500Y-87253500D01*
X68487500Y-87250500D01*
X68487500Y-87100500D01*
X68487500Y-87097500D01*
X68487500Y-87095500D01*
X68488500Y-87092500D01*
X68488500Y-87090500D01*
X68489500Y-87087500D01*
X68489500Y-87085500D01*
X68490500Y-87082500D01*
X68491500Y-87080500D01*
X68492500Y-87077500D01*
X68494500Y-87075500D01*
X68495500Y-87073500D01*
X68497500Y-87071500D01*
X68498500Y-87069500D01*
X68500500Y-87067500D01*
X68502500Y-87065500D01*
X68504500Y-87063500D01*
X68506500Y-87061500D01*
X68508500Y-87060500D01*
X68510500Y-87058500D01*
X68512500Y-87057500D01*
X68514500Y-87055500D01*
X68517500Y-87054500D01*
X68519500Y-87053500D01*
X68522500Y-87052500D01*
X68524500Y-87052500D01*
X68527500Y-87051500D01*
X68529500Y-87051500D01*
X68532500Y-87050500D01*
X68534500Y-87050500D01*
X68537500Y-87050500D01*
X68987500Y-87050500D01*
X68990500Y-87050500D01*
X68992500Y-87050500D01*
X68995500Y-87051500D01*
G36*
X68995500Y-87051500D02*
G01*
X68997500Y-87051500D01*
X69000500Y-87052500D01*
X69002500Y-87052500D01*
X69005500Y-87053500D01*
X69007500Y-87054500D01*
X69010500Y-87055500D01*
X69012500Y-87057500D01*
X69014500Y-87058500D01*
X69016500Y-87060500D01*
X69018500Y-87061500D01*
X69020500Y-87063500D01*
X69022500Y-87065500D01*
X69024500Y-87067500D01*
X69026500Y-87069500D01*
X69027500Y-87071500D01*
X69029500Y-87073500D01*
X69030500Y-87075500D01*
X69032500Y-87077500D01*
X69033500Y-87080500D01*
X69034500Y-87082500D01*
X69035500Y-87085500D01*
X69035500Y-87087500D01*
X69036500Y-87090500D01*
X69036500Y-87092500D01*
X69037500Y-87095500D01*
X69037500Y-87097500D01*
X69037500Y-87100500D01*
X69037500Y-87250500D01*
X69037500Y-87253500D01*
X69037500Y-87255500D01*
X69036500Y-87258500D01*
X69036500Y-87260500D01*
X69035500Y-87263500D01*
X69035500Y-87265500D01*
X69034500Y-87268500D01*
X69033500Y-87270500D01*
X69032500Y-87273500D01*
X69030500Y-87275500D01*
X69029500Y-87277500D01*
X69027500Y-87279500D01*
X69026500Y-87281500D01*
X69024500Y-87283500D01*
X69022500Y-87285500D01*
X69020500Y-87287500D01*
X69018500Y-87289500D01*
X69016500Y-87290500D01*
X69014500Y-87292500D01*
X69012500Y-87293500D01*
X69010500Y-87295500D01*
X69007500Y-87296500D01*
X69005500Y-87297500D01*
X69002500Y-87298500D01*
X69000500Y-87298500D01*
X68997500Y-87299500D01*
X68995500Y-87299500D01*
X68992500Y-87300500D01*
X68990500Y-87300500D01*
X68987500Y-87300500D01*
X68537500Y-87300500D01*
X68534500Y-87300500D01*
X68532500Y-87300500D01*
X68529500Y-87299500D01*
X68527500Y-87299500D01*
X68524500Y-87298500D01*
X68522500Y-87298500D01*
X68519500Y-87297500D01*
X68517500Y-87296500D01*
X68514500Y-87295500D01*
X68512500Y-87293500D01*
X68510500Y-87292500D01*
X68508500Y-87290500D01*
X68506500Y-87289500D01*
X68504500Y-87287500D01*
X68502500Y-87285500D01*
X68500500Y-87283500D01*
X68498500Y-87281500D01*
X68497500Y-87279500D01*
X68495500Y-87277500D01*
X68494500Y-87275500D01*
X68492500Y-87273500D01*
X68491500Y-87270500D01*
X68490500Y-87268500D01*
X68489500Y-87265500D01*
X68489500Y-87263500D01*
X68488500Y-87260500D01*
X68488500Y-87258500D01*
X68487500Y-87255500D01*
X68487500Y-87253500D01*
X68487500Y-87250500D01*
X68487500Y-87100500D01*
X68487500Y-87097500D01*
X68487500Y-87095500D01*
X68488500Y-87092500D01*
X68488500Y-87090500D01*
X68489500Y-87087500D01*
X68489500Y-87085500D01*
X68490500Y-87082500D01*
X68491500Y-87080500D01*
X68492500Y-87077500D01*
X68494500Y-87075500D01*
X68495500Y-87073500D01*
X68497500Y-87071500D01*
X68498500Y-87069500D01*
X68500500Y-87067500D01*
X68502500Y-87065500D01*
X68504500Y-87063500D01*
X68506500Y-87061500D01*
X68508500Y-87060500D01*
X68510500Y-87058500D01*
X68512500Y-87057500D01*
X68514500Y-87055500D01*
X68517500Y-87054500D01*
X68519500Y-87053500D01*
X68522500Y-87052500D01*
X68524500Y-87052500D01*
X68527500Y-87051500D01*
X68529500Y-87051500D01*
X68532500Y-87050500D01*
X68534500Y-87050500D01*
X68537500Y-87050500D01*
X68987500Y-87050500D01*
X68990500Y-87050500D01*
X68992500Y-87050500D01*
X68995500Y-87051500D01*
G37*
X201745500Y-87051500D02*
X201747500Y-87051500D01*
X201750500Y-87052500D01*
X201752500Y-87052500D01*
X201755500Y-87053500D01*
X201757500Y-87054500D01*
X201760500Y-87055500D01*
X201762500Y-87057500D01*
X201764500Y-87058500D01*
X201766500Y-87060500D01*
X201768500Y-87061500D01*
X201770500Y-87063500D01*
X201772500Y-87065500D01*
X201774500Y-87067500D01*
X201776500Y-87069500D01*
X201777500Y-87071500D01*
X201779500Y-87073500D01*
X201780500Y-87075500D01*
X201782500Y-87077500D01*
X201783500Y-87080500D01*
X201784500Y-87082500D01*
X201785500Y-87085500D01*
X201785500Y-87087500D01*
X201786500Y-87090500D01*
X201786500Y-87092500D01*
X201787500Y-87095500D01*
X201787500Y-87097500D01*
X201787500Y-87100500D01*
X201787500Y-87250500D01*
X201787500Y-87253500D01*
X201787500Y-87255500D01*
X201786500Y-87258500D01*
X201786500Y-87260500D01*
X201785500Y-87263500D01*
X201785500Y-87265500D01*
X201784500Y-87268500D01*
X201783500Y-87270500D01*
X201782500Y-87273500D01*
X201780500Y-87275500D01*
X201779500Y-87277500D01*
X201777500Y-87279500D01*
X201776500Y-87281500D01*
X201774500Y-87283500D01*
X201772500Y-87285500D01*
X201770500Y-87287500D01*
X201768500Y-87289500D01*
X201766500Y-87290500D01*
X201764500Y-87292500D01*
X201762500Y-87293500D01*
X201760500Y-87295500D01*
X201757500Y-87296500D01*
X201755500Y-87297500D01*
X201752500Y-87298500D01*
X201750500Y-87298500D01*
X201747500Y-87299500D01*
X201745500Y-87299500D01*
X201742500Y-87300500D01*
X201740500Y-87300500D01*
X201737500Y-87300500D01*
X201287500Y-87300500D01*
X201284500Y-87300500D01*
X201282500Y-87300500D01*
X201279500Y-87299500D01*
X201277500Y-87299500D01*
X201274500Y-87298500D01*
X201272500Y-87298500D01*
X201269500Y-87297500D01*
X201267500Y-87296500D01*
X201264500Y-87295500D01*
X201262500Y-87293500D01*
X201260500Y-87292500D01*
X201258500Y-87290500D01*
X201256500Y-87289500D01*
X201254500Y-87287500D01*
X201252500Y-87285500D01*
X201250500Y-87283500D01*
X201248500Y-87281500D01*
X201247500Y-87279500D01*
X201245500Y-87277500D01*
X201244500Y-87275500D01*
X201242500Y-87273500D01*
X201241500Y-87270500D01*
X201240500Y-87268500D01*
X201239500Y-87265500D01*
X201239500Y-87263500D01*
X201238500Y-87260500D01*
X201238500Y-87258500D01*
X201237500Y-87255500D01*
X201237500Y-87253500D01*
X201237500Y-87250500D01*
X201237500Y-87100500D01*
X201237500Y-87097500D01*
X201237500Y-87095500D01*
X201238500Y-87092500D01*
X201238500Y-87090500D01*
X201239500Y-87087500D01*
X201239500Y-87085500D01*
X201240500Y-87082500D01*
X201241500Y-87080500D01*
X201242500Y-87077500D01*
X201244500Y-87075500D01*
X201245500Y-87073500D01*
X201247500Y-87071500D01*
X201248500Y-87069500D01*
X201250500Y-87067500D01*
X201252500Y-87065500D01*
X201254500Y-87063500D01*
X201256500Y-87061500D01*
X201258500Y-87060500D01*
X201260500Y-87058500D01*
X201262500Y-87057500D01*
X201264500Y-87055500D01*
X201267500Y-87054500D01*
X201269500Y-87053500D01*
X201272500Y-87052500D01*
X201274500Y-87052500D01*
X201277500Y-87051500D01*
X201279500Y-87051500D01*
X201282500Y-87050500D01*
X201284500Y-87050500D01*
X201287500Y-87050500D01*
X201737500Y-87050500D01*
X201740500Y-87050500D01*
X201742500Y-87050500D01*
X201745500Y-87051500D01*
G36*
X201745500Y-87051500D02*
G01*
X201747500Y-87051500D01*
X201750500Y-87052500D01*
X201752500Y-87052500D01*
X201755500Y-87053500D01*
X201757500Y-87054500D01*
X201760500Y-87055500D01*
X201762500Y-87057500D01*
X201764500Y-87058500D01*
X201766500Y-87060500D01*
X201768500Y-87061500D01*
X201770500Y-87063500D01*
X201772500Y-87065500D01*
X201774500Y-87067500D01*
X201776500Y-87069500D01*
X201777500Y-87071500D01*
X201779500Y-87073500D01*
X201780500Y-87075500D01*
X201782500Y-87077500D01*
X201783500Y-87080500D01*
X201784500Y-87082500D01*
X201785500Y-87085500D01*
X201785500Y-87087500D01*
X201786500Y-87090500D01*
X201786500Y-87092500D01*
X201787500Y-87095500D01*
X201787500Y-87097500D01*
X201787500Y-87100500D01*
X201787500Y-87250500D01*
X201787500Y-87253500D01*
X201787500Y-87255500D01*
X201786500Y-87258500D01*
X201786500Y-87260500D01*
X201785500Y-87263500D01*
X201785500Y-87265500D01*
X201784500Y-87268500D01*
X201783500Y-87270500D01*
X201782500Y-87273500D01*
X201780500Y-87275500D01*
X201779500Y-87277500D01*
X201777500Y-87279500D01*
X201776500Y-87281500D01*
X201774500Y-87283500D01*
X201772500Y-87285500D01*
X201770500Y-87287500D01*
X201768500Y-87289500D01*
X201766500Y-87290500D01*
X201764500Y-87292500D01*
X201762500Y-87293500D01*
X201760500Y-87295500D01*
X201757500Y-87296500D01*
X201755500Y-87297500D01*
X201752500Y-87298500D01*
X201750500Y-87298500D01*
X201747500Y-87299500D01*
X201745500Y-87299500D01*
X201742500Y-87300500D01*
X201740500Y-87300500D01*
X201737500Y-87300500D01*
X201287500Y-87300500D01*
X201284500Y-87300500D01*
X201282500Y-87300500D01*
X201279500Y-87299500D01*
X201277500Y-87299500D01*
X201274500Y-87298500D01*
X201272500Y-87298500D01*
X201269500Y-87297500D01*
X201267500Y-87296500D01*
X201264500Y-87295500D01*
X201262500Y-87293500D01*
X201260500Y-87292500D01*
X201258500Y-87290500D01*
X201256500Y-87289500D01*
X201254500Y-87287500D01*
X201252500Y-87285500D01*
X201250500Y-87283500D01*
X201248500Y-87281500D01*
X201247500Y-87279500D01*
X201245500Y-87277500D01*
X201244500Y-87275500D01*
X201242500Y-87273500D01*
X201241500Y-87270500D01*
X201240500Y-87268500D01*
X201239500Y-87265500D01*
X201239500Y-87263500D01*
X201238500Y-87260500D01*
X201238500Y-87258500D01*
X201237500Y-87255500D01*
X201237500Y-87253500D01*
X201237500Y-87250500D01*
X201237500Y-87100500D01*
X201237500Y-87097500D01*
X201237500Y-87095500D01*
X201238500Y-87092500D01*
X201238500Y-87090500D01*
X201239500Y-87087500D01*
X201239500Y-87085500D01*
X201240500Y-87082500D01*
X201241500Y-87080500D01*
X201242500Y-87077500D01*
X201244500Y-87075500D01*
X201245500Y-87073500D01*
X201247500Y-87071500D01*
X201248500Y-87069500D01*
X201250500Y-87067500D01*
X201252500Y-87065500D01*
X201254500Y-87063500D01*
X201256500Y-87061500D01*
X201258500Y-87060500D01*
X201260500Y-87058500D01*
X201262500Y-87057500D01*
X201264500Y-87055500D01*
X201267500Y-87054500D01*
X201269500Y-87053500D01*
X201272500Y-87052500D01*
X201274500Y-87052500D01*
X201277500Y-87051500D01*
X201279500Y-87051500D01*
X201282500Y-87050500D01*
X201284500Y-87050500D01*
X201287500Y-87050500D01*
X201737500Y-87050500D01*
X201740500Y-87050500D01*
X201742500Y-87050500D01*
X201745500Y-87051500D01*
G37*
X202495500Y-87051500D02*
X202497500Y-87051500D01*
X202500500Y-87052500D01*
X202502500Y-87052500D01*
X202505500Y-87053500D01*
X202507500Y-87054500D01*
X202510500Y-87055500D01*
X202512500Y-87057500D01*
X202514500Y-87058500D01*
X202516500Y-87060500D01*
X202518500Y-87061500D01*
X202520500Y-87063500D01*
X202522500Y-87065500D01*
X202524500Y-87067500D01*
X202526500Y-87069500D01*
X202527500Y-87071500D01*
X202529500Y-87073500D01*
X202530500Y-87075500D01*
X202532500Y-87077500D01*
X202533500Y-87080500D01*
X202534500Y-87082500D01*
X202535500Y-87085500D01*
X202535500Y-87087500D01*
X202536500Y-87090500D01*
X202536500Y-87092500D01*
X202537500Y-87095500D01*
X202537500Y-87097500D01*
X202537500Y-87100500D01*
X202537500Y-87250500D01*
X202537500Y-87253500D01*
X202537500Y-87255500D01*
X202536500Y-87258500D01*
X202536500Y-87260500D01*
X202535500Y-87263500D01*
X202535500Y-87265500D01*
X202534500Y-87268500D01*
X202533500Y-87270500D01*
X202532500Y-87273500D01*
X202530500Y-87275500D01*
X202529500Y-87277500D01*
X202527500Y-87279500D01*
X202526500Y-87281500D01*
X202524500Y-87283500D01*
X202522500Y-87285500D01*
X202520500Y-87287500D01*
X202518500Y-87289500D01*
X202516500Y-87290500D01*
X202514500Y-87292500D01*
X202512500Y-87293500D01*
X202510500Y-87295500D01*
X202507500Y-87296500D01*
X202505500Y-87297500D01*
X202502500Y-87298500D01*
X202500500Y-87298500D01*
X202497500Y-87299500D01*
X202495500Y-87299500D01*
X202492500Y-87300500D01*
X202490500Y-87300500D01*
X202487500Y-87300500D01*
X202037500Y-87300500D01*
X202034500Y-87300500D01*
X202032500Y-87300500D01*
X202029500Y-87299500D01*
X202027500Y-87299500D01*
X202024500Y-87298500D01*
X202022500Y-87298500D01*
X202019500Y-87297500D01*
X202017500Y-87296500D01*
X202014500Y-87295500D01*
X202012500Y-87293500D01*
X202010500Y-87292500D01*
X202008500Y-87290500D01*
X202006500Y-87289500D01*
X202004500Y-87287500D01*
X202002500Y-87285500D01*
X202000500Y-87283500D01*
X201998500Y-87281500D01*
X201997500Y-87279500D01*
X201995500Y-87277500D01*
X201994500Y-87275500D01*
X201992500Y-87273500D01*
X201991500Y-87270500D01*
X201990500Y-87268500D01*
X201989500Y-87265500D01*
X201989500Y-87263500D01*
X201988500Y-87260500D01*
X201988500Y-87258500D01*
X201987500Y-87255500D01*
X201987500Y-87253500D01*
X201987500Y-87250500D01*
X201987500Y-87100500D01*
X201987500Y-87097500D01*
X201987500Y-87095500D01*
X201988500Y-87092500D01*
X201988500Y-87090500D01*
X201989500Y-87087500D01*
X201989500Y-87085500D01*
X201990500Y-87082500D01*
X201991500Y-87080500D01*
X201992500Y-87077500D01*
X201994500Y-87075500D01*
X201995500Y-87073500D01*
X201997500Y-87071500D01*
X201998500Y-87069500D01*
X202000500Y-87067500D01*
X202002500Y-87065500D01*
X202004500Y-87063500D01*
X202006500Y-87061500D01*
X202008500Y-87060500D01*
X202010500Y-87058500D01*
X202012500Y-87057500D01*
X202014500Y-87055500D01*
X202017500Y-87054500D01*
X202019500Y-87053500D01*
X202022500Y-87052500D01*
X202024500Y-87052500D01*
X202027500Y-87051500D01*
X202029500Y-87051500D01*
X202032500Y-87050500D01*
X202034500Y-87050500D01*
X202037500Y-87050500D01*
X202487500Y-87050500D01*
X202490500Y-87050500D01*
X202492500Y-87050500D01*
X202495500Y-87051500D01*
G36*
X202495500Y-87051500D02*
G01*
X202497500Y-87051500D01*
X202500500Y-87052500D01*
X202502500Y-87052500D01*
X202505500Y-87053500D01*
X202507500Y-87054500D01*
X202510500Y-87055500D01*
X202512500Y-87057500D01*
X202514500Y-87058500D01*
X202516500Y-87060500D01*
X202518500Y-87061500D01*
X202520500Y-87063500D01*
X202522500Y-87065500D01*
X202524500Y-87067500D01*
X202526500Y-87069500D01*
X202527500Y-87071500D01*
X202529500Y-87073500D01*
X202530500Y-87075500D01*
X202532500Y-87077500D01*
X202533500Y-87080500D01*
X202534500Y-87082500D01*
X202535500Y-87085500D01*
X202535500Y-87087500D01*
X202536500Y-87090500D01*
X202536500Y-87092500D01*
X202537500Y-87095500D01*
X202537500Y-87097500D01*
X202537500Y-87100500D01*
X202537500Y-87250500D01*
X202537500Y-87253500D01*
X202537500Y-87255500D01*
X202536500Y-87258500D01*
X202536500Y-87260500D01*
X202535500Y-87263500D01*
X202535500Y-87265500D01*
X202534500Y-87268500D01*
X202533500Y-87270500D01*
X202532500Y-87273500D01*
X202530500Y-87275500D01*
X202529500Y-87277500D01*
X202527500Y-87279500D01*
X202526500Y-87281500D01*
X202524500Y-87283500D01*
X202522500Y-87285500D01*
X202520500Y-87287500D01*
X202518500Y-87289500D01*
X202516500Y-87290500D01*
X202514500Y-87292500D01*
X202512500Y-87293500D01*
X202510500Y-87295500D01*
X202507500Y-87296500D01*
X202505500Y-87297500D01*
X202502500Y-87298500D01*
X202500500Y-87298500D01*
X202497500Y-87299500D01*
X202495500Y-87299500D01*
X202492500Y-87300500D01*
X202490500Y-87300500D01*
X202487500Y-87300500D01*
X202037500Y-87300500D01*
X202034500Y-87300500D01*
X202032500Y-87300500D01*
X202029500Y-87299500D01*
X202027500Y-87299500D01*
X202024500Y-87298500D01*
X202022500Y-87298500D01*
X202019500Y-87297500D01*
X202017500Y-87296500D01*
X202014500Y-87295500D01*
X202012500Y-87293500D01*
X202010500Y-87292500D01*
X202008500Y-87290500D01*
X202006500Y-87289500D01*
X202004500Y-87287500D01*
X202002500Y-87285500D01*
X202000500Y-87283500D01*
X201998500Y-87281500D01*
X201997500Y-87279500D01*
X201995500Y-87277500D01*
X201994500Y-87275500D01*
X201992500Y-87273500D01*
X201991500Y-87270500D01*
X201990500Y-87268500D01*
X201989500Y-87265500D01*
X201989500Y-87263500D01*
X201988500Y-87260500D01*
X201988500Y-87258500D01*
X201987500Y-87255500D01*
X201987500Y-87253500D01*
X201987500Y-87250500D01*
X201987500Y-87100500D01*
X201987500Y-87097500D01*
X201987500Y-87095500D01*
X201988500Y-87092500D01*
X201988500Y-87090500D01*
X201989500Y-87087500D01*
X201989500Y-87085500D01*
X201990500Y-87082500D01*
X201991500Y-87080500D01*
X201992500Y-87077500D01*
X201994500Y-87075500D01*
X201995500Y-87073500D01*
X201997500Y-87071500D01*
X201998500Y-87069500D01*
X202000500Y-87067500D01*
X202002500Y-87065500D01*
X202004500Y-87063500D01*
X202006500Y-87061500D01*
X202008500Y-87060500D01*
X202010500Y-87058500D01*
X202012500Y-87057500D01*
X202014500Y-87055500D01*
X202017500Y-87054500D01*
X202019500Y-87053500D01*
X202022500Y-87052500D01*
X202024500Y-87052500D01*
X202027500Y-87051500D01*
X202029500Y-87051500D01*
X202032500Y-87050500D01*
X202034500Y-87050500D01*
X202037500Y-87050500D01*
X202487500Y-87050500D01*
X202490500Y-87050500D01*
X202492500Y-87050500D01*
X202495500Y-87051500D01*
G37*
X112745500Y-38051500D02*
X112747500Y-38051500D01*
X112750500Y-38052500D01*
X112752500Y-38052500D01*
X112755500Y-38053500D01*
X112757500Y-38054500D01*
X112760500Y-38055500D01*
X112762500Y-38057500D01*
X112764500Y-38058500D01*
X112766500Y-38060500D01*
X112768500Y-38061500D01*
X112770500Y-38063500D01*
X112772500Y-38065500D01*
X112774500Y-38067500D01*
X112776500Y-38069500D01*
X112777500Y-38071500D01*
X112779500Y-38073500D01*
X112780500Y-38075500D01*
X112782500Y-38077500D01*
X112783500Y-38080500D01*
X112784500Y-38082500D01*
X112785500Y-38085500D01*
X112785500Y-38087500D01*
X112786500Y-38090500D01*
X112786500Y-38092500D01*
X112787500Y-38095500D01*
X112787500Y-38097500D01*
X112787500Y-38100500D01*
X112787500Y-38250500D01*
X112787500Y-38253500D01*
X112787500Y-38255500D01*
X112786500Y-38258500D01*
X112786500Y-38260500D01*
X112785500Y-38263500D01*
X112785500Y-38265500D01*
X112784500Y-38268500D01*
X112783500Y-38270500D01*
X112782500Y-38273500D01*
X112780500Y-38275500D01*
X112779500Y-38277500D01*
X112777500Y-38279500D01*
X112776500Y-38281500D01*
X112774500Y-38283500D01*
X112772500Y-38285500D01*
X112770500Y-38287500D01*
X112768500Y-38289500D01*
X112766500Y-38290500D01*
X112764500Y-38292500D01*
X112762500Y-38293500D01*
X112760500Y-38295500D01*
X112757500Y-38296500D01*
X112755500Y-38297500D01*
X112752500Y-38298500D01*
X112750500Y-38298500D01*
X112747500Y-38299500D01*
X112745500Y-38299500D01*
X112742500Y-38300500D01*
X112740500Y-38300500D01*
X112737500Y-38300500D01*
X112287500Y-38300500D01*
X112284500Y-38300500D01*
X112282500Y-38300500D01*
X112279500Y-38299500D01*
X112277500Y-38299500D01*
X112274500Y-38298500D01*
X112272500Y-38298500D01*
X112269500Y-38297500D01*
X112267500Y-38296500D01*
X112264500Y-38295500D01*
X112262500Y-38293500D01*
X112260500Y-38292500D01*
X112258500Y-38290500D01*
X112256500Y-38289500D01*
X112254500Y-38287500D01*
X112252500Y-38285500D01*
X112250500Y-38283500D01*
X112248500Y-38281500D01*
X112247500Y-38279500D01*
X112245500Y-38277500D01*
X112244500Y-38275500D01*
X112242500Y-38273500D01*
X112241500Y-38270500D01*
X112240500Y-38268500D01*
X112239500Y-38265500D01*
X112239500Y-38263500D01*
X112238500Y-38260500D01*
X112238500Y-38258500D01*
X112237500Y-38255500D01*
X112237500Y-38253500D01*
X112237500Y-38250500D01*
X112237500Y-38100500D01*
X112237500Y-38097500D01*
X112237500Y-38095500D01*
X112238500Y-38092500D01*
X112238500Y-38090500D01*
X112239500Y-38087500D01*
X112239500Y-38085500D01*
X112240500Y-38082500D01*
X112241500Y-38080500D01*
X112242500Y-38077500D01*
X112244500Y-38075500D01*
X112245500Y-38073500D01*
X112247500Y-38071500D01*
X112248500Y-38069500D01*
X112250500Y-38067500D01*
X112252500Y-38065500D01*
X112254500Y-38063500D01*
X112256500Y-38061500D01*
X112258500Y-38060500D01*
X112260500Y-38058500D01*
X112262500Y-38057500D01*
X112264500Y-38055500D01*
X112267500Y-38054500D01*
X112269500Y-38053500D01*
X112272500Y-38052500D01*
X112274500Y-38052500D01*
X112277500Y-38051500D01*
X112279500Y-38051500D01*
X112282500Y-38050500D01*
X112284500Y-38050500D01*
X112287500Y-38050500D01*
X112737500Y-38050500D01*
X112740500Y-38050500D01*
X112742500Y-38050500D01*
X112745500Y-38051500D01*
G36*
X112745500Y-38051500D02*
G01*
X112747500Y-38051500D01*
X112750500Y-38052500D01*
X112752500Y-38052500D01*
X112755500Y-38053500D01*
X112757500Y-38054500D01*
X112760500Y-38055500D01*
X112762500Y-38057500D01*
X112764500Y-38058500D01*
X112766500Y-38060500D01*
X112768500Y-38061500D01*
X112770500Y-38063500D01*
X112772500Y-38065500D01*
X112774500Y-38067500D01*
X112776500Y-38069500D01*
X112777500Y-38071500D01*
X112779500Y-38073500D01*
X112780500Y-38075500D01*
X112782500Y-38077500D01*
X112783500Y-38080500D01*
X112784500Y-38082500D01*
X112785500Y-38085500D01*
X112785500Y-38087500D01*
X112786500Y-38090500D01*
X112786500Y-38092500D01*
X112787500Y-38095500D01*
X112787500Y-38097500D01*
X112787500Y-38100500D01*
X112787500Y-38250500D01*
X112787500Y-38253500D01*
X112787500Y-38255500D01*
X112786500Y-38258500D01*
X112786500Y-38260500D01*
X112785500Y-38263500D01*
X112785500Y-38265500D01*
X112784500Y-38268500D01*
X112783500Y-38270500D01*
X112782500Y-38273500D01*
X112780500Y-38275500D01*
X112779500Y-38277500D01*
X112777500Y-38279500D01*
X112776500Y-38281500D01*
X112774500Y-38283500D01*
X112772500Y-38285500D01*
X112770500Y-38287500D01*
X112768500Y-38289500D01*
X112766500Y-38290500D01*
X112764500Y-38292500D01*
X112762500Y-38293500D01*
X112760500Y-38295500D01*
X112757500Y-38296500D01*
X112755500Y-38297500D01*
X112752500Y-38298500D01*
X112750500Y-38298500D01*
X112747500Y-38299500D01*
X112745500Y-38299500D01*
X112742500Y-38300500D01*
X112740500Y-38300500D01*
X112737500Y-38300500D01*
X112287500Y-38300500D01*
X112284500Y-38300500D01*
X112282500Y-38300500D01*
X112279500Y-38299500D01*
X112277500Y-38299500D01*
X112274500Y-38298500D01*
X112272500Y-38298500D01*
X112269500Y-38297500D01*
X112267500Y-38296500D01*
X112264500Y-38295500D01*
X112262500Y-38293500D01*
X112260500Y-38292500D01*
X112258500Y-38290500D01*
X112256500Y-38289500D01*
X112254500Y-38287500D01*
X112252500Y-38285500D01*
X112250500Y-38283500D01*
X112248500Y-38281500D01*
X112247500Y-38279500D01*
X112245500Y-38277500D01*
X112244500Y-38275500D01*
X112242500Y-38273500D01*
X112241500Y-38270500D01*
X112240500Y-38268500D01*
X112239500Y-38265500D01*
X112239500Y-38263500D01*
X112238500Y-38260500D01*
X112238500Y-38258500D01*
X112237500Y-38255500D01*
X112237500Y-38253500D01*
X112237500Y-38250500D01*
X112237500Y-38100500D01*
X112237500Y-38097500D01*
X112237500Y-38095500D01*
X112238500Y-38092500D01*
X112238500Y-38090500D01*
X112239500Y-38087500D01*
X112239500Y-38085500D01*
X112240500Y-38082500D01*
X112241500Y-38080500D01*
X112242500Y-38077500D01*
X112244500Y-38075500D01*
X112245500Y-38073500D01*
X112247500Y-38071500D01*
X112248500Y-38069500D01*
X112250500Y-38067500D01*
X112252500Y-38065500D01*
X112254500Y-38063500D01*
X112256500Y-38061500D01*
X112258500Y-38060500D01*
X112260500Y-38058500D01*
X112262500Y-38057500D01*
X112264500Y-38055500D01*
X112267500Y-38054500D01*
X112269500Y-38053500D01*
X112272500Y-38052500D01*
X112274500Y-38052500D01*
X112277500Y-38051500D01*
X112279500Y-38051500D01*
X112282500Y-38050500D01*
X112284500Y-38050500D01*
X112287500Y-38050500D01*
X112737500Y-38050500D01*
X112740500Y-38050500D01*
X112742500Y-38050500D01*
X112745500Y-38051500D01*
G37*
X113495500Y-38051500D02*
X113497500Y-38051500D01*
X113500500Y-38052500D01*
X113502500Y-38052500D01*
X113505500Y-38053500D01*
X113507500Y-38054500D01*
X113510500Y-38055500D01*
X113512500Y-38057500D01*
X113514500Y-38058500D01*
X113516500Y-38060500D01*
X113518500Y-38061500D01*
X113520500Y-38063500D01*
X113522500Y-38065500D01*
X113524500Y-38067500D01*
X113526500Y-38069500D01*
X113527500Y-38071500D01*
X113529500Y-38073500D01*
X113530500Y-38075500D01*
X113532500Y-38077500D01*
X113533500Y-38080500D01*
X113534500Y-38082500D01*
X113535500Y-38085500D01*
X113535500Y-38087500D01*
X113536500Y-38090500D01*
X113536500Y-38092500D01*
X113537500Y-38095500D01*
X113537500Y-38097500D01*
X113537500Y-38100500D01*
X113537500Y-38250500D01*
X113537500Y-38253500D01*
X113537500Y-38255500D01*
X113536500Y-38258500D01*
X113536500Y-38260500D01*
X113535500Y-38263500D01*
X113535500Y-38265500D01*
X113534500Y-38268500D01*
X113533500Y-38270500D01*
X113532500Y-38273500D01*
X113530500Y-38275500D01*
X113529500Y-38277500D01*
X113527500Y-38279500D01*
X113526500Y-38281500D01*
X113524500Y-38283500D01*
X113522500Y-38285500D01*
X113520500Y-38287500D01*
X113518500Y-38289500D01*
X113516500Y-38290500D01*
X113514500Y-38292500D01*
X113512500Y-38293500D01*
X113510500Y-38295500D01*
X113507500Y-38296500D01*
X113505500Y-38297500D01*
X113502500Y-38298500D01*
X113500500Y-38298500D01*
X113497500Y-38299500D01*
X113495500Y-38299500D01*
X113492500Y-38300500D01*
X113490500Y-38300500D01*
X113487500Y-38300500D01*
X113037500Y-38300500D01*
X113034500Y-38300500D01*
X113032500Y-38300500D01*
X113029500Y-38299500D01*
X113027500Y-38299500D01*
X113024500Y-38298500D01*
X113022500Y-38298500D01*
X113019500Y-38297500D01*
X113017500Y-38296500D01*
X113014500Y-38295500D01*
X113012500Y-38293500D01*
X113010500Y-38292500D01*
X113008500Y-38290500D01*
X113006500Y-38289500D01*
X113004500Y-38287500D01*
X113002500Y-38285500D01*
X113000500Y-38283500D01*
X112998500Y-38281500D01*
X112997500Y-38279500D01*
X112995500Y-38277500D01*
X112994500Y-38275500D01*
X112992500Y-38273500D01*
X112991500Y-38270500D01*
X112990500Y-38268500D01*
X112989500Y-38265500D01*
X112989500Y-38263500D01*
X112988500Y-38260500D01*
X112988500Y-38258500D01*
X112987500Y-38255500D01*
X112987500Y-38253500D01*
X112987500Y-38250500D01*
X112987500Y-38100500D01*
X112987500Y-38097500D01*
X112987500Y-38095500D01*
X112988500Y-38092500D01*
X112988500Y-38090500D01*
X112989500Y-38087500D01*
X112989500Y-38085500D01*
X112990500Y-38082500D01*
X112991500Y-38080500D01*
X112992500Y-38077500D01*
X112994500Y-38075500D01*
X112995500Y-38073500D01*
X112997500Y-38071500D01*
X112998500Y-38069500D01*
X113000500Y-38067500D01*
X113002500Y-38065500D01*
X113004500Y-38063500D01*
X113006500Y-38061500D01*
X113008500Y-38060500D01*
X113010500Y-38058500D01*
X113012500Y-38057500D01*
X113014500Y-38055500D01*
X113017500Y-38054500D01*
X113019500Y-38053500D01*
X113022500Y-38052500D01*
X113024500Y-38052500D01*
X113027500Y-38051500D01*
X113029500Y-38051500D01*
X113032500Y-38050500D01*
X113034500Y-38050500D01*
X113037500Y-38050500D01*
X113487500Y-38050500D01*
X113490500Y-38050500D01*
X113492500Y-38050500D01*
X113495500Y-38051500D01*
G36*
X113495500Y-38051500D02*
G01*
X113497500Y-38051500D01*
X113500500Y-38052500D01*
X113502500Y-38052500D01*
X113505500Y-38053500D01*
X113507500Y-38054500D01*
X113510500Y-38055500D01*
X113512500Y-38057500D01*
X113514500Y-38058500D01*
X113516500Y-38060500D01*
X113518500Y-38061500D01*
X113520500Y-38063500D01*
X113522500Y-38065500D01*
X113524500Y-38067500D01*
X113526500Y-38069500D01*
X113527500Y-38071500D01*
X113529500Y-38073500D01*
X113530500Y-38075500D01*
X113532500Y-38077500D01*
X113533500Y-38080500D01*
X113534500Y-38082500D01*
X113535500Y-38085500D01*
X113535500Y-38087500D01*
X113536500Y-38090500D01*
X113536500Y-38092500D01*
X113537500Y-38095500D01*
X113537500Y-38097500D01*
X113537500Y-38100500D01*
X113537500Y-38250500D01*
X113537500Y-38253500D01*
X113537500Y-38255500D01*
X113536500Y-38258500D01*
X113536500Y-38260500D01*
X113535500Y-38263500D01*
X113535500Y-38265500D01*
X113534500Y-38268500D01*
X113533500Y-38270500D01*
X113532500Y-38273500D01*
X113530500Y-38275500D01*
X113529500Y-38277500D01*
X113527500Y-38279500D01*
X113526500Y-38281500D01*
X113524500Y-38283500D01*
X113522500Y-38285500D01*
X113520500Y-38287500D01*
X113518500Y-38289500D01*
X113516500Y-38290500D01*
X113514500Y-38292500D01*
X113512500Y-38293500D01*
X113510500Y-38295500D01*
X113507500Y-38296500D01*
X113505500Y-38297500D01*
X113502500Y-38298500D01*
X113500500Y-38298500D01*
X113497500Y-38299500D01*
X113495500Y-38299500D01*
X113492500Y-38300500D01*
X113490500Y-38300500D01*
X113487500Y-38300500D01*
X113037500Y-38300500D01*
X113034500Y-38300500D01*
X113032500Y-38300500D01*
X113029500Y-38299500D01*
X113027500Y-38299500D01*
X113024500Y-38298500D01*
X113022500Y-38298500D01*
X113019500Y-38297500D01*
X113017500Y-38296500D01*
X113014500Y-38295500D01*
X113012500Y-38293500D01*
X113010500Y-38292500D01*
X113008500Y-38290500D01*
X113006500Y-38289500D01*
X113004500Y-38287500D01*
X113002500Y-38285500D01*
X113000500Y-38283500D01*
X112998500Y-38281500D01*
X112997500Y-38279500D01*
X112995500Y-38277500D01*
X112994500Y-38275500D01*
X112992500Y-38273500D01*
X112991500Y-38270500D01*
X112990500Y-38268500D01*
X112989500Y-38265500D01*
X112989500Y-38263500D01*
X112988500Y-38260500D01*
X112988500Y-38258500D01*
X112987500Y-38255500D01*
X112987500Y-38253500D01*
X112987500Y-38250500D01*
X112987500Y-38100500D01*
X112987500Y-38097500D01*
X112987500Y-38095500D01*
X112988500Y-38092500D01*
X112988500Y-38090500D01*
X112989500Y-38087500D01*
X112989500Y-38085500D01*
X112990500Y-38082500D01*
X112991500Y-38080500D01*
X112992500Y-38077500D01*
X112994500Y-38075500D01*
X112995500Y-38073500D01*
X112997500Y-38071500D01*
X112998500Y-38069500D01*
X113000500Y-38067500D01*
X113002500Y-38065500D01*
X113004500Y-38063500D01*
X113006500Y-38061500D01*
X113008500Y-38060500D01*
X113010500Y-38058500D01*
X113012500Y-38057500D01*
X113014500Y-38055500D01*
X113017500Y-38054500D01*
X113019500Y-38053500D01*
X113022500Y-38052500D01*
X113024500Y-38052500D01*
X113027500Y-38051500D01*
X113029500Y-38051500D01*
X113032500Y-38050500D01*
X113034500Y-38050500D01*
X113037500Y-38050500D01*
X113487500Y-38050500D01*
X113490500Y-38050500D01*
X113492500Y-38050500D01*
X113495500Y-38051500D01*
G37*
X112745500Y-87051500D02*
X112747500Y-87051500D01*
X112750500Y-87052500D01*
X112752500Y-87052500D01*
X112755500Y-87053500D01*
X112757500Y-87054500D01*
X112760500Y-87055500D01*
X112762500Y-87057500D01*
X112764500Y-87058500D01*
X112766500Y-87060500D01*
X112768500Y-87061500D01*
X112770500Y-87063500D01*
X112772500Y-87065500D01*
X112774500Y-87067500D01*
X112776500Y-87069500D01*
X112777500Y-87071500D01*
X112779500Y-87073500D01*
X112780500Y-87075500D01*
X112782500Y-87077500D01*
X112783500Y-87080500D01*
X112784500Y-87082500D01*
X112785500Y-87085500D01*
X112785500Y-87087500D01*
X112786500Y-87090500D01*
X112786500Y-87092500D01*
X112787500Y-87095500D01*
X112787500Y-87097500D01*
X112787500Y-87100500D01*
X112787500Y-87250500D01*
X112787500Y-87253500D01*
X112787500Y-87255500D01*
X112786500Y-87258500D01*
X112786500Y-87260500D01*
X112785500Y-87263500D01*
X112785500Y-87265500D01*
X112784500Y-87268500D01*
X112783500Y-87270500D01*
X112782500Y-87273500D01*
X112780500Y-87275500D01*
X112779500Y-87277500D01*
X112777500Y-87279500D01*
X112776500Y-87281500D01*
X112774500Y-87283500D01*
X112772500Y-87285500D01*
X112770500Y-87287500D01*
X112768500Y-87289500D01*
X112766500Y-87290500D01*
X112764500Y-87292500D01*
X112762500Y-87293500D01*
X112760500Y-87295500D01*
X112757500Y-87296500D01*
X112755500Y-87297500D01*
X112752500Y-87298500D01*
X112750500Y-87298500D01*
X112747500Y-87299500D01*
X112745500Y-87299500D01*
X112742500Y-87300500D01*
X112740500Y-87300500D01*
X112737500Y-87300500D01*
X112287500Y-87300500D01*
X112284500Y-87300500D01*
X112282500Y-87300500D01*
X112279500Y-87299500D01*
X112277500Y-87299500D01*
X112274500Y-87298500D01*
X112272500Y-87298500D01*
X112269500Y-87297500D01*
X112267500Y-87296500D01*
X112264500Y-87295500D01*
X112262500Y-87293500D01*
X112260500Y-87292500D01*
X112258500Y-87290500D01*
X112256500Y-87289500D01*
X112254500Y-87287500D01*
X112252500Y-87285500D01*
X112250500Y-87283500D01*
X112248500Y-87281500D01*
X112247500Y-87279500D01*
X112245500Y-87277500D01*
X112244500Y-87275500D01*
X112242500Y-87273500D01*
X112241500Y-87270500D01*
X112240500Y-87268500D01*
X112239500Y-87265500D01*
X112239500Y-87263500D01*
X112238500Y-87260500D01*
X112238500Y-87258500D01*
X112237500Y-87255500D01*
X112237500Y-87253500D01*
X112237500Y-87250500D01*
X112237500Y-87100500D01*
X112237500Y-87097500D01*
X112237500Y-87095500D01*
X112238500Y-87092500D01*
X112238500Y-87090500D01*
X112239500Y-87087500D01*
X112239500Y-87085500D01*
X112240500Y-87082500D01*
X112241500Y-87080500D01*
X112242500Y-87077500D01*
X112244500Y-87075500D01*
X112245500Y-87073500D01*
X112247500Y-87071500D01*
X112248500Y-87069500D01*
X112250500Y-87067500D01*
X112252500Y-87065500D01*
X112254500Y-87063500D01*
X112256500Y-87061500D01*
X112258500Y-87060500D01*
X112260500Y-87058500D01*
X112262500Y-87057500D01*
X112264500Y-87055500D01*
X112267500Y-87054500D01*
X112269500Y-87053500D01*
X112272500Y-87052500D01*
X112274500Y-87052500D01*
X112277500Y-87051500D01*
X112279500Y-87051500D01*
X112282500Y-87050500D01*
X112284500Y-87050500D01*
X112287500Y-87050500D01*
X112737500Y-87050500D01*
X112740500Y-87050500D01*
X112742500Y-87050500D01*
X112745500Y-87051500D01*
G36*
X112745500Y-87051500D02*
G01*
X112747500Y-87051500D01*
X112750500Y-87052500D01*
X112752500Y-87052500D01*
X112755500Y-87053500D01*
X112757500Y-87054500D01*
X112760500Y-87055500D01*
X112762500Y-87057500D01*
X112764500Y-87058500D01*
X112766500Y-87060500D01*
X112768500Y-87061500D01*
X112770500Y-87063500D01*
X112772500Y-87065500D01*
X112774500Y-87067500D01*
X112776500Y-87069500D01*
X112777500Y-87071500D01*
X112779500Y-87073500D01*
X112780500Y-87075500D01*
X112782500Y-87077500D01*
X112783500Y-87080500D01*
X112784500Y-87082500D01*
X112785500Y-87085500D01*
X112785500Y-87087500D01*
X112786500Y-87090500D01*
X112786500Y-87092500D01*
X112787500Y-87095500D01*
X112787500Y-87097500D01*
X112787500Y-87100500D01*
X112787500Y-87250500D01*
X112787500Y-87253500D01*
X112787500Y-87255500D01*
X112786500Y-87258500D01*
X112786500Y-87260500D01*
X112785500Y-87263500D01*
X112785500Y-87265500D01*
X112784500Y-87268500D01*
X112783500Y-87270500D01*
X112782500Y-87273500D01*
X112780500Y-87275500D01*
X112779500Y-87277500D01*
X112777500Y-87279500D01*
X112776500Y-87281500D01*
X112774500Y-87283500D01*
X112772500Y-87285500D01*
X112770500Y-87287500D01*
X112768500Y-87289500D01*
X112766500Y-87290500D01*
X112764500Y-87292500D01*
X112762500Y-87293500D01*
X112760500Y-87295500D01*
X112757500Y-87296500D01*
X112755500Y-87297500D01*
X112752500Y-87298500D01*
X112750500Y-87298500D01*
X112747500Y-87299500D01*
X112745500Y-87299500D01*
X112742500Y-87300500D01*
X112740500Y-87300500D01*
X112737500Y-87300500D01*
X112287500Y-87300500D01*
X112284500Y-87300500D01*
X112282500Y-87300500D01*
X112279500Y-87299500D01*
X112277500Y-87299500D01*
X112274500Y-87298500D01*
X112272500Y-87298500D01*
X112269500Y-87297500D01*
X112267500Y-87296500D01*
X112264500Y-87295500D01*
X112262500Y-87293500D01*
X112260500Y-87292500D01*
X112258500Y-87290500D01*
X112256500Y-87289500D01*
X112254500Y-87287500D01*
X112252500Y-87285500D01*
X112250500Y-87283500D01*
X112248500Y-87281500D01*
X112247500Y-87279500D01*
X112245500Y-87277500D01*
X112244500Y-87275500D01*
X112242500Y-87273500D01*
X112241500Y-87270500D01*
X112240500Y-87268500D01*
X112239500Y-87265500D01*
X112239500Y-87263500D01*
X112238500Y-87260500D01*
X112238500Y-87258500D01*
X112237500Y-87255500D01*
X112237500Y-87253500D01*
X112237500Y-87250500D01*
X112237500Y-87100500D01*
X112237500Y-87097500D01*
X112237500Y-87095500D01*
X112238500Y-87092500D01*
X112238500Y-87090500D01*
X112239500Y-87087500D01*
X112239500Y-87085500D01*
X112240500Y-87082500D01*
X112241500Y-87080500D01*
X112242500Y-87077500D01*
X112244500Y-87075500D01*
X112245500Y-87073500D01*
X112247500Y-87071500D01*
X112248500Y-87069500D01*
X112250500Y-87067500D01*
X112252500Y-87065500D01*
X112254500Y-87063500D01*
X112256500Y-87061500D01*
X112258500Y-87060500D01*
X112260500Y-87058500D01*
X112262500Y-87057500D01*
X112264500Y-87055500D01*
X112267500Y-87054500D01*
X112269500Y-87053500D01*
X112272500Y-87052500D01*
X112274500Y-87052500D01*
X112277500Y-87051500D01*
X112279500Y-87051500D01*
X112282500Y-87050500D01*
X112284500Y-87050500D01*
X112287500Y-87050500D01*
X112737500Y-87050500D01*
X112740500Y-87050500D01*
X112742500Y-87050500D01*
X112745500Y-87051500D01*
G37*
X113495500Y-87051500D02*
X113497500Y-87051500D01*
X113500500Y-87052500D01*
X113502500Y-87052500D01*
X113505500Y-87053500D01*
X113507500Y-87054500D01*
X113510500Y-87055500D01*
X113512500Y-87057500D01*
X113514500Y-87058500D01*
X113516500Y-87060500D01*
X113518500Y-87061500D01*
X113520500Y-87063500D01*
X113522500Y-87065500D01*
X113524500Y-87067500D01*
X113526500Y-87069500D01*
X113527500Y-87071500D01*
X113529500Y-87073500D01*
X113530500Y-87075500D01*
X113532500Y-87077500D01*
X113533500Y-87080500D01*
X113534500Y-87082500D01*
X113535500Y-87085500D01*
X113535500Y-87087500D01*
X113536500Y-87090500D01*
X113536500Y-87092500D01*
X113537500Y-87095500D01*
X113537500Y-87097500D01*
X113537500Y-87100500D01*
X113537500Y-87250500D01*
X113537500Y-87253500D01*
X113537500Y-87255500D01*
X113536500Y-87258500D01*
X113536500Y-87260500D01*
X113535500Y-87263500D01*
X113535500Y-87265500D01*
X113534500Y-87268500D01*
X113533500Y-87270500D01*
X113532500Y-87273500D01*
X113530500Y-87275500D01*
X113529500Y-87277500D01*
X113527500Y-87279500D01*
X113526500Y-87281500D01*
X113524500Y-87283500D01*
X113522500Y-87285500D01*
X113520500Y-87287500D01*
X113518500Y-87289500D01*
X113516500Y-87290500D01*
X113514500Y-87292500D01*
X113512500Y-87293500D01*
X113510500Y-87295500D01*
X113507500Y-87296500D01*
X113505500Y-87297500D01*
X113502500Y-87298500D01*
X113500500Y-87298500D01*
X113497500Y-87299500D01*
X113495500Y-87299500D01*
X113492500Y-87300500D01*
X113490500Y-87300500D01*
X113487500Y-87300500D01*
X113037500Y-87300500D01*
X113034500Y-87300500D01*
X113032500Y-87300500D01*
X113029500Y-87299500D01*
X113027500Y-87299500D01*
X113024500Y-87298500D01*
X113022500Y-87298500D01*
X113019500Y-87297500D01*
X113017500Y-87296500D01*
X113014500Y-87295500D01*
X113012500Y-87293500D01*
X113010500Y-87292500D01*
X113008500Y-87290500D01*
X113006500Y-87289500D01*
X113004500Y-87287500D01*
X113002500Y-87285500D01*
X113000500Y-87283500D01*
X112998500Y-87281500D01*
X112997500Y-87279500D01*
X112995500Y-87277500D01*
X112994500Y-87275500D01*
X112992500Y-87273500D01*
X112991500Y-87270500D01*
X112990500Y-87268500D01*
X112989500Y-87265500D01*
X112989500Y-87263500D01*
X112988500Y-87260500D01*
X112988500Y-87258500D01*
X112987500Y-87255500D01*
X112987500Y-87253500D01*
X112987500Y-87250500D01*
X112987500Y-87100500D01*
X112987500Y-87097500D01*
X112987500Y-87095500D01*
X112988500Y-87092500D01*
X112988500Y-87090500D01*
X112989500Y-87087500D01*
X112989500Y-87085500D01*
X112990500Y-87082500D01*
X112991500Y-87080500D01*
X112992500Y-87077500D01*
X112994500Y-87075500D01*
X112995500Y-87073500D01*
X112997500Y-87071500D01*
X112998500Y-87069500D01*
X113000500Y-87067500D01*
X113002500Y-87065500D01*
X113004500Y-87063500D01*
X113006500Y-87061500D01*
X113008500Y-87060500D01*
X113010500Y-87058500D01*
X113012500Y-87057500D01*
X113014500Y-87055500D01*
X113017500Y-87054500D01*
X113019500Y-87053500D01*
X113022500Y-87052500D01*
X113024500Y-87052500D01*
X113027500Y-87051500D01*
X113029500Y-87051500D01*
X113032500Y-87050500D01*
X113034500Y-87050500D01*
X113037500Y-87050500D01*
X113487500Y-87050500D01*
X113490500Y-87050500D01*
X113492500Y-87050500D01*
X113495500Y-87051500D01*
G36*
X113495500Y-87051500D02*
G01*
X113497500Y-87051500D01*
X113500500Y-87052500D01*
X113502500Y-87052500D01*
X113505500Y-87053500D01*
X113507500Y-87054500D01*
X113510500Y-87055500D01*
X113512500Y-87057500D01*
X113514500Y-87058500D01*
X113516500Y-87060500D01*
X113518500Y-87061500D01*
X113520500Y-87063500D01*
X113522500Y-87065500D01*
X113524500Y-87067500D01*
X113526500Y-87069500D01*
X113527500Y-87071500D01*
X113529500Y-87073500D01*
X113530500Y-87075500D01*
X113532500Y-87077500D01*
X113533500Y-87080500D01*
X113534500Y-87082500D01*
X113535500Y-87085500D01*
X113535500Y-87087500D01*
X113536500Y-87090500D01*
X113536500Y-87092500D01*
X113537500Y-87095500D01*
X113537500Y-87097500D01*
X113537500Y-87100500D01*
X113537500Y-87250500D01*
X113537500Y-87253500D01*
X113537500Y-87255500D01*
X113536500Y-87258500D01*
X113536500Y-87260500D01*
X113535500Y-87263500D01*
X113535500Y-87265500D01*
X113534500Y-87268500D01*
X113533500Y-87270500D01*
X113532500Y-87273500D01*
X113530500Y-87275500D01*
X113529500Y-87277500D01*
X113527500Y-87279500D01*
X113526500Y-87281500D01*
X113524500Y-87283500D01*
X113522500Y-87285500D01*
X113520500Y-87287500D01*
X113518500Y-87289500D01*
X113516500Y-87290500D01*
X113514500Y-87292500D01*
X113512500Y-87293500D01*
X113510500Y-87295500D01*
X113507500Y-87296500D01*
X113505500Y-87297500D01*
X113502500Y-87298500D01*
X113500500Y-87298500D01*
X113497500Y-87299500D01*
X113495500Y-87299500D01*
X113492500Y-87300500D01*
X113490500Y-87300500D01*
X113487500Y-87300500D01*
X113037500Y-87300500D01*
X113034500Y-87300500D01*
X113032500Y-87300500D01*
X113029500Y-87299500D01*
X113027500Y-87299500D01*
X113024500Y-87298500D01*
X113022500Y-87298500D01*
X113019500Y-87297500D01*
X113017500Y-87296500D01*
X113014500Y-87295500D01*
X113012500Y-87293500D01*
X113010500Y-87292500D01*
X113008500Y-87290500D01*
X113006500Y-87289500D01*
X113004500Y-87287500D01*
X113002500Y-87285500D01*
X113000500Y-87283500D01*
X112998500Y-87281500D01*
X112997500Y-87279500D01*
X112995500Y-87277500D01*
X112994500Y-87275500D01*
X112992500Y-87273500D01*
X112991500Y-87270500D01*
X112990500Y-87268500D01*
X112989500Y-87265500D01*
X112989500Y-87263500D01*
X112988500Y-87260500D01*
X112988500Y-87258500D01*
X112987500Y-87255500D01*
X112987500Y-87253500D01*
X112987500Y-87250500D01*
X112987500Y-87100500D01*
X112987500Y-87097500D01*
X112987500Y-87095500D01*
X112988500Y-87092500D01*
X112988500Y-87090500D01*
X112989500Y-87087500D01*
X112989500Y-87085500D01*
X112990500Y-87082500D01*
X112991500Y-87080500D01*
X112992500Y-87077500D01*
X112994500Y-87075500D01*
X112995500Y-87073500D01*
X112997500Y-87071500D01*
X112998500Y-87069500D01*
X113000500Y-87067500D01*
X113002500Y-87065500D01*
X113004500Y-87063500D01*
X113006500Y-87061500D01*
X113008500Y-87060500D01*
X113010500Y-87058500D01*
X113012500Y-87057500D01*
X113014500Y-87055500D01*
X113017500Y-87054500D01*
X113019500Y-87053500D01*
X113022500Y-87052500D01*
X113024500Y-87052500D01*
X113027500Y-87051500D01*
X113029500Y-87051500D01*
X113032500Y-87050500D01*
X113034500Y-87050500D01*
X113037500Y-87050500D01*
X113487500Y-87050500D01*
X113490500Y-87050500D01*
X113492500Y-87050500D01*
X113495500Y-87051500D01*
G37*
X68245500Y-38051500D02*
X68247500Y-38051500D01*
X68250500Y-38052500D01*
X68252500Y-38052500D01*
X68255500Y-38053500D01*
X68257500Y-38054500D01*
X68260500Y-38055500D01*
X68262500Y-38057500D01*
X68264500Y-38058500D01*
X68266500Y-38060500D01*
X68268500Y-38061500D01*
X68270500Y-38063500D01*
X68272500Y-38065500D01*
X68274500Y-38067500D01*
X68276500Y-38069500D01*
X68277500Y-38071500D01*
X68279500Y-38073500D01*
X68280500Y-38075500D01*
X68282500Y-38077500D01*
X68283500Y-38080500D01*
X68284500Y-38082500D01*
X68285500Y-38085500D01*
X68285500Y-38087500D01*
X68286500Y-38090500D01*
X68286500Y-38092500D01*
X68287500Y-38095500D01*
X68287500Y-38097500D01*
X68287500Y-38100500D01*
X68287500Y-38250500D01*
X68287500Y-38253500D01*
X68287500Y-38255500D01*
X68286500Y-38258500D01*
X68286500Y-38260500D01*
X68285500Y-38263500D01*
X68285500Y-38265500D01*
X68284500Y-38268500D01*
X68283500Y-38270500D01*
X68282500Y-38273500D01*
X68280500Y-38275500D01*
X68279500Y-38277500D01*
X68277500Y-38279500D01*
X68276500Y-38281500D01*
X68274500Y-38283500D01*
X68272500Y-38285500D01*
X68270500Y-38287500D01*
X68268500Y-38289500D01*
X68266500Y-38290500D01*
X68264500Y-38292500D01*
X68262500Y-38293500D01*
X68260500Y-38295500D01*
X68257500Y-38296500D01*
X68255500Y-38297500D01*
X68252500Y-38298500D01*
X68250500Y-38298500D01*
X68247500Y-38299500D01*
X68245500Y-38299500D01*
X68242500Y-38300500D01*
X68240500Y-38300500D01*
X68237500Y-38300500D01*
X67787500Y-38300500D01*
X67784500Y-38300500D01*
X67782500Y-38300500D01*
X67779500Y-38299500D01*
X67777500Y-38299500D01*
X67774500Y-38298500D01*
X67772500Y-38298500D01*
X67769500Y-38297500D01*
X67767500Y-38296500D01*
X67764500Y-38295500D01*
X67762500Y-38293500D01*
X67760500Y-38292500D01*
X67758500Y-38290500D01*
X67756500Y-38289500D01*
X67754500Y-38287500D01*
X67752500Y-38285500D01*
X67750500Y-38283500D01*
X67748500Y-38281500D01*
X67747500Y-38279500D01*
X67745500Y-38277500D01*
X67744500Y-38275500D01*
X67742500Y-38273500D01*
X67741500Y-38270500D01*
X67740500Y-38268500D01*
X67739500Y-38265500D01*
X67739500Y-38263500D01*
X67738500Y-38260500D01*
X67738500Y-38258500D01*
X67737500Y-38255500D01*
X67737500Y-38253500D01*
X67737500Y-38250500D01*
X67737500Y-38100500D01*
X67737500Y-38097500D01*
X67737500Y-38095500D01*
X67738500Y-38092500D01*
X67738500Y-38090500D01*
X67739500Y-38087500D01*
X67739500Y-38085500D01*
X67740500Y-38082500D01*
X67741500Y-38080500D01*
X67742500Y-38077500D01*
X67744500Y-38075500D01*
X67745500Y-38073500D01*
X67747500Y-38071500D01*
X67748500Y-38069500D01*
X67750500Y-38067500D01*
X67752500Y-38065500D01*
X67754500Y-38063500D01*
X67756500Y-38061500D01*
X67758500Y-38060500D01*
X67760500Y-38058500D01*
X67762500Y-38057500D01*
X67764500Y-38055500D01*
X67767500Y-38054500D01*
X67769500Y-38053500D01*
X67772500Y-38052500D01*
X67774500Y-38052500D01*
X67777500Y-38051500D01*
X67779500Y-38051500D01*
X67782500Y-38050500D01*
X67784500Y-38050500D01*
X67787500Y-38050500D01*
X68237500Y-38050500D01*
X68240500Y-38050500D01*
X68242500Y-38050500D01*
X68245500Y-38051500D01*
G36*
X68245500Y-38051500D02*
G01*
X68247500Y-38051500D01*
X68250500Y-38052500D01*
X68252500Y-38052500D01*
X68255500Y-38053500D01*
X68257500Y-38054500D01*
X68260500Y-38055500D01*
X68262500Y-38057500D01*
X68264500Y-38058500D01*
X68266500Y-38060500D01*
X68268500Y-38061500D01*
X68270500Y-38063500D01*
X68272500Y-38065500D01*
X68274500Y-38067500D01*
X68276500Y-38069500D01*
X68277500Y-38071500D01*
X68279500Y-38073500D01*
X68280500Y-38075500D01*
X68282500Y-38077500D01*
X68283500Y-38080500D01*
X68284500Y-38082500D01*
X68285500Y-38085500D01*
X68285500Y-38087500D01*
X68286500Y-38090500D01*
X68286500Y-38092500D01*
X68287500Y-38095500D01*
X68287500Y-38097500D01*
X68287500Y-38100500D01*
X68287500Y-38250500D01*
X68287500Y-38253500D01*
X68287500Y-38255500D01*
X68286500Y-38258500D01*
X68286500Y-38260500D01*
X68285500Y-38263500D01*
X68285500Y-38265500D01*
X68284500Y-38268500D01*
X68283500Y-38270500D01*
X68282500Y-38273500D01*
X68280500Y-38275500D01*
X68279500Y-38277500D01*
X68277500Y-38279500D01*
X68276500Y-38281500D01*
X68274500Y-38283500D01*
X68272500Y-38285500D01*
X68270500Y-38287500D01*
X68268500Y-38289500D01*
X68266500Y-38290500D01*
X68264500Y-38292500D01*
X68262500Y-38293500D01*
X68260500Y-38295500D01*
X68257500Y-38296500D01*
X68255500Y-38297500D01*
X68252500Y-38298500D01*
X68250500Y-38298500D01*
X68247500Y-38299500D01*
X68245500Y-38299500D01*
X68242500Y-38300500D01*
X68240500Y-38300500D01*
X68237500Y-38300500D01*
X67787500Y-38300500D01*
X67784500Y-38300500D01*
X67782500Y-38300500D01*
X67779500Y-38299500D01*
X67777500Y-38299500D01*
X67774500Y-38298500D01*
X67772500Y-38298500D01*
X67769500Y-38297500D01*
X67767500Y-38296500D01*
X67764500Y-38295500D01*
X67762500Y-38293500D01*
X67760500Y-38292500D01*
X67758500Y-38290500D01*
X67756500Y-38289500D01*
X67754500Y-38287500D01*
X67752500Y-38285500D01*
X67750500Y-38283500D01*
X67748500Y-38281500D01*
X67747500Y-38279500D01*
X67745500Y-38277500D01*
X67744500Y-38275500D01*
X67742500Y-38273500D01*
X67741500Y-38270500D01*
X67740500Y-38268500D01*
X67739500Y-38265500D01*
X67739500Y-38263500D01*
X67738500Y-38260500D01*
X67738500Y-38258500D01*
X67737500Y-38255500D01*
X67737500Y-38253500D01*
X67737500Y-38250500D01*
X67737500Y-38100500D01*
X67737500Y-38097500D01*
X67737500Y-38095500D01*
X67738500Y-38092500D01*
X67738500Y-38090500D01*
X67739500Y-38087500D01*
X67739500Y-38085500D01*
X67740500Y-38082500D01*
X67741500Y-38080500D01*
X67742500Y-38077500D01*
X67744500Y-38075500D01*
X67745500Y-38073500D01*
X67747500Y-38071500D01*
X67748500Y-38069500D01*
X67750500Y-38067500D01*
X67752500Y-38065500D01*
X67754500Y-38063500D01*
X67756500Y-38061500D01*
X67758500Y-38060500D01*
X67760500Y-38058500D01*
X67762500Y-38057500D01*
X67764500Y-38055500D01*
X67767500Y-38054500D01*
X67769500Y-38053500D01*
X67772500Y-38052500D01*
X67774500Y-38052500D01*
X67777500Y-38051500D01*
X67779500Y-38051500D01*
X67782500Y-38050500D01*
X67784500Y-38050500D01*
X67787500Y-38050500D01*
X68237500Y-38050500D01*
X68240500Y-38050500D01*
X68242500Y-38050500D01*
X68245500Y-38051500D01*
G37*
X68995500Y-38051500D02*
X68997500Y-38051500D01*
X69000500Y-38052500D01*
X69002500Y-38052500D01*
X69005500Y-38053500D01*
X69007500Y-38054500D01*
X69010500Y-38055500D01*
X69012500Y-38057500D01*
X69014500Y-38058500D01*
X69016500Y-38060500D01*
X69018500Y-38061500D01*
X69020500Y-38063500D01*
X69022500Y-38065500D01*
X69024500Y-38067500D01*
X69026500Y-38069500D01*
X69027500Y-38071500D01*
X69029500Y-38073500D01*
X69030500Y-38075500D01*
X69032500Y-38077500D01*
X69033500Y-38080500D01*
X69034500Y-38082500D01*
X69035500Y-38085500D01*
X69035500Y-38087500D01*
X69036500Y-38090500D01*
X69036500Y-38092500D01*
X69037500Y-38095500D01*
X69037500Y-38097500D01*
X69037500Y-38100500D01*
X69037500Y-38250500D01*
X69037500Y-38253500D01*
X69037500Y-38255500D01*
X69036500Y-38258500D01*
X69036500Y-38260500D01*
X69035500Y-38263500D01*
X69035500Y-38265500D01*
X69034500Y-38268500D01*
X69033500Y-38270500D01*
X69032500Y-38273500D01*
X69030500Y-38275500D01*
X69029500Y-38277500D01*
X69027500Y-38279500D01*
X69026500Y-38281500D01*
X69024500Y-38283500D01*
X69022500Y-38285500D01*
X69020500Y-38287500D01*
X69018500Y-38289500D01*
X69016500Y-38290500D01*
X69014500Y-38292500D01*
X69012500Y-38293500D01*
X69010500Y-38295500D01*
X69007500Y-38296500D01*
X69005500Y-38297500D01*
X69002500Y-38298500D01*
X69000500Y-38298500D01*
X68997500Y-38299500D01*
X68995500Y-38299500D01*
X68992500Y-38300500D01*
X68990500Y-38300500D01*
X68987500Y-38300500D01*
X68537500Y-38300500D01*
X68534500Y-38300500D01*
X68532500Y-38300500D01*
X68529500Y-38299500D01*
X68527500Y-38299500D01*
X68524500Y-38298500D01*
X68522500Y-38298500D01*
X68519500Y-38297500D01*
X68517500Y-38296500D01*
X68514500Y-38295500D01*
X68512500Y-38293500D01*
X68510500Y-38292500D01*
X68508500Y-38290500D01*
X68506500Y-38289500D01*
X68504500Y-38287500D01*
X68502500Y-38285500D01*
X68500500Y-38283500D01*
X68498500Y-38281500D01*
X68497500Y-38279500D01*
X68495500Y-38277500D01*
X68494500Y-38275500D01*
X68492500Y-38273500D01*
X68491500Y-38270500D01*
X68490500Y-38268500D01*
X68489500Y-38265500D01*
X68489500Y-38263500D01*
X68488500Y-38260500D01*
X68488500Y-38258500D01*
X68487500Y-38255500D01*
X68487500Y-38253500D01*
X68487500Y-38250500D01*
X68487500Y-38100500D01*
X68487500Y-38097500D01*
X68487500Y-38095500D01*
X68488500Y-38092500D01*
X68488500Y-38090500D01*
X68489500Y-38087500D01*
X68489500Y-38085500D01*
X68490500Y-38082500D01*
X68491500Y-38080500D01*
X68492500Y-38077500D01*
X68494500Y-38075500D01*
X68495500Y-38073500D01*
X68497500Y-38071500D01*
X68498500Y-38069500D01*
X68500500Y-38067500D01*
X68502500Y-38065500D01*
X68504500Y-38063500D01*
X68506500Y-38061500D01*
X68508500Y-38060500D01*
X68510500Y-38058500D01*
X68512500Y-38057500D01*
X68514500Y-38055500D01*
X68517500Y-38054500D01*
X68519500Y-38053500D01*
X68522500Y-38052500D01*
X68524500Y-38052500D01*
X68527500Y-38051500D01*
X68529500Y-38051500D01*
X68532500Y-38050500D01*
X68534500Y-38050500D01*
X68537500Y-38050500D01*
X68987500Y-38050500D01*
X68990500Y-38050500D01*
X68992500Y-38050500D01*
X68995500Y-38051500D01*
G36*
X68995500Y-38051500D02*
G01*
X68997500Y-38051500D01*
X69000500Y-38052500D01*
X69002500Y-38052500D01*
X69005500Y-38053500D01*
X69007500Y-38054500D01*
X69010500Y-38055500D01*
X69012500Y-38057500D01*
X69014500Y-38058500D01*
X69016500Y-38060500D01*
X69018500Y-38061500D01*
X69020500Y-38063500D01*
X69022500Y-38065500D01*
X69024500Y-38067500D01*
X69026500Y-38069500D01*
X69027500Y-38071500D01*
X69029500Y-38073500D01*
X69030500Y-38075500D01*
X69032500Y-38077500D01*
X69033500Y-38080500D01*
X69034500Y-38082500D01*
X69035500Y-38085500D01*
X69035500Y-38087500D01*
X69036500Y-38090500D01*
X69036500Y-38092500D01*
X69037500Y-38095500D01*
X69037500Y-38097500D01*
X69037500Y-38100500D01*
X69037500Y-38250500D01*
X69037500Y-38253500D01*
X69037500Y-38255500D01*
X69036500Y-38258500D01*
X69036500Y-38260500D01*
X69035500Y-38263500D01*
X69035500Y-38265500D01*
X69034500Y-38268500D01*
X69033500Y-38270500D01*
X69032500Y-38273500D01*
X69030500Y-38275500D01*
X69029500Y-38277500D01*
X69027500Y-38279500D01*
X69026500Y-38281500D01*
X69024500Y-38283500D01*
X69022500Y-38285500D01*
X69020500Y-38287500D01*
X69018500Y-38289500D01*
X69016500Y-38290500D01*
X69014500Y-38292500D01*
X69012500Y-38293500D01*
X69010500Y-38295500D01*
X69007500Y-38296500D01*
X69005500Y-38297500D01*
X69002500Y-38298500D01*
X69000500Y-38298500D01*
X68997500Y-38299500D01*
X68995500Y-38299500D01*
X68992500Y-38300500D01*
X68990500Y-38300500D01*
X68987500Y-38300500D01*
X68537500Y-38300500D01*
X68534500Y-38300500D01*
X68532500Y-38300500D01*
X68529500Y-38299500D01*
X68527500Y-38299500D01*
X68524500Y-38298500D01*
X68522500Y-38298500D01*
X68519500Y-38297500D01*
X68517500Y-38296500D01*
X68514500Y-38295500D01*
X68512500Y-38293500D01*
X68510500Y-38292500D01*
X68508500Y-38290500D01*
X68506500Y-38289500D01*
X68504500Y-38287500D01*
X68502500Y-38285500D01*
X68500500Y-38283500D01*
X68498500Y-38281500D01*
X68497500Y-38279500D01*
X68495500Y-38277500D01*
X68494500Y-38275500D01*
X68492500Y-38273500D01*
X68491500Y-38270500D01*
X68490500Y-38268500D01*
X68489500Y-38265500D01*
X68489500Y-38263500D01*
X68488500Y-38260500D01*
X68488500Y-38258500D01*
X68487500Y-38255500D01*
X68487500Y-38253500D01*
X68487500Y-38250500D01*
X68487500Y-38100500D01*
X68487500Y-38097500D01*
X68487500Y-38095500D01*
X68488500Y-38092500D01*
X68488500Y-38090500D01*
X68489500Y-38087500D01*
X68489500Y-38085500D01*
X68490500Y-38082500D01*
X68491500Y-38080500D01*
X68492500Y-38077500D01*
X68494500Y-38075500D01*
X68495500Y-38073500D01*
X68497500Y-38071500D01*
X68498500Y-38069500D01*
X68500500Y-38067500D01*
X68502500Y-38065500D01*
X68504500Y-38063500D01*
X68506500Y-38061500D01*
X68508500Y-38060500D01*
X68510500Y-38058500D01*
X68512500Y-38057500D01*
X68514500Y-38055500D01*
X68517500Y-38054500D01*
X68519500Y-38053500D01*
X68522500Y-38052500D01*
X68524500Y-38052500D01*
X68527500Y-38051500D01*
X68529500Y-38051500D01*
X68532500Y-38050500D01*
X68534500Y-38050500D01*
X68537500Y-38050500D01*
X68987500Y-38050500D01*
X68990500Y-38050500D01*
X68992500Y-38050500D01*
X68995500Y-38051500D01*
G37*
X157245500Y-87051500D02*
X157247500Y-87051500D01*
X157250500Y-87052500D01*
X157252500Y-87052500D01*
X157255500Y-87053500D01*
X157257500Y-87054500D01*
X157260500Y-87055500D01*
X157262500Y-87057500D01*
X157264500Y-87058500D01*
X157266500Y-87060500D01*
X157268500Y-87061500D01*
X157270500Y-87063500D01*
X157272500Y-87065500D01*
X157274500Y-87067500D01*
X157276500Y-87069500D01*
X157277500Y-87071500D01*
X157279500Y-87073500D01*
X157280500Y-87075500D01*
X157282500Y-87077500D01*
X157283500Y-87080500D01*
X157284500Y-87082500D01*
X157285500Y-87085500D01*
X157285500Y-87087500D01*
X157286500Y-87090500D01*
X157286500Y-87092500D01*
X157287500Y-87095500D01*
X157287500Y-87097500D01*
X157287500Y-87100500D01*
X157287500Y-87250500D01*
X157287500Y-87253500D01*
X157287500Y-87255500D01*
X157286500Y-87258500D01*
X157286500Y-87260500D01*
X157285500Y-87263500D01*
X157285500Y-87265500D01*
X157284500Y-87268500D01*
X157283500Y-87270500D01*
X157282500Y-87273500D01*
X157280500Y-87275500D01*
X157279500Y-87277500D01*
X157277500Y-87279500D01*
X157276500Y-87281500D01*
X157274500Y-87283500D01*
X157272500Y-87285500D01*
X157270500Y-87287500D01*
X157268500Y-87289500D01*
X157266500Y-87290500D01*
X157264500Y-87292500D01*
X157262500Y-87293500D01*
X157260500Y-87295500D01*
X157257500Y-87296500D01*
X157255500Y-87297500D01*
X157252500Y-87298500D01*
X157250500Y-87298500D01*
X157247500Y-87299500D01*
X157245500Y-87299500D01*
X157242500Y-87300500D01*
X157240500Y-87300500D01*
X157237500Y-87300500D01*
X156787500Y-87300500D01*
X156784500Y-87300500D01*
X156782500Y-87300500D01*
X156779500Y-87299500D01*
X156777500Y-87299500D01*
X156774500Y-87298500D01*
X156772500Y-87298500D01*
X156769500Y-87297500D01*
X156767500Y-87296500D01*
X156764500Y-87295500D01*
X156762500Y-87293500D01*
X156760500Y-87292500D01*
X156758500Y-87290500D01*
X156756500Y-87289500D01*
X156754500Y-87287500D01*
X156752500Y-87285500D01*
X156750500Y-87283500D01*
X156748500Y-87281500D01*
X156747500Y-87279500D01*
X156745500Y-87277500D01*
X156744500Y-87275500D01*
X156742500Y-87273500D01*
X156741500Y-87270500D01*
X156740500Y-87268500D01*
X156739500Y-87265500D01*
X156739500Y-87263500D01*
X156738500Y-87260500D01*
X156738500Y-87258500D01*
X156737500Y-87255500D01*
X156737500Y-87253500D01*
X156737500Y-87250500D01*
X156737500Y-87100500D01*
X156737500Y-87097500D01*
X156737500Y-87095500D01*
X156738500Y-87092500D01*
X156738500Y-87090500D01*
X156739500Y-87087500D01*
X156739500Y-87085500D01*
X156740500Y-87082500D01*
X156741500Y-87080500D01*
X156742500Y-87077500D01*
X156744500Y-87075500D01*
X156745500Y-87073500D01*
X156747500Y-87071500D01*
X156748500Y-87069500D01*
X156750500Y-87067500D01*
X156752500Y-87065500D01*
X156754500Y-87063500D01*
X156756500Y-87061500D01*
X156758500Y-87060500D01*
X156760500Y-87058500D01*
X156762500Y-87057500D01*
X156764500Y-87055500D01*
X156767500Y-87054500D01*
X156769500Y-87053500D01*
X156772500Y-87052500D01*
X156774500Y-87052500D01*
X156777500Y-87051500D01*
X156779500Y-87051500D01*
X156782500Y-87050500D01*
X156784500Y-87050500D01*
X156787500Y-87050500D01*
X157237500Y-87050500D01*
X157240500Y-87050500D01*
X157242500Y-87050500D01*
X157245500Y-87051500D01*
G36*
X157245500Y-87051500D02*
G01*
X157247500Y-87051500D01*
X157250500Y-87052500D01*
X157252500Y-87052500D01*
X157255500Y-87053500D01*
X157257500Y-87054500D01*
X157260500Y-87055500D01*
X157262500Y-87057500D01*
X157264500Y-87058500D01*
X157266500Y-87060500D01*
X157268500Y-87061500D01*
X157270500Y-87063500D01*
X157272500Y-87065500D01*
X157274500Y-87067500D01*
X157276500Y-87069500D01*
X157277500Y-87071500D01*
X157279500Y-87073500D01*
X157280500Y-87075500D01*
X157282500Y-87077500D01*
X157283500Y-87080500D01*
X157284500Y-87082500D01*
X157285500Y-87085500D01*
X157285500Y-87087500D01*
X157286500Y-87090500D01*
X157286500Y-87092500D01*
X157287500Y-87095500D01*
X157287500Y-87097500D01*
X157287500Y-87100500D01*
X157287500Y-87250500D01*
X157287500Y-87253500D01*
X157287500Y-87255500D01*
X157286500Y-87258500D01*
X157286500Y-87260500D01*
X157285500Y-87263500D01*
X157285500Y-87265500D01*
X157284500Y-87268500D01*
X157283500Y-87270500D01*
X157282500Y-87273500D01*
X157280500Y-87275500D01*
X157279500Y-87277500D01*
X157277500Y-87279500D01*
X157276500Y-87281500D01*
X157274500Y-87283500D01*
X157272500Y-87285500D01*
X157270500Y-87287500D01*
X157268500Y-87289500D01*
X157266500Y-87290500D01*
X157264500Y-87292500D01*
X157262500Y-87293500D01*
X157260500Y-87295500D01*
X157257500Y-87296500D01*
X157255500Y-87297500D01*
X157252500Y-87298500D01*
X157250500Y-87298500D01*
X157247500Y-87299500D01*
X157245500Y-87299500D01*
X157242500Y-87300500D01*
X157240500Y-87300500D01*
X157237500Y-87300500D01*
X156787500Y-87300500D01*
X156784500Y-87300500D01*
X156782500Y-87300500D01*
X156779500Y-87299500D01*
X156777500Y-87299500D01*
X156774500Y-87298500D01*
X156772500Y-87298500D01*
X156769500Y-87297500D01*
X156767500Y-87296500D01*
X156764500Y-87295500D01*
X156762500Y-87293500D01*
X156760500Y-87292500D01*
X156758500Y-87290500D01*
X156756500Y-87289500D01*
X156754500Y-87287500D01*
X156752500Y-87285500D01*
X156750500Y-87283500D01*
X156748500Y-87281500D01*
X156747500Y-87279500D01*
X156745500Y-87277500D01*
X156744500Y-87275500D01*
X156742500Y-87273500D01*
X156741500Y-87270500D01*
X156740500Y-87268500D01*
X156739500Y-87265500D01*
X156739500Y-87263500D01*
X156738500Y-87260500D01*
X156738500Y-87258500D01*
X156737500Y-87255500D01*
X156737500Y-87253500D01*
X156737500Y-87250500D01*
X156737500Y-87100500D01*
X156737500Y-87097500D01*
X156737500Y-87095500D01*
X156738500Y-87092500D01*
X156738500Y-87090500D01*
X156739500Y-87087500D01*
X156739500Y-87085500D01*
X156740500Y-87082500D01*
X156741500Y-87080500D01*
X156742500Y-87077500D01*
X156744500Y-87075500D01*
X156745500Y-87073500D01*
X156747500Y-87071500D01*
X156748500Y-87069500D01*
X156750500Y-87067500D01*
X156752500Y-87065500D01*
X156754500Y-87063500D01*
X156756500Y-87061500D01*
X156758500Y-87060500D01*
X156760500Y-87058500D01*
X156762500Y-87057500D01*
X156764500Y-87055500D01*
X156767500Y-87054500D01*
X156769500Y-87053500D01*
X156772500Y-87052500D01*
X156774500Y-87052500D01*
X156777500Y-87051500D01*
X156779500Y-87051500D01*
X156782500Y-87050500D01*
X156784500Y-87050500D01*
X156787500Y-87050500D01*
X157237500Y-87050500D01*
X157240500Y-87050500D01*
X157242500Y-87050500D01*
X157245500Y-87051500D01*
G37*
X157995500Y-87051500D02*
X157997500Y-87051500D01*
X158000500Y-87052500D01*
X158002500Y-87052500D01*
X158005500Y-87053500D01*
X158007500Y-87054500D01*
X158010500Y-87055500D01*
X158012500Y-87057500D01*
X158014500Y-87058500D01*
X158016500Y-87060500D01*
X158018500Y-87061500D01*
X158020500Y-87063500D01*
X158022500Y-87065500D01*
X158024500Y-87067500D01*
X158026500Y-87069500D01*
X158027500Y-87071500D01*
X158029500Y-87073500D01*
X158030500Y-87075500D01*
X158032500Y-87077500D01*
X158033500Y-87080500D01*
X158034500Y-87082500D01*
X158035500Y-87085500D01*
X158035500Y-87087500D01*
X158036500Y-87090500D01*
X158036500Y-87092500D01*
X158037500Y-87095500D01*
X158037500Y-87097500D01*
X158037500Y-87100500D01*
X158037500Y-87250500D01*
X158037500Y-87253500D01*
X158037500Y-87255500D01*
X158036500Y-87258500D01*
X158036500Y-87260500D01*
X158035500Y-87263500D01*
X158035500Y-87265500D01*
X158034500Y-87268500D01*
X158033500Y-87270500D01*
X158032500Y-87273500D01*
X158030500Y-87275500D01*
X158029500Y-87277500D01*
X158027500Y-87279500D01*
X158026500Y-87281500D01*
X158024500Y-87283500D01*
X158022500Y-87285500D01*
X158020500Y-87287500D01*
X158018500Y-87289500D01*
X158016500Y-87290500D01*
X158014500Y-87292500D01*
X158012500Y-87293500D01*
X158010500Y-87295500D01*
X158007500Y-87296500D01*
X158005500Y-87297500D01*
X158002500Y-87298500D01*
X158000500Y-87298500D01*
X157997500Y-87299500D01*
X157995500Y-87299500D01*
X157992500Y-87300500D01*
X157990500Y-87300500D01*
X157987500Y-87300500D01*
X157537500Y-87300500D01*
X157534500Y-87300500D01*
X157532500Y-87300500D01*
X157529500Y-87299500D01*
X157527500Y-87299500D01*
X157524500Y-87298500D01*
X157522500Y-87298500D01*
X157519500Y-87297500D01*
X157517500Y-87296500D01*
X157514500Y-87295500D01*
X157512500Y-87293500D01*
X157510500Y-87292500D01*
X157508500Y-87290500D01*
X157506500Y-87289500D01*
X157504500Y-87287500D01*
X157502500Y-87285500D01*
X157500500Y-87283500D01*
X157498500Y-87281500D01*
X157497500Y-87279500D01*
X157495500Y-87277500D01*
X157494500Y-87275500D01*
X157492500Y-87273500D01*
X157491500Y-87270500D01*
X157490500Y-87268500D01*
X157489500Y-87265500D01*
X157489500Y-87263500D01*
X157488500Y-87260500D01*
X157488500Y-87258500D01*
X157487500Y-87255500D01*
X157487500Y-87253500D01*
X157487500Y-87250500D01*
X157487500Y-87100500D01*
X157487500Y-87097500D01*
X157487500Y-87095500D01*
X157488500Y-87092500D01*
X157488500Y-87090500D01*
X157489500Y-87087500D01*
X157489500Y-87085500D01*
X157490500Y-87082500D01*
X157491500Y-87080500D01*
X157492500Y-87077500D01*
X157494500Y-87075500D01*
X157495500Y-87073500D01*
X157497500Y-87071500D01*
X157498500Y-87069500D01*
X157500500Y-87067500D01*
X157502500Y-87065500D01*
X157504500Y-87063500D01*
X157506500Y-87061500D01*
X157508500Y-87060500D01*
X157510500Y-87058500D01*
X157512500Y-87057500D01*
X157514500Y-87055500D01*
X157517500Y-87054500D01*
X157519500Y-87053500D01*
X157522500Y-87052500D01*
X157524500Y-87052500D01*
X157527500Y-87051500D01*
X157529500Y-87051500D01*
X157532500Y-87050500D01*
X157534500Y-87050500D01*
X157537500Y-87050500D01*
X157987500Y-87050500D01*
X157990500Y-87050500D01*
X157992500Y-87050500D01*
X157995500Y-87051500D01*
G36*
X157995500Y-87051500D02*
G01*
X157997500Y-87051500D01*
X158000500Y-87052500D01*
X158002500Y-87052500D01*
X158005500Y-87053500D01*
X158007500Y-87054500D01*
X158010500Y-87055500D01*
X158012500Y-87057500D01*
X158014500Y-87058500D01*
X158016500Y-87060500D01*
X158018500Y-87061500D01*
X158020500Y-87063500D01*
X158022500Y-87065500D01*
X158024500Y-87067500D01*
X158026500Y-87069500D01*
X158027500Y-87071500D01*
X158029500Y-87073500D01*
X158030500Y-87075500D01*
X158032500Y-87077500D01*
X158033500Y-87080500D01*
X158034500Y-87082500D01*
X158035500Y-87085500D01*
X158035500Y-87087500D01*
X158036500Y-87090500D01*
X158036500Y-87092500D01*
X158037500Y-87095500D01*
X158037500Y-87097500D01*
X158037500Y-87100500D01*
X158037500Y-87250500D01*
X158037500Y-87253500D01*
X158037500Y-87255500D01*
X158036500Y-87258500D01*
X158036500Y-87260500D01*
X158035500Y-87263500D01*
X158035500Y-87265500D01*
X158034500Y-87268500D01*
X158033500Y-87270500D01*
X158032500Y-87273500D01*
X158030500Y-87275500D01*
X158029500Y-87277500D01*
X158027500Y-87279500D01*
X158026500Y-87281500D01*
X158024500Y-87283500D01*
X158022500Y-87285500D01*
X158020500Y-87287500D01*
X158018500Y-87289500D01*
X158016500Y-87290500D01*
X158014500Y-87292500D01*
X158012500Y-87293500D01*
X158010500Y-87295500D01*
X158007500Y-87296500D01*
X158005500Y-87297500D01*
X158002500Y-87298500D01*
X158000500Y-87298500D01*
X157997500Y-87299500D01*
X157995500Y-87299500D01*
X157992500Y-87300500D01*
X157990500Y-87300500D01*
X157987500Y-87300500D01*
X157537500Y-87300500D01*
X157534500Y-87300500D01*
X157532500Y-87300500D01*
X157529500Y-87299500D01*
X157527500Y-87299500D01*
X157524500Y-87298500D01*
X157522500Y-87298500D01*
X157519500Y-87297500D01*
X157517500Y-87296500D01*
X157514500Y-87295500D01*
X157512500Y-87293500D01*
X157510500Y-87292500D01*
X157508500Y-87290500D01*
X157506500Y-87289500D01*
X157504500Y-87287500D01*
X157502500Y-87285500D01*
X157500500Y-87283500D01*
X157498500Y-87281500D01*
X157497500Y-87279500D01*
X157495500Y-87277500D01*
X157494500Y-87275500D01*
X157492500Y-87273500D01*
X157491500Y-87270500D01*
X157490500Y-87268500D01*
X157489500Y-87265500D01*
X157489500Y-87263500D01*
X157488500Y-87260500D01*
X157488500Y-87258500D01*
X157487500Y-87255500D01*
X157487500Y-87253500D01*
X157487500Y-87250500D01*
X157487500Y-87100500D01*
X157487500Y-87097500D01*
X157487500Y-87095500D01*
X157488500Y-87092500D01*
X157488500Y-87090500D01*
X157489500Y-87087500D01*
X157489500Y-87085500D01*
X157490500Y-87082500D01*
X157491500Y-87080500D01*
X157492500Y-87077500D01*
X157494500Y-87075500D01*
X157495500Y-87073500D01*
X157497500Y-87071500D01*
X157498500Y-87069500D01*
X157500500Y-87067500D01*
X157502500Y-87065500D01*
X157504500Y-87063500D01*
X157506500Y-87061500D01*
X157508500Y-87060500D01*
X157510500Y-87058500D01*
X157512500Y-87057500D01*
X157514500Y-87055500D01*
X157517500Y-87054500D01*
X157519500Y-87053500D01*
X157522500Y-87052500D01*
X157524500Y-87052500D01*
X157527500Y-87051500D01*
X157529500Y-87051500D01*
X157532500Y-87050500D01*
X157534500Y-87050500D01*
X157537500Y-87050500D01*
X157987500Y-87050500D01*
X157990500Y-87050500D01*
X157992500Y-87050500D01*
X157995500Y-87051500D01*
G37*
X157245500Y-38051500D02*
X157247500Y-38051500D01*
X157250500Y-38052500D01*
X157252500Y-38052500D01*
X157255500Y-38053500D01*
X157257500Y-38054500D01*
X157260500Y-38055500D01*
X157262500Y-38057500D01*
X157264500Y-38058500D01*
X157266500Y-38060500D01*
X157268500Y-38061500D01*
X157270500Y-38063500D01*
X157272500Y-38065500D01*
X157274500Y-38067500D01*
X157276500Y-38069500D01*
X157277500Y-38071500D01*
X157279500Y-38073500D01*
X157280500Y-38075500D01*
X157282500Y-38077500D01*
X157283500Y-38080500D01*
X157284500Y-38082500D01*
X157285500Y-38085500D01*
X157285500Y-38087500D01*
X157286500Y-38090500D01*
X157286500Y-38092500D01*
X157287500Y-38095500D01*
X157287500Y-38097500D01*
X157287500Y-38100500D01*
X157287500Y-38250500D01*
X157287500Y-38253500D01*
X157287500Y-38255500D01*
X157286500Y-38258500D01*
X157286500Y-38260500D01*
X157285500Y-38263500D01*
X157285500Y-38265500D01*
X157284500Y-38268500D01*
X157283500Y-38270500D01*
X157282500Y-38273500D01*
X157280500Y-38275500D01*
X157279500Y-38277500D01*
X157277500Y-38279500D01*
X157276500Y-38281500D01*
X157274500Y-38283500D01*
X157272500Y-38285500D01*
X157270500Y-38287500D01*
X157268500Y-38289500D01*
X157266500Y-38290500D01*
X157264500Y-38292500D01*
X157262500Y-38293500D01*
X157260500Y-38295500D01*
X157257500Y-38296500D01*
X157255500Y-38297500D01*
X157252500Y-38298500D01*
X157250500Y-38298500D01*
X157247500Y-38299500D01*
X157245500Y-38299500D01*
X157242500Y-38300500D01*
X157240500Y-38300500D01*
X157237500Y-38300500D01*
X156787500Y-38300500D01*
X156784500Y-38300500D01*
X156782500Y-38300500D01*
X156779500Y-38299500D01*
X156777500Y-38299500D01*
X156774500Y-38298500D01*
X156772500Y-38298500D01*
X156769500Y-38297500D01*
X156767500Y-38296500D01*
X156764500Y-38295500D01*
X156762500Y-38293500D01*
X156760500Y-38292500D01*
X156758500Y-38290500D01*
X156756500Y-38289500D01*
X156754500Y-38287500D01*
X156752500Y-38285500D01*
X156750500Y-38283500D01*
X156748500Y-38281500D01*
X156747500Y-38279500D01*
X156745500Y-38277500D01*
X156744500Y-38275500D01*
X156742500Y-38273500D01*
X156741500Y-38270500D01*
X156740500Y-38268500D01*
X156739500Y-38265500D01*
X156739500Y-38263500D01*
X156738500Y-38260500D01*
X156738500Y-38258500D01*
X156737500Y-38255500D01*
X156737500Y-38253500D01*
X156737500Y-38250500D01*
X156737500Y-38100500D01*
X156737500Y-38097500D01*
X156737500Y-38095500D01*
X156738500Y-38092500D01*
X156738500Y-38090500D01*
X156739500Y-38087500D01*
X156739500Y-38085500D01*
X156740500Y-38082500D01*
X156741500Y-38080500D01*
X156742500Y-38077500D01*
X156744500Y-38075500D01*
X156745500Y-38073500D01*
X156747500Y-38071500D01*
X156748500Y-38069500D01*
X156750500Y-38067500D01*
X156752500Y-38065500D01*
X156754500Y-38063500D01*
X156756500Y-38061500D01*
X156758500Y-38060500D01*
X156760500Y-38058500D01*
X156762500Y-38057500D01*
X156764500Y-38055500D01*
X156767500Y-38054500D01*
X156769500Y-38053500D01*
X156772500Y-38052500D01*
X156774500Y-38052500D01*
X156777500Y-38051500D01*
X156779500Y-38051500D01*
X156782500Y-38050500D01*
X156784500Y-38050500D01*
X156787500Y-38050500D01*
X157237500Y-38050500D01*
X157240500Y-38050500D01*
X157242500Y-38050500D01*
X157245500Y-38051500D01*
G36*
X157245500Y-38051500D02*
G01*
X157247500Y-38051500D01*
X157250500Y-38052500D01*
X157252500Y-38052500D01*
X157255500Y-38053500D01*
X157257500Y-38054500D01*
X157260500Y-38055500D01*
X157262500Y-38057500D01*
X157264500Y-38058500D01*
X157266500Y-38060500D01*
X157268500Y-38061500D01*
X157270500Y-38063500D01*
X157272500Y-38065500D01*
X157274500Y-38067500D01*
X157276500Y-38069500D01*
X157277500Y-38071500D01*
X157279500Y-38073500D01*
X157280500Y-38075500D01*
X157282500Y-38077500D01*
X157283500Y-38080500D01*
X157284500Y-38082500D01*
X157285500Y-38085500D01*
X157285500Y-38087500D01*
X157286500Y-38090500D01*
X157286500Y-38092500D01*
X157287500Y-38095500D01*
X157287500Y-38097500D01*
X157287500Y-38100500D01*
X157287500Y-38250500D01*
X157287500Y-38253500D01*
X157287500Y-38255500D01*
X157286500Y-38258500D01*
X157286500Y-38260500D01*
X157285500Y-38263500D01*
X157285500Y-38265500D01*
X157284500Y-38268500D01*
X157283500Y-38270500D01*
X157282500Y-38273500D01*
X157280500Y-38275500D01*
X157279500Y-38277500D01*
X157277500Y-38279500D01*
X157276500Y-38281500D01*
X157274500Y-38283500D01*
X157272500Y-38285500D01*
X157270500Y-38287500D01*
X157268500Y-38289500D01*
X157266500Y-38290500D01*
X157264500Y-38292500D01*
X157262500Y-38293500D01*
X157260500Y-38295500D01*
X157257500Y-38296500D01*
X157255500Y-38297500D01*
X157252500Y-38298500D01*
X157250500Y-38298500D01*
X157247500Y-38299500D01*
X157245500Y-38299500D01*
X157242500Y-38300500D01*
X157240500Y-38300500D01*
X157237500Y-38300500D01*
X156787500Y-38300500D01*
X156784500Y-38300500D01*
X156782500Y-38300500D01*
X156779500Y-38299500D01*
X156777500Y-38299500D01*
X156774500Y-38298500D01*
X156772500Y-38298500D01*
X156769500Y-38297500D01*
X156767500Y-38296500D01*
X156764500Y-38295500D01*
X156762500Y-38293500D01*
X156760500Y-38292500D01*
X156758500Y-38290500D01*
X156756500Y-38289500D01*
X156754500Y-38287500D01*
X156752500Y-38285500D01*
X156750500Y-38283500D01*
X156748500Y-38281500D01*
X156747500Y-38279500D01*
X156745500Y-38277500D01*
X156744500Y-38275500D01*
X156742500Y-38273500D01*
X156741500Y-38270500D01*
X156740500Y-38268500D01*
X156739500Y-38265500D01*
X156739500Y-38263500D01*
X156738500Y-38260500D01*
X156738500Y-38258500D01*
X156737500Y-38255500D01*
X156737500Y-38253500D01*
X156737500Y-38250500D01*
X156737500Y-38100500D01*
X156737500Y-38097500D01*
X156737500Y-38095500D01*
X156738500Y-38092500D01*
X156738500Y-38090500D01*
X156739500Y-38087500D01*
X156739500Y-38085500D01*
X156740500Y-38082500D01*
X156741500Y-38080500D01*
X156742500Y-38077500D01*
X156744500Y-38075500D01*
X156745500Y-38073500D01*
X156747500Y-38071500D01*
X156748500Y-38069500D01*
X156750500Y-38067500D01*
X156752500Y-38065500D01*
X156754500Y-38063500D01*
X156756500Y-38061500D01*
X156758500Y-38060500D01*
X156760500Y-38058500D01*
X156762500Y-38057500D01*
X156764500Y-38055500D01*
X156767500Y-38054500D01*
X156769500Y-38053500D01*
X156772500Y-38052500D01*
X156774500Y-38052500D01*
X156777500Y-38051500D01*
X156779500Y-38051500D01*
X156782500Y-38050500D01*
X156784500Y-38050500D01*
X156787500Y-38050500D01*
X157237500Y-38050500D01*
X157240500Y-38050500D01*
X157242500Y-38050500D01*
X157245500Y-38051500D01*
G37*
X157995500Y-38051500D02*
X157997500Y-38051500D01*
X158000500Y-38052500D01*
X158002500Y-38052500D01*
X158005500Y-38053500D01*
X158007500Y-38054500D01*
X158010500Y-38055500D01*
X158012500Y-38057500D01*
X158014500Y-38058500D01*
X158016500Y-38060500D01*
X158018500Y-38061500D01*
X158020500Y-38063500D01*
X158022500Y-38065500D01*
X158024500Y-38067500D01*
X158026500Y-38069500D01*
X158027500Y-38071500D01*
X158029500Y-38073500D01*
X158030500Y-38075500D01*
X158032500Y-38077500D01*
X158033500Y-38080500D01*
X158034500Y-38082500D01*
X158035500Y-38085500D01*
X158035500Y-38087500D01*
X158036500Y-38090500D01*
X158036500Y-38092500D01*
X158037500Y-38095500D01*
X158037500Y-38097500D01*
X158037500Y-38100500D01*
X158037500Y-38250500D01*
X158037500Y-38253500D01*
X158037500Y-38255500D01*
X158036500Y-38258500D01*
X158036500Y-38260500D01*
X158035500Y-38263500D01*
X158035500Y-38265500D01*
X158034500Y-38268500D01*
X158033500Y-38270500D01*
X158032500Y-38273500D01*
X158030500Y-38275500D01*
X158029500Y-38277500D01*
X158027500Y-38279500D01*
X158026500Y-38281500D01*
X158024500Y-38283500D01*
X158022500Y-38285500D01*
X158020500Y-38287500D01*
X158018500Y-38289500D01*
X158016500Y-38290500D01*
X158014500Y-38292500D01*
X158012500Y-38293500D01*
X158010500Y-38295500D01*
X158007500Y-38296500D01*
X158005500Y-38297500D01*
X158002500Y-38298500D01*
X158000500Y-38298500D01*
X157997500Y-38299500D01*
X157995500Y-38299500D01*
X157992500Y-38300500D01*
X157990500Y-38300500D01*
X157987500Y-38300500D01*
X157537500Y-38300500D01*
X157534500Y-38300500D01*
X157532500Y-38300500D01*
X157529500Y-38299500D01*
X157527500Y-38299500D01*
X157524500Y-38298500D01*
X157522500Y-38298500D01*
X157519500Y-38297500D01*
X157517500Y-38296500D01*
X157514500Y-38295500D01*
X157512500Y-38293500D01*
X157510500Y-38292500D01*
X157508500Y-38290500D01*
X157506500Y-38289500D01*
X157504500Y-38287500D01*
X157502500Y-38285500D01*
X157500500Y-38283500D01*
X157498500Y-38281500D01*
X157497500Y-38279500D01*
X157495500Y-38277500D01*
X157494500Y-38275500D01*
X157492500Y-38273500D01*
X157491500Y-38270500D01*
X157490500Y-38268500D01*
X157489500Y-38265500D01*
X157489500Y-38263500D01*
X157488500Y-38260500D01*
X157488500Y-38258500D01*
X157487500Y-38255500D01*
X157487500Y-38253500D01*
X157487500Y-38250500D01*
X157487500Y-38100500D01*
X157487500Y-38097500D01*
X157487500Y-38095500D01*
X157488500Y-38092500D01*
X157488500Y-38090500D01*
X157489500Y-38087500D01*
X157489500Y-38085500D01*
X157490500Y-38082500D01*
X157491500Y-38080500D01*
X157492500Y-38077500D01*
X157494500Y-38075500D01*
X157495500Y-38073500D01*
X157497500Y-38071500D01*
X157498500Y-38069500D01*
X157500500Y-38067500D01*
X157502500Y-38065500D01*
X157504500Y-38063500D01*
X157506500Y-38061500D01*
X157508500Y-38060500D01*
X157510500Y-38058500D01*
X157512500Y-38057500D01*
X157514500Y-38055500D01*
X157517500Y-38054500D01*
X157519500Y-38053500D01*
X157522500Y-38052500D01*
X157524500Y-38052500D01*
X157527500Y-38051500D01*
X157529500Y-38051500D01*
X157532500Y-38050500D01*
X157534500Y-38050500D01*
X157537500Y-38050500D01*
X157987500Y-38050500D01*
X157990500Y-38050500D01*
X157992500Y-38050500D01*
X157995500Y-38051500D01*
G36*
X157995500Y-38051500D02*
G01*
X157997500Y-38051500D01*
X158000500Y-38052500D01*
X158002500Y-38052500D01*
X158005500Y-38053500D01*
X158007500Y-38054500D01*
X158010500Y-38055500D01*
X158012500Y-38057500D01*
X158014500Y-38058500D01*
X158016500Y-38060500D01*
X158018500Y-38061500D01*
X158020500Y-38063500D01*
X158022500Y-38065500D01*
X158024500Y-38067500D01*
X158026500Y-38069500D01*
X158027500Y-38071500D01*
X158029500Y-38073500D01*
X158030500Y-38075500D01*
X158032500Y-38077500D01*
X158033500Y-38080500D01*
X158034500Y-38082500D01*
X158035500Y-38085500D01*
X158035500Y-38087500D01*
X158036500Y-38090500D01*
X158036500Y-38092500D01*
X158037500Y-38095500D01*
X158037500Y-38097500D01*
X158037500Y-38100500D01*
X158037500Y-38250500D01*
X158037500Y-38253500D01*
X158037500Y-38255500D01*
X158036500Y-38258500D01*
X158036500Y-38260500D01*
X158035500Y-38263500D01*
X158035500Y-38265500D01*
X158034500Y-38268500D01*
X158033500Y-38270500D01*
X158032500Y-38273500D01*
X158030500Y-38275500D01*
X158029500Y-38277500D01*
X158027500Y-38279500D01*
X158026500Y-38281500D01*
X158024500Y-38283500D01*
X158022500Y-38285500D01*
X158020500Y-38287500D01*
X158018500Y-38289500D01*
X158016500Y-38290500D01*
X158014500Y-38292500D01*
X158012500Y-38293500D01*
X158010500Y-38295500D01*
X158007500Y-38296500D01*
X158005500Y-38297500D01*
X158002500Y-38298500D01*
X158000500Y-38298500D01*
X157997500Y-38299500D01*
X157995500Y-38299500D01*
X157992500Y-38300500D01*
X157990500Y-38300500D01*
X157987500Y-38300500D01*
X157537500Y-38300500D01*
X157534500Y-38300500D01*
X157532500Y-38300500D01*
X157529500Y-38299500D01*
X157527500Y-38299500D01*
X157524500Y-38298500D01*
X157522500Y-38298500D01*
X157519500Y-38297500D01*
X157517500Y-38296500D01*
X157514500Y-38295500D01*
X157512500Y-38293500D01*
X157510500Y-38292500D01*
X157508500Y-38290500D01*
X157506500Y-38289500D01*
X157504500Y-38287500D01*
X157502500Y-38285500D01*
X157500500Y-38283500D01*
X157498500Y-38281500D01*
X157497500Y-38279500D01*
X157495500Y-38277500D01*
X157494500Y-38275500D01*
X157492500Y-38273500D01*
X157491500Y-38270500D01*
X157490500Y-38268500D01*
X157489500Y-38265500D01*
X157489500Y-38263500D01*
X157488500Y-38260500D01*
X157488500Y-38258500D01*
X157487500Y-38255500D01*
X157487500Y-38253500D01*
X157487500Y-38250500D01*
X157487500Y-38100500D01*
X157487500Y-38097500D01*
X157487500Y-38095500D01*
X157488500Y-38092500D01*
X157488500Y-38090500D01*
X157489500Y-38087500D01*
X157489500Y-38085500D01*
X157490500Y-38082500D01*
X157491500Y-38080500D01*
X157492500Y-38077500D01*
X157494500Y-38075500D01*
X157495500Y-38073500D01*
X157497500Y-38071500D01*
X157498500Y-38069500D01*
X157500500Y-38067500D01*
X157502500Y-38065500D01*
X157504500Y-38063500D01*
X157506500Y-38061500D01*
X157508500Y-38060500D01*
X157510500Y-38058500D01*
X157512500Y-38057500D01*
X157514500Y-38055500D01*
X157517500Y-38054500D01*
X157519500Y-38053500D01*
X157522500Y-38052500D01*
X157524500Y-38052500D01*
X157527500Y-38051500D01*
X157529500Y-38051500D01*
X157532500Y-38050500D01*
X157534500Y-38050500D01*
X157537500Y-38050500D01*
X157987500Y-38050500D01*
X157990500Y-38050500D01*
X157992500Y-38050500D01*
X157995500Y-38051500D01*
G37*
%TD*%
D11*
%TO.C,C9*%
X180440000Y-42405500D03*
X180440000Y-40855500D03*
%TD*%
%TO.C,C5*%
X93880000Y-85445500D03*
X93880000Y-83895500D03*
%TD*%
%TO.C,C9*%
X91440000Y-42405500D03*
X91440000Y-40855500D03*
%TD*%
D12*
%TO.C,C2*%
X157600000Y-42425500D03*
X156050000Y-42425500D03*
%TD*%
D13*
%TO.C,L102*%
X160050000Y-86350500D03*
X160050000Y-87950500D03*
%TD*%
D14*
%TO.C,R11*%
X75700000Y-91565500D03*
X75700000Y-89915500D03*
%TD*%
D11*
%TO.C,C13*%
X206060000Y-42545500D03*
X206060000Y-40995500D03*
%TD*%
D14*
%TO.C,R11*%
X209200000Y-42565500D03*
X209200000Y-40915500D03*
%TD*%
D11*
%TO.C,C5*%
X93880000Y-36445500D03*
X93880000Y-34895500D03*
%TD*%
%TO.C,C5*%
X138380000Y-85445500D03*
X138380000Y-83895500D03*
%TD*%
D15*
%TO.C,R101*%
X83000000Y-89650500D03*
X83000000Y-91300500D03*
%TD*%
D16*
%TO.C,R6*%
X157615000Y-89845500D03*
X155965000Y-89845500D03*
%TD*%
D13*
%TO.C,L102*%
X204550000Y-86350500D03*
X204550000Y-87950500D03*
%TD*%
D17*
%TO.C,U101*%
X200437500Y-37175500D03*
X200437500Y-37675500D03*
X200437500Y-38175500D03*
X200437500Y-38675500D03*
X200437500Y-39175500D03*
D18*
X202087500Y-39175500D03*
X202087500Y-38675500D03*
X202087500Y-37675500D03*
X202087500Y-37175500D03*
%TD*%
D19*
%TO.C,R8*%
X183225000Y-39620500D03*
X184875000Y-39620500D03*
%TD*%
D17*
%TO.C,U101*%
X66937500Y-86175500D03*
X66937500Y-86675500D03*
X66937500Y-87175500D03*
X66937500Y-87675500D03*
X66937500Y-88175500D03*
D18*
X68587500Y-88175500D03*
X68587500Y-87675500D03*
X68587500Y-86675500D03*
X68587500Y-86175500D03*
%TD*%
D20*
%TO.C,SW5*%
X154110000Y-33148000D03*
X156610000Y-33148000D03*
X159110000Y-33148000D03*
%TD*%
D11*
%TO.C,C9*%
X135940000Y-91405500D03*
X135940000Y-89855500D03*
%TD*%
D21*
%TO.C,C1*%
X200575000Y-84450500D03*
X202125000Y-84450500D03*
%TD*%
D19*
%TO.C,R1*%
X206714999Y-103010500D03*
X208364999Y-103010500D03*
%TD*%
D20*
%TO.C,SW5*%
X65110000Y-33148000D03*
X67610000Y-33148000D03*
X70110000Y-33148000D03*
%TD*%
D11*
%TO.C,C9*%
X224940000Y-42405500D03*
X224940000Y-40855500D03*
%TD*%
D15*
%TO.C,R101*%
X172000000Y-40650500D03*
X172000000Y-42300500D03*
%TD*%
D19*
%TO.C,R1*%
X206714999Y-54010500D03*
X208364999Y-54010500D03*
%TD*%
D15*
%TO.C,R4*%
X65425000Y-89800500D03*
X65425000Y-91450500D03*
%TD*%
D19*
%TO.C,R12*%
X79175000Y-42200500D03*
X80825000Y-42200500D03*
%TD*%
%TO.C,R8*%
X94225000Y-39620500D03*
X95875000Y-39620500D03*
%TD*%
D22*
%TO.C,Y1*%
X117830000Y-96000500D03*
X117830000Y-97750500D03*
X119230000Y-97750500D03*
X119230000Y-96000500D03*
%TD*%
D14*
%TO.C,R11*%
X75700000Y-42565500D03*
X75700000Y-40915500D03*
%TD*%
D17*
%TO.C,U101*%
X200437500Y-86175500D03*
X200437500Y-86675500D03*
X200437500Y-87175500D03*
X200437500Y-87675500D03*
X200437500Y-88175500D03*
D18*
X202087500Y-88175500D03*
X202087500Y-87675500D03*
X202087500Y-86675500D03*
X202087500Y-86175500D03*
%TD*%
D15*
%TO.C,R2*%
X88510000Y-52365500D03*
X88510000Y-54015500D03*
%TD*%
%TO.C,R101*%
X83000000Y-40650500D03*
X83000000Y-42300500D03*
%TD*%
D11*
%TO.C,C10*%
X132130000Y-91365500D03*
X132130000Y-89815500D03*
%TD*%
D19*
%TO.C,R8*%
X183225000Y-88620500D03*
X184875000Y-88620500D03*
%TD*%
D23*
%TO.C,C4*%
X73240000Y-50810499D03*
X73240000Y-52360499D03*
%TD*%
D19*
%TO.C,R12*%
X123675000Y-91200500D03*
X125325000Y-91200500D03*
%TD*%
D11*
%TO.C,C11*%
X219000000Y-42235500D03*
X219000000Y-40685500D03*
%TD*%
D17*
%TO.C,U101*%
X111437500Y-37175500D03*
X111437500Y-37675500D03*
X111437500Y-38175500D03*
X111437500Y-38675500D03*
X111437500Y-39175500D03*
D18*
X113087500Y-39175500D03*
X113087500Y-38675500D03*
X113087500Y-37675500D03*
X113087500Y-37175500D03*
%TD*%
D16*
%TO.C,R13*%
X124515000Y-89620500D03*
X122865000Y-89620500D03*
%TD*%
D13*
%TO.C,L102*%
X71050000Y-37350500D03*
X71050000Y-38950500D03*
%TD*%
D22*
%TO.C,Y1*%
X162330000Y-96000500D03*
X162330000Y-97750500D03*
X163730000Y-97750500D03*
X163730000Y-96000500D03*
%TD*%
D11*
%TO.C,C9*%
X180440000Y-91405500D03*
X180440000Y-89855500D03*
%TD*%
D24*
%TO.C,U1*%
X211245000Y-96060500D03*
X211245000Y-96860500D03*
X211245000Y-97660500D03*
X211245000Y-98460500D03*
X211245000Y-99260500D03*
X211245000Y-100060500D03*
X211245000Y-100860500D03*
X211245000Y-101660500D03*
D25*
X212620000Y-103035500D03*
X213420000Y-103035500D03*
X214220000Y-103035500D03*
X215020000Y-103035500D03*
X215820000Y-103035500D03*
X216620000Y-103035500D03*
X217420000Y-103035500D03*
X218220000Y-103035500D03*
D24*
X219595000Y-101660500D03*
X219595000Y-100860500D03*
X219595000Y-100060500D03*
X219595000Y-99260500D03*
X219595000Y-98460500D03*
X219595000Y-97660500D03*
X219595000Y-96860500D03*
X219595000Y-96060500D03*
D25*
X218220000Y-94685500D03*
X217420000Y-94685500D03*
X216620000Y-94685500D03*
X215820000Y-94685500D03*
X215020000Y-94685500D03*
X214220000Y-94685500D03*
X213420000Y-94685500D03*
X212620000Y-94685500D03*
%TD*%
D11*
%TO.C,C12*%
X163110000Y-42545500D03*
X163110000Y-40995500D03*
%TD*%
D12*
%TO.C,C6*%
X74655000Y-45290500D03*
X73105000Y-45290500D03*
%TD*%
D20*
%TO.C,SW5*%
X154110000Y-82148000D03*
X156610000Y-82148000D03*
X159110000Y-82148000D03*
%TD*%
D12*
%TO.C,C6*%
X119155000Y-45290500D03*
X117605000Y-45290500D03*
%TD*%
D19*
%TO.C,R1*%
X73214999Y-103010500D03*
X74864999Y-103010500D03*
%TD*%
D11*
%TO.C,C13*%
X117060000Y-42545500D03*
X117060000Y-40995500D03*
%TD*%
D23*
%TO.C,C8*%
X89210000Y-40825500D03*
X89210000Y-42375500D03*
%TD*%
D19*
%TO.C,R1*%
X162214999Y-54010500D03*
X163864999Y-54010500D03*
%TD*%
%TO.C,R12*%
X212675000Y-42200500D03*
X214325000Y-42200500D03*
%TD*%
D23*
%TO.C,C4*%
X206740000Y-50810499D03*
X206740000Y-52360499D03*
%TD*%
D12*
%TO.C,C2*%
X68600000Y-42425500D03*
X67050000Y-42425500D03*
%TD*%
D23*
%TO.C,C8*%
X178210000Y-40825500D03*
X178210000Y-42375500D03*
%TD*%
D24*
%TO.C,U1*%
X77745000Y-96060500D03*
X77745000Y-96860500D03*
X77745000Y-97660500D03*
X77745000Y-98460500D03*
X77745000Y-99260500D03*
X77745000Y-100060500D03*
X77745000Y-100860500D03*
X77745000Y-101660500D03*
D25*
X79120000Y-103035500D03*
X79920000Y-103035500D03*
X80720000Y-103035500D03*
X81520000Y-103035500D03*
X82320000Y-103035500D03*
X83120000Y-103035500D03*
X83920000Y-103035500D03*
X84720000Y-103035500D03*
D24*
X86095000Y-101660500D03*
X86095000Y-100860500D03*
X86095000Y-100060500D03*
X86095000Y-99260500D03*
X86095000Y-98460500D03*
X86095000Y-97660500D03*
X86095000Y-96860500D03*
X86095000Y-96060500D03*
D25*
X84720000Y-94685500D03*
X83920000Y-94685500D03*
X83120000Y-94685500D03*
X82320000Y-94685500D03*
X81520000Y-94685500D03*
X80720000Y-94685500D03*
X79920000Y-94685500D03*
X79120000Y-94685500D03*
%TD*%
D23*
%TO.C,C8*%
X89210000Y-89825500D03*
X89210000Y-91375500D03*
%TD*%
D14*
%TO.C,R11*%
X120200000Y-91565500D03*
X120200000Y-89915500D03*
%TD*%
D24*
%TO.C,U1*%
X77745000Y-47060500D03*
X77745000Y-47860500D03*
X77745000Y-48660500D03*
X77745000Y-49460500D03*
X77745000Y-50260500D03*
X77745000Y-51060500D03*
X77745000Y-51860500D03*
X77745000Y-52660500D03*
D25*
X79120000Y-54035500D03*
X79920000Y-54035500D03*
X80720000Y-54035500D03*
X81520000Y-54035500D03*
X82320000Y-54035500D03*
X83120000Y-54035500D03*
X83920000Y-54035500D03*
X84720000Y-54035500D03*
D24*
X86095000Y-52660500D03*
X86095000Y-51860500D03*
X86095000Y-51060500D03*
X86095000Y-50260500D03*
X86095000Y-49460500D03*
X86095000Y-48660500D03*
X86095000Y-47860500D03*
X86095000Y-47060500D03*
D25*
X84720000Y-45685500D03*
X83920000Y-45685500D03*
X83120000Y-45685500D03*
X82320000Y-45685500D03*
X81520000Y-45685500D03*
X80720000Y-45685500D03*
X79920000Y-45685500D03*
X79120000Y-45685500D03*
%TD*%
D11*
%TO.C,C11*%
X174500000Y-91235500D03*
X174500000Y-89685500D03*
%TD*%
D15*
%TO.C,R4*%
X198925000Y-40800500D03*
X198925000Y-42450500D03*
%TD*%
D19*
%TO.C,R12*%
X212675000Y-91200500D03*
X214325000Y-91200500D03*
%TD*%
D15*
%TO.C,R4*%
X154425000Y-40800500D03*
X154425000Y-42450500D03*
%TD*%
D14*
%TO.C,R11*%
X209200000Y-91565500D03*
X209200000Y-89915500D03*
%TD*%
D21*
%TO.C,C1*%
X111575000Y-84450500D03*
X113125000Y-84450500D03*
%TD*%
D15*
%TO.C,R2*%
X133010000Y-101365500D03*
X133010000Y-103015500D03*
%TD*%
D11*
%TO.C,C10*%
X132130000Y-42365500D03*
X132130000Y-40815500D03*
%TD*%
D15*
%TO.C,R4*%
X109925000Y-89800500D03*
X109925000Y-91450500D03*
%TD*%
D20*
%TO.C,SW5*%
X109610000Y-33148000D03*
X112110000Y-33148000D03*
X114610000Y-33148000D03*
%TD*%
D12*
%TO.C,C2*%
X68600000Y-91425500D03*
X67050000Y-91425500D03*
%TD*%
D22*
%TO.C,Y1*%
X206830000Y-96000500D03*
X206830000Y-97750500D03*
X208230000Y-97750500D03*
X208230000Y-96000500D03*
%TD*%
D11*
%TO.C,C9*%
X91440000Y-91405500D03*
X91440000Y-89855500D03*
%TD*%
%TO.C,C9*%
X135940000Y-42405500D03*
X135940000Y-40855500D03*
%TD*%
D19*
%TO.C,R8*%
X227725000Y-39620500D03*
X229375000Y-39620500D03*
%TD*%
D11*
%TO.C,C11*%
X85500000Y-91235500D03*
X85500000Y-89685500D03*
%TD*%
D23*
%TO.C,C4*%
X162240000Y-50810499D03*
X162240000Y-52360499D03*
%TD*%
D19*
%TO.C,R1*%
X117714999Y-54010500D03*
X119364999Y-54010500D03*
%TD*%
D13*
%TO.C,L102*%
X115550000Y-37350500D03*
X115550000Y-38950500D03*
%TD*%
D20*
%TO.C,SW5*%
X198610000Y-33148000D03*
X201110000Y-33148000D03*
X203610000Y-33148000D03*
%TD*%
D16*
%TO.C,R6*%
X157615000Y-40845500D03*
X155965000Y-40845500D03*
%TD*%
D15*
%TO.C,R101*%
X216500000Y-40650500D03*
X216500000Y-42300500D03*
%TD*%
D19*
%TO.C,R8*%
X94225000Y-88620500D03*
X95875000Y-88620500D03*
%TD*%
D21*
%TO.C,C1*%
X156075000Y-35450500D03*
X157625000Y-35450500D03*
%TD*%
D11*
%TO.C,C11*%
X130000000Y-42235500D03*
X130000000Y-40685500D03*
%TD*%
D16*
%TO.C,R6*%
X113115000Y-40845500D03*
X111465000Y-40845500D03*
%TD*%
D23*
%TO.C,C4*%
X73240000Y-99810499D03*
X73240000Y-101360499D03*
%TD*%
D11*
%TO.C,C5*%
X138380000Y-36445500D03*
X138380000Y-34895500D03*
%TD*%
D19*
%TO.C,R8*%
X227725000Y-88620500D03*
X229375000Y-88620500D03*
%TD*%
D11*
%TO.C,C13*%
X117060000Y-91545500D03*
X117060000Y-89995500D03*
%TD*%
D23*
%TO.C,C8*%
X133710000Y-89825500D03*
X133710000Y-91375500D03*
%TD*%
%TO.C,C8*%
X178210000Y-89825500D03*
X178210000Y-91375500D03*
%TD*%
D12*
%TO.C,C6*%
X74655000Y-94290500D03*
X73105000Y-94290500D03*
%TD*%
D19*
%TO.C,R8*%
X138725000Y-39620500D03*
X140375000Y-39620500D03*
%TD*%
D11*
%TO.C,C10*%
X87630000Y-42365500D03*
X87630000Y-40815500D03*
%TD*%
%TO.C,C9*%
X224940000Y-91405500D03*
X224940000Y-89855500D03*
%TD*%
D20*
%TO.C,SW5*%
X109610000Y-82148000D03*
X112110000Y-82148000D03*
X114610000Y-82148000D03*
%TD*%
D15*
%TO.C,R4*%
X154425000Y-89800500D03*
X154425000Y-91450500D03*
%TD*%
%TO.C,R101*%
X127500000Y-40650500D03*
X127500000Y-42300500D03*
%TD*%
%TO.C,R4*%
X65425000Y-40800500D03*
X65425000Y-42450500D03*
%TD*%
D11*
%TO.C,C11*%
X174500000Y-42235500D03*
X174500000Y-40685500D03*
%TD*%
%TO.C,C11*%
X85500000Y-42235500D03*
X85500000Y-40685500D03*
%TD*%
%TO.C,C10*%
X87630000Y-91365500D03*
X87630000Y-89815500D03*
%TD*%
D15*
%TO.C,R2*%
X222010000Y-52365500D03*
X222010000Y-54015500D03*
%TD*%
D21*
%TO.C,C1*%
X200575000Y-35450500D03*
X202125000Y-35450500D03*
%TD*%
D15*
%TO.C,R101*%
X216500000Y-89650500D03*
X216500000Y-91300500D03*
%TD*%
D12*
%TO.C,C2*%
X157600000Y-91425500D03*
X156050000Y-91425500D03*
%TD*%
D11*
%TO.C,C13*%
X161560000Y-91545500D03*
X161560000Y-89995500D03*
%TD*%
D15*
%TO.C,R2*%
X133010000Y-52365500D03*
X133010000Y-54015500D03*
%TD*%
D19*
%TO.C,R1*%
X73214999Y-54010500D03*
X74864999Y-54010500D03*
%TD*%
D23*
%TO.C,C3*%
X119290000Y-99830500D03*
X119290000Y-101380500D03*
%TD*%
D16*
%TO.C,R13*%
X80015000Y-89620500D03*
X78365000Y-89620500D03*
%TD*%
D15*
%TO.C,R4*%
X109925000Y-40800500D03*
X109925000Y-42450500D03*
%TD*%
%TO.C,R2*%
X177510000Y-52365500D03*
X177510000Y-54015500D03*
%TD*%
D19*
%TO.C,R12*%
X168175000Y-42200500D03*
X169825000Y-42200500D03*
%TD*%
D11*
%TO.C,C13*%
X72560000Y-42545500D03*
X72560000Y-40995500D03*
%TD*%
%TO.C,C12*%
X74110000Y-91545500D03*
X74110000Y-89995500D03*
%TD*%
D19*
%TO.C,R8*%
X138725000Y-88620500D03*
X140375000Y-88620500D03*
%TD*%
D16*
%TO.C,R6*%
X202115000Y-40845500D03*
X200465000Y-40845500D03*
%TD*%
D19*
%TO.C,R12*%
X79175000Y-91200500D03*
X80825000Y-91200500D03*
%TD*%
D17*
%TO.C,U101*%
X111437500Y-86175500D03*
X111437500Y-86675500D03*
X111437500Y-87175500D03*
X111437500Y-87675500D03*
X111437500Y-88175500D03*
D18*
X113087500Y-88175500D03*
X113087500Y-87675500D03*
X113087500Y-86675500D03*
X113087500Y-86175500D03*
%TD*%
D19*
%TO.C,R12*%
X123675000Y-42200500D03*
X125325000Y-42200500D03*
%TD*%
%TO.C,R1*%
X162214999Y-103010500D03*
X163864999Y-103010500D03*
%TD*%
D11*
%TO.C,C5*%
X182880000Y-36445500D03*
X182880000Y-34895500D03*
%TD*%
%TO.C,C12*%
X163110000Y-91545500D03*
X163110000Y-89995500D03*
%TD*%
D13*
%TO.C,L102*%
X204550000Y-37350500D03*
X204550000Y-38950500D03*
%TD*%
D23*
%TO.C,C8*%
X222710000Y-89825500D03*
X222710000Y-91375500D03*
%TD*%
%TO.C,C3*%
X74790000Y-99830500D03*
X74790000Y-101380500D03*
%TD*%
D17*
%TO.C,U101*%
X66937500Y-37175500D03*
X66937500Y-37675500D03*
X66937500Y-38175500D03*
X66937500Y-38675500D03*
X66937500Y-39175500D03*
D18*
X68587500Y-39175500D03*
X68587500Y-38675500D03*
X68587500Y-37675500D03*
X68587500Y-37175500D03*
%TD*%
D11*
%TO.C,C12*%
X207610000Y-91545500D03*
X207610000Y-89995500D03*
%TD*%
D12*
%TO.C,C2*%
X113100000Y-91425500D03*
X111550000Y-91425500D03*
%TD*%
D13*
%TO.C,L102*%
X71050000Y-86350500D03*
X71050000Y-87950500D03*
%TD*%
D24*
%TO.C,U1*%
X211245000Y-47060500D03*
X211245000Y-47860500D03*
X211245000Y-48660500D03*
X211245000Y-49460500D03*
X211245000Y-50260500D03*
X211245000Y-51060500D03*
X211245000Y-51860500D03*
X211245000Y-52660500D03*
D25*
X212620000Y-54035500D03*
X213420000Y-54035500D03*
X214220000Y-54035500D03*
X215020000Y-54035500D03*
X215820000Y-54035500D03*
X216620000Y-54035500D03*
X217420000Y-54035500D03*
X218220000Y-54035500D03*
D24*
X219595000Y-52660500D03*
X219595000Y-51860500D03*
X219595000Y-51060500D03*
X219595000Y-50260500D03*
X219595000Y-49460500D03*
X219595000Y-48660500D03*
X219595000Y-47860500D03*
X219595000Y-47060500D03*
D25*
X218220000Y-45685500D03*
X217420000Y-45685500D03*
X216620000Y-45685500D03*
X215820000Y-45685500D03*
X215020000Y-45685500D03*
X214220000Y-45685500D03*
X213420000Y-45685500D03*
X212620000Y-45685500D03*
%TD*%
D16*
%TO.C,R13*%
X213515000Y-89620500D03*
X211865000Y-89620500D03*
%TD*%
D15*
%TO.C,R101*%
X127500000Y-89650500D03*
X127500000Y-91300500D03*
%TD*%
D12*
%TO.C,C6*%
X119155000Y-94290500D03*
X117605000Y-94290500D03*
%TD*%
D23*
%TO.C,C3*%
X119290000Y-50830500D03*
X119290000Y-52380500D03*
%TD*%
D12*
%TO.C,C6*%
X208155000Y-94290500D03*
X206605000Y-94290500D03*
%TD*%
%TO.C,C2*%
X202100000Y-91425500D03*
X200550000Y-91425500D03*
%TD*%
D16*
%TO.C,R6*%
X202115000Y-89845500D03*
X200465000Y-89845500D03*
%TD*%
D12*
%TO.C,C2*%
X113100000Y-42425500D03*
X111550000Y-42425500D03*
%TD*%
D23*
%TO.C,C8*%
X133710000Y-40825500D03*
X133710000Y-42375500D03*
%TD*%
D12*
%TO.C,C2*%
X202100000Y-42425500D03*
X200550000Y-42425500D03*
%TD*%
D14*
%TO.C,R11*%
X164700000Y-42565500D03*
X164700000Y-40915500D03*
%TD*%
D22*
%TO.C,Y1*%
X162330000Y-47000500D03*
X162330000Y-48750500D03*
X163730000Y-48750500D03*
X163730000Y-47000500D03*
%TD*%
D15*
%TO.C,R2*%
X222010000Y-101365500D03*
X222010000Y-103015500D03*
%TD*%
D16*
%TO.C,R6*%
X68615000Y-89845500D03*
X66965000Y-89845500D03*
%TD*%
D11*
%TO.C,C12*%
X74110000Y-42545500D03*
X74110000Y-40995500D03*
%TD*%
D22*
%TO.C,Y1*%
X117830000Y-47000500D03*
X117830000Y-48750500D03*
X119230000Y-48750500D03*
X119230000Y-47000500D03*
%TD*%
D17*
%TO.C,U101*%
X155937500Y-86175500D03*
X155937500Y-86675500D03*
X155937500Y-87175500D03*
X155937500Y-87675500D03*
X155937500Y-88175500D03*
D18*
X157587500Y-88175500D03*
X157587500Y-87675500D03*
X157587500Y-86675500D03*
X157587500Y-86175500D03*
%TD*%
D22*
%TO.C,Y1*%
X206830000Y-47000500D03*
X206830000Y-48750500D03*
X208230000Y-48750500D03*
X208230000Y-47000500D03*
%TD*%
D11*
%TO.C,C12*%
X207610000Y-42545500D03*
X207610000Y-40995500D03*
%TD*%
D14*
%TO.C,R11*%
X120200000Y-42565500D03*
X120200000Y-40915500D03*
%TD*%
D23*
%TO.C,C3*%
X208290000Y-99830500D03*
X208290000Y-101380500D03*
%TD*%
D16*
%TO.C,R13*%
X80015000Y-40620500D03*
X78365000Y-40620500D03*
%TD*%
D15*
%TO.C,R4*%
X198925000Y-89800500D03*
X198925000Y-91450500D03*
%TD*%
D24*
%TO.C,U1*%
X166745000Y-47060500D03*
X166745000Y-47860500D03*
X166745000Y-48660500D03*
X166745000Y-49460500D03*
X166745000Y-50260500D03*
X166745000Y-51060500D03*
X166745000Y-51860500D03*
X166745000Y-52660500D03*
D25*
X168120000Y-54035500D03*
X168920000Y-54035500D03*
X169720000Y-54035500D03*
X170520000Y-54035500D03*
X171320000Y-54035500D03*
X172120000Y-54035500D03*
X172920000Y-54035500D03*
X173720000Y-54035500D03*
D24*
X175095000Y-52660500D03*
X175095000Y-51860500D03*
X175095000Y-51060500D03*
X175095000Y-50260500D03*
X175095000Y-49460500D03*
X175095000Y-48660500D03*
X175095000Y-47860500D03*
X175095000Y-47060500D03*
D25*
X173720000Y-45685500D03*
X172920000Y-45685500D03*
X172120000Y-45685500D03*
X171320000Y-45685500D03*
X170520000Y-45685500D03*
X169720000Y-45685500D03*
X168920000Y-45685500D03*
X168120000Y-45685500D03*
%TD*%
D16*
%TO.C,R13*%
X169015000Y-40620500D03*
X167365000Y-40620500D03*
%TD*%
%TO.C,R6*%
X68615000Y-40845500D03*
X66965000Y-40845500D03*
%TD*%
D11*
%TO.C,C10*%
X176630000Y-91365500D03*
X176630000Y-89815500D03*
%TD*%
D13*
%TO.C,L102*%
X115550000Y-86350500D03*
X115550000Y-87950500D03*
%TD*%
%TO.C,L102*%
X160050000Y-37350500D03*
X160050000Y-38950500D03*
%TD*%
D14*
%TO.C,R11*%
X164700000Y-91565500D03*
X164700000Y-89915500D03*
%TD*%
D19*
%TO.C,R12*%
X168175000Y-91200500D03*
X169825000Y-91200500D03*
%TD*%
D20*
%TO.C,SW5*%
X65110000Y-82148000D03*
X67610000Y-82148000D03*
X70110000Y-82148000D03*
%TD*%
D15*
%TO.C,R101*%
X172000000Y-89650500D03*
X172000000Y-91300500D03*
%TD*%
D20*
%TO.C,SW5*%
X198610000Y-82148000D03*
X201110000Y-82148000D03*
X203610000Y-82148000D03*
%TD*%
D11*
%TO.C,C5*%
X227380000Y-85445500D03*
X227380000Y-83895500D03*
%TD*%
D21*
%TO.C,C1*%
X156075000Y-84450500D03*
X157625000Y-84450500D03*
%TD*%
D15*
%TO.C,R2*%
X177510000Y-101365500D03*
X177510000Y-103015500D03*
%TD*%
D11*
%TO.C,C12*%
X118610000Y-42545500D03*
X118610000Y-40995500D03*
%TD*%
D21*
%TO.C,C1*%
X67075000Y-84450500D03*
X68625000Y-84450500D03*
%TD*%
D15*
%TO.C,R2*%
X88510000Y-101365500D03*
X88510000Y-103015500D03*
%TD*%
D23*
%TO.C,C4*%
X117740000Y-99810499D03*
X117740000Y-101360499D03*
%TD*%
D12*
%TO.C,C6*%
X163655000Y-94290500D03*
X162105000Y-94290500D03*
%TD*%
D16*
%TO.C,R13*%
X169015000Y-89620500D03*
X167365000Y-89620500D03*
%TD*%
D11*
%TO.C,C13*%
X72560000Y-91545500D03*
X72560000Y-89995500D03*
%TD*%
D23*
%TO.C,C4*%
X206740000Y-99810499D03*
X206740000Y-101360499D03*
%TD*%
D11*
%TO.C,C13*%
X206060000Y-91545500D03*
X206060000Y-89995500D03*
%TD*%
D16*
%TO.C,R13*%
X213515000Y-40620500D03*
X211865000Y-40620500D03*
%TD*%
D17*
%TO.C,U101*%
X155937500Y-37175500D03*
X155937500Y-37675500D03*
X155937500Y-38175500D03*
X155937500Y-38675500D03*
X155937500Y-39175500D03*
D18*
X157587500Y-39175500D03*
X157587500Y-38675500D03*
X157587500Y-37675500D03*
X157587500Y-37175500D03*
%TD*%
D11*
%TO.C,C11*%
X219000000Y-91235500D03*
X219000000Y-89685500D03*
%TD*%
D23*
%TO.C,C3*%
X208290000Y-50830500D03*
X208290000Y-52380500D03*
%TD*%
%TO.C,C4*%
X117740000Y-50810499D03*
X117740000Y-52360499D03*
%TD*%
D19*
%TO.C,R1*%
X117714999Y-103010500D03*
X119364999Y-103010500D03*
%TD*%
D16*
%TO.C,R13*%
X124515000Y-40620500D03*
X122865000Y-40620500D03*
%TD*%
D12*
%TO.C,C6*%
X163655000Y-45290500D03*
X162105000Y-45290500D03*
%TD*%
D24*
%TO.C,U1*%
X122245000Y-47060500D03*
X122245000Y-47860500D03*
X122245000Y-48660500D03*
X122245000Y-49460500D03*
X122245000Y-50260500D03*
X122245000Y-51060500D03*
X122245000Y-51860500D03*
X122245000Y-52660500D03*
D25*
X123620000Y-54035500D03*
X124420000Y-54035500D03*
X125220000Y-54035500D03*
X126020000Y-54035500D03*
X126820000Y-54035500D03*
X127620000Y-54035500D03*
X128420000Y-54035500D03*
X129220000Y-54035500D03*
D24*
X130595000Y-52660500D03*
X130595000Y-51860500D03*
X130595000Y-51060500D03*
X130595000Y-50260500D03*
X130595000Y-49460500D03*
X130595000Y-48660500D03*
X130595000Y-47860500D03*
X130595000Y-47060500D03*
D25*
X129220000Y-45685500D03*
X128420000Y-45685500D03*
X127620000Y-45685500D03*
X126820000Y-45685500D03*
X126020000Y-45685500D03*
X125220000Y-45685500D03*
X124420000Y-45685500D03*
X123620000Y-45685500D03*
%TD*%
D11*
%TO.C,C5*%
X182880000Y-85445500D03*
X182880000Y-83895500D03*
%TD*%
D23*
%TO.C,C3*%
X163790000Y-99830500D03*
X163790000Y-101380500D03*
%TD*%
D12*
%TO.C,C6*%
X208155000Y-45290500D03*
X206605000Y-45290500D03*
%TD*%
D23*
%TO.C,C3*%
X74790000Y-50830500D03*
X74790000Y-52380500D03*
%TD*%
%TO.C,C8*%
X222710000Y-40825500D03*
X222710000Y-42375500D03*
%TD*%
D21*
%TO.C,C1*%
X67075000Y-35450500D03*
X68625000Y-35450500D03*
%TD*%
D22*
%TO.C,Y1*%
X73330000Y-47000500D03*
X73330000Y-48750500D03*
X74730000Y-48750500D03*
X74730000Y-47000500D03*
%TD*%
D21*
%TO.C,C1*%
X111575000Y-35450500D03*
X113125000Y-35450500D03*
%TD*%
D11*
%TO.C,C13*%
X161560000Y-42545500D03*
X161560000Y-40995500D03*
%TD*%
D24*
%TO.C,U1*%
X122245000Y-96060500D03*
X122245000Y-96860500D03*
X122245000Y-97660500D03*
X122245000Y-98460500D03*
X122245000Y-99260500D03*
X122245000Y-100060500D03*
X122245000Y-100860500D03*
X122245000Y-101660500D03*
D25*
X123620000Y-103035500D03*
X124420000Y-103035500D03*
X125220000Y-103035500D03*
X126020000Y-103035500D03*
X126820000Y-103035500D03*
X127620000Y-103035500D03*
X128420000Y-103035500D03*
X129220000Y-103035500D03*
D24*
X130595000Y-101660500D03*
X130595000Y-100860500D03*
X130595000Y-100060500D03*
X130595000Y-99260500D03*
X130595000Y-98460500D03*
X130595000Y-97660500D03*
X130595000Y-96860500D03*
X130595000Y-96060500D03*
D25*
X129220000Y-94685500D03*
X128420000Y-94685500D03*
X127620000Y-94685500D03*
X126820000Y-94685500D03*
X126020000Y-94685500D03*
X125220000Y-94685500D03*
X124420000Y-94685500D03*
X123620000Y-94685500D03*
%TD*%
D16*
%TO.C,R6*%
X113115000Y-89845500D03*
X111465000Y-89845500D03*
%TD*%
D11*
%TO.C,C5*%
X227380000Y-36445500D03*
X227380000Y-34895500D03*
%TD*%
D23*
%TO.C,C4*%
X162240000Y-99810499D03*
X162240000Y-101360499D03*
%TD*%
%TO.C,C3*%
X163790000Y-50830500D03*
X163790000Y-52380500D03*
%TD*%
D24*
%TO.C,U1*%
X166745000Y-96060500D03*
X166745000Y-96860500D03*
X166745000Y-97660500D03*
X166745000Y-98460500D03*
X166745000Y-99260500D03*
X166745000Y-100060500D03*
X166745000Y-100860500D03*
X166745000Y-101660500D03*
D25*
X168120000Y-103035500D03*
X168920000Y-103035500D03*
X169720000Y-103035500D03*
X170520000Y-103035500D03*
X171320000Y-103035500D03*
X172120000Y-103035500D03*
X172920000Y-103035500D03*
X173720000Y-103035500D03*
D24*
X175095000Y-101660500D03*
X175095000Y-100860500D03*
X175095000Y-100060500D03*
X175095000Y-99260500D03*
X175095000Y-98460500D03*
X175095000Y-97660500D03*
X175095000Y-96860500D03*
X175095000Y-96060500D03*
D25*
X173720000Y-94685500D03*
X172920000Y-94685500D03*
X172120000Y-94685500D03*
X171320000Y-94685500D03*
X170520000Y-94685500D03*
X169720000Y-94685500D03*
X168920000Y-94685500D03*
X168120000Y-94685500D03*
%TD*%
D22*
%TO.C,Y1*%
X73330000Y-96000500D03*
X73330000Y-97750500D03*
X74730000Y-97750500D03*
X74730000Y-96000500D03*
%TD*%
D11*
%TO.C,C10*%
X221130000Y-91365500D03*
X221130000Y-89815500D03*
%TD*%
%TO.C,C10*%
X176630000Y-42365500D03*
X176630000Y-40815500D03*
%TD*%
%TO.C,C11*%
X130000000Y-91235500D03*
X130000000Y-89685500D03*
%TD*%
%TO.C,C12*%
X118610000Y-91545500D03*
X118610000Y-89995500D03*
%TD*%
%TO.C,C10*%
X221130000Y-42365500D03*
X221130000Y-40815500D03*
%TD*%
M02*
