M48
; DRILL file {KiCad 9.0.2} date 2025-05-28T15:11:48+0100
; FORMAT={-:-/ absolute / metric / decimal}
; #@! TF.CreationDate,2025-05-28T15:11:48+01:00
; #@! TF.GenerationSoftware,Kicad,Pcbnew,9.0.2
; #@! TF.FileFunction,Plated,1,2,PTH
FMAT,2
METRIC
; #@! TA.AperFunction,Plated,PTH,ViaDrill
T1C0.300
; #@! TA.AperFunction,Plated,PTH,ComponentDrill
T2C1.000
; #@! TA.AperFunction,Plated,PTH,ComponentDrill
T3C1.200
%
G90
G05
T1
X61.75Y-37.191
X61.75Y-86.191
X61.85Y-43.18
X61.85Y-92.18
X62.38Y-32.62
X62.38Y-81.62
X62.42Y-47.74
X62.42Y-96.74
X62.88Y-55.261
X62.88Y-104.26
X63.56Y-71.221
X63.56Y-120.221
X63.61Y-50.941
X63.61Y-99.941
X64.475Y-38.25
X64.475Y-87.251
X66.2Y-31.0
X66.2Y-80.001
X66.99Y-55.8
X66.99Y-104.8
X67.2Y-60.4
X67.2Y-109.4
X67.35Y-52.42
X67.35Y-101.42
X68.57Y-71.84
X68.57Y-120.84
X68.6Y-67.13
X68.6Y-116.13
X70.0Y-43.43
X70.0Y-92.43
X70.2Y-30.92
X70.2Y-79.92
X70.85Y-42.41
X70.85Y-91.41
X70.88Y-40.91
X70.88Y-89.91
X71.32Y-52.35
X71.32Y-101.35
X71.4Y-55.0
X71.4Y-104.001
X71.44Y-45.39
X71.44Y-94.39
X71.48Y-48.74
X71.48Y-97.74
X72.55Y-40.011
X72.55Y-89.01
X73.49Y-57.67
X73.49Y-106.67
X74.09Y-39.96
X74.09Y-88.96
X74.73Y-71.98
X74.73Y-120.98
X74.79Y-67.56
X74.79Y-116.56
X75.42Y-39.99
X75.42Y-88.99
X75.97Y-58.82
X75.97Y-107.82
X76.03Y-46.93
X76.03Y-95.93
X76.08Y-49.16
X76.08Y-98.16
X76.2Y-52.41
X76.2Y-101.41
X76.57Y-46.07
X76.57Y-95.07
X76.79Y-40.011
X76.79Y-89.01
X76.94Y-41.21
X76.94Y-90.21
X77.06Y-71.081
X77.06Y-120.081
X77.24Y-42.43
X77.24Y-91.43
X77.7Y-45.17
X77.7Y-94.17
X78.6Y-61.2
X78.6Y-110.2
X79.28Y-47.14
X79.28Y-96.14
X79.29Y-42.95
X79.29Y-91.95
X79.31Y-51.16
X79.31Y-100.16
X79.98Y-43.261
X79.98Y-92.26
X80.02Y-39.37
X80.02Y-88.37
X80.42Y-58.34
X80.42Y-107.34
X80.93Y-50.5
X80.93Y-99.501
X81.19Y-41.03
X81.19Y-90.03
X81.52Y-39.7
X81.52Y-88.7
X81.72Y-65.331
X81.72Y-114.331
X81.85Y-71.38
X81.85Y-120.38
X82.45Y-43.401
X82.45Y-92.4
X83.4Y-43.49
X83.4Y-92.49
X83.95Y-47.026
X83.95Y-96.025
X84.28Y-48.901
X84.28Y-97.9
X84.38Y-52.49
X84.38Y-101.49
X84.44Y-39.43
X84.44Y-88.43
X85.45Y-39.62
X85.45Y-88.62
X85.97Y-43.401
X85.97Y-92.4
X86.25Y-45.87
X86.25Y-94.87
X86.6Y-62.0
X86.6Y-111.0
X87.24Y-55.77
X87.24Y-104.77
X87.3Y-39.71
X87.3Y-88.71
X87.6Y-47.17
X87.6Y-96.17
X87.82Y-72.111
X87.82Y-121.11
X87.91Y-51.32
X87.91Y-100.32
X88.12Y-39.66
X88.12Y-88.66
X88.43Y-43.37
X88.43Y-92.37
X88.44Y-59.64
X88.44Y-108.64
X88.51Y-55.8
X88.51Y-104.8
X88.76Y-46.14
X88.76Y-95.14
X89.01Y-39.78
X89.01Y-88.78
X89.8Y-39.7
X89.8Y-88.7
X90.27Y-43.2
X90.27Y-92.2
X90.43Y-49.92
X90.43Y-98.92
X90.5Y-39.64
X90.5Y-88.641
X91.17Y-39.89
X91.17Y-88.891
X91.25Y-68.48
X91.25Y-117.48
X91.32Y-46.62
X91.32Y-95.62
X92.3Y-30.601
X92.3Y-79.6
X92.35Y-53.95
X92.35Y-102.95
X92.41Y-50.63
X92.41Y-99.63
X92.89Y-40.081
X92.89Y-89.081
X93.6Y-45.84
X93.6Y-94.84
X93.61Y-33.761
X93.61Y-42.12
X93.61Y-82.76
X93.61Y-91.12
X93.69Y-37.68
X93.69Y-86.68
X93.99Y-72.18
X93.99Y-121.18
X94.65Y-37.41
X94.65Y-86.41
X95.16Y-58.82
X95.16Y-107.82
X95.62Y-40.61
X95.62Y-89.611
X96.24Y-30.48
X96.24Y-79.48
X96.58Y-35.651
X96.58Y-84.65
X96.73Y-68.62
X96.73Y-117.62
X97.01Y-54.43
X97.01Y-103.43
X98.1Y-43.12
X98.1Y-92.12
X98.45Y-46.21
X98.45Y-95.21
X99.27Y-72.18
X99.27Y-121.18
X99.41Y-68.82
X99.41Y-117.82
X99.61Y-50.8
X99.61Y-99.8
X100.02Y-60.6
X100.02Y-109.6
X100.08Y-33.03
X100.08Y-82.03
X101.49Y-35.96
X101.49Y-84.96
X106.25Y-37.191
X106.25Y-86.191
X106.35Y-43.18
X106.35Y-92.18
X106.88Y-32.62
X106.88Y-81.62
X106.92Y-47.74
X106.92Y-96.74
X107.38Y-55.261
X107.38Y-104.26
X108.06Y-71.221
X108.06Y-120.221
X108.11Y-50.941
X108.11Y-99.941
X108.975Y-38.25
X108.975Y-87.251
X110.7Y-31.0
X110.7Y-80.001
X111.49Y-55.8
X111.49Y-104.8
X111.7Y-60.4
X111.7Y-109.4
X111.85Y-52.42
X111.85Y-101.42
X113.07Y-71.84
X113.07Y-120.84
X113.1Y-67.13
X113.1Y-116.13
X114.5Y-43.43
X114.5Y-92.43
X114.7Y-30.92
X114.7Y-79.92
X115.35Y-42.41
X115.35Y-91.41
X115.38Y-40.91
X115.38Y-89.91
X115.82Y-52.35
X115.82Y-101.35
X115.9Y-55.0
X115.9Y-104.001
X115.94Y-45.39
X115.94Y-94.39
X115.98Y-48.74
X115.98Y-97.74
X117.05Y-40.011
X117.05Y-89.01
X117.99Y-57.67
X117.99Y-106.67
X118.59Y-39.96
X118.59Y-88.96
X119.23Y-71.98
X119.23Y-120.98
X119.29Y-67.56
X119.29Y-116.56
X119.92Y-39.99
X119.92Y-88.99
X120.47Y-58.82
X120.47Y-107.82
X120.53Y-46.93
X120.53Y-95.93
X120.58Y-49.16
X120.58Y-98.16
X120.7Y-52.41
X120.7Y-101.41
X121.07Y-46.07
X121.07Y-95.07
X121.29Y-40.011
X121.29Y-89.01
X121.44Y-41.21
X121.44Y-90.21
X121.56Y-71.081
X121.56Y-120.081
X121.74Y-42.43
X121.74Y-91.43
X122.2Y-45.17
X122.2Y-94.17
X123.1Y-61.2
X123.1Y-110.2
X123.78Y-47.14
X123.78Y-96.14
X123.79Y-42.95
X123.79Y-91.95
X123.81Y-51.16
X123.81Y-100.16
X124.48Y-43.261
X124.48Y-92.26
X124.52Y-39.37
X124.52Y-88.37
X124.92Y-58.34
X124.92Y-107.34
X125.43Y-50.5
X125.43Y-99.501
X125.69Y-41.03
X125.69Y-90.03
X126.02Y-39.7
X126.02Y-88.7
X126.22Y-65.331
X126.22Y-114.331
X126.35Y-71.38
X126.35Y-120.38
X126.95Y-43.401
X126.95Y-92.4
X127.9Y-43.49
X127.9Y-92.49
X128.45Y-47.026
X128.45Y-96.025
X128.78Y-48.901
X128.78Y-97.9
X128.88Y-52.49
X128.88Y-101.49
X128.94Y-39.43
X128.94Y-88.43
X129.95Y-39.62
X129.95Y-88.62
X130.47Y-43.401
X130.47Y-92.4
X130.75Y-45.87
X130.75Y-94.87
X131.1Y-62.0
X131.1Y-111.0
X131.74Y-55.77
X131.74Y-104.77
X131.8Y-39.71
X131.8Y-88.71
X132.1Y-47.17
X132.1Y-96.17
X132.32Y-72.111
X132.32Y-121.11
X132.41Y-51.32
X132.41Y-100.32
X132.62Y-39.66
X132.62Y-88.66
X132.93Y-43.37
X132.93Y-92.37
X132.94Y-59.64
X132.94Y-108.64
X133.01Y-55.8
X133.01Y-104.8
X133.26Y-46.14
X133.26Y-95.14
X133.51Y-39.78
X133.51Y-88.78
X134.3Y-39.7
X134.3Y-88.7
X134.77Y-43.2
X134.77Y-92.2
X134.93Y-49.92
X134.93Y-98.92
X135.0Y-39.64
X135.0Y-88.641
X135.67Y-39.89
X135.67Y-88.891
X135.75Y-68.48
X135.75Y-117.48
X135.82Y-46.62
X135.82Y-95.62
X136.8Y-30.601
X136.8Y-79.6
X136.85Y-53.95
X136.85Y-102.95
X136.91Y-50.63
X136.91Y-99.63
X137.39Y-40.081
X137.39Y-89.081
X138.1Y-45.84
X138.1Y-94.84
X138.11Y-33.761
X138.11Y-42.12
X138.11Y-82.76
X138.11Y-91.12
X138.19Y-37.68
X138.19Y-86.68
X138.49Y-72.18
X138.49Y-121.18
X139.15Y-37.41
X139.15Y-86.41
X139.66Y-58.82
X139.66Y-107.82
X140.12Y-40.61
X140.12Y-89.611
X140.74Y-30.48
X140.74Y-79.48
X141.08Y-35.651
X141.08Y-84.65
X141.23Y-68.62
X141.23Y-117.62
X141.51Y-54.43
X141.51Y-103.43
X142.6Y-43.12
X142.6Y-92.12
X142.95Y-46.21
X142.95Y-95.21
X143.77Y-72.18
X143.77Y-121.18
X143.91Y-68.82
X143.91Y-117.82
X144.11Y-50.8
X144.11Y-99.8
X144.52Y-60.6
X144.52Y-109.6
X144.58Y-33.03
X144.58Y-82.03
X145.99Y-35.96
X145.99Y-84.96
X150.75Y-37.191
X150.75Y-86.191
X150.85Y-43.18
X150.85Y-92.18
X151.38Y-32.62
X151.38Y-81.62
X151.42Y-47.74
X151.42Y-96.74
X151.88Y-55.261
X151.88Y-104.26
X152.56Y-71.221
X152.56Y-120.221
X152.61Y-50.941
X152.61Y-99.941
X153.475Y-38.25
X153.475Y-87.251
X155.2Y-31.0
X155.2Y-80.001
X155.99Y-55.8
X155.99Y-104.8
X156.2Y-60.4
X156.2Y-109.4
X156.35Y-52.42
X156.35Y-101.42
X157.57Y-71.84
X157.57Y-120.84
X157.6Y-67.13
X157.6Y-116.13
X159.0Y-43.43
X159.0Y-92.43
X159.2Y-30.92
X159.2Y-79.92
X159.85Y-42.41
X159.85Y-91.41
X159.88Y-40.91
X159.88Y-89.91
X160.32Y-52.35
X160.32Y-101.35
X160.4Y-55.0
X160.4Y-104.001
X160.44Y-45.39
X160.44Y-94.39
X160.48Y-48.74
X160.48Y-97.74
X161.55Y-40.011
X161.55Y-89.01
X162.49Y-57.67
X162.49Y-106.67
X163.09Y-39.96
X163.09Y-88.96
X163.73Y-71.98
X163.73Y-120.98
X163.79Y-67.56
X163.79Y-116.56
X164.42Y-39.99
X164.42Y-88.99
X164.97Y-58.82
X164.97Y-107.82
X165.03Y-46.93
X165.03Y-95.93
X165.08Y-49.16
X165.08Y-98.16
X165.2Y-52.41
X165.2Y-101.41
X165.57Y-46.07
X165.57Y-95.07
X165.79Y-40.011
X165.79Y-89.01
X165.94Y-41.21
X165.94Y-90.21
X166.06Y-71.081
X166.06Y-120.081
X166.24Y-42.43
X166.24Y-91.43
X166.7Y-45.17
X166.7Y-94.17
X167.6Y-61.2
X167.6Y-110.2
X168.28Y-47.14
X168.28Y-96.14
X168.29Y-42.95
X168.29Y-91.95
X168.31Y-51.16
X168.31Y-100.16
X168.98Y-43.261
X168.98Y-92.26
X169.02Y-39.37
X169.02Y-88.37
X169.42Y-58.34
X169.42Y-107.34
X169.93Y-50.5
X169.93Y-99.501
X170.19Y-41.03
X170.19Y-90.03
X170.52Y-39.7
X170.52Y-88.7
X170.72Y-65.331
X170.72Y-114.331
X170.85Y-71.38
X170.85Y-120.38
X171.45Y-43.401
X171.45Y-92.4
X172.4Y-43.49
X172.4Y-92.49
X172.95Y-47.026
X172.95Y-96.025
X173.28Y-48.901
X173.28Y-97.9
X173.38Y-52.49
X173.38Y-101.49
X173.44Y-39.43
X173.44Y-88.43
X174.45Y-39.62
X174.45Y-88.62
X174.97Y-43.401
X174.97Y-92.4
X175.25Y-45.87
X175.25Y-94.87
X175.6Y-62.0
X175.6Y-111.0
X176.24Y-55.77
X176.24Y-104.77
X176.3Y-39.71
X176.3Y-88.71
X176.6Y-47.17
X176.6Y-96.17
X176.82Y-72.111
X176.82Y-121.11
X176.91Y-51.32
X176.91Y-100.32
X177.12Y-39.66
X177.12Y-88.66
X177.43Y-43.37
X177.43Y-92.37
X177.44Y-59.64
X177.44Y-108.64
X177.51Y-55.8
X177.51Y-104.8
X177.76Y-46.14
X177.76Y-95.14
X178.01Y-39.78
X178.01Y-88.78
X178.8Y-39.7
X178.8Y-88.7
X179.27Y-43.2
X179.27Y-92.2
X179.43Y-49.92
X179.43Y-98.92
X179.5Y-39.64
X179.5Y-88.641
X180.17Y-39.89
X180.17Y-88.891
X180.25Y-68.48
X180.25Y-117.48
X180.32Y-46.62
X180.32Y-95.62
X181.3Y-30.601
X181.3Y-79.6
X181.35Y-53.95
X181.35Y-102.95
X181.41Y-50.63
X181.41Y-99.63
X181.89Y-40.081
X181.89Y-89.081
X182.6Y-45.84
X182.6Y-94.84
X182.61Y-33.761
X182.61Y-42.12
X182.61Y-82.76
X182.61Y-91.12
X182.69Y-37.68
X182.69Y-86.68
X182.99Y-72.18
X182.99Y-121.18
X183.65Y-37.41
X183.65Y-86.41
X184.16Y-58.82
X184.16Y-107.82
X184.62Y-40.61
X184.62Y-89.611
X185.24Y-30.48
X185.24Y-79.48
X185.58Y-35.651
X185.58Y-84.65
X185.73Y-68.62
X185.73Y-117.62
X186.01Y-54.43
X186.01Y-103.43
X187.1Y-43.12
X187.1Y-92.12
X187.45Y-46.21
X187.45Y-95.21
X188.27Y-72.18
X188.27Y-121.18
X188.41Y-68.82
X188.41Y-117.82
X188.61Y-50.8
X188.61Y-99.8
X189.02Y-60.6
X189.02Y-109.6
X189.08Y-33.03
X189.08Y-82.03
X190.49Y-35.96
X190.49Y-84.96
X195.25Y-37.191
X195.25Y-86.191
X195.35Y-43.18
X195.35Y-92.18
X195.88Y-32.62
X195.88Y-81.62
X195.92Y-47.74
X195.92Y-96.74
X196.38Y-55.261
X196.38Y-104.26
X197.06Y-71.221
X197.06Y-120.221
X197.11Y-50.941
X197.11Y-99.941
X197.975Y-38.25
X197.975Y-87.251
X199.7Y-31.0
X199.7Y-80.001
X200.49Y-55.8
X200.49Y-104.8
X200.7Y-60.4
X200.7Y-109.4
X200.85Y-52.42
X200.85Y-101.42
X202.07Y-71.84
X202.07Y-120.84
X202.1Y-67.13
X202.1Y-116.13
X203.5Y-43.43
X203.5Y-92.43
X203.7Y-30.92
X203.7Y-79.92
X204.35Y-42.41
X204.35Y-91.41
X204.38Y-40.91
X204.38Y-89.91
X204.82Y-52.35
X204.82Y-101.35
X204.9Y-55.0
X204.9Y-104.001
X204.94Y-45.39
X204.94Y-94.39
X204.98Y-48.74
X204.98Y-97.74
X206.05Y-40.011
X206.05Y-89.01
X206.99Y-57.67
X206.99Y-106.67
X207.59Y-39.96
X207.59Y-88.96
X208.23Y-71.98
X208.23Y-120.98
X208.29Y-67.56
X208.29Y-116.56
X208.92Y-39.99
X208.92Y-88.99
X209.47Y-58.82
X209.47Y-107.82
X209.53Y-46.93
X209.53Y-95.93
X209.58Y-49.16
X209.58Y-98.16
X209.7Y-52.41
X209.7Y-101.41
X210.07Y-46.07
X210.07Y-95.07
X210.29Y-40.011
X210.29Y-89.01
X210.44Y-41.21
X210.44Y-90.21
X210.56Y-71.081
X210.56Y-120.081
X210.74Y-42.43
X210.74Y-91.43
X211.2Y-45.17
X211.2Y-94.17
X212.1Y-61.2
X212.1Y-110.2
X212.78Y-47.14
X212.78Y-96.14
X212.79Y-42.95
X212.79Y-91.95
X212.81Y-51.16
X212.81Y-100.16
X213.48Y-43.261
X213.48Y-92.26
X213.52Y-39.37
X213.52Y-88.37
X213.92Y-58.34
X213.92Y-107.34
X214.43Y-50.5
X214.43Y-99.501
X214.69Y-41.03
X214.69Y-90.03
X215.02Y-39.7
X215.02Y-88.7
X215.22Y-65.331
X215.22Y-114.331
X215.35Y-71.38
X215.35Y-120.38
X215.95Y-43.401
X215.95Y-92.4
X216.9Y-43.49
X216.9Y-92.49
X217.45Y-47.026
X217.45Y-96.025
X217.78Y-48.901
X217.78Y-97.9
X217.88Y-52.49
X217.88Y-101.49
X217.94Y-39.43
X217.94Y-88.43
X218.95Y-39.62
X218.95Y-88.62
X219.47Y-43.401
X219.47Y-92.4
X219.75Y-45.87
X219.75Y-94.87
X220.1Y-62.0
X220.1Y-111.0
X220.74Y-55.77
X220.74Y-104.77
X220.8Y-39.71
X220.8Y-88.71
X221.1Y-47.17
X221.1Y-96.17
X221.32Y-72.111
X221.32Y-121.11
X221.41Y-51.32
X221.41Y-100.32
X221.62Y-39.66
X221.62Y-88.66
X221.93Y-43.37
X221.93Y-92.37
X221.94Y-59.64
X221.94Y-108.64
X222.01Y-55.8
X222.01Y-104.8
X222.26Y-46.14
X222.26Y-95.14
X222.51Y-39.78
X222.51Y-88.78
X223.3Y-39.7
X223.3Y-88.7
X223.77Y-43.2
X223.77Y-92.2
X223.93Y-49.92
X223.93Y-98.92
X224.0Y-39.64
X224.0Y-88.641
X224.67Y-39.89
X224.67Y-88.891
X224.75Y-68.48
X224.75Y-117.48
X224.82Y-46.62
X224.82Y-95.62
X225.8Y-30.601
X225.8Y-79.6
X225.85Y-53.95
X225.85Y-102.95
X225.91Y-50.63
X225.91Y-99.63
X226.39Y-40.081
X226.39Y-89.081
X227.1Y-45.84
X227.1Y-94.84
X227.11Y-33.761
X227.11Y-42.12
X227.11Y-82.76
X227.11Y-91.12
X227.19Y-37.68
X227.19Y-86.68
X227.49Y-72.18
X227.49Y-121.18
X228.15Y-37.41
X228.15Y-86.41
X228.66Y-58.82
X228.66Y-107.82
X229.12Y-40.61
X229.12Y-89.611
X229.74Y-30.48
X229.74Y-79.48
X230.08Y-35.651
X230.08Y-84.65
X230.23Y-68.62
X230.23Y-117.62
X230.51Y-54.43
X230.51Y-103.43
X231.6Y-43.12
X231.6Y-92.12
X231.95Y-46.21
X231.95Y-95.21
X232.77Y-72.18
X232.77Y-121.18
X232.91Y-68.82
X232.91Y-117.82
X233.11Y-50.8
X233.11Y-99.8
X233.52Y-60.6
X233.52Y-109.6
X233.58Y-33.03
X233.58Y-82.03
X234.99Y-35.96
X234.99Y-84.96
T2
X101.145Y-39.5
X101.145Y-42.041
X101.145Y-44.581
X101.145Y-47.12
X101.145Y-49.66
X101.145Y-52.2
X101.145Y-54.74
X101.145Y-57.28
X101.145Y-88.501
X101.145Y-91.04
X101.145Y-93.581
X101.145Y-96.12
X101.145Y-98.66
X101.145Y-101.2
X101.145Y-103.74
X101.145Y-106.28
X145.645Y-39.5
X145.645Y-42.041
X145.645Y-44.581
X145.645Y-47.12
X145.645Y-49.66
X145.645Y-52.2
X145.645Y-54.74
X145.645Y-57.28
X145.645Y-88.501
X145.645Y-91.04
X145.645Y-93.581
X145.645Y-96.12
X145.645Y-98.66
X145.645Y-101.2
X145.645Y-103.74
X145.645Y-106.28
X190.145Y-39.5
X190.145Y-42.041
X190.145Y-44.581
X190.145Y-47.12
X190.145Y-49.66
X190.145Y-52.2
X190.145Y-54.74
X190.145Y-57.28
X190.145Y-88.501
X190.145Y-91.04
X190.145Y-93.581
X190.145Y-96.12
X190.145Y-98.66
X190.145Y-101.2
X190.145Y-103.74
X190.145Y-106.28
X234.645Y-39.5
X234.645Y-42.041
X234.645Y-44.581
X234.645Y-47.12
X234.645Y-49.66
X234.645Y-52.2
X234.645Y-54.74
X234.645Y-57.28
X234.645Y-88.501
X234.645Y-91.04
X234.645Y-93.581
X234.645Y-96.12
X234.645Y-98.66
X234.645Y-101.2
X234.645Y-103.74
X234.645Y-106.28
T3
X67.225Y-68.8
X67.225Y-117.8
X72.225Y-70.9
X72.225Y-119.9
X86.5Y-68.8
X86.5Y-117.8
X91.5Y-70.9
X91.5Y-119.9
X111.725Y-68.8
X111.725Y-117.8
X116.725Y-70.9
X116.725Y-119.9
X131.0Y-68.8
X131.0Y-117.8
X136.0Y-70.9
X136.0Y-119.9
X156.225Y-68.8
X156.225Y-117.8
X161.225Y-70.9
X161.225Y-119.9
X175.5Y-68.8
X175.5Y-117.8
X180.5Y-70.9
X180.5Y-119.9
X200.725Y-68.8
X200.725Y-117.8
X205.725Y-70.9
X205.725Y-119.9
X220.0Y-68.8
X220.0Y-117.8
X225.0Y-70.9
X225.0Y-119.9
M30
