%TF.GenerationSoftware,KiCad,Pcbnew,9.0.2*%
%TF.CreationDate,2025-05-31T14:25:58+01:00*%
%TF.ProjectId,Bongo-Cat-Fidget-Toy,426f6e67-6f2d-4436-9174-2d4669646765,rev?*%
%TF.SameCoordinates,Original*%
%TF.FileFunction,Soldermask,Bot*%
%TF.FilePolarity,Negative*%
%FSLAX46Y46*%
G04 Gerber Fmt 4.6, Leading zero omitted, Abs format (unit mm)*
G04 Created by KiCad (PCBNEW 9.0.2) date 2025-05-31 14:25:58*
%MOMM*%
%LPD*%
G01*
G04 APERTURE LIST*
G04 Aperture macros list*
%AMRoundRect*
0 Rectangle with rounded corners*
0 $1 Rounding radius*
0 $2 $3 $4 $5 $6 $7 $8 $9 X,Y pos of 4 corners*
0 Add a 4 corners polygon primitive as box body*
4,1,4,$2,$3,$4,$5,$6,$7,$8,$9,$2,$3,0*
0 Add four circle primitives for the rounded corners*
1,1,$1+$1,$2,$3*
1,1,$1+$1,$4,$5*
1,1,$1+$1,$6,$7*
1,1,$1+$1,$8,$9*
0 Add four rect primitives between the rounded corners*
20,1,$1+$1,$2,$3,$4,$5,0*
20,1,$1+$1,$4,$5,$6,$7,0*
20,1,$1+$1,$6,$7,$8,$9,0*
20,1,$1+$1,$8,$9,$2,$3,0*%
G04 Aperture macros list end*
%ADD10R,1.700000X1.700000*%
%ADD11C,1.700000*%
%ADD12C,1.900000*%
%ADD13C,3.450000*%
%ADD14C,2.200000*%
%ADD15R,4.200000X3.800000*%
%ADD16RoundRect,0.100000X0.100000X-2.900000X0.100000X2.900000X-0.100000X2.900000X-0.100000X-2.900000X0*%
%ADD17RoundRect,0.102000X0.325000X-0.525000X0.325000X0.525000X-0.325000X0.525000X-0.325000X-0.525000X0*%
G04 APERTURE END LIST*
D10*
%TO.C,J2*%
X234645000Y-49660500D03*
D11*
X234645000Y-52200500D03*
X234645000Y-54740500D03*
X234645000Y-57280500D03*
%TD*%
D10*
%TO.C,J3*%
X145645000Y-88500500D03*
D11*
X145645000Y-91040500D03*
X145645000Y-93580500D03*
X145645000Y-96120500D03*
%TD*%
D10*
%TO.C,J2*%
X190145000Y-49660500D03*
D11*
X190145000Y-52200500D03*
X190145000Y-54740500D03*
X190145000Y-57280500D03*
%TD*%
D12*
%TO.C,SW1*%
X77725000Y-65000500D03*
D13*
X72225000Y-65000500D03*
D12*
X66725000Y-65000500D03*
D14*
X72225000Y-70900500D03*
X67225000Y-68800500D03*
%TD*%
D12*
%TO.C,SW1*%
X211225000Y-114000500D03*
D13*
X205725000Y-114000500D03*
D12*
X200225000Y-114000500D03*
D14*
X205725000Y-119900500D03*
X200725000Y-117800500D03*
%TD*%
D10*
%TO.C,J3*%
X190145000Y-39500500D03*
D11*
X190145000Y-42040500D03*
X190145000Y-44580500D03*
X190145000Y-47120500D03*
%TD*%
D10*
%TO.C,J3*%
X234645000Y-88500500D03*
D11*
X234645000Y-91040500D03*
X234645000Y-93580500D03*
X234645000Y-96120500D03*
%TD*%
D12*
%TO.C,SW2*%
X141500000Y-65000500D03*
D13*
X136000000Y-65000500D03*
D12*
X130500000Y-65000500D03*
D14*
X136000000Y-70900500D03*
X131000000Y-68800500D03*
%TD*%
D10*
%TO.C,J3*%
X190145000Y-88500500D03*
D11*
X190145000Y-91040500D03*
X190145000Y-93580500D03*
X190145000Y-96120500D03*
%TD*%
D10*
%TO.C,J2*%
X190145000Y-98660500D03*
D11*
X190145000Y-101200500D03*
X190145000Y-103740500D03*
X190145000Y-106280500D03*
%TD*%
D12*
%TO.C,SW2*%
X97000000Y-114000500D03*
D13*
X91500000Y-114000500D03*
D12*
X86000000Y-114000500D03*
D14*
X91500000Y-119900500D03*
X86500000Y-117800500D03*
%TD*%
D10*
%TO.C,J3*%
X101145000Y-88500500D03*
D11*
X101145000Y-91040500D03*
X101145000Y-93580500D03*
X101145000Y-96120500D03*
%TD*%
D10*
%TO.C,J2*%
X145645000Y-49660500D03*
D11*
X145645000Y-52200500D03*
X145645000Y-54740500D03*
X145645000Y-57280500D03*
%TD*%
D12*
%TO.C,SW2*%
X230500000Y-65000500D03*
D13*
X225000000Y-65000500D03*
D12*
X219500000Y-65000500D03*
D14*
X225000000Y-70900500D03*
X220000000Y-68800500D03*
%TD*%
D12*
%TO.C,SW1*%
X166725000Y-114000500D03*
D13*
X161225000Y-114000500D03*
D12*
X155725000Y-114000500D03*
D14*
X161225000Y-119900500D03*
X156225000Y-117800500D03*
%TD*%
D10*
%TO.C,J3*%
X101145000Y-39500500D03*
D11*
X101145000Y-42040500D03*
X101145000Y-44580500D03*
X101145000Y-47120500D03*
%TD*%
D12*
%TO.C,SW1*%
X122225000Y-114000500D03*
D13*
X116725000Y-114000500D03*
D12*
X111225000Y-114000500D03*
D14*
X116725000Y-119900500D03*
X111725000Y-117800500D03*
%TD*%
D12*
%TO.C,SW1*%
X122225000Y-65000500D03*
D13*
X116725000Y-65000500D03*
D12*
X111225000Y-65000500D03*
D14*
X116725000Y-70900500D03*
X111725000Y-68800500D03*
%TD*%
D10*
%TO.C,J2*%
X234645000Y-98660500D03*
D11*
X234645000Y-101200500D03*
X234645000Y-103740500D03*
X234645000Y-106280500D03*
%TD*%
D12*
%TO.C,SW2*%
X230500000Y-114000500D03*
D13*
X225000000Y-114000500D03*
D12*
X219500000Y-114000500D03*
D14*
X225000000Y-119900500D03*
X220000000Y-117800500D03*
%TD*%
D10*
%TO.C,J2*%
X145645000Y-98660500D03*
D11*
X145645000Y-101200500D03*
X145645000Y-103740500D03*
X145645000Y-106280500D03*
%TD*%
D10*
%TO.C,J3*%
X145645000Y-39500500D03*
D11*
X145645000Y-42040500D03*
X145645000Y-44580500D03*
X145645000Y-47120500D03*
%TD*%
D12*
%TO.C,SW2*%
X141500000Y-114000500D03*
D13*
X136000000Y-114000500D03*
D12*
X130500000Y-114000500D03*
D14*
X136000000Y-119900500D03*
X131000000Y-117800500D03*
%TD*%
D10*
%TO.C,J3*%
X234645000Y-39500500D03*
D11*
X234645000Y-42040500D03*
X234645000Y-44580500D03*
X234645000Y-47120500D03*
%TD*%
D12*
%TO.C,SW2*%
X97000000Y-65000500D03*
D13*
X91500000Y-65000500D03*
D12*
X86000000Y-65000500D03*
D14*
X91500000Y-70900500D03*
X86500000Y-68800500D03*
%TD*%
D12*
%TO.C,SW1*%
X211225000Y-65000500D03*
D13*
X205725000Y-65000500D03*
D12*
X200225000Y-65000500D03*
D14*
X205725000Y-70900500D03*
X200725000Y-68800500D03*
%TD*%
D12*
%TO.C,SW1*%
X166725000Y-65000500D03*
D13*
X161225000Y-65000500D03*
D12*
X155725000Y-65000500D03*
D14*
X161225000Y-70900500D03*
X156225000Y-68800500D03*
%TD*%
D12*
%TO.C,SW2*%
X186000000Y-65000500D03*
D13*
X180500000Y-65000500D03*
D12*
X175000000Y-65000500D03*
D14*
X180500000Y-70900500D03*
X175500000Y-68800500D03*
%TD*%
D12*
%TO.C,SW1*%
X77725000Y-114000500D03*
D13*
X72225000Y-114000500D03*
D12*
X66725000Y-114000500D03*
D14*
X72225000Y-119900500D03*
X67225000Y-117800500D03*
%TD*%
D12*
%TO.C,SW2*%
X186000000Y-114000500D03*
D13*
X180500000Y-114000500D03*
D12*
X175000000Y-114000500D03*
D14*
X180500000Y-119900500D03*
X175500000Y-117800500D03*
%TD*%
D10*
%TO.C,J2*%
X101145000Y-49660500D03*
D11*
X101145000Y-52200500D03*
X101145000Y-54740500D03*
X101145000Y-57280500D03*
%TD*%
D10*
%TO.C,J2*%
X101145000Y-98660500D03*
D11*
X101145000Y-101200500D03*
X101145000Y-103740500D03*
X101145000Y-106280500D03*
%TD*%
D15*
%TO.C,BT1*%
X200860000Y-98370500D03*
X229640000Y-98370500D03*
%TD*%
%TO.C,BT1*%
X156360000Y-98370500D03*
X185140000Y-98370500D03*
%TD*%
%TO.C,BT1*%
X156360000Y-49370500D03*
X185140000Y-49370500D03*
%TD*%
D16*
%TO.C,J1*%
X91900000Y-35000500D03*
X91200000Y-35000500D03*
X90500000Y-35000500D03*
X89800000Y-35000500D03*
X89100000Y-35000500D03*
X88400000Y-35000500D03*
X87700000Y-35000500D03*
X87000000Y-35000500D03*
X86300000Y-35000500D03*
X85600000Y-35000500D03*
X84900000Y-35000500D03*
X84200000Y-35000500D03*
X83500000Y-35000500D03*
X82800000Y-35000500D03*
X82100000Y-35000500D03*
X81400000Y-35000500D03*
X80700000Y-35000500D03*
X80000000Y-35000500D03*
X79300000Y-35000500D03*
X78600000Y-35000500D03*
X77900000Y-35000500D03*
X77200000Y-35000500D03*
X76500000Y-35000500D03*
X75800000Y-35000500D03*
X75100000Y-35000500D03*
X74400000Y-35000500D03*
X73700000Y-35000500D03*
X73000000Y-35000500D03*
X72300000Y-35000500D03*
X71600000Y-35000500D03*
%TD*%
D17*
%TO.C,SW3*%
X97815000Y-37775349D03*
X97815000Y-33625349D03*
X95665000Y-37775349D03*
X95665000Y-33625349D03*
%TD*%
D16*
%TO.C,J1*%
X180900000Y-84000500D03*
X180200000Y-84000500D03*
X179500000Y-84000500D03*
X178800000Y-84000500D03*
X178100000Y-84000500D03*
X177400000Y-84000500D03*
X176700000Y-84000500D03*
X176000000Y-84000500D03*
X175300000Y-84000500D03*
X174600000Y-84000500D03*
X173900000Y-84000500D03*
X173200000Y-84000500D03*
X172500000Y-84000500D03*
X171800000Y-84000500D03*
X171100000Y-84000500D03*
X170400000Y-84000500D03*
X169700000Y-84000500D03*
X169000000Y-84000500D03*
X168300000Y-84000500D03*
X167600000Y-84000500D03*
X166900000Y-84000500D03*
X166200000Y-84000500D03*
X165500000Y-84000500D03*
X164800000Y-84000500D03*
X164100000Y-84000500D03*
X163400000Y-84000500D03*
X162700000Y-84000500D03*
X162000000Y-84000500D03*
X161300000Y-84000500D03*
X160600000Y-84000500D03*
%TD*%
D17*
%TO.C,SW3*%
X231315000Y-37775349D03*
X231315000Y-33625349D03*
X229165000Y-37775349D03*
X229165000Y-33625349D03*
%TD*%
%TO.C,SW3*%
X142315000Y-86775349D03*
X142315000Y-82625349D03*
X140165000Y-86775349D03*
X140165000Y-82625349D03*
%TD*%
%TO.C,SW3*%
X142315000Y-37775349D03*
X142315000Y-33625349D03*
X140165000Y-37775349D03*
X140165000Y-33625349D03*
%TD*%
D15*
%TO.C,BT1*%
X67360000Y-49370500D03*
X96140000Y-49370500D03*
%TD*%
D16*
%TO.C,J1*%
X91900000Y-84000500D03*
X91200000Y-84000500D03*
X90500000Y-84000500D03*
X89800000Y-84000500D03*
X89100000Y-84000500D03*
X88400000Y-84000500D03*
X87700000Y-84000500D03*
X87000000Y-84000500D03*
X86300000Y-84000500D03*
X85600000Y-84000500D03*
X84900000Y-84000500D03*
X84200000Y-84000500D03*
X83500000Y-84000500D03*
X82800000Y-84000500D03*
X82100000Y-84000500D03*
X81400000Y-84000500D03*
X80700000Y-84000500D03*
X80000000Y-84000500D03*
X79300000Y-84000500D03*
X78600000Y-84000500D03*
X77900000Y-84000500D03*
X77200000Y-84000500D03*
X76500000Y-84000500D03*
X75800000Y-84000500D03*
X75100000Y-84000500D03*
X74400000Y-84000500D03*
X73700000Y-84000500D03*
X73000000Y-84000500D03*
X72300000Y-84000500D03*
X71600000Y-84000500D03*
%TD*%
%TO.C,J1*%
X136400000Y-84000500D03*
X135700000Y-84000500D03*
X135000000Y-84000500D03*
X134300000Y-84000500D03*
X133600000Y-84000500D03*
X132900000Y-84000500D03*
X132200000Y-84000500D03*
X131500000Y-84000500D03*
X130800000Y-84000500D03*
X130100000Y-84000500D03*
X129400000Y-84000500D03*
X128700000Y-84000500D03*
X128000000Y-84000500D03*
X127300000Y-84000500D03*
X126600000Y-84000500D03*
X125900000Y-84000500D03*
X125200000Y-84000500D03*
X124500000Y-84000500D03*
X123800000Y-84000500D03*
X123100000Y-84000500D03*
X122400000Y-84000500D03*
X121700000Y-84000500D03*
X121000000Y-84000500D03*
X120300000Y-84000500D03*
X119600000Y-84000500D03*
X118900000Y-84000500D03*
X118200000Y-84000500D03*
X117500000Y-84000500D03*
X116800000Y-84000500D03*
X116100000Y-84000500D03*
%TD*%
D15*
%TO.C,BT1*%
X200860000Y-49370500D03*
X229640000Y-49370500D03*
%TD*%
D17*
%TO.C,SW3*%
X97815000Y-86775349D03*
X97815000Y-82625349D03*
X95665000Y-86775349D03*
X95665000Y-82625349D03*
%TD*%
%TO.C,SW3*%
X231315000Y-86775349D03*
X231315000Y-82625349D03*
X229165000Y-86775349D03*
X229165000Y-82625349D03*
%TD*%
%TO.C,SW3*%
X186815000Y-37775349D03*
X186815000Y-33625349D03*
X184665000Y-37775349D03*
X184665000Y-33625349D03*
%TD*%
%TO.C,SW3*%
X186815000Y-86775349D03*
X186815000Y-82625349D03*
X184665000Y-86775349D03*
X184665000Y-82625349D03*
%TD*%
D15*
%TO.C,BT1*%
X111860000Y-98370500D03*
X140640000Y-98370500D03*
%TD*%
D16*
%TO.C,J1*%
X225400000Y-35000500D03*
X224700000Y-35000500D03*
X224000000Y-35000500D03*
X223300000Y-35000500D03*
X222600000Y-35000500D03*
X221900000Y-35000500D03*
X221200000Y-35000500D03*
X220500000Y-35000500D03*
X219800000Y-35000500D03*
X219100000Y-35000500D03*
X218400000Y-35000500D03*
X217700000Y-35000500D03*
X217000000Y-35000500D03*
X216300000Y-35000500D03*
X215600000Y-35000500D03*
X214900000Y-35000500D03*
X214200000Y-35000500D03*
X213500000Y-35000500D03*
X212800000Y-35000500D03*
X212100000Y-35000500D03*
X211400000Y-35000500D03*
X210700000Y-35000500D03*
X210000000Y-35000500D03*
X209300000Y-35000500D03*
X208600000Y-35000500D03*
X207900000Y-35000500D03*
X207200000Y-35000500D03*
X206500000Y-35000500D03*
X205800000Y-35000500D03*
X205100000Y-35000500D03*
%TD*%
D15*
%TO.C,BT1*%
X67360000Y-98370500D03*
X96140000Y-98370500D03*
%TD*%
D16*
%TO.C,J1*%
X136400000Y-35000500D03*
X135700000Y-35000500D03*
X135000000Y-35000500D03*
X134300000Y-35000500D03*
X133600000Y-35000500D03*
X132900000Y-35000500D03*
X132200000Y-35000500D03*
X131500000Y-35000500D03*
X130800000Y-35000500D03*
X130100000Y-35000500D03*
X129400000Y-35000500D03*
X128700000Y-35000500D03*
X128000000Y-35000500D03*
X127300000Y-35000500D03*
X126600000Y-35000500D03*
X125900000Y-35000500D03*
X125200000Y-35000500D03*
X124500000Y-35000500D03*
X123800000Y-35000500D03*
X123100000Y-35000500D03*
X122400000Y-35000500D03*
X121700000Y-35000500D03*
X121000000Y-35000500D03*
X120300000Y-35000500D03*
X119600000Y-35000500D03*
X118900000Y-35000500D03*
X118200000Y-35000500D03*
X117500000Y-35000500D03*
X116800000Y-35000500D03*
X116100000Y-35000500D03*
%TD*%
%TO.C,J1*%
X180900000Y-35000500D03*
X180200000Y-35000500D03*
X179500000Y-35000500D03*
X178800000Y-35000500D03*
X178100000Y-35000500D03*
X177400000Y-35000500D03*
X176700000Y-35000500D03*
X176000000Y-35000500D03*
X175300000Y-35000500D03*
X174600000Y-35000500D03*
X173900000Y-35000500D03*
X173200000Y-35000500D03*
X172500000Y-35000500D03*
X171800000Y-35000500D03*
X171100000Y-35000500D03*
X170400000Y-35000500D03*
X169700000Y-35000500D03*
X169000000Y-35000500D03*
X168300000Y-35000500D03*
X167600000Y-35000500D03*
X166900000Y-35000500D03*
X166200000Y-35000500D03*
X165500000Y-35000500D03*
X164800000Y-35000500D03*
X164100000Y-35000500D03*
X163400000Y-35000500D03*
X162700000Y-35000500D03*
X162000000Y-35000500D03*
X161300000Y-35000500D03*
X160600000Y-35000500D03*
%TD*%
%TO.C,J1*%
X225400000Y-84000500D03*
X224700000Y-84000500D03*
X224000000Y-84000500D03*
X223300000Y-84000500D03*
X222600000Y-84000500D03*
X221900000Y-84000500D03*
X221200000Y-84000500D03*
X220500000Y-84000500D03*
X219800000Y-84000500D03*
X219100000Y-84000500D03*
X218400000Y-84000500D03*
X217700000Y-84000500D03*
X217000000Y-84000500D03*
X216300000Y-84000500D03*
X215600000Y-84000500D03*
X214900000Y-84000500D03*
X214200000Y-84000500D03*
X213500000Y-84000500D03*
X212800000Y-84000500D03*
X212100000Y-84000500D03*
X211400000Y-84000500D03*
X210700000Y-84000500D03*
X210000000Y-84000500D03*
X209300000Y-84000500D03*
X208600000Y-84000500D03*
X207900000Y-84000500D03*
X207200000Y-84000500D03*
X206500000Y-84000500D03*
X205800000Y-84000500D03*
X205100000Y-84000500D03*
%TD*%
D15*
%TO.C,BT1*%
X111860000Y-49370500D03*
X140640000Y-49370500D03*
%TD*%
M02*
